G04*
G04 #@! TF.GenerationSoftware,Altium Limited,Altium Designer,26.4.1 (12)*
G04*
G04 Layer_Physical_Order=1*
G04 Layer_Color=255*
%FSLAX44Y44*%
%MOMM*%
G71*
G04*
G04 #@! TF.SameCoordinates,BD5BABF8-3824-4924-9F89-2B5EB64A2FC9*
G04*
G04*
G04 #@! TF.FilePolarity,Positive*
G04*
G01*
G75*
%ADD12C,0.2540*%
%ADD17R,2.9908X1.1620*%
%ADD18R,1.3051X1.1062*%
%ADD19R,1.1062X1.3051*%
%ADD20R,0.9000X0.7500*%
%ADD21R,0.8000X0.9000*%
%ADD22R,1.4620X0.2794*%
%ADD23R,0.9000X0.8000*%
%ADD24R,0.7500X0.9000*%
%ADD25R,0.8000X0.9000*%
G04:AMPARAMS|DCode=26|XSize=1.21mm|YSize=0.48mm|CornerRadius=0.12mm|HoleSize=0mm|Usage=FLASHONLY|Rotation=180.000|XOffset=0mm|YOffset=0mm|HoleType=Round|Shape=RoundedRectangle|*
%AMROUNDEDRECTD26*
21,1,1.2100,0.2400,0,0,180.0*
21,1,0.9700,0.4800,0,0,180.0*
1,1,0.2400,-0.4850,0.1200*
1,1,0.2400,0.4850,0.1200*
1,1,0.2400,0.4850,-0.1200*
1,1,0.2400,-0.4850,-0.1200*
%
%ADD26ROUNDEDRECTD26*%
G04:AMPARAMS|DCode=27|XSize=1.21mm|YSize=0.58mm|CornerRadius=0.0725mm|HoleSize=0mm|Usage=FLASHONLY|Rotation=0.000|XOffset=0mm|YOffset=0mm|HoleType=Round|Shape=RoundedRectangle|*
%AMROUNDEDRECTD27*
21,1,1.2100,0.4350,0,0,0.0*
21,1,1.0650,0.5800,0,0,0.0*
1,1,0.1450,0.5325,-0.2175*
1,1,0.1450,-0.5325,-0.2175*
1,1,0.1450,-0.5325,0.2175*
1,1,0.1450,0.5325,0.2175*
%
%ADD27ROUNDEDRECTD27*%
%ADD28R,1.0587X1.0121*%
%ADD29R,0.2794X1.4620*%
%ADD30R,0.7103X0.8121*%
%ADD31R,0.9000X0.9000*%
%ADD32R,0.7500X0.9000*%
%ADD33R,1.1500X1.4000*%
%ADD34R,0.9000X0.7500*%
%ADD35R,1.4605X0.5334*%
%ADD36R,2.1844X2.1844*%
%ADD37R,1.6042X0.8798*%
G04:AMPARAMS|DCode=38|XSize=1.32mm|YSize=0.59mm|CornerRadius=0.0738mm|HoleSize=0mm|Usage=FLASHONLY|Rotation=90.000|XOffset=0mm|YOffset=0mm|HoleType=Round|Shape=RoundedRectangle|*
%AMROUNDEDRECTD38*
21,1,1.3200,0.4425,0,0,90.0*
21,1,1.1725,0.5900,0,0,90.0*
1,1,0.1475,0.2213,0.5863*
1,1,0.1475,0.2213,-0.5863*
1,1,0.1475,-0.2213,-0.5863*
1,1,0.1475,-0.2213,0.5863*
%
%ADD38ROUNDEDRECTD38*%
G04:AMPARAMS|DCode=39|XSize=0.55mm|YSize=1.25mm|CornerRadius=0.0495mm|HoleSize=0mm|Usage=FLASHONLY|Rotation=180.000|XOffset=0mm|YOffset=0mm|HoleType=Round|Shape=RoundedRectangle|*
%AMROUNDEDRECTD39*
21,1,0.5500,1.1510,0,0,180.0*
21,1,0.4510,1.2500,0,0,180.0*
1,1,0.0990,-0.2255,0.5755*
1,1,0.0990,0.2255,0.5755*
1,1,0.0990,0.2255,-0.5755*
1,1,0.0990,-0.2255,-0.5755*
%
%ADD39ROUNDEDRECTD39*%
%ADD40R,1.7000X2.5000*%
G04:AMPARAMS|DCode=41|XSize=1.32mm|YSize=0.59mm|CornerRadius=0.0738mm|HoleSize=0mm|Usage=FLASHONLY|Rotation=0.000|XOffset=0mm|YOffset=0mm|HoleType=Round|Shape=RoundedRectangle|*
%AMROUNDEDRECTD41*
21,1,1.3200,0.4425,0,0,0.0*
21,1,1.1725,0.5900,0,0,0.0*
1,1,0.1475,0.5863,-0.2213*
1,1,0.1475,-0.5863,-0.2213*
1,1,0.1475,-0.5863,0.2213*
1,1,0.1475,0.5863,0.2213*
%
%ADD41ROUNDEDRECTD41*%
%ADD42R,2.5000X1.7000*%
%ADD43R,1.4000X1.0000*%
G04:AMPARAMS|DCode=44|XSize=1.6042mm|YSize=0.8798mm|CornerRadius=0.4399mm|HoleSize=0mm|Usage=FLASHONLY|Rotation=180.000|XOffset=0mm|YOffset=0mm|HoleType=Round|Shape=RoundedRectangle|*
%AMROUNDEDRECTD44*
21,1,1.6042,0.0000,0,0,180.0*
21,1,0.7244,0.8798,0,0,180.0*
1,1,0.8798,-0.3622,0.0000*
1,1,0.8798,0.3622,0.0000*
1,1,0.8798,0.3622,0.0000*
1,1,0.8798,-0.3622,0.0000*
%
%ADD44ROUNDEDRECTD44*%
G04:AMPARAMS|DCode=45|XSize=1.6042mm|YSize=3.1798mm|CornerRadius=0.4411mm|HoleSize=0mm|Usage=FLASHONLY|Rotation=180.000|XOffset=0mm|YOffset=0mm|HoleType=Round|Shape=RoundedRectangle|*
%AMROUNDEDRECTD45*
21,1,1.6042,2.2975,0,0,180.0*
21,1,0.7219,3.1798,0,0,180.0*
1,1,0.8823,-0.3609,1.1488*
1,1,0.8823,0.3609,1.1488*
1,1,0.8823,0.3609,-1.1488*
1,1,0.8823,-0.3609,-1.1488*
%
%ADD45ROUNDEDRECTD45*%
%ADD46R,0.9000X0.8000*%
%ADD47R,0.5000X0.9000*%
%ADD48R,0.9500X1.7000*%
%ADD49R,0.7556X0.8121*%
%ADD50R,1.0000X1.0000*%
%ADD51R,1.1556X1.0121*%
%ADD52R,0.8121X0.7556*%
%ADD53R,3.4798X2.1082*%
%ADD56O,3.0160X1.5080*%
%ADD57C,1.8000*%
%ADD58C,1.5240*%
%ADD59C,1.4000*%
%ADD60C,1.5080*%
%ADD61C,2.0000*%
%ADD62C,1.9000*%
%ADD63C,0.6000*%
%ADD64C,2.0100*%
%ADD65R,1.4000X1.4000*%
%ADD66C,1.9950*%
%ADD67R,1.5080X1.5080*%
%ADD68O,2.3000X4.6000*%
%ADD69C,0.7000*%
%ADD70R,0.3556X1.6764*%
%ADD71C,1.0160*%
%ADD72C,0.5080*%
G36*
X203000Y900681D02*
X205347Y901653D01*
X233000Y874000D01*
X235363D01*
Y869624D01*
X225154D01*
Y870517D01*
X207549D01*
Y862183D01*
X222521D01*
X229376Y855328D01*
Y851673D01*
X222821Y845117D01*
X207549D01*
Y836783D01*
X225154D01*
Y837376D01*
X234969D01*
Y835980D01*
X249031D01*
Y837376D01*
X255000D01*
X256148Y837852D01*
X265460Y847164D01*
X268000Y846420D01*
Y807824D01*
X268000Y807824D01*
X266919Y807609D01*
X266003Y806997D01*
X266003Y806997D01*
X263006Y804000D01*
X157138D01*
X156166Y806347D01*
X159789Y809969D01*
X170014D01*
Y824031D01*
X166048D01*
Y836783D01*
X170671D01*
Y845117D01*
X153066D01*
Y836783D01*
X157809D01*
Y824031D01*
X153963D01*
Y815794D01*
X142169Y804000D01*
X75119D01*
Y816940D01*
X89899D01*
Y818848D01*
X102496D01*
X103644Y819324D01*
X104120Y820472D01*
Y887528D01*
X104716Y888421D01*
X134650D01*
X135048Y888500D01*
X137172D01*
X137570Y888421D01*
X142037D01*
X146652Y883805D01*
X146416Y883279D01*
X145155Y881711D01*
X144583Y881824D01*
X144583Y881824D01*
X142110D01*
Y884500D01*
X130110D01*
Y873500D01*
X142110D01*
Y873887D01*
X144650Y874939D01*
X153066Y866523D01*
Y862183D01*
X170671D01*
Y870517D01*
X157060D01*
X155234Y872343D01*
X156286Y874883D01*
X170671D01*
Y883217D01*
X158891D01*
X146656Y895453D01*
X145319Y896346D01*
X143743Y896659D01*
X142110D01*
Y899500D01*
X130110D01*
Y896659D01*
X88206D01*
X86629Y896346D01*
X85293Y895453D01*
X81954Y892114D01*
X81250Y891060D01*
X52101D01*
Y889152D01*
X39504D01*
X38356Y888676D01*
X37880Y887528D01*
Y820472D01*
X38356Y819324D01*
X39504Y818848D01*
X52101D01*
Y816940D01*
X66881D01*
Y804000D01*
X22000D01*
Y904000D01*
X203000D01*
Y900681D01*
D02*
G37*
G36*
X268000Y858000D02*
X268000D01*
Y852000D01*
X255000Y839000D01*
X223000D01*
Y843000D01*
X231000Y851000D01*
Y856000D01*
X223000Y864000D01*
Y868000D01*
X258000D01*
X268000Y858000D01*
D02*
G37*
G36*
X384352Y761460D02*
X384607Y761256D01*
X384871Y761076D01*
X385143Y760920D01*
X385424Y760789D01*
X385715Y760682D01*
X386014Y760600D01*
X386322Y760542D01*
X386639Y760509D01*
X386965Y760500D01*
X383500Y757035D01*
X383491Y757361D01*
X383458Y757678D01*
X383400Y757986D01*
X383318Y758285D01*
X383211Y758576D01*
X383080Y758857D01*
X382924Y759129D01*
X382744Y759393D01*
X382540Y759648D01*
X382311Y759893D01*
X384107Y761689D01*
X384352Y761460D01*
D02*
G37*
G36*
X377000Y757000D02*
X343000D01*
Y771000D01*
X355000D01*
X355980Y771980D01*
X356031D01*
Y772031D01*
X366000Y782000D01*
X377000D01*
Y757000D01*
D02*
G37*
G36*
X417352Y752460D02*
X417607Y752256D01*
X417871Y752076D01*
X418143Y751920D01*
X418424Y751789D01*
X418715Y751682D01*
X419014Y751600D01*
X419322Y751542D01*
X419639Y751509D01*
X419965Y751500D01*
X416500Y748035D01*
X416491Y748361D01*
X416458Y748678D01*
X416400Y748986D01*
X416318Y749285D01*
X416211Y749576D01*
X416080Y749857D01*
X415924Y750129D01*
X415744Y750393D01*
X415540Y750648D01*
X415311Y750893D01*
X417107Y752689D01*
X417352Y752460D01*
D02*
G37*
G36*
X422413Y745428D02*
X422225Y745165D01*
X422060Y744894D01*
X421917Y744614D01*
X421796Y744325D01*
X421696Y744027D01*
X421619Y743720D01*
X421564Y743405D01*
X421531Y743080D01*
X421520Y742747D01*
X418980Y742552D01*
X418968Y742890D01*
X418930Y743214D01*
X418868Y743526D01*
X418781Y743824D01*
X418669Y744108D01*
X418532Y744380D01*
X418370Y744638D01*
X418183Y744882D01*
X417971Y745114D01*
X417735Y745332D01*
X422622Y745682D01*
X422413Y745428D01*
D02*
G37*
G36*
X436000Y774000D02*
X461000D01*
X468000Y767000D01*
Y743000D01*
X482000Y729000D01*
Y717000D01*
X426000D01*
Y725000D01*
X434000Y733000D01*
Y758000D01*
X426000Y766000D01*
Y781000D01*
X429000D01*
X436000Y774000D01*
D02*
G37*
G36*
X389284Y704245D02*
X389324Y703922D01*
X389393Y703620D01*
X389488Y703339D01*
X389611Y703079D01*
X389761Y702840D01*
X389938Y702622D01*
X390143Y702425D01*
X390375Y702250D01*
X390634Y702095D01*
X385938Y700695D01*
X386088Y700984D01*
X386342Y701572D01*
X386445Y701873D01*
X386603Y702487D01*
X386659Y702800D01*
X386722Y703438D01*
X386730Y703764D01*
X389270Y704590D01*
X389284Y704245D01*
D02*
G37*
G36*
X107000Y692000D02*
Y684000D01*
X50000Y676000D01*
X50000D01*
X46000Y641000D01*
X38000D01*
X33988Y676105D01*
X35679Y678000D01*
X35881D01*
X35008Y700000D01*
X50000D01*
X107000Y692000D01*
D02*
G37*
G36*
X292000Y690000D02*
X317000Y665000D01*
Y657000D01*
X298000Y638000D01*
X276000D01*
Y710000D01*
X292000D01*
Y690000D01*
D02*
G37*
G36*
X325956Y632100D02*
X325946Y632012D01*
X325959Y631913D01*
X325994Y631802D01*
X326052Y631681D01*
X326133Y631548D01*
X326236Y631405D01*
X326362Y631250D01*
X326682Y630907D01*
X324886Y629111D01*
X324615Y629379D01*
X323464Y630386D01*
X323351Y630454D01*
X323260Y630494D01*
X323192Y630505D01*
X325988Y632178D01*
X325956Y632100D01*
D02*
G37*
G36*
X378676Y705071D02*
Y696500D01*
X378676Y696500D01*
X378891Y695419D01*
X379503Y694503D01*
X390243Y683763D01*
X395000Y675000D01*
Y632071D01*
X394761Y631832D01*
X394000Y629995D01*
Y628005D01*
X394182Y627566D01*
X392584Y625026D01*
X377887D01*
Y625000D01*
X373681D01*
Y625026D01*
X368608D01*
Y631864D01*
X371744Y635000D01*
X378250D01*
Y647000D01*
X375824D01*
Y657750D01*
X375824Y657750D01*
X375609Y658831D01*
X374997Y659747D01*
X374997Y659747D01*
X373250Y661494D01*
Y674500D01*
X358750D01*
Y657500D01*
X369256D01*
X370176Y656580D01*
Y647000D01*
X367750D01*
Y638994D01*
X363787Y635031D01*
X363175Y634115D01*
X362960Y633034D01*
X362960Y633034D01*
Y631627D01*
X360420Y630574D01*
X358000Y632994D01*
Y641000D01*
X350000D01*
Y629000D01*
X353555D01*
X354843Y627378D01*
X353811Y625026D01*
X332887D01*
Y625000D01*
X329000D01*
Y662000D01*
X330000Y663000D01*
X312000Y681000D01*
Y718000D01*
X371657D01*
X378676Y705071D01*
D02*
G37*
G36*
X402233Y627612D02*
X402169Y627339D01*
X402063Y626683D01*
X401987Y625877D01*
X401931Y624388D01*
X401927Y623817D01*
X399387Y623422D01*
X399373Y623772D01*
X399333Y624093D01*
X399264Y624386D01*
X399169Y624651D01*
X399047Y624887D01*
X398897Y625094D01*
X398720Y625273D01*
X398516Y625423D01*
X398284Y625545D01*
X398025Y625638D01*
X402304Y627846D01*
X402233Y627612D01*
D02*
G37*
G36*
X371927Y609022D02*
X371936Y608693D01*
X371965Y608370D01*
X372012Y608052D01*
X372079Y607741D01*
X372164Y607435D01*
X372268Y607136D01*
X372392Y606842D01*
X372534Y606554D01*
X372695Y606272D01*
X372876Y605995D01*
X368063Y606915D01*
X368314Y607100D01*
X368540Y607302D01*
X368738Y607521D01*
X368910Y607758D01*
X369056Y608013D01*
X369175Y608285D01*
X369268Y608574D01*
X369334Y608880D01*
X369374Y609204D01*
X369387Y609546D01*
X371927Y609022D01*
D02*
G37*
G36*
X356927D02*
X356936Y608693D01*
X356965Y608370D01*
X357012Y608052D01*
X357079Y607741D01*
X357164Y607435D01*
X357269Y607136D01*
X357392Y606842D01*
X357534Y606554D01*
X357695Y606272D01*
X357876Y605995D01*
X353063Y606915D01*
X353314Y607100D01*
X353540Y607302D01*
X353738Y607521D01*
X353910Y607758D01*
X354056Y608013D01*
X354175Y608285D01*
X354268Y608574D01*
X354334Y608880D01*
X354374Y609204D01*
X354387Y609546D01*
X356927Y609022D01*
D02*
G37*
G36*
X381893Y602294D02*
X381759Y602521D01*
X381604Y602724D01*
X381428Y602904D01*
X381231Y603059D01*
X381014Y603190D01*
X380776Y603298D01*
X380517Y603382D01*
X380238Y603442D01*
X379937Y603477D01*
X379616Y603489D01*
X380118Y606029D01*
X380468Y606037D01*
X381130Y606098D01*
X381440Y606152D01*
X381738Y606221D01*
X382022Y606305D01*
X382293Y606405D01*
X382550Y606520D01*
X382794Y606650D01*
X383025Y606796D01*
X381893Y602294D01*
D02*
G37*
G36*
X332046Y605639D02*
X332562Y605191D01*
X332803Y605008D01*
X333034Y604854D01*
X333253Y604727D01*
X333462Y604629D01*
X333660Y604558D01*
X333847Y604515D01*
X334022Y604500D01*
X330714Y602204D01*
X330761Y602377D01*
X330780Y602557D01*
X330770Y602742D01*
X330731Y602933D01*
X330663Y603129D01*
X330566Y603332D01*
X330439Y603540D01*
X330284Y603753D01*
X330099Y603973D01*
X329886Y604198D01*
X331771Y605905D01*
X332046Y605639D01*
D02*
G37*
G36*
X427210Y600534D02*
X427161Y600254D01*
X427147Y599976D01*
X427169Y599702D01*
X427226Y599431D01*
X427318Y599164D01*
X427447Y598900D01*
X427610Y598639D01*
X427809Y598382D01*
X428044Y598128D01*
X425564Y597016D01*
X425329Y597240D01*
X424838Y597650D01*
X424581Y597836D01*
X424045Y598170D01*
X423766Y598317D01*
X423186Y598573D01*
X422885Y598683D01*
X427295Y600818D01*
X427210Y600534D01*
D02*
G37*
G36*
X357736Y579226D02*
X357984Y579025D01*
X358243Y578848D01*
X358513Y578695D01*
X358793Y578565D01*
X359085Y578459D01*
X359388Y578376D01*
X359701Y578317D01*
X360026Y578282D01*
X360362Y578270D01*
Y575730D01*
X360026Y575718D01*
X359701Y575683D01*
X359388Y575624D01*
X359085Y575541D01*
X358793Y575435D01*
X358513Y575305D01*
X358243Y575152D01*
X357984Y574975D01*
X357736Y574774D01*
X357500Y574550D01*
Y579450D01*
X357736Y579226D01*
D02*
G37*
G36*
X415226Y535264D02*
X415025Y535016D01*
X414848Y534757D01*
X414695Y534487D01*
X414565Y534207D01*
X414459Y533915D01*
X414376Y533612D01*
X414317Y533299D01*
X414282Y532974D01*
X414270Y532639D01*
X411730D01*
X411718Y532974D01*
X411683Y533299D01*
X411624Y533612D01*
X411541Y533915D01*
X411435Y534207D01*
X411305Y534487D01*
X411152Y534757D01*
X410975Y535016D01*
X410774Y535264D01*
X410550Y535500D01*
X415450D01*
X415226Y535264D01*
D02*
G37*
G36*
X399226D02*
X399025Y535016D01*
X398848Y534757D01*
X398695Y534487D01*
X398565Y534207D01*
X398459Y533915D01*
X398376Y533612D01*
X398317Y533299D01*
X398282Y532974D01*
X398270Y532639D01*
X395730D01*
X395718Y532974D01*
X395683Y533299D01*
X395624Y533612D01*
X395541Y533915D01*
X395435Y534207D01*
X395305Y534487D01*
X395152Y534757D01*
X394975Y535016D01*
X394774Y535264D01*
X394550Y535500D01*
X399450D01*
X399226Y535264D01*
D02*
G37*
G36*
X383226D02*
X383025Y535016D01*
X382848Y534757D01*
X382695Y534487D01*
X382565Y534207D01*
X382459Y533915D01*
X382376Y533612D01*
X382317Y533299D01*
X382282Y532974D01*
X382270Y532639D01*
X379730D01*
X379718Y532974D01*
X379683Y533299D01*
X379624Y533612D01*
X379541Y533915D01*
X379435Y534207D01*
X379305Y534487D01*
X379152Y534757D01*
X378975Y535016D01*
X378774Y535264D01*
X378550Y535500D01*
X383450D01*
X383226Y535264D01*
D02*
G37*
G36*
X367226D02*
X367025Y535016D01*
X366848Y534757D01*
X366695Y534487D01*
X366565Y534207D01*
X366459Y533915D01*
X366376Y533612D01*
X366317Y533299D01*
X366282Y532974D01*
X366270Y532639D01*
X363730D01*
X363718Y532974D01*
X363683Y533299D01*
X363624Y533612D01*
X363541Y533915D01*
X363435Y534207D01*
X363305Y534487D01*
X363152Y534757D01*
X362975Y535016D01*
X362774Y535264D01*
X362550Y535500D01*
X367450D01*
X367226Y535264D01*
D02*
G37*
G36*
X351226D02*
X351025Y535016D01*
X350848Y534757D01*
X350695Y534487D01*
X350565Y534207D01*
X350459Y533915D01*
X350376Y533612D01*
X350317Y533299D01*
X350282Y532974D01*
X350270Y532639D01*
X347730D01*
X347718Y532974D01*
X347683Y533299D01*
X347624Y533612D01*
X347541Y533915D01*
X347435Y534207D01*
X347305Y534487D01*
X347152Y534757D01*
X346975Y535016D01*
X346774Y535264D01*
X346550Y535500D01*
X351450D01*
X351226Y535264D01*
D02*
G37*
G36*
X335226D02*
X335025Y535016D01*
X334848Y534757D01*
X334695Y534487D01*
X334565Y534207D01*
X334459Y533915D01*
X334376Y533612D01*
X334317Y533299D01*
X334282Y532974D01*
X334270Y532639D01*
X331730D01*
X331718Y532974D01*
X331683Y533299D01*
X331624Y533612D01*
X331541Y533915D01*
X331435Y534207D01*
X331305Y534487D01*
X331152Y534757D01*
X330975Y535016D01*
X330774Y535264D01*
X330550Y535500D01*
X335450D01*
X335226Y535264D01*
D02*
G37*
G36*
X319226D02*
X319025Y535016D01*
X318848Y534757D01*
X318695Y534487D01*
X318565Y534207D01*
X318459Y533915D01*
X318376Y533612D01*
X318317Y533299D01*
X318282Y532974D01*
X318270Y532639D01*
X315730D01*
X315718Y532974D01*
X315683Y533299D01*
X315624Y533612D01*
X315541Y533915D01*
X315435Y534207D01*
X315305Y534487D01*
X315152Y534757D01*
X314975Y535016D01*
X314774Y535264D01*
X314550Y535500D01*
X319450D01*
X319226Y535264D01*
D02*
G37*
G36*
X468459Y530963D02*
X467929Y532012D01*
X467382Y532952D01*
X466816Y533781D01*
X466233Y534499D01*
X465632Y535107D01*
X465013Y535604D01*
X464376Y535991D01*
X463722Y536267D01*
X463050Y536433D01*
X462360Y536488D01*
X463255Y539028D01*
X463639Y539067D01*
X464146Y539182D01*
X464775Y539373D01*
X466399Y539987D01*
X469753Y541482D01*
X472601Y542863D01*
X468459Y530963D01*
D02*
G37*
G36*
X343226Y513264D02*
X343025Y513016D01*
X342848Y512757D01*
X342695Y512487D01*
X342565Y512207D01*
X342459Y511915D01*
X342376Y511612D01*
X342317Y511299D01*
X342282Y510974D01*
X342270Y510639D01*
X339730D01*
X339718Y510974D01*
X339683Y511299D01*
X339624Y511612D01*
X339541Y511915D01*
X339435Y512207D01*
X339305Y512487D01*
X339152Y512757D01*
X338975Y513016D01*
X338774Y513264D01*
X338550Y513501D01*
X343450D01*
X343226Y513264D01*
D02*
G37*
G36*
X407356Y513412D02*
X407125Y513185D01*
X406919Y512945D01*
X406736Y512693D01*
X406578Y512430D01*
X406445Y512154D01*
X406335Y511865D01*
X406250Y511565D01*
X406190Y511253D01*
X406153Y510928D01*
X406141Y510591D01*
X403601Y510692D01*
X403590Y511026D01*
X403555Y511351D01*
X403498Y511665D01*
X403418Y511970D01*
X403316Y512265D01*
X403190Y512550D01*
X403042Y512826D01*
X402870Y513091D01*
X402677Y513347D01*
X402460Y513592D01*
X407356Y513412D01*
D02*
G37*
G36*
X390767Y512979D02*
X390510Y512811D01*
X390281Y512624D01*
X390078Y512417D01*
X389903Y512191D01*
X389754Y511945D01*
X389633Y511680D01*
X389538Y511396D01*
X389471Y511092D01*
X389430Y510768D01*
X389417Y510425D01*
X386877Y511118D01*
X386868Y511445D01*
X386842Y511767D01*
X386799Y512084D01*
X386739Y512397D01*
X386661Y512705D01*
X386566Y513008D01*
X386454Y513307D01*
X386325Y513600D01*
X386178Y513889D01*
X386015Y514173D01*
X390767Y512979D01*
D02*
G37*
G36*
X474530Y500641D02*
X473323Y500897D01*
X471142Y501178D01*
X470166Y501204D01*
X469268Y501152D01*
X468447Y501024D01*
X467703Y500818D01*
X467036Y500536D01*
X466446Y500177D01*
X465934Y499742D01*
X464548Y501948D01*
X464865Y502326D01*
X465184Y502828D01*
X465505Y503453D01*
X465828Y504202D01*
X466478Y506072D01*
X467136Y508436D01*
X467802Y511295D01*
X474530Y500641D01*
D02*
G37*
G36*
X398689Y479893D02*
X398460Y479647D01*
X398256Y479393D01*
X398076Y479129D01*
X397920Y478857D01*
X397789Y478576D01*
X397682Y478285D01*
X397600Y477986D01*
X397542Y477678D01*
X397509Y477361D01*
X397500Y477035D01*
X394035Y480500D01*
X394361Y480509D01*
X394678Y480542D01*
X394986Y480600D01*
X395285Y480682D01*
X395576Y480789D01*
X395857Y480920D01*
X396129Y481076D01*
X396393Y481256D01*
X396647Y481460D01*
X396893Y481689D01*
X398689Y479893D01*
D02*
G37*
G36*
X296274Y480727D02*
X296520Y480517D01*
X296775Y480324D01*
X297039Y480145D01*
X297312Y479983D01*
X297594Y479836D01*
X297884Y479705D01*
X298184Y479589D01*
X298492Y479489D01*
X298809Y479405D01*
X294612Y476877D01*
X294674Y477178D01*
X294703Y477472D01*
X294699Y477762D01*
X294663Y478046D01*
X294594Y478325D01*
X294492Y478599D01*
X294358Y478867D01*
X294190Y479130D01*
X293990Y479387D01*
X293757Y479640D01*
X296036Y480952D01*
X296274Y480727D01*
D02*
G37*
G36*
X474530Y475241D02*
X473323Y475497D01*
X471142Y475778D01*
X470166Y475804D01*
X469268Y475752D01*
X468447Y475624D01*
X467703Y475419D01*
X467036Y475136D01*
X466446Y474777D01*
X465934Y474342D01*
X464548Y476548D01*
X464865Y476926D01*
X465184Y477428D01*
X465505Y478053D01*
X465828Y478802D01*
X466478Y480672D01*
X467136Y483036D01*
X467802Y485895D01*
X474530Y475241D01*
D02*
G37*
G36*
X410956Y475101D02*
X410946Y475012D01*
X410959Y474913D01*
X410994Y474803D01*
X411052Y474681D01*
X411133Y474548D01*
X411236Y474405D01*
X411362Y474250D01*
X411682Y473907D01*
X409886Y472111D01*
X409615Y472379D01*
X408464Y473386D01*
X408351Y473455D01*
X408260Y473494D01*
X408192Y473505D01*
X410988Y475178D01*
X410956Y475101D01*
D02*
G37*
G36*
X423226Y473264D02*
X423025Y473016D01*
X422848Y472757D01*
X422695Y472487D01*
X422565Y472207D01*
X422459Y471915D01*
X422376Y471612D01*
X422317Y471299D01*
X422282Y470974D01*
X422270Y470639D01*
X419730D01*
X419718Y470974D01*
X419683Y471299D01*
X419624Y471612D01*
X419541Y471915D01*
X419435Y472207D01*
X419305Y472487D01*
X419152Y472757D01*
X418975Y473016D01*
X418774Y473264D01*
X418550Y473501D01*
X423450D01*
X423226Y473264D01*
D02*
G37*
G36*
X456736Y462226D02*
X456984Y462025D01*
X457243Y461848D01*
X457513Y461695D01*
X457793Y461565D01*
X458085Y461459D01*
X458388Y461376D01*
X458701Y461317D01*
X459026Y461282D01*
X459361Y461270D01*
Y458730D01*
X459026Y458718D01*
X458701Y458683D01*
X458388Y458624D01*
X458085Y458541D01*
X457793Y458435D01*
X457513Y458305D01*
X457243Y458152D01*
X456984Y457975D01*
X456736Y457774D01*
X456499Y457550D01*
Y462450D01*
X456736Y462226D01*
D02*
G37*
G36*
X518226Y457264D02*
X518025Y457016D01*
X517848Y456757D01*
X517695Y456487D01*
X517565Y456207D01*
X517459Y455915D01*
X517376Y455612D01*
X517317Y455299D01*
X517282Y454974D01*
X517270Y454638D01*
X514730D01*
X514718Y454974D01*
X514683Y455299D01*
X514624Y455612D01*
X514541Y455915D01*
X514435Y456207D01*
X514305Y456487D01*
X514152Y456757D01*
X513975Y457016D01*
X513774Y457264D01*
X513550Y457500D01*
X518450D01*
X518226Y457264D01*
D02*
G37*
G36*
X423170Y448590D02*
X423426Y448391D01*
X423684Y448231D01*
X423943Y448108D01*
X424202Y448023D01*
X424463Y447976D01*
X424724Y447968D01*
X424987Y447997D01*
X425250Y448064D01*
X425514Y448169D01*
X423789Y443608D01*
X423661Y443879D01*
X423507Y444160D01*
X423121Y444757D01*
X422889Y445071D01*
X422036Y446081D01*
X421338Y446810D01*
X422914Y448826D01*
X423170Y448590D01*
D02*
G37*
G36*
X490323Y446813D02*
X490293Y446518D01*
X490296Y446229D01*
X490331Y445945D01*
X490400Y445666D01*
X490502Y445393D01*
X490636Y445125D01*
X490803Y444862D01*
X491004Y444604D01*
X491237Y444352D01*
X488951Y443046D01*
X488714Y443271D01*
X488467Y443481D01*
X488213Y443675D01*
X487949Y443853D01*
X487676Y444016D01*
X487395Y444164D01*
X487104Y444295D01*
X486805Y444412D01*
X486497Y444512D01*
X486181Y444597D01*
X490386Y447113D01*
X490323Y446813D01*
D02*
G37*
G36*
X634597Y447416D02*
X634166Y447264D01*
X633785Y447010D01*
X633454Y446655D01*
X633175Y446197D01*
X632946Y445639D01*
X632769Y444978D01*
X632642Y444216D01*
X632565Y443353D01*
X632540Y442387D01*
X627460D01*
X627435Y443353D01*
X627358Y444216D01*
X627231Y444978D01*
X627054Y445639D01*
X626825Y446197D01*
X626546Y446655D01*
X626215Y447010D01*
X625834Y447264D01*
X625403Y447416D01*
X624920Y447467D01*
X635080D01*
X634597Y447416D01*
D02*
G37*
G36*
X317605Y426004D02*
X317862Y425803D01*
X318125Y425636D01*
X318393Y425502D01*
X318666Y425400D01*
X318945Y425331D01*
X319229Y425296D01*
X319518Y425293D01*
X319813Y425323D01*
X320113Y425386D01*
X317597Y421181D01*
X317512Y421497D01*
X317411Y421805D01*
X317295Y422104D01*
X317164Y422395D01*
X317016Y422676D01*
X316853Y422949D01*
X316675Y423213D01*
X316481Y423467D01*
X316271Y423714D01*
X316046Y423951D01*
X317352Y426237D01*
X317605Y426004D01*
D02*
G37*
G36*
X500590Y418462D02*
X500344Y418679D01*
X500089Y418874D01*
X499823Y419045D01*
X499548Y419194D01*
X499263Y419319D01*
X498968Y419422D01*
X498663Y419502D01*
X498349Y419559D01*
X498024Y419594D01*
X497690Y419605D01*
X497593Y422145D01*
X497929Y422157D01*
X498254Y422194D01*
X498567Y422254D01*
X498867Y422339D01*
X499155Y422449D01*
X499431Y422582D01*
X499695Y422740D01*
X499947Y422922D01*
X500187Y423129D01*
X500415Y423359D01*
X500590Y418462D01*
D02*
G37*
G36*
X530750Y406750D02*
X530000D01*
Y402500D01*
X517750Y390250D01*
X516750D01*
Y407500D01*
X516525Y407725D01*
X516525D01*
X515550Y408700D01*
Y414250D01*
X521250Y416250D01*
X530750Y406750D01*
D02*
G37*
G36*
X491282Y405026D02*
X491317Y404701D01*
X491376Y404388D01*
X491459Y404085D01*
X491565Y403793D01*
X491695Y403513D01*
X491848Y403243D01*
X492025Y402984D01*
X492226Y402736D01*
X492450Y402500D01*
X487550D01*
X487774Y402736D01*
X487975Y402984D01*
X488152Y403243D01*
X488305Y403513D01*
X488435Y403793D01*
X488541Y404085D01*
X488624Y404388D01*
X488683Y404701D01*
X488718Y405026D01*
X488730Y405361D01*
X491270D01*
X491282Y405026D01*
D02*
G37*
G36*
X492282Y330026D02*
X492317Y329701D01*
X492376Y329388D01*
X492459Y329085D01*
X492565Y328793D01*
X492695Y328513D01*
X492848Y328243D01*
X493025Y327984D01*
X493226Y327736D01*
X493450Y327500D01*
X488550D01*
X488774Y327736D01*
X488975Y327984D01*
X489152Y328243D01*
X489305Y328513D01*
X489435Y328793D01*
X489541Y329085D01*
X489624Y329388D01*
X489683Y329701D01*
X489718Y330026D01*
X489730Y330362D01*
X492270D01*
X492282Y330026D01*
D02*
G37*
G36*
X584998Y140803D02*
X585571Y140328D01*
X586160Y139909D01*
X586767Y139546D01*
X587390Y139239D01*
X588030Y138987D01*
X588686Y138791D01*
X589359Y138652D01*
X590050Y138568D01*
X590756Y138540D01*
Y133460D01*
X590050Y133432D01*
X589359Y133348D01*
X588686Y133209D01*
X588030Y133013D01*
X587390Y132761D01*
X586767Y132454D01*
X586160Y132091D01*
X585571Y131672D01*
X584998Y131197D01*
X584442Y130666D01*
Y141334D01*
X584998Y140803D01*
D02*
G37*
G36*
X624216Y129350D02*
X623410Y130131D01*
X622604Y130830D01*
X621797Y131446D01*
X620991Y131980D01*
X620184Y132432D01*
X619377Y132802D01*
X618569Y133090D01*
X617762Y133296D01*
X616954Y133419D01*
X616146Y133460D01*
X616146Y138540D01*
X616954Y138581D01*
X617762Y138704D01*
X618569Y138910D01*
X619377Y139198D01*
X620184Y139567D01*
X620991Y140020D01*
X621797Y140554D01*
X622604Y141170D01*
X623410Y141869D01*
X624216Y142650D01*
X624216Y129350D01*
D02*
G37*
G36*
X546637Y135155D02*
X546707Y134414D01*
X546827Y133701D01*
X546999Y133015D01*
X547222Y132358D01*
X547497Y131727D01*
X547823Y131125D01*
X548200Y130550D01*
X548629Y130003D01*
X549109Y129483D01*
X545517Y125891D01*
X544997Y126371D01*
X544450Y126800D01*
X543875Y127177D01*
X543273Y127503D01*
X542643Y127778D01*
X541985Y128001D01*
X541299Y128173D01*
X540586Y128293D01*
X539845Y128363D01*
X539076Y128380D01*
X546620Y135924D01*
X546637Y135155D01*
D02*
G37*
G36*
X701905Y126500D02*
X700783Y126483D01*
X699719Y126407D01*
X698713Y126273D01*
X697765Y126080D01*
X696874Y125829D01*
X696042Y125520D01*
X695268Y125153D01*
X694551Y124727D01*
X693893Y124243D01*
X693293Y123700D01*
X689700Y127293D01*
X690243Y127893D01*
X690727Y128552D01*
X691153Y129268D01*
X691520Y130042D01*
X691829Y130874D01*
X692080Y131765D01*
X692273Y132713D01*
X692407Y133719D01*
X692483Y134783D01*
X692501Y135905D01*
X701905Y126500D01*
D02*
G37*
%LPC*%
G36*
X149610Y866000D02*
X138610D01*
Y854000D01*
X144285D01*
X147420Y850864D01*
X148757Y849971D01*
X150333Y849658D01*
X153066D01*
Y849483D01*
X170671D01*
Y857817D01*
X162139D01*
X161742Y857896D01*
X152039D01*
X149610Y860325D01*
Y866000D01*
D02*
G37*
G36*
X357250Y696500D02*
X342750D01*
Y691824D01*
X332000D01*
Y694250D01*
X320000D01*
Y683750D01*
X321975D01*
X324248Y682928D01*
X324463Y681847D01*
X325075Y680931D01*
X336176Y669830D01*
Y641000D01*
X335000D01*
Y629000D01*
X343000D01*
Y641000D01*
X341824D01*
Y671000D01*
X341824Y671000D01*
X341609Y672081D01*
X340997Y672997D01*
X340997Y672997D01*
X332535Y681459D01*
X332000Y683750D01*
D01*
X332276Y686176D01*
X342750D01*
Y679500D01*
X357250D01*
Y696500D01*
D02*
G37*
%LPD*%
D12*
X391853Y734147D02*
X397646D01*
X401000Y730793D01*
X391000Y735000D02*
X391853Y734147D01*
X401000Y717000D02*
Y730793D01*
X420250Y717250D02*
Y747750D01*
X414000Y754000D02*
X420250Y747750D01*
Y717250D02*
X420500Y717000D01*
X414000Y773388D02*
X414000Y773388D01*
X414000Y754000D02*
Y773388D01*
X424000Y602000D02*
X424853Y601147D01*
Y599522D02*
X430249Y594127D01*
X437873D01*
X424853Y599522D02*
Y601147D01*
X384147Y604759D02*
X385000Y603906D01*
X490450Y433750D02*
Y443343D01*
X487000Y446793D02*
Y448000D01*
Y446793D02*
X490450Y443343D01*
X502875Y420875D02*
X503000Y421000D01*
X490450Y420750D02*
X490575Y420875D01*
X502875D01*
X415911Y454033D02*
Y461657D01*
Y454033D02*
X424090Y445853D01*
X415784Y461784D02*
X415911Y461657D01*
X424090Y445853D02*
X426147D01*
X427000Y445000D01*
X375911Y608465D02*
X379616Y604759D01*
X375911Y608465D02*
Y616089D01*
X379616Y604759D02*
X384147D01*
X375784Y616216D02*
X375911Y616089D01*
X334000Y601000D02*
Y601880D01*
X330784Y629784D02*
X331000Y630000D01*
X330784Y605096D02*
X334000Y601880D01*
X330784Y616216D02*
Y629784D01*
Y605096D02*
Y616216D01*
X281127Y599000D02*
X283568D01*
X281000Y599127D02*
Y605000D01*
Y599127D02*
X281127Y599000D01*
X291319Y483873D02*
X298000Y477192D01*
Y476000D02*
Y477192D01*
X283695Y483873D02*
X291319D01*
X283568Y484000D02*
X283695Y483873D01*
X189000Y685000D02*
Y726000D01*
X268000Y805000D01*
X164000Y660000D02*
X189000Y685000D01*
X268000Y805000D02*
X292000D01*
X298178Y798822D01*
Y792822D02*
X299000Y792000D01*
X298178Y792822D02*
Y798822D01*
X299000Y792000D02*
X314000D01*
X339000Y817000D01*
X353500D01*
X371730Y796770D02*
X372480D01*
X369250Y799250D02*
Y800000D01*
Y799250D02*
X371730Y796770D01*
X372480D02*
X381500Y787750D01*
Y773388D02*
Y787750D01*
X410000Y730952D02*
Y732000D01*
X407500Y728452D02*
X410000Y730952D01*
X407500Y717000D02*
Y728452D01*
X403140Y604775D02*
X403994Y603922D01*
X395911Y608465D02*
X399601Y604775D01*
X403140D01*
X395911Y608465D02*
Y616089D01*
X278000Y465338D02*
X283000Y470338D01*
X283441Y478873D02*
X283568Y479000D01*
X283000Y470338D02*
Y478873D01*
X278000Y465000D02*
Y465338D01*
X283000Y478873D02*
X283441D01*
X462500Y601730D02*
Y602000D01*
X438000Y599000D02*
X459770D01*
X462500Y601730D01*
X427508Y720250D02*
X442000D01*
X427000Y719742D02*
X427508Y720250D01*
X427000Y717000D02*
Y719742D01*
X536250Y420750D02*
X536500Y421000D01*
X515550Y420750D02*
X536250D01*
X421000Y468690D02*
Y476000D01*
X420911Y468601D02*
X421000Y468690D01*
X420911Y461911D02*
Y468601D01*
X420784Y461784D02*
X420911Y461911D01*
X381500Y762500D02*
Y773388D01*
X395784Y616216D02*
X395911Y616089D01*
X381500Y762500D02*
X387000Y757000D01*
X370657Y616089D02*
X370784Y616216D01*
X370000Y604000D02*
X370657Y604657D01*
Y616089D01*
X260000Y599500D02*
X262500Y597000D01*
X270810D01*
X273683Y594127D02*
X283441D01*
X270810Y597000D02*
X273683Y594127D01*
X283441D02*
X283568Y594000D01*
X270000Y438000D02*
Y488056D01*
X275817Y493873D01*
X283441D02*
X283568Y494000D01*
X275817Y493873D02*
X283441D01*
X373730Y810770D02*
X374342Y810158D01*
X373730Y810770D02*
Y814270D01*
X371000Y817000D02*
X373730Y814270D01*
X370500Y817000D02*
X371000D01*
X394500Y773388D02*
Y790000D01*
X374342Y810158D02*
X394500Y790000D01*
X374342Y810158D02*
Y810158D01*
X394000Y582000D02*
X401000Y589000D01*
X425690D01*
X258000Y436000D02*
X268000Y426000D01*
X258000Y436000D02*
Y505500D01*
X268000Y426000D02*
X297000D01*
X292127Y489127D02*
X298000Y495000D01*
X283695Y489127D02*
X292127D01*
X308000Y638133D02*
X320657Y625476D01*
Y616343D02*
Y625476D01*
Y616343D02*
X320784Y616216D01*
X424000Y507000D02*
Y539000D01*
X386000Y577000D02*
X424000Y539000D01*
X394000Y477000D02*
X424000Y507000D01*
X355000Y577000D02*
X386000D01*
X365784Y496784D02*
X381000Y512000D01*
Y538000D01*
X365784Y461784D02*
Y496784D01*
X370784Y492784D02*
X388147Y510147D01*
X370784Y461784D02*
Y492784D01*
X388147Y510147D02*
Y515147D01*
X397000Y510000D02*
Y538000D01*
X375784Y461784D02*
Y488784D01*
X397000Y510000D01*
X380784Y461784D02*
Y484784D01*
X404871Y508871D01*
Y515871D01*
X385784Y480784D02*
X413000Y508000D01*
X385784Y461784D02*
Y480784D01*
X413000Y508000D02*
Y538000D01*
X404871Y515871D02*
X405000Y516000D01*
X350784Y506784D02*
X356147Y512147D01*
Y515147D01*
X357000Y516000D01*
X350784Y461784D02*
Y506784D01*
X372147Y512147D02*
Y515147D01*
X360784Y461784D02*
Y500784D01*
X372147Y512147D01*
Y515147D02*
X373000Y516000D01*
X388147Y515147D02*
X389000Y516000D01*
X421000Y436000D02*
X434000D01*
X405784Y451216D02*
X421000Y436000D01*
X434000D02*
X445000Y447000D01*
Y464000D01*
X452000Y471000D01*
X460796D01*
X454000Y460000D02*
X492000D01*
X503000Y449000D01*
X438127Y479127D02*
X452127D01*
X473796Y484000D02*
X476600D01*
X460796Y471000D02*
X473796Y484000D01*
X452127Y479127D02*
X457000Y484000D01*
Y492604D01*
X473796Y509400D01*
X476600D01*
X438000Y479000D02*
X438127Y479127D01*
X473642Y537758D02*
X476600Y534800D01*
X459242Y537758D02*
X473642D01*
X453000Y544000D02*
X459242Y537758D01*
X438000Y544000D02*
X453000D01*
X405784Y451216D02*
Y461784D01*
X333000Y512000D02*
X335784Y509216D01*
X333000Y512000D02*
Y538000D01*
X335784Y461784D02*
Y509216D01*
X317000Y500000D02*
X330784Y486216D01*
X317000Y500000D02*
Y538000D01*
X330784Y461784D02*
Y486216D01*
X340784Y461784D02*
Y490710D01*
X341000Y490926D01*
Y516000D01*
X345784Y461784D02*
Y510498D01*
X349000Y513713D01*
Y538000D01*
X355661Y461661D02*
X355784Y461784D01*
Y504497D01*
X365000Y513713D01*
Y538000D01*
X355657Y616089D02*
X355784Y616216D01*
X355657Y604657D02*
Y616089D01*
X355000Y604000D02*
X355657Y604657D01*
X516000Y434200D02*
Y460000D01*
X515550Y433750D02*
X516000Y434200D01*
X283568Y489000D02*
X283695Y489127D01*
X295793Y511000D02*
X297000D01*
X293793Y509000D02*
X295793Y511000D01*
X283568Y509000D02*
X293793D01*
X468500Y569000D02*
X470000Y567500D01*
X438000Y569000D02*
X468500D01*
X503000Y432000D02*
Y449000D01*
Y432000D02*
X507622Y427378D01*
X515422D02*
X515550Y427250D01*
X507622Y427378D02*
X515422D01*
X300784Y616216D02*
Y622129D01*
X297913Y625000D02*
X300784Y622129D01*
X237500Y625000D02*
X297913D01*
X394500Y704500D02*
X411000Y688000D01*
X394500Y704500D02*
Y717000D01*
X411000Y654173D02*
Y688000D01*
X381500Y696500D02*
X405784Y672216D01*
Y616216D02*
Y672216D01*
X381500Y696500D02*
Y717000D01*
X399514Y627793D02*
Y629000D01*
Y627793D02*
X400657Y626650D01*
Y616343D02*
Y626650D01*
Y616343D02*
X400784Y616216D01*
X388000Y700000D02*
X388000Y700000D01*
X388000Y700000D02*
Y717000D01*
X388000Y717000D02*
X388000Y717000D01*
X258000Y505500D02*
X260000Y507500D01*
X297000Y426000D02*
X315793D01*
X319793Y422000D01*
X321000D01*
X322000Y414000D02*
X330500Y405500D01*
X297000Y414000D02*
X322000D01*
X330500Y399000D02*
Y405500D01*
X490000Y400000D02*
Y413800D01*
X490450Y414250D01*
X400784Y449216D02*
Y461784D01*
X491000Y325000D02*
Y359000D01*
X400784Y449216D02*
X491000Y359000D01*
X282144Y297353D02*
X282747Y296750D01*
X276647Y297353D02*
X282144D01*
X269000Y305000D02*
X276647Y297353D01*
X269000Y305000D02*
Y382000D01*
X329500Y398000D02*
X330500Y399000D01*
X269000Y398000D02*
X329500D01*
X334322Y363678D02*
X337750Y360250D01*
X372500D01*
X334200Y372250D02*
X334322Y372128D01*
Y363678D02*
Y372128D01*
X338750Y343250D02*
X372500D01*
X321500Y360500D02*
X338750Y343250D01*
X321500Y360500D02*
Y372250D01*
X325000Y331000D02*
X368282D01*
X368302Y330980D01*
X369770D01*
X372500Y328250D01*
Y327750D02*
Y328250D01*
X322134Y320384D02*
Y328134D01*
X325000Y331000D01*
X320020Y318270D02*
X322134Y320384D01*
X334200Y308285D02*
Y319750D01*
Y308285D02*
X337425Y305060D01*
Y297825D02*
Y305060D01*
Y297825D02*
X338500Y296750D01*
X284133Y298136D02*
Y303133D01*
X282747Y296750D02*
X284133Y298136D01*
X296265Y315265D02*
X307320D01*
X284133Y303133D02*
X296265Y315265D01*
X320020Y313302D02*
Y318270D01*
X320000Y313282D02*
X320020Y313302D01*
X320000Y311000D02*
Y313282D01*
X298761Y299541D02*
X308541D01*
X320000Y311000D01*
X296253Y297033D02*
X298761Y299541D01*
X296253Y296750D02*
Y297033D01*
X308800Y316745D02*
Y319750D01*
X307320Y315265D02*
X308800Y316745D01*
X471250Y427250D02*
X490450D01*
X471000Y427000D02*
X471250Y427250D01*
X410784Y616216D02*
Y653957D01*
X411000Y654173D01*
X414000Y696500D02*
X428250Y682250D01*
X414000Y696500D02*
Y717000D01*
X428250Y682250D02*
X429000D01*
X401000Y773388D02*
Y792500D01*
X403000Y794500D01*
X420500Y773388D02*
X421008Y773896D01*
Y782008D01*
X440500Y801500D01*
Y802000D01*
X407500Y773388D02*
X408008Y773896D01*
Y784008D01*
X425500Y801500D01*
Y802000D01*
X260000Y554000D02*
X283568D01*
X323000Y632793D02*
X325784Y630009D01*
Y616216D02*
Y630009D01*
X323000Y632793D02*
Y634000D01*
X157233Y866350D02*
X161869D01*
X144583Y879000D02*
X157233Y866350D01*
X136110Y879000D02*
X144583D01*
X360657Y616343D02*
X360784Y616216D01*
X365784D02*
Y633034D01*
X360657Y616343D02*
Y626343D01*
X354000Y633000D02*
X360657Y626343D01*
X366000Y664750D02*
X373000Y657750D01*
Y641000D02*
Y657750D01*
X365784Y633034D02*
X373000Y640250D01*
X354000Y633000D02*
Y635000D01*
X408000Y475793D02*
X410784Y473009D01*
Y461784D02*
Y473009D01*
X408000Y475793D02*
Y477000D01*
X326000Y689000D02*
X327072Y687928D01*
Y682928D02*
Y687928D01*
X339000Y635000D02*
Y671000D01*
X366000Y664750D02*
Y666000D01*
X327072Y682928D02*
X339000Y671000D01*
X349000Y689000D02*
X350000Y688000D01*
X326000Y689000D02*
X349000D01*
D17*
X279965Y855000D02*
D03*
X338035D02*
D03*
D18*
X478006Y750000D02*
D03*
X178000Y817000D02*
D03*
X461994Y750000D02*
D03*
X161989Y817000D02*
D03*
D19*
X476000Y705994D02*
D03*
X450000Y669994D02*
D03*
X242000Y827994D02*
D03*
X349000Y763994D02*
D03*
X242000Y844006D02*
D03*
X476000Y722006D02*
D03*
X349000Y780006D02*
D03*
X450000Y686006D02*
D03*
D20*
X455000Y783250D02*
D03*
X442000Y707750D02*
D03*
X429000Y669750D02*
D03*
X455000Y770750D02*
D03*
X442000Y720250D02*
D03*
X429000Y682250D02*
D03*
D21*
X462500Y641000D02*
D03*
X477500Y602000D02*
D03*
X551500Y421000D02*
D03*
X770000Y261000D02*
D03*
X456000Y427000D02*
D03*
X420000Y373000D02*
D03*
X264500Y674000D02*
D03*
X265000Y642000D02*
D03*
X129110Y860000D02*
D03*
X117000Y734000D02*
D03*
X477500Y641000D02*
D03*
X462500Y602000D02*
D03*
X536500Y421000D02*
D03*
X755000Y261000D02*
D03*
X280000Y642000D02*
D03*
X279500Y674000D02*
D03*
X471000Y427000D02*
D03*
X144110Y860000D02*
D03*
X425500Y802000D02*
D03*
X440500D02*
D03*
X405000Y373000D02*
D03*
X102000Y734000D02*
D03*
D22*
X438000Y594000D02*
D03*
X283568Y599000D02*
D03*
Y484000D02*
D03*
X438000Y599000D02*
D03*
X283568Y479000D02*
D03*
Y594000D02*
D03*
Y494000D02*
D03*
X438000Y544000D02*
D03*
Y589000D02*
D03*
Y584000D02*
D03*
Y579000D02*
D03*
Y574000D02*
D03*
Y569000D02*
D03*
Y564000D02*
D03*
Y559000D02*
D03*
Y554000D02*
D03*
Y549000D02*
D03*
Y539000D02*
D03*
Y534000D02*
D03*
Y529000D02*
D03*
Y524000D02*
D03*
Y519000D02*
D03*
Y514000D02*
D03*
Y509000D02*
D03*
Y504000D02*
D03*
Y499000D02*
D03*
Y494000D02*
D03*
Y489000D02*
D03*
Y484000D02*
D03*
Y479000D02*
D03*
X283568Y489000D02*
D03*
Y499000D02*
D03*
Y504000D02*
D03*
Y509000D02*
D03*
Y514000D02*
D03*
Y524000D02*
D03*
Y529000D02*
D03*
Y534000D02*
D03*
Y544000D02*
D03*
Y549000D02*
D03*
Y554000D02*
D03*
Y559000D02*
D03*
Y564000D02*
D03*
Y569000D02*
D03*
Y574000D02*
D03*
Y579000D02*
D03*
Y584000D02*
D03*
Y589000D02*
D03*
Y539000D02*
D03*
Y519000D02*
D03*
D23*
X403000Y809500D02*
D03*
X729000Y286500D02*
D03*
X42000Y629500D02*
D03*
X260000Y584500D02*
D03*
X291000Y357000D02*
D03*
X42000Y644500D02*
D03*
X291000Y372000D02*
D03*
X260000Y599500D02*
D03*
X801000Y301500D02*
D03*
Y286500D02*
D03*
X729000Y301500D02*
D03*
X136110Y879000D02*
D03*
Y894000D02*
D03*
X403000Y794500D02*
D03*
D24*
X385000Y641000D02*
D03*
X287000Y792000D02*
D03*
X341000Y436000D02*
D03*
X326500Y296750D02*
D03*
X373000Y641000D02*
D03*
X299000Y792000D02*
D03*
X338500Y296750D02*
D03*
X353000Y436000D02*
D03*
D25*
X470000Y584500D02*
D03*
X320000Y661000D02*
D03*
Y644000D02*
D03*
X470000Y567500D02*
D03*
X260000Y524500D02*
D03*
Y507500D02*
D03*
X372500Y327750D02*
D03*
Y310750D02*
D03*
Y343250D02*
D03*
Y360250D02*
D03*
D26*
X490450Y433750D02*
D03*
Y420750D02*
D03*
X515550D02*
D03*
X490450Y414250D02*
D03*
Y427250D02*
D03*
X515550Y433750D02*
D03*
Y427250D02*
D03*
Y414250D02*
D03*
D27*
X755000Y292500D02*
D03*
X780100Y283000D02*
D03*
X755000D02*
D03*
X780100Y292500D02*
D03*
Y302000D02*
D03*
X755000D02*
D03*
D28*
X473233Y234000D02*
D03*
X490767D02*
D03*
X412466Y275000D02*
D03*
X430000D02*
D03*
D29*
X415784Y461784D02*
D03*
X375784Y616216D02*
D03*
X330784D02*
D03*
X420784Y461784D02*
D03*
X395784Y616216D02*
D03*
X370784D02*
D03*
X320784D02*
D03*
X410784Y461784D02*
D03*
X405784D02*
D03*
X400784D02*
D03*
X395784D02*
D03*
X390784D02*
D03*
X385784D02*
D03*
X380784D02*
D03*
X375784D02*
D03*
X310784D02*
D03*
X305784D02*
D03*
X300784D02*
D03*
Y616216D02*
D03*
X305784D02*
D03*
X310784D02*
D03*
X315784D02*
D03*
X325784D02*
D03*
X335784D02*
D03*
X340784D02*
D03*
X345784D02*
D03*
X350784D02*
D03*
X355784D02*
D03*
X360784D02*
D03*
X365784D02*
D03*
X380784D02*
D03*
X385784D02*
D03*
X390784D02*
D03*
X400784D02*
D03*
X405784D02*
D03*
X410784D02*
D03*
X415784D02*
D03*
X420784D02*
D03*
X330784Y461784D02*
D03*
X350784D02*
D03*
X315784D02*
D03*
X325784D02*
D03*
X340784D02*
D03*
X320784D02*
D03*
X335784D02*
D03*
X370784D02*
D03*
X345784D02*
D03*
X365784D02*
D03*
X355784D02*
D03*
X360784D02*
D03*
D30*
X418518Y403750D02*
D03*
X417259Y309750D02*
D03*
X404741D02*
D03*
X406000Y403750D02*
D03*
D31*
X418000Y341750D02*
D03*
X404000D02*
D03*
D32*
X356750Y800000D02*
D03*
X369250D02*
D03*
D33*
X366000Y688000D02*
D03*
X350000Y666000D02*
D03*
Y688000D02*
D03*
X366000Y666000D02*
D03*
D34*
X326000Y701000D02*
D03*
X260000Y566000D02*
D03*
Y554000D02*
D03*
X326000Y689000D02*
D03*
X289500Y273750D02*
D03*
Y261750D02*
D03*
X297000Y414000D02*
D03*
Y426000D02*
D03*
D35*
X216352Y879050D02*
D03*
Y853650D02*
D03*
Y840950D02*
D03*
Y866350D02*
D03*
X161869D02*
D03*
Y853650D02*
D03*
Y840950D02*
D03*
Y879050D02*
D03*
D36*
X133458Y929000D02*
D03*
X170542D02*
D03*
D37*
X102000Y665000D02*
D03*
D38*
X348500Y221850D02*
D03*
X358000Y242150D02*
D03*
X367500Y221850D02*
D03*
D39*
X346900Y319750D02*
D03*
X308800Y372250D02*
D03*
X321500Y319750D02*
D03*
X308800D02*
D03*
X334200D02*
D03*
X321500Y372250D02*
D03*
X334200D02*
D03*
X346900D02*
D03*
D40*
X230000Y907000D02*
D03*
Y947000D02*
D03*
D41*
X431000Y232000D02*
D03*
X410700Y222500D02*
D03*
Y241500D02*
D03*
D42*
X41000Y781000D02*
D03*
X81000D02*
D03*
D43*
X259000Y705000D02*
D03*
X285000D02*
D03*
D44*
X102000Y688000D02*
D03*
Y711000D02*
D03*
D45*
X42000Y688000D02*
D03*
D46*
X237500Y625000D02*
D03*
X220500D02*
D03*
X370500Y817000D02*
D03*
X353500D02*
D03*
X330500Y399000D02*
D03*
X347500D02*
D03*
X324000Y267750D02*
D03*
X341000D02*
D03*
D47*
X354000Y635000D02*
D03*
X339000D02*
D03*
D48*
X468000Y275000D02*
D03*
X496000D02*
D03*
D49*
X282747Y296750D02*
D03*
X296253D02*
D03*
D50*
X269000Y382000D02*
D03*
Y398000D02*
D03*
D51*
X289747Y235750D02*
D03*
X307253D02*
D03*
D52*
X373000Y403753D02*
D03*
Y390247D02*
D03*
D53*
X71000Y879019D02*
D03*
Y828981D02*
D03*
D56*
X779000Y430000D02*
D03*
X630000Y455000D02*
D03*
D57*
X502000Y534800D02*
D03*
Y509400D02*
D03*
Y484000D02*
D03*
X476600D02*
D03*
Y509400D02*
D03*
Y534800D02*
D03*
D58*
X324000Y927000D02*
D03*
X77000Y136000D02*
D03*
Y236000D02*
D03*
X37000Y136000D02*
D03*
Y236000D02*
D03*
X539000D02*
D03*
X579000Y136000D02*
D03*
Y236000D02*
D03*
X539000Y136000D02*
D03*
X284000Y927000D02*
D03*
D59*
X306700Y742000D02*
D03*
D60*
X214000Y660000D02*
D03*
X189000D02*
D03*
D61*
X186000Y308000D02*
D03*
X226000D02*
D03*
D62*
X200000Y43000D02*
D03*
X129000D02*
D03*
Y136000D02*
D03*
X271000D02*
D03*
Y43000D02*
D03*
X200000Y136000D02*
D03*
X702000Y43000D02*
D03*
X631000D02*
D03*
Y136000D02*
D03*
X702000D02*
D03*
X773000D02*
D03*
Y43000D02*
D03*
D63*
X273500Y193000D02*
D03*
X293500D02*
D03*
X313500D02*
D03*
X303500D02*
D03*
X283500D02*
D03*
X58000D02*
D03*
X48000D02*
D03*
X38000D02*
D03*
X28000D02*
D03*
X323500D02*
D03*
X786000D02*
D03*
X796000D02*
D03*
X806000D02*
D03*
X816000D02*
D03*
X826000D02*
D03*
X776000D02*
D03*
X520750D02*
D03*
X530750D02*
D03*
X540750D02*
D03*
X550750D02*
D03*
X560750D02*
D03*
X510750D02*
D03*
X8000D02*
D03*
X18000D02*
D03*
D64*
X674284Y701716D02*
D03*
X568218Y807782D02*
D03*
D65*
X281300Y742000D02*
D03*
D66*
X617530Y836252D02*
D03*
X674470D02*
D03*
X723782Y807782D02*
D03*
X752252Y758470D02*
D03*
Y701530D02*
D03*
X723782Y652218D02*
D03*
X674470Y623748D02*
D03*
X617530D02*
D03*
X568218Y652218D02*
D03*
X539748Y701530D02*
D03*
Y758470D02*
D03*
D67*
X164000Y660000D02*
D03*
D68*
X145000Y730000D02*
D03*
X233000D02*
D03*
D69*
X73000Y898000D02*
D03*
X367000Y855000D02*
D03*
X187000Y843000D02*
D03*
X151000Y899000D02*
D03*
X118000Y820000D02*
D03*
X102000Y643000D02*
D03*
X109890Y938000D02*
D03*
X391000Y735000D02*
D03*
X299000Y530000D02*
D03*
X487000Y772000D02*
D03*
X457000Y797000D02*
D03*
X491000Y611000D02*
D03*
X484000Y684000D02*
D03*
X446000Y641000D02*
D03*
X430000Y698000D02*
D03*
X403000Y834000D02*
D03*
X420000Y748000D02*
D03*
X429000Y658000D02*
D03*
X424000Y602000D02*
D03*
X555000Y436000D02*
D03*
X503000Y421000D02*
D03*
X456000Y589000D02*
D03*
X453000Y514000D02*
D03*
X487000Y448000D02*
D03*
X786000Y261000D02*
D03*
X729000Y272000D02*
D03*
X473000Y254000D02*
D03*
X425000Y576000D02*
D03*
X427000Y445000D02*
D03*
X441000Y427000D02*
D03*
X418000Y419000D02*
D03*
X420000Y388000D02*
D03*
X418000Y357000D02*
D03*
X346000Y801000D02*
D03*
X242000Y807000D02*
D03*
X372000Y745000D02*
D03*
X353000Y705000D02*
D03*
X383000Y679000D02*
D03*
X386000Y657000D02*
D03*
X362000Y643000D02*
D03*
X337000Y708000D02*
D03*
X264500Y659500D02*
D03*
X187000Y878000D02*
D03*
X129000Y842000D02*
D03*
X202000Y817000D02*
D03*
X121000Y717000D02*
D03*
X42000Y614500D02*
D03*
X385000Y603906D02*
D03*
X334000Y601000D02*
D03*
X341000Y421000D02*
D03*
X359000Y320000D02*
D03*
X334000Y221000D02*
D03*
X326000Y283000D02*
D03*
X281000Y611000D02*
D03*
X298000Y591000D02*
D03*
X297000Y553000D02*
D03*
X249000Y637000D02*
D03*
X241000Y579000D02*
D03*
X319000Y476000D02*
D03*
X298000D02*
D03*
X282000Y345000D02*
D03*
X729000Y330000D02*
D03*
X72000Y688000D02*
D03*
X42196Y664142D02*
D03*
X410000Y732000D02*
D03*
X403994Y603922D02*
D03*
X278000Y465000D02*
D03*
X461000Y734000D02*
D03*
X478000Y660000D02*
D03*
X445000Y769000D02*
D03*
X444000Y735000D02*
D03*
X533000Y436000D02*
D03*
X755000Y244000D02*
D03*
X434000Y245000D02*
D03*
X421000Y476000D02*
D03*
X417000Y325000D02*
D03*
X387000Y757000D02*
D03*
X259000Y722000D02*
D03*
X370000Y604000D02*
D03*
X291000Y385000D02*
D03*
X242000Y604000D02*
D03*
X270000Y438000D02*
D03*
X425690Y589000D02*
D03*
X298000Y495000D02*
D03*
X220000Y604000D02*
D03*
X454000Y460000D02*
D03*
X394000Y582000D02*
D03*
X355000Y577000D02*
D03*
X317000Y538000D02*
D03*
X333000D02*
D03*
X349000D02*
D03*
X365000D02*
D03*
X381000D02*
D03*
X397000D02*
D03*
X413000D02*
D03*
X357000Y516000D02*
D03*
X373000D02*
D03*
X389000D02*
D03*
X405000D02*
D03*
X341000D02*
D03*
X516000Y460000D02*
D03*
X297000Y511000D02*
D03*
X394000Y477000D02*
D03*
X389000Y699000D02*
D03*
X399000Y629000D02*
D03*
X321290Y384710D02*
D03*
X321000Y422000D02*
D03*
X490000Y400000D02*
D03*
X487000Y383000D02*
D03*
X491000Y325000D02*
D03*
X323000Y634000D02*
D03*
X408000Y477000D02*
D03*
X355000Y604000D02*
D03*
D70*
X414000Y773388D02*
D03*
X420500Y717000D02*
D03*
X401000D02*
D03*
X375000Y773388D02*
D03*
X375000Y717000D02*
D03*
X368500Y773388D02*
D03*
X368500Y717000D02*
D03*
X427000Y773388D02*
D03*
X427000Y717000D02*
D03*
X407500D02*
D03*
X381500Y773388D02*
D03*
X414000Y717000D02*
D03*
X420500Y773388D02*
D03*
X407500D02*
D03*
X401000D02*
D03*
X394500D02*
D03*
X388000D02*
D03*
X381500Y717000D02*
D03*
X388000D02*
D03*
X394500D02*
D03*
D71*
X338035Y855000D02*
X367000D01*
X109890Y938000D02*
X114040Y933850D01*
X128608D01*
X133458Y929000D01*
X479451Y764451D02*
X487000Y772000D01*
X479000Y750000D02*
X479451Y750451D01*
Y764451D01*
X478006Y750000D02*
X479000D01*
X476451Y691549D02*
Y705543D01*
Y691549D02*
X484000Y684000D01*
X476000Y705994D02*
X476451Y705543D01*
X403000Y834000D02*
X403000Y834000D01*
X403000Y809500D02*
Y834000D01*
X473233Y234000D02*
Y253767D01*
X473000Y254000D02*
X473233Y253767D01*
X372000Y713000D02*
Y777000D01*
X264500Y659500D02*
Y674000D01*
X254000Y642000D02*
X265000D01*
X249000Y637000D02*
X254000Y642000D01*
X178000Y817000D02*
X202000D01*
X242000Y807000D02*
Y827994D01*
X347650Y221000D02*
X348500Y221850D01*
X334000Y221000D02*
X347650D01*
X231420Y894870D02*
Y905580D01*
X230000Y907000D02*
X231420Y905580D01*
Y894870D02*
X242000Y884290D01*
Y863000D02*
Y884290D01*
X432520Y243520D02*
X434000Y245000D01*
X432520Y233520D02*
Y243520D01*
X431000Y232000D02*
X432520Y233520D01*
X259000Y705000D02*
Y722000D01*
X41000Y781000D02*
X41500Y780500D01*
Y688500D02*
Y780500D01*
Y688500D02*
X42000Y688000D01*
X170542Y929000D02*
X173479Y931937D01*
X196704D01*
X206260Y941493D01*
X226580D01*
X230000Y944913D01*
Y947000D01*
X264000D01*
X284000Y927000D01*
D72*
X102000Y643000D02*
Y665000D01*
X102000Y665000D01*
X457000Y787436D02*
Y797000D01*
X456960Y787396D02*
X457000Y787436D01*
X456960Y784460D02*
Y787396D01*
X455000Y783250D02*
X455750D01*
X456960Y784460D01*
X431867Y698367D02*
X441250Y707750D01*
X442000D01*
X490633Y610633D02*
X491000Y611000D01*
X485633Y610633D02*
X490633D01*
X477500Y602500D02*
X485633Y610633D01*
X477500Y602000D02*
Y602500D01*
X468540Y584250D02*
X468790Y584500D01*
X470000D01*
X449878Y669872D02*
X450000Y669994D01*
X429122Y669872D02*
X449878D01*
X446000Y641000D02*
X462500D01*
X460750Y584250D02*
X468540D01*
X430000Y698000D02*
X430367Y698367D01*
X431867D01*
X429000Y669750D02*
X429122Y669872D01*
X429000Y658000D02*
Y669750D01*
X555000Y435480D02*
Y436000D01*
X551750Y432230D02*
X555000Y435480D01*
X551750Y422960D02*
Y432230D01*
X551500Y422710D02*
X551750Y422960D01*
X551500Y421000D02*
Y422710D01*
X456000Y589000D02*
X460750Y584250D01*
X754640Y292140D02*
X755000Y292500D01*
X744140Y292140D02*
X754640D01*
X738500Y286500D02*
X744140Y292140D01*
X729000Y286500D02*
X738500D01*
X770000Y261000D02*
X786000D01*
X729000Y272000D02*
Y286500D01*
X441000Y427000D02*
X456000D01*
X420000Y373000D02*
Y388000D01*
X418259Y404009D02*
X418518Y403750D01*
X418000Y419000D02*
X418259Y418741D01*
Y404009D02*
Y418741D01*
X418000Y341750D02*
Y357000D01*
Y341750D02*
X418000Y341750D01*
X346000Y801000D02*
X346520D01*
X347519Y800000D02*
X356750D01*
X346520Y801000D02*
X347519Y800000D01*
X196000Y872000D02*
X203050Y879050D01*
X216352D01*
X196000Y860000D02*
Y872000D01*
X202350Y853650D02*
X216352D01*
X196000Y860000D02*
X202350Y853650D01*
X129055Y859945D02*
X129110Y860000D01*
X129055Y842055D02*
Y859945D01*
X129000Y842000D02*
X129055Y842055D01*
X121000Y717000D02*
Y717520D01*
X117000Y721519D02*
Y734000D01*
Y721519D02*
X121000Y717520D01*
X42000Y614500D02*
Y629500D01*
X358875Y319875D02*
X359000Y320000D01*
X347025Y319875D02*
X358875D01*
X341000Y421000D02*
Y436000D01*
X346900Y319750D02*
X347025Y319875D01*
X326250Y296500D02*
X326500Y296750D01*
X326250Y283250D02*
Y296500D01*
X326000Y283000D02*
X326250Y283250D01*
X281000Y605000D02*
Y611000D01*
X258040Y584250D02*
X258290Y584500D01*
X260000D01*
X246770Y584250D02*
X258040D01*
X260000Y566000D02*
Y584500D01*
X241520Y579000D02*
X246770Y584250D01*
X241000Y579000D02*
X241520D01*
X290500Y357000D02*
X291000D01*
X282367Y348867D02*
X290500Y357000D01*
X282000Y345000D02*
X282367Y345367D01*
Y348867D01*
X71000Y879019D02*
X76866D01*
X84867Y887020D01*
Y889201D01*
X88206Y892540D01*
X729000Y301500D02*
Y330000D01*
X37000Y134000D02*
Y136000D01*
Y134000D02*
X61000Y110000D01*
X174000D01*
X77000Y136000D02*
X129000D01*
X174000Y110000D02*
X200000Y136000D01*
X349000Y781000D02*
X351991Y783991D01*
X354704D02*
X368040Y797327D01*
X351991Y783991D02*
X354704D01*
X349000Y780006D02*
Y781000D01*
X368040Y797327D02*
Y798790D01*
X369250Y800000D01*
X475122Y721128D02*
X476000Y722006D01*
X477750Y659750D02*
X478000Y660000D01*
X477750Y641250D02*
Y659750D01*
X442878Y721128D02*
X475122D01*
X477500Y641000D02*
X477750Y641250D01*
X477500Y629500D02*
Y641000D01*
X462500Y614500D02*
X477500Y629500D01*
X462500Y602000D02*
Y614500D01*
X442000Y720250D02*
X442878Y721128D01*
X536250Y422960D02*
Y432230D01*
Y422960D02*
X536500Y422710D01*
Y421000D02*
Y422710D01*
X533000Y435480D02*
X536250Y432230D01*
X533000Y435480D02*
Y436000D01*
X755000Y283000D02*
X780100D01*
X755000Y261000D02*
Y283000D01*
Y244000D02*
Y261000D01*
X417130Y309880D02*
X417259Y309750D01*
X417000Y325000D02*
X417130Y324870D01*
Y309880D02*
Y324870D01*
X242000Y604000D02*
X242520D01*
X308800Y372210D02*
Y372250D01*
X291000Y372000D02*
X308590D01*
X308800Y372210D01*
X291000Y372000D02*
Y385000D01*
X258290Y599500D02*
X260000D01*
X246770Y599750D02*
X258040D01*
X258290Y599500D01*
X242520Y604000D02*
X246770Y599750D01*
X404741Y297243D02*
X412466Y289518D01*
Y275000D02*
Y289518D01*
X404741Y297243D02*
Y309750D01*
X404241Y310250D02*
X404741Y309750D01*
X372500Y310750D02*
X373000Y310250D01*
X404241D01*
X405999Y403751D02*
X406000Y403750D01*
X373001Y403751D02*
X405999D01*
X373000Y403753D02*
X373001Y403751D01*
X404000Y341750D02*
Y372000D01*
X405500Y373500D01*
Y403250D01*
X404000Y310491D02*
Y341750D01*
X308000Y638133D02*
Y638133D01*
X301584Y644549D02*
X308000Y638133D01*
X102000Y711000D02*
Y734000D01*
X102000Y734000D02*
X102000Y734000D01*
X102000Y734000D02*
Y734500D01*
X81000Y755500D02*
X102000Y734500D01*
X81000Y755500D02*
Y781000D01*
X71000Y791000D02*
Y828981D01*
Y791000D02*
X71040Y790960D01*
Y786960D02*
Y790960D01*
Y786960D02*
X77000Y781000D01*
X81000D01*
X124994D01*
X160994Y817000D01*
X161989D01*
X161929Y817060D02*
X161989Y817000D01*
X161929Y817060D02*
Y840890D01*
X161869Y840950D02*
X161929Y840890D01*
X220000Y604000D02*
X220250Y604250D01*
Y624750D01*
X220500Y625000D01*
X603000Y405000D02*
X630000Y432000D01*
Y455000D01*
X527000Y405000D02*
X603000D01*
X321290Y372460D02*
Y384710D01*
Y372460D02*
X321500Y372250D01*
X471000Y399000D02*
X487000Y383000D01*
X471000Y399000D02*
Y427000D01*
X353000Y404500D02*
Y436000D01*
X349460Y400960D02*
X353000Y404500D01*
X349460Y400460D02*
Y400960D01*
X348000Y399000D02*
X349460Y400460D01*
X347500Y399000D02*
X348000D01*
X347110Y398610D02*
X347500Y399000D01*
X347110Y372460D02*
Y398610D01*
X346900Y372250D02*
X347110Y372460D01*
X372750Y389997D02*
X373000Y390247D01*
X372750Y360500D02*
Y389997D01*
X372500Y360250D02*
X372750Y360500D01*
X405500Y403250D02*
X406000Y403750D01*
X339000Y268000D02*
Y293750D01*
X282747Y279753D02*
Y296750D01*
Y279753D02*
X288750Y273750D01*
X289500D01*
X323500Y267750D02*
X324000D01*
X317500Y261750D02*
X323500Y267750D01*
X289500Y261750D02*
X317500D01*
X289500D02*
X289624Y261626D01*
Y235874D02*
Y261626D01*
Y235874D02*
X289747Y235750D01*
X307253D02*
X307970D01*
X314370Y242150D01*
X358000D01*
X358650Y241500D01*
X410700D01*
X427515Y272515D02*
X430000Y275000D01*
X410700Y249700D02*
X427515Y266515D01*
X410700Y241500D02*
Y249700D01*
X427515Y266515D02*
Y272515D01*
X430000Y275000D02*
X468000D01*
X490767Y234000D02*
X491000D01*
X496000Y239000D01*
Y278750D01*
X515550Y405750D02*
X516300Y405000D01*
X515550Y405750D02*
Y414250D01*
Y298300D02*
Y405750D01*
X496000Y278750D02*
X515550Y298300D01*
X780100Y292500D02*
X794500D01*
X800500Y286500D01*
X801000D01*
X800750Y301750D02*
X801000Y301500D01*
X780350Y301750D02*
X800750D01*
X780100Y302000D02*
X780350Y301750D01*
X754750D02*
X755000Y302000D01*
X729250Y301750D02*
X754750D01*
X729000Y301500D02*
X729250Y301750D01*
X450000Y685451D02*
Y686006D01*
X447009Y682460D02*
X450000Y685451D01*
X430960Y682460D02*
X447009D01*
X430750Y682250D02*
X430960Y682460D01*
X429000Y682250D02*
X430750D01*
X88206Y892540D02*
X134650D01*
X136110Y894000D01*
X137570Y892540D01*
X143743D01*
X157233Y879050D01*
X161869D01*
X260000Y524500D02*
Y554000D01*
X321460Y636059D02*
Y642540D01*
X323000Y634000D02*
Y634520D01*
X321460Y636059D02*
X323000Y634520D01*
X161742Y853777D02*
X161869Y853650D01*
X150333Y853777D02*
X161742D01*
X146070Y858040D02*
X150333Y853777D01*
X145570Y858040D02*
X146070D01*
X144110Y859500D02*
X145570Y858040D01*
X144110Y859500D02*
Y860000D01*
X320000Y644000D02*
X321460Y642540D01*
X676000Y110000D02*
X702000Y136000D01*
X539000D02*
X565000Y110000D01*
X676000D01*
X631000Y136000D02*
X631000Y136000D01*
X579000Y136000D02*
X631000D01*
M02*
