G04*
G04 #@! TF.GenerationSoftware,Altium Limited,Altium Designer,26.4.1 (12)*
G04*
G04 Layer_Color=8388736*
%FSLAX44Y44*%
%MOMM*%
G71*
G04*
G04 #@! TF.SameCoordinates,BD5BABF8-3824-4924-9F89-2B5EB64A2FC9*
G04*
G04*
G04 #@! TF.FilePolarity,Negative*
G04*
G01*
G75*
%ADD17R,2.9908X1.1620*%
%ADD18R,1.3051X1.1062*%
%ADD19R,1.1062X1.3051*%
%ADD20R,0.9000X0.7500*%
%ADD21R,0.8000X0.9000*%
%ADD22R,1.4620X0.2794*%
%ADD23R,0.9000X0.8000*%
%ADD24R,0.7500X0.9000*%
%ADD25R,0.8000X0.9000*%
G04:AMPARAMS|DCode=26|XSize=1.21mm|YSize=0.48mm|CornerRadius=0.12mm|HoleSize=0mm|Usage=FLASHONLY|Rotation=180.000|XOffset=0mm|YOffset=0mm|HoleType=Round|Shape=RoundedRectangle|*
%AMROUNDEDRECTD26*
21,1,1.2100,0.2400,0,0,180.0*
21,1,0.9700,0.4800,0,0,180.0*
1,1,0.2400,-0.4850,0.1200*
1,1,0.2400,0.4850,0.1200*
1,1,0.2400,0.4850,-0.1200*
1,1,0.2400,-0.4850,-0.1200*
%
%ADD26ROUNDEDRECTD26*%
G04:AMPARAMS|DCode=27|XSize=1.21mm|YSize=0.58mm|CornerRadius=0.0725mm|HoleSize=0mm|Usage=FLASHONLY|Rotation=0.000|XOffset=0mm|YOffset=0mm|HoleType=Round|Shape=RoundedRectangle|*
%AMROUNDEDRECTD27*
21,1,1.2100,0.4350,0,0,0.0*
21,1,1.0650,0.5800,0,0,0.0*
1,1,0.1450,0.5325,-0.2175*
1,1,0.1450,-0.5325,-0.2175*
1,1,0.1450,-0.5325,0.2175*
1,1,0.1450,0.5325,0.2175*
%
%ADD27ROUNDEDRECTD27*%
%ADD28R,1.0587X1.0121*%
%ADD29R,0.2794X1.4620*%
%ADD30R,0.7103X0.8121*%
%ADD31R,0.9000X0.9000*%
%ADD32R,0.7500X0.9000*%
%ADD33R,1.1500X1.4000*%
%ADD34R,0.9000X0.7500*%
%ADD35R,1.4605X0.5334*%
%ADD36R,2.1844X2.1844*%
%ADD37R,1.6042X0.8798*%
G04:AMPARAMS|DCode=39|XSize=0.55mm|YSize=1.25mm|CornerRadius=0.0495mm|HoleSize=0mm|Usage=FLASHONLY|Rotation=180.000|XOffset=0mm|YOffset=0mm|HoleType=Round|Shape=RoundedRectangle|*
%AMROUNDEDRECTD39*
21,1,0.5500,1.1510,0,0,180.0*
21,1,0.4510,1.2500,0,0,180.0*
1,1,0.0990,-0.2255,0.5755*
1,1,0.0990,0.2255,0.5755*
1,1,0.0990,0.2255,-0.5755*
1,1,0.0990,-0.2255,-0.5755*
%
%ADD39ROUNDEDRECTD39*%
%ADD40R,1.7000X2.5000*%
%ADD42R,2.5000X1.7000*%
%ADD43R,1.4000X1.0000*%
G04:AMPARAMS|DCode=44|XSize=1.6042mm|YSize=0.8798mm|CornerRadius=0.4399mm|HoleSize=0mm|Usage=FLASHONLY|Rotation=180.000|XOffset=0mm|YOffset=0mm|HoleType=Round|Shape=RoundedRectangle|*
%AMROUNDEDRECTD44*
21,1,1.6042,0.0000,0,0,180.0*
21,1,0.7244,0.8798,0,0,180.0*
1,1,0.8798,-0.3622,0.0000*
1,1,0.8798,0.3622,0.0000*
1,1,0.8798,0.3622,0.0000*
1,1,0.8798,-0.3622,0.0000*
%
%ADD44ROUNDEDRECTD44*%
G04:AMPARAMS|DCode=45|XSize=1.6042mm|YSize=3.1798mm|CornerRadius=0.4411mm|HoleSize=0mm|Usage=FLASHONLY|Rotation=180.000|XOffset=0mm|YOffset=0mm|HoleType=Round|Shape=RoundedRectangle|*
%AMROUNDEDRECTD45*
21,1,1.6042,2.2975,0,0,180.0*
21,1,0.7219,3.1798,0,0,180.0*
1,1,0.8823,-0.3609,1.1488*
1,1,0.8823,0.3609,1.1488*
1,1,0.8823,0.3609,-1.1488*
1,1,0.8823,-0.3609,-1.1488*
%
%ADD45ROUNDEDRECTD45*%
%ADD46R,0.9000X0.8000*%
%ADD47R,0.5000X0.9000*%
%ADD48R,0.9500X1.7000*%
%ADD49R,0.7556X0.8121*%
%ADD50R,1.0000X1.0000*%
%ADD51R,1.1556X1.0121*%
%ADD52R,0.8121X0.7556*%
%ADD53R,3.4798X2.1082*%
G04:AMPARAMS|DCode=54|XSize=1.524mm|YSize=0.794mm|CornerRadius=0.1758mm|HoleSize=0mm|Usage=FLASHONLY|Rotation=90.000|XOffset=0mm|YOffset=0mm|HoleType=Round|Shape=RoundedRectangle|*
%AMROUNDEDRECTD54*
21,1,1.5240,0.4425,0,0,90.0*
21,1,1.1725,0.7940,0,0,90.0*
1,1,0.3515,0.2213,0.5863*
1,1,0.3515,0.2213,-0.5863*
1,1,0.3515,-0.2213,-0.5863*
1,1,0.3515,-0.2213,0.5863*
%
%ADD54ROUNDEDRECTD54*%
G04:AMPARAMS|DCode=55|XSize=1.524mm|YSize=0.794mm|CornerRadius=0.1758mm|HoleSize=0mm|Usage=FLASHONLY|Rotation=0.000|XOffset=0mm|YOffset=0mm|HoleType=Round|Shape=RoundedRectangle|*
%AMROUNDEDRECTD55*
21,1,1.5240,0.4425,0,0,0.0*
21,1,1.1725,0.7940,0,0,0.0*
1,1,0.3515,0.5863,-0.2213*
1,1,0.3515,-0.5863,-0.2213*
1,1,0.3515,-0.5863,0.2213*
1,1,0.3515,0.5863,0.2213*
%
%ADD55ROUNDEDRECTD55*%
%ADD56O,3.0160X1.5080*%
%ADD57C,1.8000*%
%ADD58C,1.5240*%
%ADD59C,1.4000*%
%ADD60C,1.5080*%
%ADD61C,2.0000*%
%ADD62C,1.9000*%
%ADD63C,0.6000*%
%ADD64C,2.0100*%
%ADD65R,1.4000X1.4000*%
%ADD66C,1.9950*%
%ADD67R,1.5080X1.5080*%
%ADD68O,2.3000X4.6000*%
%ADD69C,0.7000*%
D17*
X279965Y855000D02*
D03*
X338035D02*
D03*
D18*
X478006Y750000D02*
D03*
X178000Y817000D02*
D03*
X461994Y750000D02*
D03*
X161989Y817000D02*
D03*
D19*
X476000Y705994D02*
D03*
X450000Y669994D02*
D03*
X242000Y827994D02*
D03*
X349000Y763994D02*
D03*
X242000Y844006D02*
D03*
X476000Y722006D02*
D03*
X349000Y780006D02*
D03*
X450000Y686006D02*
D03*
D20*
X455000Y783250D02*
D03*
X442000Y707750D02*
D03*
X429000Y669750D02*
D03*
X455000Y770750D02*
D03*
X442000Y720250D02*
D03*
X429000Y682250D02*
D03*
D21*
X462500Y641000D02*
D03*
X477500Y602000D02*
D03*
X551500Y421000D02*
D03*
X770000Y261000D02*
D03*
X456000Y427000D02*
D03*
X420000Y373000D02*
D03*
X264500Y674000D02*
D03*
X265000Y642000D02*
D03*
X129110Y860000D02*
D03*
X117000Y734000D02*
D03*
X477500Y641000D02*
D03*
X462500Y602000D02*
D03*
X536500Y421000D02*
D03*
X755000Y261000D02*
D03*
X280000Y642000D02*
D03*
X279500Y674000D02*
D03*
X471000Y427000D02*
D03*
X144110Y860000D02*
D03*
X425500Y802000D02*
D03*
X440500D02*
D03*
X405000Y373000D02*
D03*
X102000Y734000D02*
D03*
D22*
X438000Y594000D02*
D03*
X283568Y599000D02*
D03*
Y484000D02*
D03*
X438000Y599000D02*
D03*
X283568Y479000D02*
D03*
Y594000D02*
D03*
Y494000D02*
D03*
X438000Y544000D02*
D03*
Y589000D02*
D03*
Y584000D02*
D03*
Y579000D02*
D03*
Y574000D02*
D03*
Y569000D02*
D03*
Y564000D02*
D03*
Y559000D02*
D03*
Y554000D02*
D03*
Y549000D02*
D03*
Y539000D02*
D03*
Y534000D02*
D03*
Y529000D02*
D03*
Y524000D02*
D03*
Y519000D02*
D03*
Y514000D02*
D03*
Y509000D02*
D03*
Y504000D02*
D03*
Y499000D02*
D03*
Y494000D02*
D03*
Y489000D02*
D03*
Y484000D02*
D03*
Y479000D02*
D03*
X283568Y489000D02*
D03*
Y499000D02*
D03*
Y504000D02*
D03*
Y509000D02*
D03*
Y514000D02*
D03*
Y524000D02*
D03*
Y529000D02*
D03*
Y534000D02*
D03*
Y544000D02*
D03*
Y549000D02*
D03*
Y554000D02*
D03*
Y559000D02*
D03*
Y564000D02*
D03*
Y569000D02*
D03*
Y574000D02*
D03*
Y579000D02*
D03*
Y584000D02*
D03*
Y589000D02*
D03*
Y539000D02*
D03*
Y519000D02*
D03*
D23*
X403000Y809500D02*
D03*
X729000Y286500D02*
D03*
X42000Y629500D02*
D03*
X260000Y584500D02*
D03*
X291000Y357000D02*
D03*
X42000Y644500D02*
D03*
X291000Y372000D02*
D03*
X260000Y599500D02*
D03*
X801000Y301500D02*
D03*
Y286500D02*
D03*
X729000Y301500D02*
D03*
X136110Y879000D02*
D03*
Y894000D02*
D03*
X403000Y794500D02*
D03*
D24*
X385000Y641000D02*
D03*
X287000Y792000D02*
D03*
X341000Y436000D02*
D03*
X326500Y296750D02*
D03*
X373000Y641000D02*
D03*
X299000Y792000D02*
D03*
X338500Y296750D02*
D03*
X353000Y436000D02*
D03*
D25*
X470000Y584500D02*
D03*
X320000Y661000D02*
D03*
Y644000D02*
D03*
X470000Y567500D02*
D03*
X260000Y524500D02*
D03*
Y507500D02*
D03*
X372500Y327750D02*
D03*
Y310750D02*
D03*
Y343250D02*
D03*
Y360250D02*
D03*
D26*
X490450Y433750D02*
D03*
Y420750D02*
D03*
X515550D02*
D03*
X490450Y414250D02*
D03*
Y427250D02*
D03*
X515550Y433750D02*
D03*
Y427250D02*
D03*
Y414250D02*
D03*
D27*
X755000Y292500D02*
D03*
X780100Y283000D02*
D03*
X755000D02*
D03*
X780100Y292500D02*
D03*
Y302000D02*
D03*
X755000D02*
D03*
D28*
X473233Y234000D02*
D03*
X490767D02*
D03*
X412466Y275000D02*
D03*
X430000D02*
D03*
D29*
X415784Y461784D02*
D03*
X375784Y616216D02*
D03*
X330784D02*
D03*
X420784Y461784D02*
D03*
X395784Y616216D02*
D03*
X370784D02*
D03*
X320784D02*
D03*
X410784Y461784D02*
D03*
X405784D02*
D03*
X400784D02*
D03*
X395784D02*
D03*
X390784D02*
D03*
X385784D02*
D03*
X380784D02*
D03*
X375784D02*
D03*
X310784D02*
D03*
X305784D02*
D03*
X300784D02*
D03*
Y616216D02*
D03*
X305784D02*
D03*
X310784D02*
D03*
X315784D02*
D03*
X325784D02*
D03*
X335784D02*
D03*
X340784D02*
D03*
X345784D02*
D03*
X350784D02*
D03*
X355784D02*
D03*
X360784D02*
D03*
X365784D02*
D03*
X380784D02*
D03*
X385784D02*
D03*
X390784D02*
D03*
X400784D02*
D03*
X405784D02*
D03*
X410784D02*
D03*
X415784D02*
D03*
X420784D02*
D03*
X330784Y461784D02*
D03*
X350784D02*
D03*
X315784D02*
D03*
X325784D02*
D03*
X340784D02*
D03*
X320784D02*
D03*
X335784D02*
D03*
X370784D02*
D03*
X345784D02*
D03*
X365784D02*
D03*
X355784D02*
D03*
X360784D02*
D03*
D30*
X418518Y403750D02*
D03*
X417259Y309750D02*
D03*
X404741D02*
D03*
X406000Y403750D02*
D03*
D31*
X418000Y341750D02*
D03*
X404000D02*
D03*
D32*
X356750Y800000D02*
D03*
X369250D02*
D03*
D33*
X366000Y688000D02*
D03*
X350000Y666000D02*
D03*
Y688000D02*
D03*
X366000Y666000D02*
D03*
D34*
X326000Y701000D02*
D03*
X260000Y566000D02*
D03*
Y554000D02*
D03*
X326000Y689000D02*
D03*
X289500Y273750D02*
D03*
Y261750D02*
D03*
X297000Y414000D02*
D03*
Y426000D02*
D03*
D35*
X216352Y879050D02*
D03*
Y853650D02*
D03*
Y840950D02*
D03*
Y866350D02*
D03*
X161869D02*
D03*
Y853650D02*
D03*
Y840950D02*
D03*
Y879050D02*
D03*
D36*
X133458Y929000D02*
D03*
X170542D02*
D03*
D37*
X102000Y665000D02*
D03*
D39*
X346900Y319750D02*
D03*
X308800Y372250D02*
D03*
X321500Y319750D02*
D03*
X308800D02*
D03*
X334200D02*
D03*
X321500Y372250D02*
D03*
X334200D02*
D03*
X346900D02*
D03*
D40*
X230000Y907000D02*
D03*
Y947000D02*
D03*
D42*
X41000Y781000D02*
D03*
X81000D02*
D03*
D43*
X259000Y705000D02*
D03*
X285000D02*
D03*
D44*
X102000Y688000D02*
D03*
Y711000D02*
D03*
D45*
X42000Y688000D02*
D03*
D46*
X237500Y625000D02*
D03*
X220500D02*
D03*
X370500Y817000D02*
D03*
X353500D02*
D03*
X330500Y399000D02*
D03*
X347500D02*
D03*
X324000Y267750D02*
D03*
X341000D02*
D03*
D47*
X354000Y635000D02*
D03*
X339000D02*
D03*
D48*
X468000Y275000D02*
D03*
X496000D02*
D03*
D49*
X282747Y296750D02*
D03*
X296253D02*
D03*
D50*
X269000Y382000D02*
D03*
Y398000D02*
D03*
D51*
X289747Y235750D02*
D03*
X307253D02*
D03*
D52*
X373000Y403753D02*
D03*
Y390247D02*
D03*
D53*
X71000Y879019D02*
D03*
Y828981D02*
D03*
D54*
X348500Y221850D02*
D03*
X358000Y242150D02*
D03*
X367500Y221850D02*
D03*
D55*
X431000Y232000D02*
D03*
X410700Y222500D02*
D03*
Y241500D02*
D03*
D56*
X779000Y430000D02*
D03*
X630000Y455000D02*
D03*
D57*
X502000Y534800D02*
D03*
Y509400D02*
D03*
Y484000D02*
D03*
X476600D02*
D03*
Y509400D02*
D03*
Y534800D02*
D03*
D58*
X324000Y927000D02*
D03*
X77000Y136000D02*
D03*
Y236000D02*
D03*
X37000Y136000D02*
D03*
Y236000D02*
D03*
X539000D02*
D03*
X579000Y136000D02*
D03*
Y236000D02*
D03*
X539000Y136000D02*
D03*
X284000Y927000D02*
D03*
D59*
X306700Y742000D02*
D03*
D60*
X214000Y660000D02*
D03*
X189000D02*
D03*
D61*
X186000Y308000D02*
D03*
X226000D02*
D03*
D62*
X200000Y43000D02*
D03*
X129000D02*
D03*
Y136000D02*
D03*
X271000D02*
D03*
Y43000D02*
D03*
X200000Y136000D02*
D03*
X702000Y43000D02*
D03*
X631000D02*
D03*
Y136000D02*
D03*
X702000D02*
D03*
X773000D02*
D03*
Y43000D02*
D03*
D63*
X273500Y193000D02*
D03*
X293500D02*
D03*
X313500D02*
D03*
X303500D02*
D03*
X283500D02*
D03*
X58000D02*
D03*
X48000D02*
D03*
X38000D02*
D03*
X28000D02*
D03*
X323500D02*
D03*
X786000D02*
D03*
X796000D02*
D03*
X806000D02*
D03*
X816000D02*
D03*
X826000D02*
D03*
X776000D02*
D03*
X520750D02*
D03*
X530750D02*
D03*
X540750D02*
D03*
X550750D02*
D03*
X560750D02*
D03*
X510750D02*
D03*
X8000D02*
D03*
X18000D02*
D03*
D64*
X674284Y701716D02*
D03*
X568218Y807782D02*
D03*
D65*
X281300Y742000D02*
D03*
D66*
X617530Y836252D02*
D03*
X674470D02*
D03*
X723782Y807782D02*
D03*
X752252Y758470D02*
D03*
Y701530D02*
D03*
X723782Y652218D02*
D03*
X674470Y623748D02*
D03*
X617530D02*
D03*
X568218Y652218D02*
D03*
X539748Y701530D02*
D03*
Y758470D02*
D03*
D67*
X164000Y660000D02*
D03*
D68*
X145000Y730000D02*
D03*
X233000D02*
D03*
D69*
X73000Y898000D02*
D03*
X367000Y855000D02*
D03*
X187000Y843000D02*
D03*
X151000Y899000D02*
D03*
X118000Y820000D02*
D03*
X102000Y643000D02*
D03*
X109890Y938000D02*
D03*
X391000Y735000D02*
D03*
X299000Y530000D02*
D03*
X487000Y772000D02*
D03*
X457000Y797000D02*
D03*
X491000Y611000D02*
D03*
X484000Y684000D02*
D03*
X446000Y641000D02*
D03*
X430000Y698000D02*
D03*
X403000Y834000D02*
D03*
X420000Y748000D02*
D03*
X429000Y658000D02*
D03*
X424000Y602000D02*
D03*
X555000Y436000D02*
D03*
X503000Y421000D02*
D03*
X456000Y589000D02*
D03*
X453000Y514000D02*
D03*
X487000Y448000D02*
D03*
X786000Y261000D02*
D03*
X729000Y272000D02*
D03*
X473000Y254000D02*
D03*
X425000Y576000D02*
D03*
X427000Y445000D02*
D03*
X441000Y427000D02*
D03*
X418000Y419000D02*
D03*
X420000Y388000D02*
D03*
X418000Y357000D02*
D03*
X346000Y801000D02*
D03*
X242000Y807000D02*
D03*
X372000Y745000D02*
D03*
X353000Y705000D02*
D03*
X383000Y679000D02*
D03*
X386000Y657000D02*
D03*
X362000Y643000D02*
D03*
X337000Y708000D02*
D03*
X264500Y659500D02*
D03*
X187000Y878000D02*
D03*
X129000Y842000D02*
D03*
X202000Y817000D02*
D03*
X121000Y717000D02*
D03*
X42000Y614500D02*
D03*
X385000Y603906D02*
D03*
X334000Y601000D02*
D03*
X341000Y421000D02*
D03*
X359000Y320000D02*
D03*
X334000Y221000D02*
D03*
X326000Y283000D02*
D03*
X281000Y611000D02*
D03*
X298000Y591000D02*
D03*
X297000Y553000D02*
D03*
X249000Y637000D02*
D03*
X241000Y579000D02*
D03*
X319000Y476000D02*
D03*
X298000D02*
D03*
X282000Y345000D02*
D03*
X729000Y330000D02*
D03*
X72000Y688000D02*
D03*
X42196Y664142D02*
D03*
X410000Y732000D02*
D03*
X403994Y603922D02*
D03*
X278000Y465000D02*
D03*
X461000Y734000D02*
D03*
X478000Y660000D02*
D03*
X445000Y769000D02*
D03*
X444000Y735000D02*
D03*
X533000Y436000D02*
D03*
X755000Y244000D02*
D03*
X434000Y245000D02*
D03*
X421000Y476000D02*
D03*
X417000Y325000D02*
D03*
X387000Y757000D02*
D03*
X259000Y722000D02*
D03*
X370000Y604000D02*
D03*
X291000Y385000D02*
D03*
X242000Y604000D02*
D03*
X270000Y438000D02*
D03*
X425690Y589000D02*
D03*
X298000Y495000D02*
D03*
X220000Y604000D02*
D03*
X454000Y460000D02*
D03*
X394000Y582000D02*
D03*
X355000Y577000D02*
D03*
X317000Y538000D02*
D03*
X333000D02*
D03*
X349000D02*
D03*
X365000D02*
D03*
X381000D02*
D03*
X397000D02*
D03*
X413000D02*
D03*
X357000Y516000D02*
D03*
X373000D02*
D03*
X389000D02*
D03*
X405000D02*
D03*
X341000D02*
D03*
X516000Y460000D02*
D03*
X297000Y511000D02*
D03*
X394000Y477000D02*
D03*
X389000Y699000D02*
D03*
X399000Y629000D02*
D03*
X321290Y384710D02*
D03*
X321000Y422000D02*
D03*
X490000Y400000D02*
D03*
X487000Y383000D02*
D03*
X491000Y325000D02*
D03*
X323000Y634000D02*
D03*
X408000Y477000D02*
D03*
X355000Y604000D02*
D03*
M02*
