G04*
G04 #@! TF.GenerationSoftware,Altium Limited,Altium Designer,26.4.1 (12)*
G04*
G04 Layer_Color=32896*
%FSLAX44Y44*%
%MOMM*%
G71*
G04*
G04 #@! TF.SameCoordinates,BD5BABF8-3824-4924-9F89-2B5EB64A2FC9*
G04*
G04*
G04 #@! TF.FilePolarity,Positive*
G04*
G01*
G75*
%ADD10C,0.2000*%
%ADD12C,0.2540*%
D10*
X303000Y453500D02*
X320000D01*
X303000Y470500D02*
X320000D01*
X306500Y582500D02*
X323500D01*
X306500Y599500D02*
X323500D01*
X400500D02*
X417500D01*
X400500Y582500D02*
X417500D01*
X322500Y488939D02*
Y509061D01*
X305500Y488939D02*
Y509061D01*
Y544500D02*
X322500D01*
X305500Y561500D02*
X322500D01*
X369500Y599500D02*
X386500D01*
X369500Y582500D02*
X386500D01*
X416500Y484939D02*
Y505061D01*
X399500Y484939D02*
Y505061D01*
X338500Y599500D02*
X355500D01*
X338500Y582500D02*
X355500D01*
X400500Y577500D02*
X417500D01*
X400500Y560500D02*
X417500D01*
X422500Y486500D02*
Y503500D01*
X439500Y486500D02*
Y503500D01*
D12*
X336832Y455336D02*
X338498Y453669D01*
Y450337D01*
X336832Y448671D01*
X330168D01*
X328502Y450337D01*
Y453669D01*
X330168Y455336D01*
X328502Y463666D02*
X338498D01*
X333500Y458668D01*
Y465332D01*
X336832Y468665D02*
X338498Y470331D01*
Y473663D01*
X336832Y475329D01*
X335166D01*
X333500Y473663D01*
X331834Y475329D01*
X330168D01*
X328502Y473663D01*
Y470331D01*
X330168Y468665D01*
X331834D01*
X333500Y470331D01*
X335166Y468665D01*
X336832D01*
X333500Y470331D02*
Y473663D01*
X352664Y617332D02*
X354331Y618998D01*
X357663D01*
X359329Y617332D01*
Y610668D01*
X357663Y609002D01*
X354331D01*
X352664Y610668D01*
X349332Y617332D02*
X347666Y618998D01*
X344334D01*
X342668Y617332D01*
Y615666D01*
X344334Y614000D01*
X346000D01*
X344334D01*
X342668Y612334D01*
Y610668D01*
X344334Y609002D01*
X347666D01*
X349332Y610668D01*
X332671Y618998D02*
X339336D01*
Y614000D01*
X336003Y615666D01*
X334337D01*
X332671Y614000D01*
Y610668D01*
X334337Y609002D01*
X337669D01*
X339336Y610668D01*
X453332Y488335D02*
X454998Y486669D01*
Y483337D01*
X453332Y481671D01*
X446668D01*
X445001Y483337D01*
Y486669D01*
X446668Y488335D01*
X445001Y496666D02*
X454998D01*
X450000Y491668D01*
Y498332D01*
X446668Y501665D02*
X445001Y503331D01*
Y506663D01*
X446668Y508329D01*
X453332D01*
X454998Y506663D01*
Y503331D01*
X453332Y501665D01*
X451666D01*
X450000Y503331D01*
Y508329D01*
X384664Y617332D02*
X386331Y618998D01*
X389663D01*
X391329Y617332D01*
Y610668D01*
X389663Y609002D01*
X386331D01*
X384664Y610668D01*
X376334Y609002D02*
Y618998D01*
X381332Y614000D01*
X374668D01*
X364671Y618998D02*
X368003Y617332D01*
X371335Y614000D01*
Y610668D01*
X369669Y609002D01*
X366337D01*
X364671Y610668D01*
Y612334D01*
X366337Y614000D01*
X371335D01*
X416665Y617332D02*
X418331Y618998D01*
X421663D01*
X423329Y617332D01*
Y610668D01*
X421663Y609002D01*
X418331D01*
X416665Y610668D01*
X408334Y609002D02*
Y618998D01*
X413332Y614000D01*
X406668D01*
X403335Y617332D02*
X401669Y618998D01*
X398337D01*
X396671Y617332D01*
Y615666D01*
X398337Y614000D01*
X400003D01*
X398337D01*
X396671Y612334D01*
Y610668D01*
X398337Y609002D01*
X401669D01*
X403335Y610668D01*
X384668Y570664D02*
X383002Y572331D01*
Y575663D01*
X384668Y577329D01*
X391332D01*
X392998Y575663D01*
Y572331D01*
X391332Y570664D01*
X392998Y562334D02*
X383002D01*
X388000Y567332D01*
Y560668D01*
X392998Y550671D02*
Y557336D01*
X386334Y550671D01*
X384668D01*
X383002Y552337D01*
Y555669D01*
X384668Y557336D01*
X319998Y617332D02*
X321665Y618998D01*
X324997D01*
X326663Y617332D01*
Y610668D01*
X324997Y609002D01*
X321665D01*
X319998Y610668D01*
X311668Y609002D02*
Y618998D01*
X316666Y614000D01*
X310002D01*
X306669Y609002D02*
X303337D01*
X305003D01*
Y618998D01*
X306669Y617332D01*
X320664Y575332D02*
X322331Y576998D01*
X325663D01*
X327329Y575332D01*
Y568668D01*
X325663Y567002D01*
X322331D01*
X320664Y568668D01*
X312334Y567002D02*
Y576998D01*
X317332Y572000D01*
X310668D01*
X307335Y575332D02*
X305669Y576998D01*
X302337D01*
X300671Y575332D01*
Y568668D01*
X302337Y567002D01*
X305669D01*
X307335Y568668D01*
Y575332D01*
X385668Y501665D02*
X384002Y503331D01*
Y506663D01*
X385668Y508329D01*
X392332D01*
X393998Y506663D01*
Y503331D01*
X392332Y501665D01*
X385668Y498332D02*
X384002Y496666D01*
Y493334D01*
X385668Y491668D01*
X387334D01*
X389000Y493334D01*
Y495000D01*
Y493334D01*
X390666Y491668D01*
X392332D01*
X393998Y493334D01*
Y496666D01*
X392332Y498332D01*
Y488335D02*
X393998Y486669D01*
Y483337D01*
X392332Y481671D01*
X385668D01*
X384002Y483337D01*
Y486669D01*
X385668Y488335D01*
X387334D01*
X389000Y486669D01*
Y481671D01*
X320665Y522332D02*
X322331Y523998D01*
X325663D01*
X327329Y522332D01*
Y515668D01*
X325663Y514002D01*
X322331D01*
X320665Y515668D01*
X317332Y522332D02*
X315666Y523998D01*
X312334D01*
X310668Y522332D01*
Y520666D01*
X312334Y519000D01*
X314000D01*
X312334D01*
X310668Y517334D01*
Y515668D01*
X312334Y514002D01*
X315666D01*
X317332Y515668D01*
X307335Y522332D02*
X305669Y523998D01*
X302337D01*
X300671Y522332D01*
Y520666D01*
X302337Y519000D01*
X300671Y517334D01*
Y515668D01*
X302337Y514002D01*
X305669D01*
X307335Y515668D01*
Y517334D01*
X305669Y519000D01*
X307335Y520666D01*
Y522332D01*
X305669Y519000D02*
X302337D01*
M02*
