G04*
G04 #@! TF.GenerationSoftware,Altium Limited,Altium Designer,26.4.1 (12)*
G04*
G04 Layer_Physical_Order=2*
G04 Layer_Color=32768*
%FSLAX44Y44*%
%MOMM*%
G71*
G04*
G04 #@! TF.SameCoordinates,BD5BABF8-3824-4924-9F89-2B5EB64A2FC9*
G04*
G04*
G04 #@! TF.FilePolarity,Negative*
G04*
G01*
G75*
%ADD71C,1.0160*%
%ADD73C,1.0000*%
%ADD74C,3.0000*%
%AMTHOVALD75*
21,1,1.2000,2.5240,0,0,180.0*
1,1,2.5240,0.6000,0.0000*
1,1,2.5240,-0.6000,0.0000*
21,0,1.2000,2.0160,0,0,180.0*
1,0,2.0160,0.6000,0.0000*
1,0,2.0160,-0.6000,0.0000*
4,0,4,0.5102,0.0898,1.4026,0.9822,1.5822,0.8026,0.6898,-0.0898,0.5102,0.0898,0.0*
4,0,4,-0.6898,0.0898,-1.5822,-0.8026,-1.4026,-0.9822,-0.5102,-0.0898,-0.6898,0.0898,0.0*
4,0,4,0.6898,0.0898,1.5822,-0.8026,1.4026,-0.9822,0.5102,-0.0898,0.6898,0.0898,0.0*
4,0,4,-0.5102,0.0898,-1.4026,0.9822,-1.5822,0.8026,-0.6898,-0.0898,-0.5102,0.0898,0.0*
%
%ADD75THOVALD75*%

G04:AMPARAMS|DCode=76|XSize=2.724mm|YSize=2.724mm|CornerRadius=0mm|HoleSize=0mm|Usage=FLASHONLY|Rotation=0.000|XOffset=0mm|YOffset=0mm|HoleType=Round|Shape=Relief|Width=0.254mm|Gap=0.254mm|Entries=4|*
%AMTHD76*
7,0,0,2.7240,2.2160,0.2540,45*
%
%ADD76THD76*%
G04:AMPARAMS|DCode=77|XSize=2.286mm|YSize=2.286mm|CornerRadius=0mm|HoleSize=0mm|Usage=FLASHONLY|Rotation=0.000|XOffset=0mm|YOffset=0mm|HoleType=Round|Shape=Relief|Width=0.254mm|Gap=0.254mm|Entries=4|*
%AMTHD77*
7,0,0,2.2860,1.7780,0.2540,45*
%
%ADD77THD77*%
G04:AMPARAMS|DCode=78|XSize=2.424mm|YSize=2.424mm|CornerRadius=0mm|HoleSize=0mm|Usage=FLASHONLY|Rotation=0.000|XOffset=0mm|YOffset=0mm|HoleType=Round|Shape=Relief|Width=0.254mm|Gap=0.254mm|Entries=4|*
%AMTHD78*
7,0,0,2.4240,1.9160,0.2540,45*
%
%ADD78THD78*%
G04:AMPARAMS|DCode=79|XSize=2.524mm|YSize=2.524mm|CornerRadius=0mm|HoleSize=0mm|Usage=FLASHONLY|Rotation=0.000|XOffset=0mm|YOffset=0mm|HoleType=Round|Shape=Relief|Width=0.254mm|Gap=0.254mm|Entries=4|*
%AMTHD79*
7,0,0,2.5240,2.0160,0.2540,45*
%
%ADD79THD79*%
G04:AMPARAMS|DCode=80|XSize=2.924mm|YSize=2.924mm|CornerRadius=0mm|HoleSize=0mm|Usage=FLASHONLY|Rotation=0.000|XOffset=0mm|YOffset=0mm|HoleType=Round|Shape=Relief|Width=0.254mm|Gap=0.254mm|Entries=4|*
%AMTHD80*
7,0,0,2.9240,2.4160,0.2540,45*
%
%ADD80THD80*%
%ADD81O,3.2160X2.0160*%
%ADD82C,1.7780*%
%ADD83C,2.3160*%
%ADD84C,1.6160*%
%ADD85C,2.3560*%
%ADD86C,2.2160*%
%ADD87C,1.9160*%
%ADD88C,2.4160*%
%ADD89C,2.3460*%
%ADD90C,2.0160*%
%ADD91R,2.8160X3.2160*%
G04:AMPARAMS|DCode=92|XSize=1.824mm|YSize=1.824mm|CornerRadius=0mm|HoleSize=0mm|Usage=FLASHONLY|Rotation=0.000|XOffset=0mm|YOffset=0mm|HoleType=Round|Shape=Relief|Width=0.254mm|Gap=0.254mm|Entries=4|*
%AMTHD92*
7,0,0,1.8240,1.3160,0.2540,45*
%
%ADD92THD92*%
%ADD93C,1.3160*%
G36*
X385861Y1018322D02*
X388143Y1017005D01*
X390005Y1015143D01*
X391322Y1012861D01*
X392004Y1010317D01*
Y1009000D01*
Y1007000D01*
X441996D01*
Y1008317D01*
X442678Y1010861D01*
X443995Y1013142D01*
X445858Y1015005D01*
X448139Y1016322D01*
X450683Y1017004D01*
X453317D01*
X455861Y1016322D01*
X458143Y1015005D01*
X460005Y1013142D01*
X461322Y1010861D01*
X462004Y1008317D01*
Y1007000D01*
Y886000D01*
Y885015D01*
X461619Y883082D01*
X460865Y881261D01*
X459771Y879623D01*
X458377Y878230D01*
X456739Y877135D01*
X454918Y876381D01*
X452985Y875996D01*
X381015D01*
X379082Y876381D01*
X377261Y877135D01*
X375623Y878230D01*
X374230Y879623D01*
X373135Y881261D01*
X372381Y883082D01*
X371996Y885015D01*
Y886000D01*
Y1009000D01*
Y1010317D01*
X372678Y1012861D01*
X373995Y1015143D01*
X375858Y1017005D01*
X378139Y1018322D01*
X380683Y1019004D01*
X383317D01*
X385861Y1018322D01*
D02*
G37*
G36*
X228918Y523619D02*
X230739Y522865D01*
X232377Y521771D01*
X233771Y520377D01*
X234865Y518739D01*
X235619Y516918D01*
X236004Y514985D01*
Y514000D01*
Y346000D01*
Y345015D01*
X235619Y343082D01*
X234865Y341261D01*
X233771Y339623D01*
X232377Y338229D01*
X230739Y337135D01*
X228918Y336381D01*
X226985Y335996D01*
X226000D01*
X-60000Y335996D01*
X-61317D01*
X-63861Y336678D01*
X-66143Y337995D01*
X-68005Y339857D01*
X-69322Y342139D01*
X-70004Y344683D01*
Y347317D01*
X-69322Y349861D01*
X-68005Y352142D01*
X-66143Y354005D01*
X-63861Y355322D01*
X-61317Y356004D01*
X-60000D01*
X-51000D01*
Y503996D01*
X-55000D01*
X-56317D01*
X-58861Y504678D01*
X-61143Y505995D01*
X-63005Y507858D01*
X-64322Y510139D01*
X-65004Y512683D01*
Y515317D01*
X-64322Y517861D01*
X-63005Y520142D01*
X-61143Y522005D01*
X-58861Y523322D01*
X-56317Y524004D01*
X-55000D01*
X226000Y524004D01*
X226985D01*
X228918Y523619D01*
D02*
G37*
G36*
X259420Y195619D02*
X261241Y194865D01*
X262879Y193771D01*
X264272Y192377D01*
X265367Y190739D01*
X266121Y188918D01*
X266506Y186985D01*
Y186000D01*
Y185015D01*
X266121Y183082D01*
X265367Y181261D01*
X264272Y179623D01*
X262879Y178230D01*
X261241Y177135D01*
X259420Y176381D01*
X257487Y175996D01*
X73683D01*
X71139Y176678D01*
X68857Y177995D01*
X66995Y179858D01*
X65678Y182139D01*
X64996Y184683D01*
Y187317D01*
X65678Y189861D01*
X66995Y192143D01*
X68857Y194005D01*
X71139Y195322D01*
X73683Y196004D01*
X257487D01*
X259420Y195619D01*
D02*
G37*
G36*
X761918Y195616D02*
X763739Y194861D01*
X765377Y193767D01*
X766770Y192373D01*
X767865Y190735D01*
X768619Y188914D01*
X769004Y186981D01*
Y185996D01*
Y185011D01*
X768619Y183078D01*
X767865Y181257D01*
X766770Y179619D01*
X765377Y178226D01*
X763739Y177131D01*
X761918Y176377D01*
X759985Y175992D01*
X576683D01*
X574139Y176674D01*
X571857Y177991D01*
X569995Y179854D01*
X568678Y182135D01*
X567996Y184679D01*
Y187313D01*
X568678Y189858D01*
X569995Y192139D01*
X571857Y194001D01*
X574139Y195318D01*
X576683Y196000D01*
X759985D01*
X761918Y195616D01*
D02*
G37*
G36*
X341999Y196000D02*
X494483D01*
X496416Y195616D01*
X498237Y194861D01*
X499875Y193767D01*
X501269Y192373D01*
X501269Y192373D01*
X501272Y192369D01*
X502367Y190731D01*
X503121Y188910D01*
X503506Y186978D01*
Y185992D01*
Y71996D01*
Y70679D01*
X503502Y70665D01*
Y-8004D01*
X492502Y-19004D01*
X331000D01*
Y70685D01*
Y72002D01*
Y184665D01*
X330996Y184679D01*
Y187313D01*
X331266Y188319D01*
X331384Y188916D01*
X331501Y189198D01*
X331678Y189858D01*
X332019Y190449D01*
X332138Y190737D01*
X332484Y191254D01*
X332995Y192139D01*
X334857Y194001D01*
X335721Y194500D01*
X336265Y194863D01*
X336568Y194989D01*
X337139Y195318D01*
X337775Y195489D01*
X338086Y195617D01*
X338744Y195748D01*
X339683Y196000D01*
X340009D01*
X340019Y196002D01*
X341989D01*
X341999Y196000D01*
D02*
G37*
D71*
X462004Y973000D02*
X833000D01*
X462004Y886000D02*
Y973000D01*
Y885015D02*
Y886000D01*
X461619Y883082D02*
X462004Y885015D01*
X460865Y881261D02*
X461619Y883082D01*
X459771Y879623D02*
X460865Y881261D01*
X458377Y878230D02*
X459771Y879623D01*
X456739Y877135D02*
X458377Y878230D01*
X454918Y876381D02*
X456739Y877135D01*
X452985Y875996D02*
X454918Y876381D01*
X381015Y875996D02*
X452985D01*
X379082Y876381D02*
X381015Y875996D01*
X377261Y877135D02*
X379082Y876381D01*
X375623Y878230D02*
X377261Y877135D01*
X374230Y879623D02*
X375623Y878230D01*
X373135Y881261D02*
X374230Y879623D01*
X372381Y883082D02*
X373135Y881261D01*
X371996Y885015D02*
X372381Y883082D01*
X371996Y885015D02*
Y886000D01*
Y973000D01*
X0D02*
X371996D01*
X759985Y196000D02*
X761918Y195616D01*
X763739Y194861D01*
X765377Y193767D01*
X766770Y192373D01*
X767865Y190735D01*
X768619Y188914D01*
X769004Y186981D01*
Y185996D02*
Y186981D01*
Y185011D02*
Y185996D01*
X768619Y183078D02*
X769004Y185011D01*
X767865Y181257D02*
X768619Y183078D01*
X766770Y179619D02*
X767865Y181257D01*
X765377Y178226D02*
X766770Y179619D01*
X763739Y177131D02*
X765377Y178226D01*
X761918Y176377D02*
X763739Y177131D01*
X759985Y175992D02*
X761918Y176377D01*
X576683Y175992D02*
X759985D01*
X574139Y176674D02*
X576683Y175992D01*
X571857Y177991D02*
X574139Y176674D01*
X569995Y179854D02*
X571857Y177991D01*
X568678Y182135D02*
X569995Y179854D01*
X567996Y184679D02*
X568678Y182135D01*
X567996Y184679D02*
Y187313D01*
X568678Y189858D01*
X569995Y192139D01*
X571857Y194001D01*
X574139Y195318D01*
X576683Y196000D01*
X759985D01*
X257487Y196004D02*
X259420Y195619D01*
X261241Y194865D01*
X262879Y193771D01*
X264272Y192377D01*
X265367Y190739D01*
X266121Y188918D01*
X266506Y186985D01*
Y186000D02*
Y186985D01*
Y185015D02*
Y186000D01*
X266121Y183082D02*
X266506Y185015D01*
X265367Y181261D02*
X266121Y183082D01*
X264272Y179623D02*
X265367Y181261D01*
X262879Y178230D02*
X264272Y179623D01*
X261241Y177135D02*
X262879Y178230D01*
X259420Y176381D02*
X261241Y177135D01*
X257487Y175996D02*
X259420Y176381D01*
X73683Y175996D02*
X257487D01*
X71139Y176678D02*
X73683Y175996D01*
X68857Y177995D02*
X71139Y176678D01*
X66995Y179858D02*
X68857Y177995D01*
X65678Y182139D02*
X66995Y179858D01*
X64996Y184683D02*
X65678Y182139D01*
X64996Y184683D02*
Y187317D01*
X65678Y189861D01*
X66995Y192143D01*
X68857Y194005D01*
X71139Y195322D01*
X73683Y196004D01*
X257487D01*
X833000Y0D02*
Y973000D01*
X0Y524004D02*
Y973000D01*
Y524004D02*
X226000Y524004D01*
X226985D01*
X228918Y523619D01*
X230739Y522865D01*
X232377Y521771D01*
X233771Y520377D01*
X234865Y518739D01*
X235619Y516918D01*
X236004Y514985D01*
Y514000D02*
Y514985D01*
Y346000D02*
Y514000D01*
Y345015D02*
Y346000D01*
X235619Y343082D02*
X236004Y345015D01*
X234865Y341261D02*
X235619Y343082D01*
X233771Y339623D02*
X234865Y341261D01*
X232377Y338229D02*
X233771Y339623D01*
X230739Y337135D02*
X232377Y338229D01*
X228918Y336381D02*
X230739Y337135D01*
X226985Y335996D02*
X228918Y336381D01*
X226000Y335996D02*
X226985D01*
X0Y335996D02*
X226000Y335996D01*
X0Y0D02*
Y335996D01*
Y0D02*
X331000D01*
Y70685D01*
Y72002D01*
Y184665D01*
X330996Y184679D02*
X331000Y184665D01*
X330996Y184679D02*
Y187313D01*
X331266Y188319D01*
X331384Y188916D01*
X331501Y189198D01*
X331678Y189858D01*
X332019Y190449D01*
X332138Y190737D01*
X332484Y191254D01*
X332995Y192139D01*
X334857Y194001D01*
X335721Y194500D01*
X336265Y194863D01*
X336568Y194989D01*
X337139Y195318D01*
X337775Y195489D01*
X338086Y195617D01*
X338744Y195748D01*
X339683Y196000D01*
X340009D01*
X340019Y196002D01*
X341989D01*
X341999Y196000D01*
X494483D01*
X496416Y195616D01*
X498237Y194861D01*
X499875Y193767D01*
X501269Y192373D01*
X501269Y192373D01*
X501272Y192369D01*
X502367Y190731D01*
X503121Y188910D01*
X503506Y186978D01*
Y185992D02*
Y186978D01*
Y71996D02*
Y185992D01*
Y70679D02*
Y71996D01*
X503502Y70665D02*
X503506Y70679D01*
X503502Y0D02*
Y70665D01*
Y0D02*
X833000D01*
D73*
X267000Y190000D02*
X327000D01*
X-14000Y196000D02*
X83000D01*
X252000D02*
X349000D01*
X753000D02*
X850000D01*
X768000Y190000D02*
X828000D01*
X488000Y196000D02*
X585000D01*
X503000Y190000D02*
X563000D01*
D74*
X-9000Y186000D02*
X74000D01*
X252000D02*
X335000D01*
X754000D02*
X837000D01*
X492000D02*
X575000D01*
D75*
X779000Y430000D02*
D03*
D76*
X502000Y534800D02*
D03*
D77*
X324000Y927000D02*
D03*
D78*
X306700Y742000D02*
D03*
D79*
X214000Y660000D02*
D03*
D80*
X186000Y308000D02*
D03*
D81*
X630000Y455000D02*
D03*
D82*
X77000Y136000D02*
D03*
Y236000D02*
D03*
X37000Y136000D02*
D03*
Y236000D02*
D03*
X539000D02*
D03*
X579000Y136000D02*
D03*
Y236000D02*
D03*
X539000Y136000D02*
D03*
X284000Y927000D02*
D03*
D83*
X200000Y43000D02*
D03*
X129000D02*
D03*
Y136000D02*
D03*
X271000D02*
D03*
Y43000D02*
D03*
X200000Y136000D02*
D03*
X702000Y43000D02*
D03*
X631000D02*
D03*
Y136000D02*
D03*
X702000D02*
D03*
X773000D02*
D03*
Y43000D02*
D03*
D84*
X273500Y193000D02*
D03*
X293500D02*
D03*
X313500D02*
D03*
X303500D02*
D03*
X283500D02*
D03*
X58000D02*
D03*
X48000D02*
D03*
X38000D02*
D03*
X28000D02*
D03*
X323500D02*
D03*
X786000D02*
D03*
X796000D02*
D03*
X806000D02*
D03*
X816000D02*
D03*
X826000D02*
D03*
X776000D02*
D03*
X520750D02*
D03*
X530750D02*
D03*
X540750D02*
D03*
X550750D02*
D03*
X560750D02*
D03*
X510750D02*
D03*
X8000D02*
D03*
X18000D02*
D03*
D85*
X674284Y701716D02*
D03*
X568218Y807782D02*
D03*
D86*
X502000Y509400D02*
D03*
Y484000D02*
D03*
X476600D02*
D03*
Y509400D02*
D03*
Y534800D02*
D03*
D87*
X281300Y742000D02*
D03*
D88*
X226000Y308000D02*
D03*
D89*
X617530Y836252D02*
D03*
X674470D02*
D03*
X723782Y807782D02*
D03*
X752252Y758470D02*
D03*
Y701530D02*
D03*
X723782Y652218D02*
D03*
X674470Y623748D02*
D03*
X617530D02*
D03*
X568218Y652218D02*
D03*
X539748Y701530D02*
D03*
Y758470D02*
D03*
D90*
X164000Y660000D02*
D03*
X189000D02*
D03*
D91*
X145000Y730000D02*
D03*
X233000D02*
D03*
D92*
X73000Y898000D02*
D03*
X367000Y855000D02*
D03*
X187000Y843000D02*
D03*
X151000Y899000D02*
D03*
X118000Y820000D02*
D03*
X102000Y643000D02*
D03*
X109890Y938000D02*
D03*
X391000Y735000D02*
D03*
X299000Y530000D02*
D03*
X487000Y772000D02*
D03*
X457000Y797000D02*
D03*
X491000Y611000D02*
D03*
X484000Y684000D02*
D03*
X446000Y641000D02*
D03*
X430000Y698000D02*
D03*
X403000Y834000D02*
D03*
X420000Y748000D02*
D03*
X429000Y658000D02*
D03*
X424000Y602000D02*
D03*
X555000Y436000D02*
D03*
X503000Y421000D02*
D03*
X456000Y589000D02*
D03*
X453000Y514000D02*
D03*
X487000Y448000D02*
D03*
X786000Y261000D02*
D03*
X729000Y272000D02*
D03*
X473000Y254000D02*
D03*
X425000Y576000D02*
D03*
X427000Y445000D02*
D03*
X441000Y427000D02*
D03*
X418000Y419000D02*
D03*
X420000Y388000D02*
D03*
X418000Y357000D02*
D03*
X346000Y801000D02*
D03*
X242000Y807000D02*
D03*
X372000Y745000D02*
D03*
X353000Y705000D02*
D03*
X383000Y679000D02*
D03*
X386000Y657000D02*
D03*
X362000Y643000D02*
D03*
X337000Y708000D02*
D03*
X264500Y659500D02*
D03*
X187000Y878000D02*
D03*
X129000Y842000D02*
D03*
X202000Y817000D02*
D03*
X121000Y717000D02*
D03*
X42000Y614500D02*
D03*
X385000Y603906D02*
D03*
X334000Y601000D02*
D03*
X341000Y421000D02*
D03*
X359000Y320000D02*
D03*
X334000Y221000D02*
D03*
X326000Y283000D02*
D03*
X281000Y611000D02*
D03*
X298000Y591000D02*
D03*
X297000Y553000D02*
D03*
X249000Y637000D02*
D03*
X241000Y579000D02*
D03*
X319000Y476000D02*
D03*
X298000D02*
D03*
X282000Y345000D02*
D03*
D93*
X729000Y330000D02*
D03*
X72000Y688000D02*
D03*
X42196Y664142D02*
D03*
X410000Y732000D02*
D03*
X403994Y603922D02*
D03*
X278000Y465000D02*
D03*
X461000Y734000D02*
D03*
X478000Y660000D02*
D03*
X445000Y769000D02*
D03*
X444000Y735000D02*
D03*
X533000Y436000D02*
D03*
X755000Y244000D02*
D03*
X434000Y245000D02*
D03*
X421000Y476000D02*
D03*
X417000Y325000D02*
D03*
X387000Y757000D02*
D03*
X259000Y722000D02*
D03*
X370000Y604000D02*
D03*
X291000Y385000D02*
D03*
X242000Y604000D02*
D03*
X270000Y438000D02*
D03*
X425690Y589000D02*
D03*
X298000Y495000D02*
D03*
X220000Y604000D02*
D03*
X454000Y460000D02*
D03*
X394000Y582000D02*
D03*
X355000Y577000D02*
D03*
X317000Y538000D02*
D03*
X333000D02*
D03*
X349000D02*
D03*
X365000D02*
D03*
X381000D02*
D03*
X397000D02*
D03*
X413000D02*
D03*
X357000Y516000D02*
D03*
X373000D02*
D03*
X389000D02*
D03*
X405000D02*
D03*
X341000D02*
D03*
X516000Y460000D02*
D03*
X297000Y511000D02*
D03*
X394000Y477000D02*
D03*
X389000Y699000D02*
D03*
X399000Y629000D02*
D03*
X321290Y384710D02*
D03*
X321000Y422000D02*
D03*
X490000Y400000D02*
D03*
X487000Y383000D02*
D03*
X491000Y325000D02*
D03*
X323000Y634000D02*
D03*
X408000Y477000D02*
D03*
X355000Y604000D02*
D03*
M02*
