G04*
G04 #@! TF.GenerationSoftware,Altium Limited,Altium Designer,26.4.1 (12)*
G04*
G04 Layer_Color=16711935*
%FSLAX44Y44*%
%MOMM*%
G71*
G04*
G04 #@! TF.SameCoordinates,BD5BABF8-3824-4924-9F89-2B5EB64A2FC9*
G04*
G04*
G04 #@! TF.FilePolarity,Negative*
G04*
G01*
G75*
%ADD21R,0.8000X0.9000*%
%ADD23R,0.9000X0.8000*%
%ADD56O,3.0160X1.5080*%
%ADD57C,1.8000*%
%ADD58C,1.5240*%
%ADD59C,1.4000*%
%ADD60C,1.5080*%
%ADD61C,2.0000*%
%ADD62C,1.9000*%
%ADD63C,0.6000*%
%ADD64C,2.0100*%
%ADD65R,1.4000X1.4000*%
%ADD66C,1.9950*%
%ADD67R,1.5080X1.5080*%
%ADD68O,2.3000X4.6000*%
%ADD69C,0.7000*%
%ADD95R,0.8121X0.7581*%
D21*
X416500Y591000D02*
D03*
X385500D02*
D03*
X416500Y569000D02*
D03*
X339500Y591000D02*
D03*
X307500D02*
D03*
X306500Y553000D02*
D03*
X319000Y462000D02*
D03*
X401500Y591000D02*
D03*
X401500Y569000D02*
D03*
X370500Y591000D02*
D03*
X304000Y462000D02*
D03*
X322500Y591000D02*
D03*
X321500Y553000D02*
D03*
X354500Y591000D02*
D03*
D23*
X431000Y502500D02*
D03*
Y487500D02*
D03*
D56*
X779000Y430000D02*
D03*
X630000Y455000D02*
D03*
D57*
X502000Y534800D02*
D03*
Y509400D02*
D03*
Y484000D02*
D03*
X476600D02*
D03*
Y509400D02*
D03*
Y534800D02*
D03*
D58*
X324000Y927000D02*
D03*
X77000Y136000D02*
D03*
Y236000D02*
D03*
X37000Y136000D02*
D03*
Y236000D02*
D03*
X539000D02*
D03*
X579000Y136000D02*
D03*
Y236000D02*
D03*
X539000Y136000D02*
D03*
X284000Y927000D02*
D03*
D59*
X306700Y742000D02*
D03*
D60*
X214000Y660000D02*
D03*
X189000D02*
D03*
D61*
X186000Y308000D02*
D03*
X226000D02*
D03*
D62*
X200000Y43000D02*
D03*
X129000D02*
D03*
Y136000D02*
D03*
X271000D02*
D03*
Y43000D02*
D03*
X200000Y136000D02*
D03*
X702000Y43000D02*
D03*
X631000D02*
D03*
Y136000D02*
D03*
X702000D02*
D03*
X773000D02*
D03*
Y43000D02*
D03*
D63*
X273500Y193000D02*
D03*
X293500D02*
D03*
X313500D02*
D03*
X303500D02*
D03*
X283500D02*
D03*
X58000D02*
D03*
X48000D02*
D03*
X38000D02*
D03*
X28000D02*
D03*
X323500D02*
D03*
X786000D02*
D03*
X796000D02*
D03*
X806000D02*
D03*
X816000D02*
D03*
X826000D02*
D03*
X776000D02*
D03*
X520750D02*
D03*
X530750D02*
D03*
X540750D02*
D03*
X550750D02*
D03*
X560750D02*
D03*
X510750D02*
D03*
X8000D02*
D03*
X18000D02*
D03*
D64*
X674284Y701716D02*
D03*
X568218Y807782D02*
D03*
D65*
X281300Y742000D02*
D03*
D66*
X617530Y836252D02*
D03*
X674470D02*
D03*
X723782Y807782D02*
D03*
X752252Y758470D02*
D03*
Y701530D02*
D03*
X723782Y652218D02*
D03*
X674470Y623748D02*
D03*
X617530D02*
D03*
X568218Y652218D02*
D03*
X539748Y701530D02*
D03*
Y758470D02*
D03*
D67*
X164000Y660000D02*
D03*
D68*
X145000Y730000D02*
D03*
X233000D02*
D03*
D69*
X73000Y898000D02*
D03*
X367000Y855000D02*
D03*
X187000Y843000D02*
D03*
X151000Y899000D02*
D03*
X118000Y820000D02*
D03*
X102000Y643000D02*
D03*
X109890Y938000D02*
D03*
X391000Y735000D02*
D03*
X299000Y530000D02*
D03*
X487000Y772000D02*
D03*
X457000Y797000D02*
D03*
X491000Y611000D02*
D03*
X484000Y684000D02*
D03*
X446000Y641000D02*
D03*
X430000Y698000D02*
D03*
X403000Y834000D02*
D03*
X420000Y748000D02*
D03*
X429000Y658000D02*
D03*
X424000Y602000D02*
D03*
X555000Y436000D02*
D03*
X503000Y421000D02*
D03*
X456000Y589000D02*
D03*
X453000Y514000D02*
D03*
X487000Y448000D02*
D03*
X786000Y261000D02*
D03*
X729000Y272000D02*
D03*
X473000Y254000D02*
D03*
X425000Y576000D02*
D03*
X427000Y445000D02*
D03*
X441000Y427000D02*
D03*
X418000Y419000D02*
D03*
X420000Y388000D02*
D03*
X418000Y357000D02*
D03*
X346000Y801000D02*
D03*
X242000Y807000D02*
D03*
X372000Y745000D02*
D03*
X353000Y705000D02*
D03*
X383000Y679000D02*
D03*
X386000Y657000D02*
D03*
X362000Y643000D02*
D03*
X337000Y708000D02*
D03*
X264500Y659500D02*
D03*
X187000Y878000D02*
D03*
X129000Y842000D02*
D03*
X202000Y817000D02*
D03*
X121000Y717000D02*
D03*
X42000Y614500D02*
D03*
X385000Y603906D02*
D03*
X334000Y601000D02*
D03*
X341000Y421000D02*
D03*
X359000Y320000D02*
D03*
X334000Y221000D02*
D03*
X326000Y283000D02*
D03*
X281000Y611000D02*
D03*
X298000Y591000D02*
D03*
X297000Y553000D02*
D03*
X249000Y637000D02*
D03*
X241000Y579000D02*
D03*
X319000Y476000D02*
D03*
X298000D02*
D03*
X282000Y345000D02*
D03*
X729000Y330000D02*
D03*
X72000Y688000D02*
D03*
X42196Y664142D02*
D03*
X410000Y732000D02*
D03*
X403994Y603922D02*
D03*
X278000Y465000D02*
D03*
X461000Y734000D02*
D03*
X478000Y660000D02*
D03*
X445000Y769000D02*
D03*
X444000Y735000D02*
D03*
X533000Y436000D02*
D03*
X755000Y244000D02*
D03*
X434000Y245000D02*
D03*
X421000Y476000D02*
D03*
X417000Y325000D02*
D03*
X387000Y757000D02*
D03*
X259000Y722000D02*
D03*
X370000Y604000D02*
D03*
X291000Y385000D02*
D03*
X242000Y604000D02*
D03*
X270000Y438000D02*
D03*
X425690Y589000D02*
D03*
X298000Y495000D02*
D03*
X220000Y604000D02*
D03*
X454000Y460000D02*
D03*
X394000Y582000D02*
D03*
X355000Y577000D02*
D03*
X317000Y538000D02*
D03*
X333000D02*
D03*
X349000D02*
D03*
X365000D02*
D03*
X381000D02*
D03*
X397000D02*
D03*
X413000D02*
D03*
X357000Y516000D02*
D03*
X373000D02*
D03*
X389000D02*
D03*
X405000D02*
D03*
X341000D02*
D03*
X516000Y460000D02*
D03*
X297000Y511000D02*
D03*
X394000Y477000D02*
D03*
X389000Y699000D02*
D03*
X399000Y629000D02*
D03*
X321290Y384710D02*
D03*
X321000Y422000D02*
D03*
X490000Y400000D02*
D03*
X487000Y383000D02*
D03*
X491000Y325000D02*
D03*
X323000Y634000D02*
D03*
X408000Y477000D02*
D03*
X355000Y604000D02*
D03*
D95*
X408000Y501270D02*
D03*
X314000Y505270D02*
D03*
Y492730D02*
D03*
X408000Y488730D02*
D03*
M02*
