M48
;Layer_Color=9474304
;FILE_FORMAT=4:4
METRIC,LZ
;TYPE=PLATED
T01F00S00C0.3000
T02F00S00C0.7620
T03F00S00C0.9000
T04F00S00C1.0000
T06F00S00C1.2000
T07F00S00C1.3000
T08F00S00C1.3300
T09F00S00C1.3400
T10F00S00C1.4000
;TYPE=NON_PLATED
T12F00S00C0.6000
%
T01
X00503Y00421
X00533Y00436
X00555
X00516Y0046
X00729Y0033
Y00272
X00755Y00244
X00786Y00261
X00473Y00254
X00434Y00245
X00417Y00325
X00418Y00357
X0042Y00388
X00418Y00419
X00441Y00427
X00427Y00445
X00421Y00476
X00408Y00477
X00394
X00389Y00516
X00405
X00373
X00357
X00341
X00297Y00511
X00298Y00495
X00298Y00476
X00319
X00278Y00465
X0027Y00438
X00321Y00422
X00341Y00421
X0032129Y0038471
X00291Y00385
X00282Y00345
X00359Y0032
X00326Y00283
X00334Y00221
X00491Y00325
X00487Y00383
X0049Y004
X00487Y00448
X00454Y0046
X00453Y00514
X00102Y00643
X00072Y00688
X00042196Y00664142
X00042Y006145
X00073Y00898
X00151Y00899
X00187Y00878
Y00843
X00202Y00817
X00242Y00807
X00259Y00722
X002645Y006595
X00249Y00637
X00242Y00604
X0022
X00241Y00579
X00298Y00591
X00281Y00611
X00334Y00601
X00355Y00604
X0037
X00385Y00603906
X00403994Y00603922
X00424Y00602
X0042569Y00589
X00425Y00576
X00394Y00582
X00355Y00577
X00349Y00538
X00365
X00381
X00397
X00413
X00333
X00317
X00299Y0053
X00297Y00553
X00323Y00634
X00362Y00643
X00386Y00657
X00383Y00679
X00389Y00699
X00391Y00735
X0041Y00732
X0042Y00748
X00444Y00735
X00461Y00734
X00445Y00769
X00457Y00797
X00487Y00772
X00484Y00684
X00478Y0066
X00429Y00658
X00446Y00641
X00399Y00629
X00456Y00589
X00491Y00611
X0043Y00698
X00353Y00705
X00337Y00708
X00372Y00745
X00387Y00757
X00346Y00801
X00367Y00855
X00403Y00834
X00129Y00842
X00118Y0082
X00121Y00717
X0010989Y00938
T02
X00539Y00136
X00579Y00136
Y00236
X00539Y00236
X00077
X00037
Y00136
X00077
X00284Y00927
X00324
T03
X002813Y00742
X003067
T04
X00164Y0066
X00189
X00214
T06
X00502Y00484
Y005094
X004766
Y00484
Y005348
X00502
T07
X00129Y00043
X002
X00271
X00631
X00702
X00773
Y00136
X00702
X00631
X00271
X002
X00129
T08
X00568218Y00652218
X0061753Y00623748
X0067447
X00723782Y00652218
X00752252Y0070153
Y0075847
X00723782Y00807782
X0067447Y00836252
X0061753
X00539748Y0075847
Y0070153
T09
X00674284Y00701716
X00568218Y00807782
T10
X00186Y00308
X00226
T12
X0051075Y00193
X0052075
X0053075
X0054075
X0055075
X0056075
X00776
X00786
X00796
X00806
X00816
X00826
X003235
X003135
X003035
X002935
X002835
X002735
X00058
X00048
X00038
X00028
X00018
X00008
M30
