G04*
G04 #@! TF.GenerationSoftware,Altium Limited,Altium Designer,26.4.1 (12)*
G04*
G04 Layer_Color=16711935*
%FSLAX44Y44*%
%MOMM*%
G71*
G04*
G04 #@! TF.SameCoordinates,BD5BABF8-3824-4924-9F89-2B5EB64A2FC9*
G04*
G04*
G04 #@! TF.FilePolarity,Positive*
G04*
G01*
G75*
%ADD96C,0.0000*%
%ADD97C,0.1000*%
D96*
X759985Y196000D02*
X761918Y195616D01*
X763739Y194861D01*
X765377Y193767D01*
X766770Y192373D01*
X767865Y190735D01*
X768619Y188914D01*
X769004Y186981D01*
Y185996D02*
Y186981D01*
Y185011D02*
Y185996D01*
X768619Y183078D02*
X769004Y185011D01*
X767865Y181257D02*
X768619Y183078D01*
X766770Y179619D02*
X767865Y181257D01*
X765377Y178226D02*
X766770Y179619D01*
X763739Y177131D02*
X765377Y178226D01*
X761918Y176377D02*
X763739Y177131D01*
X759985Y175992D02*
X761918Y176377D01*
X576683Y175992D02*
X759985D01*
X574139Y176674D02*
X576683Y175992D01*
X571857Y177991D02*
X574139Y176674D01*
X569995Y179854D02*
X571857Y177991D01*
X568678Y182135D02*
X569995Y179854D01*
X567996Y184679D02*
X568678Y182135D01*
X567996Y184679D02*
Y187313D01*
X568678Y189858D01*
X569995Y192139D01*
X571857Y194001D01*
X574139Y195318D01*
X576683Y196000D01*
X759985D01*
X257487Y196004D02*
X259420Y195619D01*
X261241Y194865D01*
X262879Y193771D01*
X264272Y192377D01*
X265367Y190739D01*
X266121Y188918D01*
X266506Y186985D01*
Y186000D02*
Y186985D01*
Y185015D02*
Y186000D01*
X266121Y183082D02*
X266506Y185015D01*
X265367Y181261D02*
X266121Y183082D01*
X264272Y179623D02*
X265367Y181261D01*
X262879Y178230D02*
X264272Y179623D01*
X261241Y177135D02*
X262879Y178230D01*
X259420Y176381D02*
X261241Y177135D01*
X257487Y175996D02*
X259420Y176381D01*
X73683Y175996D02*
X257487D01*
X71139Y176678D02*
X73683Y175996D01*
X68857Y177995D02*
X71139Y176678D01*
X66995Y179858D02*
X68857Y177995D01*
X65678Y182139D02*
X66995Y179858D01*
X64996Y184683D02*
X65678Y182139D01*
X64996Y184683D02*
Y187317D01*
X65678Y189861D01*
X66995Y192143D01*
X68857Y194005D01*
X71139Y195322D01*
X73683Y196004D01*
X257487D01*
X833000Y0D02*
Y973000D01*
X462004D02*
X833000D01*
X462004Y886000D02*
Y973000D01*
Y885015D02*
Y886000D01*
X461619Y883082D02*
X462004Y885015D01*
X460865Y881261D02*
X461619Y883082D01*
X459771Y879623D02*
X460865Y881261D01*
X458377Y878230D02*
X459771Y879623D01*
X456739Y877135D02*
X458377Y878230D01*
X454918Y876381D02*
X456739Y877135D01*
X452985Y875996D02*
X454918Y876381D01*
X381015Y875996D02*
X452985D01*
X379082Y876381D02*
X381015Y875996D01*
X377261Y877135D02*
X379082Y876381D01*
X375623Y878230D02*
X377261Y877135D01*
X374230Y879623D02*
X375623Y878230D01*
X373135Y881261D02*
X374230Y879623D01*
X372381Y883082D02*
X373135Y881261D01*
X371996Y885015D02*
X372381Y883082D01*
X371996Y885015D02*
Y886000D01*
Y973000D01*
X0D02*
X371996D01*
X0Y524004D02*
Y973000D01*
Y524004D02*
X226000Y524004D01*
X226985D01*
X228918Y523619D01*
X230739Y522865D01*
X232377Y521771D01*
X233771Y520377D01*
X234865Y518739D01*
X235619Y516918D01*
X236004Y514985D01*
Y514000D02*
Y514985D01*
Y346000D02*
Y514000D01*
Y345015D02*
Y346000D01*
X235619Y343082D02*
X236004Y345015D01*
X234865Y341261D02*
X235619Y343082D01*
X233771Y339623D02*
X234865Y341261D01*
X232377Y338229D02*
X233771Y339623D01*
X230739Y337135D02*
X232377Y338229D01*
X228918Y336381D02*
X230739Y337135D01*
X226985Y335996D02*
X228918Y336381D01*
X226000Y335996D02*
X226985D01*
X0Y335996D02*
X226000Y335996D01*
X0Y0D02*
Y335996D01*
Y0D02*
X331000D01*
Y70685D01*
Y72002D01*
Y184665D01*
X330996Y184679D02*
X331000Y184665D01*
X330996Y184679D02*
Y187313D01*
X331266Y188319D01*
X331384Y188916D01*
X331501Y189198D01*
X331678Y189858D01*
X332019Y190449D01*
X332138Y190737D01*
X332484Y191254D01*
X332995Y192139D01*
X334857Y194001D01*
X335721Y194500D01*
X336265Y194863D01*
X336568Y194989D01*
X337139Y195318D01*
X337775Y195489D01*
X338086Y195617D01*
X338744Y195748D01*
X339683Y196000D01*
X340009D01*
X340019Y196002D01*
X341989D01*
X341999Y196000D01*
X494483D01*
X496416Y195616D01*
X498237Y194861D01*
X499875Y193767D01*
X501269Y192373D01*
X501269Y192373D01*
X501272Y192369D01*
X502367Y190731D01*
X503121Y188910D01*
X503506Y186978D01*
Y185992D02*
Y186978D01*
Y71996D02*
Y185992D01*
Y70679D02*
Y71996D01*
X503502Y70665D02*
X503506Y70679D01*
X503502Y0D02*
Y70665D01*
Y0D02*
X833000D01*
D97*
X324392Y332030D02*
X329390D01*
X330390Y333030D01*
Y335029D01*
X329390Y336029D01*
X324392D01*
X330390Y338028D02*
Y340027D01*
Y339028D01*
X324392D01*
X325392Y338028D01*
M02*
