G04*
G04 #@! TF.GenerationSoftware,Altium Limited,Altium Designer,26.4.1 (12)*
G04*
G04 Layer_Physical_Order=4*
G04 Layer_Color=16711680*
%FSLAX44Y44*%
%MOMM*%
G71*
G04*
G04 #@! TF.SameCoordinates,B61F4D15-3026-40D7-BC73-F169385026C6*
G04*
G04*
G04 #@! TF.FilePolarity,Positive*
G04*
G01*
G75*
%ADD10C,0.2540*%
%ADD20R,1.5500X1.5000*%
%ADD22R,1.3500X0.9500*%
%ADD27R,0.9500X1.3500*%
%ADD43R,1.2000X0.9000*%
%ADD52C,1.7000*%
%ADD53C,2.1500*%
%ADD54C,1.5000*%
%ADD55C,6.0000*%
%ADD56R,1.5500X1.5500*%
%ADD57C,1.5500*%
%ADD58C,1.4000*%
%ADD59R,1.4000X1.4000*%
%ADD60C,1.2000*%
%ADD61R,1.2000X1.2000*%
%ADD62R,1.5000X1.5000*%
%ADD63R,1.7000X1.7000*%
%ADD64C,0.7000*%
%ADD65C,1.2700*%
%ADD66C,1.0160*%
%ADD67C,0.5080*%
%ADD83R,0.9000X0.7500*%
%ADD84R,1.0000X1.4000*%
D10*
X336000Y576000D02*
X348400Y588400D01*
X292500Y510500D02*
X336000Y554000D01*
Y576000D01*
X292500Y478000D02*
Y510500D01*
X507100Y235300D02*
X527000Y255200D01*
Y290000D01*
X456000Y422793D02*
Y424000D01*
X450000Y359800D02*
Y416793D01*
Y359800D02*
X462800Y347000D01*
X450000Y416793D02*
X456000Y422793D01*
X252000Y437000D02*
X252853Y437853D01*
X254353D01*
X327000Y386000D02*
Y417000D01*
X292500Y476000D02*
Y478000D01*
X327000Y417000D02*
X380000Y470000D01*
X254353Y437853D02*
X292500Y476000D01*
D20*
X286000Y426000D02*
D03*
X255000Y500000D02*
D03*
X259000Y363000D02*
D03*
X255000Y482000D02*
D03*
X286000Y408000D02*
D03*
X259000Y381000D02*
D03*
D22*
X239000Y424500D02*
D03*
X230000Y366000D02*
D03*
Y381000D02*
D03*
X239000Y409500D02*
D03*
D27*
X277500Y478000D02*
D03*
X254500Y455000D02*
D03*
X239500D02*
D03*
X292500Y478000D02*
D03*
D43*
X308000Y388500D02*
D03*
Y409500D02*
D03*
D52*
X392000Y812000D02*
D03*
X304000D02*
D03*
X297600Y588400D02*
D03*
X316570Y87430D02*
D03*
X233000Y670000D02*
D03*
X260000Y144000D02*
D03*
X203430Y87430D02*
D03*
X182730Y123290D02*
D03*
X203430Y200570D02*
D03*
X239290Y221270D02*
D03*
X182730Y164710D02*
D03*
X239290Y66730D02*
D03*
X280710D02*
D03*
Y221270D02*
D03*
X316570Y200570D02*
D03*
X337270Y164710D02*
D03*
Y123290D02*
D03*
X268000Y670000D02*
D03*
X198000D02*
D03*
Y705000D02*
D03*
X323000Y588400D02*
D03*
X233000Y705000D02*
D03*
X268000Y635000D02*
D03*
X198000D02*
D03*
X297600Y563000D02*
D03*
X323000D02*
D03*
X348400Y588400D02*
D03*
Y563000D02*
D03*
D53*
X371000Y640000D02*
D03*
X135000Y518000D02*
D03*
X325000Y640000D02*
D03*
X135000Y566000D02*
D03*
D54*
X462800Y321600D02*
D03*
X507100Y286100D02*
D03*
X165100Y348100D02*
D03*
X539000Y372400D02*
D03*
X430900Y235300D02*
D03*
X88900Y297300D02*
D03*
X430900Y260700D02*
D03*
X507100Y235300D02*
D03*
Y260700D02*
D03*
X430900Y209900D02*
D03*
Y286100D02*
D03*
X462800Y347000D02*
D03*
X539000Y321600D02*
D03*
Y347000D02*
D03*
Y397800D02*
D03*
X462800Y372400D02*
D03*
X88900Y348100D02*
D03*
Y322700D02*
D03*
Y271900D02*
D03*
X165100Y322700D02*
D03*
Y297300D02*
D03*
D55*
X46900Y816100D02*
D03*
X516800Y54100D02*
D03*
X529500Y803600D02*
D03*
X59600Y54100D02*
D03*
D56*
X50000Y537000D02*
D03*
D57*
Y487000D02*
D03*
Y512000D02*
D03*
D58*
X234000Y738300D02*
D03*
D59*
Y763700D02*
D03*
D60*
X451000Y479000D02*
D03*
D61*
Y529000D02*
D03*
D62*
X507100Y209900D02*
D03*
X462800Y397800D02*
D03*
X165100Y271900D02*
D03*
D63*
X268000Y705000D02*
D03*
D64*
X336026Y62000D02*
D03*
X535250Y750250D02*
D03*
X489500Y513500D02*
D03*
X470000Y683000D02*
D03*
X429000Y775000D02*
D03*
X566000Y498000D02*
D03*
X385000Y504000D02*
D03*
X399500Y467500D02*
D03*
X379000Y548000D02*
D03*
X278000Y500000D02*
D03*
X554000Y439000D02*
D03*
X523000Y428000D02*
D03*
X562000Y415000D02*
D03*
X391000Y351000D02*
D03*
X539000Y200000D02*
D03*
X409500Y324500D02*
D03*
X408000Y203000D02*
D03*
X340000Y385000D02*
D03*
X307000Y425000D02*
D03*
X335000Y316000D02*
D03*
X275500Y296500D02*
D03*
X243000Y547000D02*
D03*
X125000Y467000D02*
D03*
X164000D02*
D03*
X145000Y459000D02*
D03*
X223000Y431000D02*
D03*
X183000Y391000D02*
D03*
X166000Y378000D02*
D03*
X145000Y388000D02*
D03*
X116000Y444000D02*
D03*
X112000Y423000D02*
D03*
X124000Y379000D02*
D03*
X206000Y369000D02*
D03*
X194000Y271000D02*
D03*
X193000Y334000D02*
D03*
X65000Y265000D02*
D03*
X234000Y841000D02*
D03*
X260000Y224000D02*
D03*
X489000Y495000D02*
D03*
X535750Y731750D02*
D03*
X222000Y481000D02*
D03*
X300000Y348000D02*
D03*
X398500Y518500D02*
D03*
X359500Y331500D02*
D03*
X244000Y584000D02*
D03*
X222000Y456000D02*
D03*
X195000Y353000D02*
D03*
X260000Y293000D02*
D03*
X527000Y290000D02*
D03*
X456000Y424000D02*
D03*
X327000Y386000D02*
D03*
X224000Y397000D02*
D03*
X252000Y437000D02*
D03*
X224000Y413000D02*
D03*
X380000Y470000D02*
D03*
D65*
X265000Y589000D02*
D03*
X189000Y566000D02*
D03*
D66*
X277500Y499500D02*
X278000Y500000D01*
X277500Y478000D02*
Y499500D01*
Y476660D02*
Y478000D01*
X287000Y425000D02*
X307000D01*
X286000Y426000D02*
X287000Y425000D01*
X255000Y500000D02*
X278000D01*
X257510Y456670D02*
X277500Y476660D01*
X254830Y456670D02*
X257510D01*
X254500Y456340D02*
X254830Y456670D01*
X254500Y455000D02*
Y456340D01*
X231160Y431000D02*
X237660Y424500D01*
X239000D01*
X223000Y431000D02*
X231160D01*
X231340Y366000D02*
X234340Y363000D01*
X230000Y366000D02*
X231340D01*
X234340Y363000D02*
X259000D01*
X260000Y224000D02*
X260000Y224000D01*
Y293000D01*
X295160Y348000D02*
X300000D01*
X287000Y356160D02*
Y358000D01*
Y356160D02*
X295160Y348000D01*
X223000Y455000D02*
X239500D01*
X222000Y456000D02*
X223000Y455000D01*
X350000Y705000D02*
X451000Y604000D01*
Y529000D02*
Y604000D01*
X268000Y705000D02*
X350000D01*
X228330Y381330D02*
Y392670D01*
X224000Y397000D02*
X228330Y392670D01*
X262250Y384000D02*
X287000D01*
X259250Y381000D02*
X262250Y384000D01*
X228330Y381330D02*
X228660Y381000D01*
X259000D01*
X259000Y381000D01*
X289080Y387920D02*
X307420D01*
X287000Y385840D02*
X289080Y387920D01*
X307420D02*
X308000Y388500D01*
X284830Y409170D02*
X286000Y408000D01*
X286920Y408920D02*
X307420D01*
X286000Y408000D02*
X286920Y408920D01*
X307420D02*
X308000Y409500D01*
X240670Y409170D02*
X284830D01*
D67*
X239750Y500000D02*
X255000D01*
X236774Y497024D02*
X239750Y500000D01*
X236774Y496274D02*
Y497024D01*
X234000Y494250D02*
X234750D01*
X236774Y496274D01*
X209000Y366000D02*
X230000D01*
X206000Y369000D02*
X209000Y366000D01*
X234125Y481875D02*
X254875D01*
X234000Y481750D02*
X234125Y481875D01*
X223270Y481750D02*
X234000D01*
X222000Y481000D02*
X222519D01*
X223270Y481750D01*
X254875Y481875D02*
X255000Y482000D01*
X224520Y413000D02*
X225809Y411710D01*
X224000Y413000D02*
X224520D01*
X236790Y411710D02*
X239000Y409500D01*
X225809Y411710D02*
X236790D01*
D83*
X234000Y494250D02*
D03*
Y481750D02*
D03*
D84*
X287000Y358000D02*
D03*
Y384000D02*
D03*
M02*
