G04*
G04 #@! TF.GenerationSoftware,Altium Limited,Altium Designer,26.4.1 (12)*
G04*
G04 Layer_Physical_Order=3*
G04 Layer_Color=128*
%FSLAX44Y44*%
%MOMM*%
G71*
G04*
G04 #@! TF.SameCoordinates,B61F4D15-3026-40D7-BC73-F169385026C6*
G04*
G04*
G04 #@! TF.FilePolarity,Negative*
G04*
G01*
G75*
%ADD66C,1.0160*%
G04:AMPARAMS|DCode=68|XSize=2.714mm|YSize=2.714mm|CornerRadius=0mm|HoleSize=0mm|Usage=FLASHONLY|Rotation=0.000|XOffset=0mm|YOffset=0mm|HoleType=Round|Shape=Relief|Width=0.254mm|Gap=0.254mm|Entries=4|*
%AMTHD68*
7,0,0,2.7140,2.2060,0.2540,45*
%
%ADD68THD68*%
%ADD69C,2.2060*%
G04:AMPARAMS|DCode=71|XSize=2.524mm|YSize=2.524mm|CornerRadius=0mm|HoleSize=0mm|Usage=FLASHONLY|Rotation=0.000|XOffset=0mm|YOffset=0mm|HoleType=Round|Shape=Relief|Width=0.254mm|Gap=0.254mm|Entries=4|*
%AMTHD71*
7,0,0,2.5240,2.0160,0.2540,45*
%
%ADD71THD71*%
G04:AMPARAMS|DCode=72|XSize=2.424mm|YSize=2.424mm|CornerRadius=0mm|HoleSize=0mm|Usage=FLASHONLY|Rotation=0.000|XOffset=0mm|YOffset=0mm|HoleType=Round|Shape=Relief|Width=0.254mm|Gap=0.254mm|Entries=4|*
%AMTHD72*
7,0,0,2.4240,1.9160,0.2540,45*
%
%ADD72THD72*%
%ADD74C,2.4160*%
%ADD75C,2.0160*%
%ADD76C,1.9160*%
%ADD77C,1.7160*%
%ADD78C,4.2160*%
G04:AMPARAMS|DCode=79|XSize=1.824mm|YSize=1.824mm|CornerRadius=0mm|HoleSize=0mm|Usage=FLASHONLY|Rotation=0.000|XOffset=0mm|YOffset=0mm|HoleType=Round|Shape=Relief|Width=0.254mm|Gap=0.254mm|Entries=4|*
%AMTHD79*
7,0,0,1.8240,1.3160,0.2540,45*
%
%ADD79THD79*%
%ADD81C,1.3160*%
%ADD82C,1.7272*%
D66*
X0Y0D02*
Y863000D01*
X580000D01*
Y0D02*
Y863000D01*
X0Y0D02*
X580000D01*
D68*
X337270Y123290D02*
D03*
D69*
X392000Y812000D02*
D03*
X304000D02*
D03*
X316570Y87430D02*
D03*
X260000Y144000D02*
D03*
X203430Y87430D02*
D03*
X182730Y123290D02*
D03*
X203430Y200570D02*
D03*
X239290Y221270D02*
D03*
X182730Y164710D02*
D03*
X239290Y66730D02*
D03*
X280710D02*
D03*
Y221270D02*
D03*
X316570Y200570D02*
D03*
X337270Y164710D02*
D03*
D71*
X323000Y588400D02*
D03*
D72*
X539000Y372400D02*
D03*
X430900Y235300D02*
D03*
X88900Y297300D02*
D03*
D74*
X371000Y640000D02*
D03*
X135000Y518000D02*
D03*
X325000Y640000D02*
D03*
X135000Y566000D02*
D03*
D75*
X297600Y588400D02*
D03*
X233000Y670000D02*
D03*
X50000Y537000D02*
D03*
X268000Y670000D02*
D03*
X198000D02*
D03*
X50000Y487000D02*
D03*
Y512000D02*
D03*
X198000Y705000D02*
D03*
X233000D02*
D03*
X268000Y635000D02*
D03*
X198000D02*
D03*
X268000Y705000D02*
D03*
X297600Y563000D02*
D03*
X323000D02*
D03*
X348400Y588400D02*
D03*
Y563000D02*
D03*
D76*
X462800Y321600D02*
D03*
X507100Y286100D02*
D03*
X165100Y348100D02*
D03*
X234000Y738300D02*
D03*
Y763700D02*
D03*
X430900Y260700D02*
D03*
X507100Y235300D02*
D03*
Y260700D02*
D03*
Y209900D02*
D03*
X430900D02*
D03*
Y286100D02*
D03*
X462800Y347000D02*
D03*
X539000Y321600D02*
D03*
Y347000D02*
D03*
Y397800D02*
D03*
X462800Y372400D02*
D03*
Y397800D02*
D03*
X88900Y348100D02*
D03*
Y322700D02*
D03*
Y271900D02*
D03*
X165100Y322700D02*
D03*
Y297300D02*
D03*
Y271900D02*
D03*
D77*
X451000Y479000D02*
D03*
Y529000D02*
D03*
D78*
X46900Y816100D02*
D03*
X516800Y54100D02*
D03*
X529500Y803600D02*
D03*
X59600Y54100D02*
D03*
D79*
X234000Y841000D02*
D03*
X489000Y495000D02*
D03*
X535750Y731750D02*
D03*
X222000Y481000D02*
D03*
X300000Y348000D02*
D03*
X398500Y518500D02*
D03*
X359500Y331500D02*
D03*
X244000Y584000D02*
D03*
X222000Y456000D02*
D03*
X195000Y353000D02*
D03*
D81*
X336026Y62000D02*
D03*
X535250Y750250D02*
D03*
X489500Y513500D02*
D03*
X470000Y683000D02*
D03*
X429000Y775000D02*
D03*
X566000Y498000D02*
D03*
X385000Y504000D02*
D03*
X399500Y467500D02*
D03*
X379000Y548000D02*
D03*
X278000Y500000D02*
D03*
X554000Y439000D02*
D03*
X523000Y428000D02*
D03*
X562000Y415000D02*
D03*
X391000Y351000D02*
D03*
X539000Y200000D02*
D03*
X409500Y324500D02*
D03*
X408000Y203000D02*
D03*
X340000Y385000D02*
D03*
X307000Y425000D02*
D03*
X335000Y316000D02*
D03*
X275500Y296500D02*
D03*
X243000Y547000D02*
D03*
X125000Y467000D02*
D03*
X164000D02*
D03*
X145000Y459000D02*
D03*
X223000Y431000D02*
D03*
X183000Y391000D02*
D03*
X166000Y378000D02*
D03*
X145000Y388000D02*
D03*
X116000Y444000D02*
D03*
X112000Y423000D02*
D03*
X124000Y379000D02*
D03*
X206000Y369000D02*
D03*
X194000Y271000D02*
D03*
X193000Y334000D02*
D03*
X65000Y265000D02*
D03*
X260000Y224000D02*
D03*
X260000Y293000D02*
D03*
X527000Y290000D02*
D03*
X456000Y424000D02*
D03*
X327000Y386000D02*
D03*
X224000Y397000D02*
D03*
X252000Y437000D02*
D03*
X224000Y413000D02*
D03*
X380000Y470000D02*
D03*
D82*
X265000Y589000D02*
D03*
X189000Y566000D02*
D03*
M02*
