G04*
G04 #@! TF.GenerationSoftware,Altium Limited,Altium Designer,26.4.1 (12)*
G04*
G04 Layer_Color=32896*
%FSLAX44Y44*%
%MOMM*%
G71*
G04*
G04 #@! TF.SameCoordinates,B61F4D15-3026-40D7-BC73-F169385026C6*
G04*
G04*
G04 #@! TF.FilePolarity,Positive*
G04*
G01*
G75*
%ADD10C,0.2540*%
%ADD12C,0.2000*%
%ADD85C,0.5000*%
%ADD86C,0.7000*%
G36*
X261275Y272474D02*
X261656D01*
Y272283D01*
X262036D01*
Y272093D01*
X262417D01*
Y271903D01*
X262607D01*
Y271712D01*
X262987D01*
Y271522D01*
X263178D01*
Y271332D01*
X263558D01*
Y271142D01*
X263939D01*
Y270951D01*
X264129D01*
Y270761D01*
X264510D01*
Y270571D01*
X264890D01*
Y270380D01*
X265271D01*
Y270190D01*
X265461D01*
Y270000D01*
X265842D01*
Y269810D01*
X266413D01*
Y269619D01*
X266603D01*
Y269429D01*
X267174D01*
Y269239D01*
X267364D01*
Y269049D01*
X267935D01*
Y268858D01*
X268315D01*
Y268668D01*
X268506D01*
Y268478D01*
X269267D01*
Y268287D01*
X269457D01*
Y268097D01*
X270218D01*
Y267907D01*
X270599D01*
Y267717D01*
X270979D01*
Y267526D01*
X271550D01*
Y267336D01*
X271931D01*
Y267146D01*
X272882D01*
Y266956D01*
X273263D01*
Y266765D01*
X274024D01*
Y266575D01*
X274594D01*
Y266385D01*
X275165D01*
Y266194D01*
X276307D01*
Y266004D01*
X276878D01*
Y265814D01*
X278210D01*
Y265624D01*
X279161D01*
Y265433D01*
X280874D01*
Y265243D01*
X286582D01*
Y265433D01*
X288104D01*
Y265624D01*
X289056D01*
Y265814D01*
X290197D01*
Y266004D01*
X290768D01*
Y266194D01*
X291719D01*
Y266385D01*
X292290D01*
Y266575D01*
X292861D01*
Y266765D01*
X294764D01*
Y266575D01*
X295145D01*
Y266385D01*
X295525D01*
Y266194D01*
X295715D01*
Y266004D01*
X295906D01*
Y265814D01*
X296096D01*
Y265433D01*
X296286D01*
Y265053D01*
X296476D01*
Y264672D01*
X296667D01*
Y263721D01*
X296476D01*
Y263340D01*
X296286D01*
Y262769D01*
X296096D01*
Y262579D01*
X295906D01*
Y262389D01*
X295715D01*
Y262199D01*
X295525D01*
Y262008D01*
X295335D01*
Y261818D01*
X294954D01*
Y261628D01*
X294383D01*
Y261437D01*
X293813D01*
Y261247D01*
X293051D01*
Y261057D01*
X292481D01*
Y260867D01*
X291719D01*
Y260676D01*
X290578D01*
Y260486D01*
X289817D01*
Y260296D01*
X288104D01*
Y260105D01*
X286963D01*
Y259915D01*
X280303D01*
Y260105D01*
X279351D01*
Y260296D01*
X277258D01*
Y260486D01*
X276688D01*
Y260676D01*
X275546D01*
Y260867D01*
X274594D01*
Y261057D01*
X274024D01*
Y261247D01*
X273072D01*
Y261437D01*
X272501D01*
Y261628D01*
X271550D01*
Y261818D01*
X271169D01*
Y262008D01*
X270599D01*
Y262199D01*
X270028D01*
Y262389D01*
X269647D01*
Y262579D01*
X268886D01*
Y262769D01*
X268506D01*
Y262960D01*
X267935D01*
Y263150D01*
X267554D01*
Y263340D01*
X267174D01*
Y263531D01*
X266603D01*
Y263721D01*
X266413D01*
Y263911D01*
X265842D01*
Y264101D01*
X265461D01*
Y264292D01*
X265081D01*
Y264482D01*
X264510D01*
Y264672D01*
X264319D01*
Y264862D01*
X263939D01*
Y265053D01*
X263368D01*
Y258774D01*
X264129D01*
Y258964D01*
X264319D01*
Y258774D01*
X267174D01*
Y258583D01*
X269267D01*
Y258393D01*
X271550D01*
Y258203D01*
X272692D01*
Y258013D01*
X274785D01*
Y257822D01*
X275736D01*
Y257632D01*
X277068D01*
Y257442D01*
X278210D01*
Y257251D01*
X278971D01*
Y257061D01*
X280493D01*
Y256871D01*
X281254D01*
Y256681D01*
X282586D01*
Y256490D01*
X283157D01*
Y256300D01*
X283918D01*
Y256110D01*
X285060D01*
Y255919D01*
X285631D01*
Y255729D01*
X286772D01*
Y255539D01*
X287343D01*
Y255349D01*
X288485D01*
Y255158D01*
X289056D01*
Y254968D01*
X289626D01*
Y254778D01*
X290768D01*
Y254587D01*
X291149D01*
Y254397D01*
X292100D01*
Y254207D01*
X292671D01*
Y254017D01*
X293242D01*
Y253826D01*
X294003D01*
Y253636D01*
X294574D01*
Y253446D01*
X295525D01*
Y253256D01*
X295906D01*
Y253065D01*
X296667D01*
Y252875D01*
X297237D01*
Y252685D01*
X297618D01*
Y252494D01*
X298379D01*
Y252304D01*
X298760D01*
Y252114D01*
X299521D01*
Y251924D01*
X300092D01*
Y251733D01*
X300472D01*
Y251543D01*
X301233D01*
Y251353D01*
X301614D01*
Y251162D01*
X302375D01*
Y250972D01*
X302756D01*
Y250782D01*
X303326D01*
Y250592D01*
X303897D01*
Y250401D01*
X304278D01*
Y250211D01*
X304849D01*
Y250021D01*
X305229D01*
Y249830D01*
X305800D01*
Y249640D01*
X306181D01*
Y249450D01*
X306751D01*
Y249260D01*
X307322D01*
Y249069D01*
X307512D01*
Y248879D01*
X308274D01*
Y248689D01*
X308464D01*
Y248499D01*
X309035D01*
Y248308D01*
X309606D01*
Y248118D01*
X309796D01*
Y247928D01*
X310557D01*
Y247738D01*
X310747D01*
Y247547D01*
X311318D01*
Y247357D01*
X311699D01*
Y247167D01*
X312079D01*
Y246976D01*
X312650D01*
Y246786D01*
X312840D01*
Y246596D01*
X313411D01*
Y246406D01*
X313792D01*
Y246215D01*
X314172D01*
Y246025D01*
X314553D01*
Y245835D01*
X314933D01*
Y245644D01*
X315504D01*
Y245454D01*
X315695D01*
Y245264D01*
X316265D01*
Y245074D01*
X316456D01*
Y244883D01*
X316836D01*
Y244693D01*
X317407D01*
Y244503D01*
X317597D01*
Y244312D01*
X318168D01*
Y244122D01*
X318358D01*
Y243932D01*
X318739D01*
Y243742D01*
X319119D01*
Y243551D01*
X319500D01*
Y243361D01*
X319881D01*
Y243171D01*
X320071D01*
Y242980D01*
X320642D01*
Y242790D01*
X320832D01*
Y242600D01*
X321213D01*
Y242410D01*
X321593D01*
Y242219D01*
X321783D01*
Y242029D01*
X322354D01*
Y241839D01*
X322545D01*
Y241649D01*
X322925D01*
Y241458D01*
X323306D01*
Y241268D01*
X323496D01*
Y241078D01*
X324067D01*
Y240888D01*
X324257D01*
Y240697D01*
X324637D01*
Y240507D01*
X324828D01*
Y240317D01*
X325208D01*
Y240126D01*
X325589D01*
Y239936D01*
X325779D01*
Y239746D01*
X326160D01*
Y239555D01*
X326540D01*
Y239365D01*
X326921D01*
Y239175D01*
X327111D01*
Y238985D01*
X327301D01*
Y238794D01*
X327682D01*
Y238604D01*
X328063D01*
Y238414D01*
X328253D01*
Y238224D01*
X328633D01*
Y238033D01*
X328824D01*
Y237843D01*
X329204D01*
Y237653D01*
X329394D01*
Y237463D01*
X329775D01*
Y237272D01*
X329965D01*
Y237082D01*
X330346D01*
Y236892D01*
X330726D01*
Y236701D01*
X330917D01*
Y236511D01*
X331297D01*
Y236321D01*
X331488D01*
Y236131D01*
X331868D01*
Y235940D01*
X332058D01*
Y235750D01*
X332249D01*
Y235560D01*
X332629D01*
Y235369D01*
X332820D01*
Y235179D01*
X333200D01*
Y234989D01*
X333390D01*
Y234799D01*
X333581D01*
Y234608D01*
X333961D01*
Y234418D01*
X334151D01*
Y234228D01*
X334532D01*
Y234037D01*
X334722D01*
Y233847D01*
X335103D01*
Y233657D01*
X335293D01*
Y233467D01*
X335483D01*
Y233276D01*
X335864D01*
Y233086D01*
X336054D01*
Y232896D01*
X336245D01*
Y232705D01*
X336435D01*
Y232515D01*
X336815D01*
Y232325D01*
X337006D01*
Y232135D01*
X337196D01*
Y231944D01*
X337576D01*
Y231754D01*
X337767D01*
Y231564D01*
X337957D01*
Y231374D01*
X338147D01*
Y231183D01*
X338528D01*
Y230993D01*
X338718D01*
Y230803D01*
X338908D01*
Y230613D01*
X339289D01*
Y230422D01*
X339479D01*
Y230232D01*
X339669D01*
Y230042D01*
X339860D01*
Y229851D01*
X340050D01*
Y229661D01*
X340431D01*
Y229471D01*
X340621D01*
Y229280D01*
X340811D01*
Y229090D01*
X341001D01*
Y228900D01*
X341192D01*
Y228710D01*
X341572D01*
Y228519D01*
X341763D01*
Y228329D01*
X341953D01*
Y228139D01*
X342143D01*
Y227949D01*
X342333D01*
Y227758D01*
X342714D01*
Y227568D01*
X342904D01*
Y227378D01*
X343094D01*
Y227188D01*
X343285D01*
Y226997D01*
X343475D01*
Y226807D01*
X343665D01*
Y226617D01*
X343856D01*
Y226426D01*
X344046D01*
Y226236D01*
X344236D01*
Y226046D01*
X344617D01*
Y225856D01*
X344807D01*
Y225665D01*
X344997D01*
Y225475D01*
X345187D01*
Y225285D01*
X345378D01*
Y225094D01*
X345568D01*
Y224904D01*
X345758D01*
Y224714D01*
X345949D01*
Y224524D01*
X346139D01*
Y224333D01*
X346329D01*
Y224143D01*
X346710D01*
Y223953D01*
X346900D01*
Y223762D01*
X347090D01*
Y223572D01*
X347281D01*
Y223382D01*
X347471D01*
Y223192D01*
X347661D01*
Y223001D01*
X347851D01*
Y222811D01*
X348042D01*
Y222621D01*
X348232D01*
Y222430D01*
X348422D01*
Y222240D01*
X348613D01*
Y222050D01*
X348803D01*
Y221860D01*
X348993D01*
Y221669D01*
X349183D01*
Y221479D01*
X349374D01*
Y221289D01*
X349564D01*
Y221099D01*
X349754D01*
Y220908D01*
X349944D01*
Y220718D01*
X350135D01*
Y220528D01*
X350325D01*
Y220338D01*
X350515D01*
Y220147D01*
X350706D01*
Y219957D01*
X350896D01*
Y219767D01*
X351086D01*
Y219386D01*
X351276D01*
Y219196D01*
X351467D01*
Y219006D01*
X351657D01*
Y218815D01*
X351847D01*
Y218625D01*
X352038D01*
Y218435D01*
X352228D01*
Y218244D01*
X352418D01*
Y218054D01*
X352608D01*
Y217864D01*
X352799D01*
Y217674D01*
X352989D01*
Y217483D01*
X353179D01*
Y217293D01*
X353369D01*
Y216912D01*
X353560D01*
Y216722D01*
X353750D01*
Y216532D01*
X353940D01*
Y216342D01*
X354131D01*
Y216151D01*
X354321D01*
Y215961D01*
X354511D01*
Y215771D01*
X354701D01*
Y215390D01*
X354892D01*
Y215200D01*
X355082D01*
Y215010D01*
X355272D01*
Y214819D01*
X355462D01*
Y214629D01*
X355653D01*
Y214249D01*
X355843D01*
Y214058D01*
X356033D01*
Y213868D01*
X356224D01*
Y213678D01*
X356414D01*
Y213487D01*
X356604D01*
Y213297D01*
X356795D01*
Y213107D01*
X356985D01*
Y212726D01*
X357175D01*
Y212536D01*
X357365D01*
Y212346D01*
X357556D01*
Y212155D01*
X357746D01*
Y211775D01*
X357936D01*
Y211585D01*
X358126D01*
Y211394D01*
X358317D01*
Y211014D01*
X358507D01*
Y210824D01*
X358697D01*
Y210633D01*
X358887D01*
Y210253D01*
X359078D01*
Y210063D01*
X359268D01*
Y209872D01*
X359458D01*
Y209682D01*
X359649D01*
Y209301D01*
X359839D01*
Y209111D01*
X360029D01*
Y208921D01*
X360219D01*
Y208540D01*
X360410D01*
Y208350D01*
X360600D01*
Y207969D01*
X360790D01*
Y207779D01*
X360981D01*
Y207589D01*
X361171D01*
Y207399D01*
X361361D01*
Y207018D01*
X361551D01*
Y206828D01*
X361742D01*
Y206637D01*
X361932D01*
Y206257D01*
X362122D01*
Y206067D01*
X362313D01*
Y205686D01*
X362503D01*
Y205496D01*
X362693D01*
Y205115D01*
X362883D01*
Y204735D01*
X363074D01*
Y204544D01*
X363264D01*
Y204354D01*
X363454D01*
Y203974D01*
X363644D01*
Y203783D01*
X363835D01*
Y203403D01*
X364025D01*
Y203213D01*
X364215D01*
Y202832D01*
X364596D01*
Y202642D01*
X365928D01*
Y202451D01*
X368972D01*
Y202261D01*
X370875D01*
Y202451D01*
X373539D01*
Y202642D01*
X374871D01*
Y202832D01*
X376203D01*
Y203022D01*
X376964D01*
Y203213D01*
X377915D01*
Y203403D01*
X378296D01*
Y203593D01*
X379057D01*
Y203783D01*
X379437D01*
Y203974D01*
X379818D01*
Y204164D01*
X380389D01*
Y204354D01*
X380579D01*
Y204544D01*
X380960D01*
Y204735D01*
X381150D01*
Y204925D01*
X381531D01*
Y205115D01*
X381721D01*
Y205306D01*
X381911D01*
Y205496D01*
X382101D01*
Y205686D01*
X382292D01*
Y205876D01*
X382482D01*
Y206067D01*
X382672D01*
Y206257D01*
X382863D01*
Y206447D01*
X383053D01*
Y206828D01*
X383243D01*
Y207018D01*
X383433D01*
Y207589D01*
X383624D01*
Y207969D01*
X383814D01*
Y209111D01*
X383433D01*
Y209301D01*
X381911D01*
Y209492D01*
X381340D01*
Y209682D01*
X380389D01*
Y209872D01*
X379818D01*
Y210063D01*
X379247D01*
Y210253D01*
X378296D01*
Y210443D01*
X378106D01*
Y210633D01*
X377154D01*
Y210824D01*
X376964D01*
Y211014D01*
X376203D01*
Y211204D01*
X375632D01*
Y211394D01*
X375251D01*
Y211585D01*
X374490D01*
Y211775D01*
X374300D01*
Y211965D01*
X373539D01*
Y212155D01*
X373349D01*
Y212346D01*
X372778D01*
Y212536D01*
X372207D01*
Y212726D01*
X372017D01*
Y212917D01*
X371256D01*
Y213107D01*
X371065D01*
Y213297D01*
X370494D01*
Y213487D01*
X370114D01*
Y213678D01*
X369733D01*
Y213868D01*
X369162D01*
Y214058D01*
X368972D01*
Y214249D01*
X368401D01*
Y214439D01*
X368021D01*
Y214629D01*
X367640D01*
Y214819D01*
X367260D01*
Y215010D01*
X366879D01*
Y215200D01*
X366308D01*
Y215390D01*
X366118D01*
Y215581D01*
X365737D01*
Y215771D01*
X365357D01*
Y215961D01*
X364976D01*
Y216151D01*
X364596D01*
Y216342D01*
X364215D01*
Y216532D01*
X363835D01*
Y216722D01*
X363454D01*
Y216912D01*
X363074D01*
Y217103D01*
X362693D01*
Y217293D01*
X362503D01*
Y217483D01*
X361932D01*
Y217674D01*
X361742D01*
Y217864D01*
X361171D01*
Y218054D01*
X360981D01*
Y218244D01*
X360600D01*
Y218435D01*
X360219D01*
Y218625D01*
X360029D01*
Y218815D01*
X359458D01*
Y219006D01*
X359268D01*
Y219196D01*
X358887D01*
Y219386D01*
X358507D01*
Y219576D01*
X358317D01*
Y219767D01*
X357746D01*
Y219957D01*
X357556D01*
Y220147D01*
X357175D01*
Y220338D01*
X356795D01*
Y220528D01*
X356604D01*
Y220718D01*
X356224D01*
Y221099D01*
X356033D01*
Y221479D01*
X355843D01*
Y221860D01*
X355653D01*
Y222811D01*
X355843D01*
Y223192D01*
X356033D01*
Y223572D01*
X356224D01*
Y223762D01*
X356414D01*
Y223953D01*
X356604D01*
Y224143D01*
X356985D01*
Y224333D01*
X357365D01*
Y224524D01*
X358697D01*
Y224333D01*
X359268D01*
Y224143D01*
X360981D01*
Y223953D01*
X361551D01*
Y223762D01*
X362503D01*
Y223572D01*
X363835D01*
Y223382D01*
X364786D01*
Y223192D01*
X367260D01*
Y223001D01*
X368211D01*
Y222811D01*
X370875D01*
Y222621D01*
X373158D01*
Y222430D01*
X381911D01*
Y222621D01*
X383433D01*
Y222811D01*
X386287D01*
Y223001D01*
X386858D01*
Y223192D01*
X388761D01*
Y223382D01*
X389332D01*
Y223572D01*
X390474D01*
Y223762D01*
X391235D01*
Y223953D01*
X391615D01*
Y224143D01*
X392757D01*
Y224333D01*
X393328D01*
Y224524D01*
X394469D01*
Y224333D01*
X394850D01*
Y224143D01*
X395231D01*
Y223953D01*
X395421D01*
Y223762D01*
X395611D01*
Y223382D01*
X395801D01*
Y223192D01*
X395992D01*
Y222621D01*
X396182D01*
Y221669D01*
X396372D01*
Y221289D01*
X396562D01*
Y219386D01*
X396753D01*
Y216532D01*
X396562D01*
Y214819D01*
X396372D01*
Y214439D01*
X396182D01*
Y213678D01*
X395992D01*
Y213297D01*
X395801D01*
Y213107D01*
X395611D01*
Y212726D01*
X395421D01*
Y212346D01*
X395231D01*
Y211965D01*
X395040D01*
Y211775D01*
X394850D01*
Y211585D01*
X394660D01*
Y211394D01*
X394469D01*
Y211204D01*
X394279D01*
Y211014D01*
X394089D01*
Y210824D01*
X393899D01*
Y210633D01*
X393518D01*
Y210443D01*
X393328D01*
Y210253D01*
X393138D01*
Y210063D01*
X392757D01*
Y209872D01*
X392376D01*
Y209682D01*
X391806D01*
Y209492D01*
X391615D01*
Y209301D01*
X390664D01*
Y209111D01*
X390093D01*
Y208921D01*
X389142D01*
Y208731D01*
X388381D01*
Y208540D01*
X388190D01*
Y207969D01*
X388000D01*
Y206828D01*
X387810D01*
Y206447D01*
X387619D01*
Y205876D01*
X387429D01*
Y205496D01*
X387239D01*
Y205115D01*
X387049D01*
Y204735D01*
X386858D01*
Y204544D01*
X386668D01*
Y204164D01*
X386478D01*
Y203974D01*
X386287D01*
Y203593D01*
X386097D01*
Y203403D01*
X385907D01*
Y203213D01*
X385717D01*
Y203022D01*
X385526D01*
Y202832D01*
X385336D01*
Y202642D01*
X385146D01*
Y202451D01*
X384956D01*
Y202261D01*
X384765D01*
Y202071D01*
X384575D01*
Y201880D01*
X384385D01*
Y201690D01*
X384004D01*
Y201500D01*
X383814D01*
Y201310D01*
X383433D01*
Y201119D01*
X383243D01*
Y200929D01*
X382863D01*
Y200739D01*
X382672D01*
Y200549D01*
X382101D01*
Y200358D01*
X381721D01*
Y200168D01*
X381531D01*
Y199978D01*
X380960D01*
Y199788D01*
X380579D01*
Y199597D01*
X379818D01*
Y199407D01*
X379437D01*
Y199217D01*
X378676D01*
Y199026D01*
X377725D01*
Y198836D01*
X377154D01*
Y198646D01*
X375822D01*
Y198456D01*
X374681D01*
Y198265D01*
X372017D01*
Y198075D01*
X368021D01*
Y198265D01*
X367640D01*
Y198075D01*
X367450D01*
Y197694D01*
X367640D01*
Y197504D01*
X367831D01*
Y197124D01*
X368021D01*
Y196743D01*
X368211D01*
Y196553D01*
X368401D01*
Y196172D01*
X368592D01*
Y195792D01*
X368782D01*
Y195411D01*
X368972D01*
Y195221D01*
X369162D01*
Y194840D01*
X369353D01*
Y194460D01*
X369543D01*
Y194269D01*
X369733D01*
Y193699D01*
X369924D01*
Y193508D01*
X370114D01*
Y193128D01*
X370304D01*
Y192747D01*
X370494D01*
Y192557D01*
X370685D01*
Y191986D01*
X370875D01*
Y191796D01*
X371065D01*
Y191225D01*
X371256D01*
Y191035D01*
X371446D01*
Y190654D01*
X371636D01*
Y190083D01*
X371826D01*
Y189893D01*
X372017D01*
Y189322D01*
X372207D01*
Y189132D01*
X372397D01*
Y188751D01*
X372588D01*
Y188371D01*
X372778D01*
Y187990D01*
X372968D01*
Y187419D01*
X373158D01*
Y187229D01*
X373349D01*
Y186658D01*
X373539D01*
Y186278D01*
X373729D01*
Y185897D01*
X373919D01*
Y185517D01*
X374110D01*
Y185136D01*
X374300D01*
Y184565D01*
X374490D01*
Y184375D01*
X374681D01*
Y183804D01*
X374871D01*
Y183424D01*
X375061D01*
Y183043D01*
X375251D01*
Y182472D01*
X375442D01*
Y182282D01*
X375632D01*
Y181521D01*
X375822D01*
Y181331D01*
X376012D01*
Y180760D01*
X376203D01*
Y180379D01*
X376393D01*
Y179999D01*
X376583D01*
Y179237D01*
X376774D01*
Y179047D01*
X376964D01*
Y178476D01*
X377154D01*
Y177906D01*
X377345D01*
Y177525D01*
X377535D01*
Y176954D01*
X377725D01*
Y176574D01*
X377915D01*
Y176003D01*
X378106D01*
Y175622D01*
X378296D01*
Y175051D01*
X378486D01*
Y174480D01*
X378676D01*
Y174100D01*
X378867D01*
Y173339D01*
X379057D01*
Y172958D01*
X379247D01*
Y172388D01*
X379437D01*
Y171817D01*
X379628D01*
Y171436D01*
X379818D01*
Y170675D01*
X380008D01*
Y170294D01*
X380199D01*
Y169533D01*
X380389D01*
Y168962D01*
X380579D01*
Y168392D01*
X380769D01*
Y167631D01*
X380960D01*
Y167250D01*
X381150D01*
Y166489D01*
X381340D01*
Y166108D01*
X381531D01*
Y165347D01*
X381721D01*
Y164586D01*
X381911D01*
Y164205D01*
X382101D01*
Y163254D01*
X382292D01*
Y162683D01*
X382482D01*
Y161922D01*
X382672D01*
Y161351D01*
X382863D01*
Y160781D01*
X383053D01*
Y159829D01*
X383243D01*
Y159258D01*
X383433D01*
Y158307D01*
X383624D01*
Y157736D01*
X383814D01*
Y156785D01*
X384004D01*
Y156024D01*
X384194D01*
Y155453D01*
X384385D01*
Y154311D01*
X384575D01*
Y153740D01*
X384765D01*
Y152599D01*
X384956D01*
Y151838D01*
X385146D01*
Y151076D01*
X385336D01*
Y149935D01*
X385526D01*
Y149364D01*
X385717D01*
Y148032D01*
X385907D01*
Y147271D01*
X386097D01*
Y145939D01*
X386287D01*
Y144987D01*
X386478D01*
Y144226D01*
X386668D01*
Y142704D01*
X386858D01*
Y141753D01*
X387049D01*
Y140040D01*
X387239D01*
Y139089D01*
X387429D01*
Y137947D01*
X387619D01*
Y136044D01*
X387810D01*
Y135093D01*
X388000D01*
Y133000D01*
X388190D01*
Y131858D01*
X388381D01*
Y129575D01*
X388571D01*
Y127672D01*
X388761D01*
Y126150D01*
X388951D01*
Y122535D01*
X389142D01*
Y120632D01*
X389332D01*
Y120251D01*
X390854D01*
Y120442D01*
X395992D01*
Y120251D01*
X397704D01*
Y120061D01*
X399417D01*
Y119871D01*
X400178D01*
Y119681D01*
X401510D01*
Y119490D01*
X402081D01*
Y119300D01*
X402842D01*
Y119110D01*
X403793D01*
Y118919D01*
X404174D01*
Y118729D01*
X405125D01*
Y118539D01*
X405506D01*
Y118349D01*
X406076D01*
Y118158D01*
X406457D01*
Y117968D01*
X407028D01*
Y117778D01*
X407599D01*
Y117587D01*
X407979D01*
Y117397D01*
X408550D01*
Y117207D01*
X408931D01*
Y117017D01*
X409311D01*
Y116826D01*
X409692D01*
Y116636D01*
X410072D01*
Y116446D01*
X410453D01*
Y116256D01*
X410833D01*
Y116065D01*
X411214D01*
Y115875D01*
X411595D01*
Y115685D01*
X411785D01*
Y115494D01*
X412356D01*
Y115304D01*
X412546D01*
Y115114D01*
X412926D01*
Y114924D01*
X413117D01*
Y114733D01*
X413497D01*
Y114543D01*
X413878D01*
Y114353D01*
X414068D01*
Y114163D01*
X414449D01*
Y113972D01*
X414639D01*
Y113782D01*
X415019D01*
Y113592D01*
X415210D01*
Y113401D01*
X415400D01*
Y113211D01*
X415781D01*
Y113021D01*
X415971D01*
Y112830D01*
X416161D01*
Y112640D01*
X416542D01*
Y112450D01*
X416732D01*
Y112260D01*
X417113D01*
Y112069D01*
X417303D01*
Y111879D01*
X417493D01*
Y111689D01*
X417683D01*
Y111499D01*
X417874D01*
Y111308D01*
X418064D01*
Y111118D01*
X418254D01*
Y110928D01*
X418635D01*
Y110547D01*
X419015D01*
Y110357D01*
X419206D01*
Y110167D01*
X419396D01*
Y109976D01*
X419586D01*
Y109786D01*
X419776D01*
Y109596D01*
X419967D01*
Y109405D01*
X420157D01*
Y109215D01*
X420347D01*
Y109025D01*
X420537D01*
Y108835D01*
X420728D01*
Y108644D01*
X420918D01*
Y108454D01*
X421108D01*
Y108264D01*
X421299D01*
Y108074D01*
X421489D01*
Y107883D01*
X421679D01*
Y107693D01*
X421869D01*
Y107312D01*
X422060D01*
Y107122D01*
X422250D01*
Y106932D01*
X422440D01*
Y106742D01*
X422631D01*
Y106551D01*
X422821D01*
Y106361D01*
X423011D01*
Y105981D01*
X423201D01*
Y105790D01*
X423392D01*
Y105600D01*
X423582D01*
Y105219D01*
X423772D01*
Y105029D01*
X423963D01*
Y104839D01*
X424153D01*
Y104458D01*
X424343D01*
Y104268D01*
X424533D01*
Y103888D01*
X424724D01*
Y103697D01*
X424914D01*
Y103317D01*
X425104D01*
Y103126D01*
X425294D01*
Y102746D01*
X425485D01*
Y102365D01*
X425675D01*
Y102175D01*
X425865D01*
Y101794D01*
X426056D01*
Y101604D01*
X426246D01*
Y101224D01*
X426436D01*
Y100843D01*
X426626D01*
Y100653D01*
X426817D01*
Y100082D01*
X427007D01*
Y99892D01*
X427197D01*
Y99321D01*
X427388D01*
Y98940D01*
X427578D01*
Y98750D01*
X427768D01*
Y98179D01*
X427958D01*
Y97799D01*
X428149D01*
Y97418D01*
X428339D01*
Y97037D01*
X428529D01*
Y96467D01*
X428719D01*
Y95896D01*
X428910D01*
Y95515D01*
X429100D01*
Y94754D01*
X429290D01*
Y94374D01*
X429481D01*
Y93803D01*
X429671D01*
Y93042D01*
X429861D01*
Y92471D01*
X430051D01*
Y91519D01*
X430242D01*
Y90949D01*
X430432D01*
Y89807D01*
X430622D01*
Y88855D01*
X430812D01*
Y87714D01*
X431003D01*
Y85621D01*
X431193D01*
Y85050D01*
X431383D01*
Y80293D01*
X431193D01*
Y79722D01*
X431003D01*
Y77629D01*
X430812D01*
Y76487D01*
X430622D01*
Y75536D01*
X430432D01*
Y74394D01*
X430242D01*
Y73824D01*
X430051D01*
Y72872D01*
X429861D01*
Y72301D01*
X429671D01*
Y71540D01*
X429481D01*
Y70969D01*
X429290D01*
Y70589D01*
X429100D01*
Y69828D01*
X428910D01*
Y69447D01*
X428719D01*
Y68876D01*
X428529D01*
Y68306D01*
X428339D01*
Y67925D01*
X428149D01*
Y67354D01*
X427958D01*
Y67164D01*
X427768D01*
Y66593D01*
X427578D01*
Y66213D01*
X427388D01*
Y65832D01*
X427197D01*
Y65451D01*
X427007D01*
Y65261D01*
X426817D01*
Y64690D01*
X426626D01*
Y64500D01*
X426436D01*
Y64119D01*
X426246D01*
Y63739D01*
X426056D01*
Y63549D01*
X425865D01*
Y63168D01*
X425675D01*
Y62787D01*
X425485D01*
Y62407D01*
X425294D01*
Y62217D01*
X425104D01*
Y61836D01*
X424914D01*
Y61646D01*
X424724D01*
Y61265D01*
X424533D01*
Y61075D01*
X424343D01*
Y60885D01*
X424153D01*
Y60504D01*
X423963D01*
Y60314D01*
X423772D01*
Y60124D01*
X423582D01*
Y59743D01*
X423392D01*
Y59553D01*
X423201D01*
Y59172D01*
X423011D01*
Y58982D01*
X422821D01*
Y58792D01*
X422631D01*
Y58411D01*
X422250D01*
Y58031D01*
X422060D01*
Y57840D01*
X421869D01*
Y57650D01*
X421679D01*
Y57460D01*
X421489D01*
Y57269D01*
X421299D01*
Y57079D01*
X421108D01*
Y56889D01*
X420918D01*
Y56699D01*
X420728D01*
Y56508D01*
X420537D01*
Y56318D01*
X420347D01*
Y55938D01*
X420157D01*
Y55747D01*
X419776D01*
Y55557D01*
X419586D01*
Y55367D01*
X419396D01*
Y55176D01*
X419206D01*
Y54986D01*
X419015D01*
Y54796D01*
X418825D01*
Y54605D01*
X418635D01*
Y54415D01*
X418445D01*
Y54225D01*
X418254D01*
Y54035D01*
X418064D01*
Y53844D01*
X417683D01*
Y53464D01*
X417303D01*
Y53274D01*
X417113D01*
Y53083D01*
X416922D01*
Y52893D01*
X416542D01*
Y52703D01*
X416351D01*
Y52512D01*
X415971D01*
Y52322D01*
X415781D01*
Y52132D01*
X415590D01*
Y51942D01*
X415210D01*
Y51751D01*
X415019D01*
Y51561D01*
X414829D01*
Y51371D01*
X414449D01*
Y51181D01*
X414258D01*
Y50990D01*
X413878D01*
Y50800D01*
X413688D01*
Y50610D01*
X413307D01*
Y50419D01*
X412926D01*
Y50229D01*
X412546D01*
Y50039D01*
X412356D01*
Y49849D01*
X411975D01*
Y49658D01*
X411785D01*
Y49468D01*
X411404D01*
Y49278D01*
X410833D01*
Y49088D01*
X410643D01*
Y48897D01*
X410072D01*
Y48707D01*
X409882D01*
Y48517D01*
X409501D01*
Y48326D01*
X408931D01*
Y48136D01*
X408740D01*
Y47946D01*
X408169D01*
Y47755D01*
X407789D01*
Y47565D01*
X407218D01*
Y47375D01*
X406647D01*
Y47185D01*
X406267D01*
Y46994D01*
X405506D01*
Y46804D01*
X405315D01*
Y46614D01*
X404364D01*
Y46424D01*
X403793D01*
Y46233D01*
X403222D01*
Y46043D01*
X402271D01*
Y45853D01*
X401700D01*
Y45662D01*
X400558D01*
Y45472D01*
X399607D01*
Y45282D01*
X398085D01*
Y45092D01*
X396562D01*
Y44901D01*
X390283D01*
Y45092D01*
X388761D01*
Y45282D01*
X387239D01*
Y45472D01*
X386478D01*
Y45662D01*
X385146D01*
Y45853D01*
X384575D01*
Y46043D01*
X383814D01*
Y46233D01*
X383053D01*
Y46424D01*
X382482D01*
Y46614D01*
X381721D01*
Y46804D01*
X381340D01*
Y46994D01*
X380579D01*
Y47185D01*
X380199D01*
Y47375D01*
X379818D01*
Y47565D01*
X379057D01*
Y47755D01*
X378867D01*
Y47946D01*
X378296D01*
Y48136D01*
X377915D01*
Y48326D01*
X377535D01*
Y48517D01*
X377154D01*
Y48707D01*
X376774D01*
Y48897D01*
X376203D01*
Y49088D01*
X376012D01*
Y49278D01*
X375442D01*
Y49468D01*
X375251D01*
Y49658D01*
X374871D01*
Y49849D01*
X374490D01*
Y50039D01*
X374300D01*
Y50229D01*
X373919D01*
Y50419D01*
X373729D01*
Y50610D01*
X373349D01*
Y50800D01*
X372968D01*
Y50990D01*
X372778D01*
Y51181D01*
X372397D01*
Y51371D01*
X372207D01*
Y51561D01*
X371826D01*
Y51751D01*
X371636D01*
Y51942D01*
X371446D01*
Y52132D01*
X371065D01*
Y52322D01*
X370875D01*
Y52512D01*
X370685D01*
Y52703D01*
X370304D01*
Y52893D01*
X370114D01*
Y53083D01*
X369733D01*
Y53274D01*
X369543D01*
Y53464D01*
X369353D01*
Y53654D01*
X369162D01*
Y53844D01*
X368972D01*
Y54035D01*
X368782D01*
Y54225D01*
X368592D01*
Y54415D01*
X368401D01*
Y54605D01*
X368211D01*
Y54796D01*
X367831D01*
Y54986D01*
X367640D01*
Y55176D01*
X367450D01*
Y55367D01*
X367260D01*
Y55557D01*
X367069D01*
Y55747D01*
X366879D01*
Y55938D01*
X366689D01*
Y56128D01*
X366499D01*
Y56318D01*
X366308D01*
Y56508D01*
X366118D01*
Y56699D01*
X365928D01*
Y56889D01*
X365737D01*
Y57079D01*
X365547D01*
Y57460D01*
X365357D01*
Y57650D01*
X365167D01*
Y57840D01*
X364976D01*
Y58031D01*
X364786D01*
Y58221D01*
X364596D01*
Y58411D01*
X364406D01*
Y58601D01*
X364215D01*
Y58792D01*
X364025D01*
Y58982D01*
X363835D01*
Y59363D01*
X363644D01*
Y59553D01*
X363454D01*
Y59933D01*
X363264D01*
Y60124D01*
X363074D01*
Y60314D01*
X362883D01*
Y60694D01*
X362693D01*
Y60885D01*
X362503D01*
Y61075D01*
X362313D01*
Y61455D01*
X362122D01*
Y61646D01*
X361932D01*
Y62026D01*
X361742D01*
Y62217D01*
X361551D01*
Y62597D01*
X361361D01*
Y62978D01*
X361171D01*
Y63168D01*
X360981D01*
Y63549D01*
X360790D01*
Y63739D01*
X360600D01*
Y64310D01*
X360410D01*
Y64500D01*
X360219D01*
Y64880D01*
X360029D01*
Y65261D01*
X359839D01*
Y65642D01*
X359649D01*
Y66213D01*
X359458D01*
Y66403D01*
X359268D01*
Y66974D01*
X359078D01*
Y67164D01*
X358887D01*
Y67544D01*
X358697D01*
Y68115D01*
X358507D01*
Y68496D01*
X358317D01*
Y69257D01*
X358126D01*
Y69637D01*
X357936D01*
Y70208D01*
X357746D01*
Y70589D01*
X357556D01*
Y71160D01*
X357365D01*
Y71921D01*
X357175D01*
Y72492D01*
X356985D01*
Y73443D01*
X356795D01*
Y74014D01*
X356604D01*
Y74775D01*
X356414D01*
Y75917D01*
X356224D01*
Y76868D01*
X356033D01*
Y78580D01*
X355843D01*
Y80103D01*
X355653D01*
Y85240D01*
X355843D01*
Y86763D01*
X356033D01*
Y88475D01*
X356224D01*
Y89426D01*
X356414D01*
Y90568D01*
X356604D01*
Y91329D01*
X356795D01*
Y91900D01*
X356985D01*
Y92851D01*
X357175D01*
Y93422D01*
X357365D01*
Y94183D01*
X357556D01*
Y94564D01*
X357746D01*
Y95135D01*
X357936D01*
Y95705D01*
X358126D01*
Y96086D01*
X358317D01*
Y96847D01*
X358507D01*
Y97228D01*
X358697D01*
Y97608D01*
X358887D01*
Y97989D01*
X359078D01*
Y98369D01*
X359268D01*
Y98940D01*
X359458D01*
Y99130D01*
X359649D01*
Y99701D01*
X359839D01*
Y100082D01*
X360029D01*
Y100463D01*
X360219D01*
Y100843D01*
X360410D01*
Y101033D01*
X360600D01*
Y101414D01*
X360790D01*
Y101604D01*
X360981D01*
Y101985D01*
X361171D01*
Y102365D01*
X361361D01*
Y102556D01*
X361551D01*
Y102936D01*
X361742D01*
Y103317D01*
X361932D01*
Y103697D01*
X362122D01*
Y103888D01*
X362313D01*
Y104078D01*
X362503D01*
Y104458D01*
X362693D01*
Y104649D01*
X362883D01*
Y104839D01*
X363074D01*
Y105029D01*
X363264D01*
Y105410D01*
X363454D01*
Y105600D01*
X363644D01*
Y105790D01*
X363835D01*
Y106171D01*
X364025D01*
Y106361D01*
X364215D01*
Y106742D01*
X364406D01*
Y106932D01*
X364596D01*
Y107122D01*
X364786D01*
Y107312D01*
X364976D01*
Y107503D01*
X365167D01*
Y107693D01*
X365357D01*
Y107883D01*
X365547D01*
Y108074D01*
X365737D01*
Y108264D01*
X365928D01*
Y108454D01*
X366118D01*
Y108835D01*
X366308D01*
Y109025D01*
X366499D01*
Y109215D01*
X366689D01*
Y109405D01*
X366879D01*
Y109596D01*
X367069D01*
Y109786D01*
X367260D01*
Y109976D01*
X367640D01*
Y110167D01*
X367831D01*
Y110357D01*
X368021D01*
Y110547D01*
X368211D01*
Y110737D01*
X368401D01*
Y110928D01*
X368592D01*
Y111118D01*
X368782D01*
Y111308D01*
X368972D01*
Y111499D01*
X369162D01*
Y111689D01*
X369353D01*
Y111879D01*
X369733D01*
Y112069D01*
X369924D01*
Y112260D01*
X370114D01*
Y112450D01*
X370494D01*
Y112640D01*
X370685D01*
Y112830D01*
X371065D01*
Y113021D01*
X371256D01*
Y113211D01*
X371446D01*
Y113401D01*
X371636D01*
Y113592D01*
X372017D01*
Y113782D01*
X372207D01*
Y113972D01*
X372397D01*
Y114163D01*
X372778D01*
Y114353D01*
X373158D01*
Y114543D01*
X373539D01*
Y114733D01*
X373729D01*
Y114924D01*
X373919D01*
Y115114D01*
X374490D01*
Y115304D01*
X374681D01*
Y115494D01*
X375061D01*
Y115685D01*
X375251D01*
Y115875D01*
X375632D01*
Y116065D01*
X376203D01*
Y116256D01*
X376393D01*
Y116446D01*
X376964D01*
Y116636D01*
X377154D01*
Y116826D01*
X377725D01*
Y117017D01*
X378106D01*
Y117207D01*
X378296D01*
Y117397D01*
X378867D01*
Y117587D01*
X379247D01*
Y117778D01*
X380008D01*
Y117968D01*
X380389D01*
Y118158D01*
X380769D01*
Y118349D01*
X381531D01*
Y118539D01*
X381911D01*
Y118729D01*
X382672D01*
Y118919D01*
X383243D01*
Y119110D01*
X383814D01*
Y119490D01*
X384004D01*
Y119681D01*
X383814D01*
Y122915D01*
X383624D01*
Y124818D01*
X383433D01*
Y127672D01*
X383243D01*
Y129194D01*
X383053D01*
Y131287D01*
X382863D01*
Y132810D01*
X382672D01*
Y134142D01*
X382482D01*
Y136235D01*
X382292D01*
Y137186D01*
X382101D01*
Y138899D01*
X381911D01*
Y139850D01*
X381721D01*
Y140992D01*
X381531D01*
Y142514D01*
X381340D01*
Y143275D01*
X381150D01*
Y144607D01*
X380960D01*
Y145368D01*
X380769D01*
Y146700D01*
X380579D01*
Y147651D01*
X380389D01*
Y148413D01*
X380199D01*
Y149554D01*
X380008D01*
Y150125D01*
X379818D01*
Y151457D01*
X379628D01*
Y152218D01*
X379437D01*
Y152979D01*
X379247D01*
Y153931D01*
X379057D01*
Y154501D01*
X378867D01*
Y155453D01*
X378676D01*
Y156024D01*
X378486D01*
Y156975D01*
X378296D01*
Y157736D01*
X378106D01*
Y158307D01*
X377915D01*
Y159258D01*
X377725D01*
Y159639D01*
X377535D01*
Y160590D01*
X377345D01*
Y161161D01*
X377154D01*
Y161922D01*
X376964D01*
Y162683D01*
X376774D01*
Y163064D01*
X376583D01*
Y164015D01*
X376393D01*
Y164396D01*
X376203D01*
Y165157D01*
X376012D01*
Y165728D01*
X375822D01*
Y166299D01*
X375632D01*
Y167060D01*
X375442D01*
Y167440D01*
X375251D01*
Y168201D01*
X375061D01*
Y168582D01*
X374871D01*
Y169153D01*
X374681D01*
Y169914D01*
X374490D01*
Y170294D01*
X374300D01*
Y171056D01*
X374110D01*
Y171436D01*
X373919D01*
Y172007D01*
X373729D01*
Y172578D01*
X373539D01*
Y172958D01*
X373349D01*
Y173529D01*
X373158D01*
Y173910D01*
X372968D01*
Y174480D01*
X372778D01*
Y175051D01*
X372588D01*
Y175432D01*
X372397D01*
Y176003D01*
X372207D01*
Y176383D01*
X372017D01*
Y176954D01*
X371826D01*
Y177335D01*
X371636D01*
Y177906D01*
X371446D01*
Y178286D01*
X371256D01*
Y178667D01*
X371065D01*
Y179237D01*
X370875D01*
Y179618D01*
X370685D01*
Y180189D01*
X370494D01*
Y180569D01*
X370304D01*
Y180950D01*
X370114D01*
Y181521D01*
X369924D01*
Y181711D01*
X369733D01*
Y182282D01*
X369543D01*
Y182663D01*
X369353D01*
Y183043D01*
X369162D01*
Y183424D01*
X368972D01*
Y183804D01*
X368782D01*
Y184375D01*
X368592D01*
Y184755D01*
X368401D01*
Y185136D01*
X368211D01*
Y185517D01*
X368021D01*
Y185897D01*
X367831D01*
Y186278D01*
X367640D01*
Y186658D01*
X367450D01*
Y187039D01*
X367260D01*
Y187419D01*
X367069D01*
Y187800D01*
X366879D01*
Y188181D01*
X366689D01*
Y188561D01*
X366499D01*
Y188942D01*
X366308D01*
Y189132D01*
X366118D01*
Y189703D01*
X365928D01*
Y189893D01*
X365737D01*
Y190274D01*
X365547D01*
Y190654D01*
X365357D01*
Y191035D01*
X365167D01*
Y191415D01*
X364976D01*
Y191605D01*
X364786D01*
Y192176D01*
X364596D01*
Y192367D01*
X364406D01*
Y192747D01*
X364215D01*
Y193128D01*
X364025D01*
Y193318D01*
X363835D01*
Y193699D01*
X363644D01*
Y194079D01*
X363454D01*
Y194269D01*
X363264D01*
Y194650D01*
X363074D01*
Y195030D01*
X362883D01*
Y195411D01*
X362693D01*
Y195601D01*
X362503D01*
Y195982D01*
X362313D01*
Y196362D01*
X362122D01*
Y196553D01*
X361932D01*
Y196933D01*
X361742D01*
Y197124D01*
X361551D01*
Y197504D01*
X361361D01*
Y197885D01*
X361171D01*
Y198075D01*
X360981D01*
Y198456D01*
X360790D01*
Y198646D01*
X360600D01*
Y199026D01*
X360410D01*
Y199217D01*
X360219D01*
Y199597D01*
X360029D01*
Y199978D01*
X359839D01*
Y200168D01*
X359649D01*
Y200549D01*
X359458D01*
Y200739D01*
X359268D01*
Y201119D01*
X359078D01*
Y201310D01*
X358887D01*
Y201500D01*
X358697D01*
Y201880D01*
X358507D01*
Y202071D01*
X358317D01*
Y202451D01*
X358126D01*
Y202642D01*
X357936D01*
Y203022D01*
X357746D01*
Y203213D01*
X357556D01*
Y203403D01*
X357365D01*
Y203783D01*
X357175D01*
Y203974D01*
X356985D01*
Y204354D01*
X356795D01*
Y204544D01*
X356604D01*
Y204735D01*
X356414D01*
Y205115D01*
X356224D01*
Y205306D01*
X356033D01*
Y205686D01*
X355843D01*
Y205876D01*
X355653D01*
Y206067D01*
X355462D01*
Y206447D01*
X355272D01*
Y206637D01*
X355082D01*
Y206828D01*
X354892D01*
Y207018D01*
X354701D01*
Y207399D01*
X354511D01*
Y207589D01*
X354321D01*
Y207779D01*
X354131D01*
Y208160D01*
X353940D01*
Y208350D01*
X353750D01*
Y208540D01*
X353560D01*
Y208731D01*
X353369D01*
Y208921D01*
X353179D01*
Y209301D01*
X352989D01*
Y209492D01*
X352799D01*
Y209682D01*
X352608D01*
Y209872D01*
X352418D01*
Y210253D01*
X352228D01*
Y210443D01*
X352038D01*
Y210633D01*
X351847D01*
Y210824D01*
X351657D01*
Y211014D01*
X351467D01*
Y211394D01*
X351086D01*
Y211775D01*
X350896D01*
Y211965D01*
X350706D01*
Y212155D01*
X350515D01*
Y212346D01*
X350325D01*
Y212536D01*
X350135D01*
Y212917D01*
X349944D01*
Y213107D01*
X349754D01*
Y213297D01*
X349564D01*
Y213487D01*
X349374D01*
Y213678D01*
X349183D01*
Y213868D01*
X348993D01*
Y214058D01*
X348803D01*
Y214249D01*
X348613D01*
Y214629D01*
X348422D01*
Y214819D01*
X348232D01*
Y215010D01*
X348042D01*
Y215200D01*
X347851D01*
Y215390D01*
X347661D01*
Y215581D01*
X347471D01*
Y215771D01*
X347281D01*
Y215961D01*
X347090D01*
Y216151D01*
X346900D01*
Y216342D01*
X346710D01*
Y216532D01*
X346519D01*
Y216722D01*
X346329D01*
Y216912D01*
X346139D01*
Y217103D01*
X345949D01*
Y217293D01*
X345758D01*
Y217483D01*
X345568D01*
Y217674D01*
X345378D01*
Y217864D01*
X345187D01*
Y218054D01*
X344997D01*
Y218244D01*
X344807D01*
Y218435D01*
X344617D01*
Y218625D01*
X344426D01*
Y218815D01*
X344236D01*
Y219006D01*
X344046D01*
Y219196D01*
X343856D01*
Y219386D01*
X343665D01*
Y219576D01*
X343475D01*
Y219767D01*
X343285D01*
Y219957D01*
X343094D01*
Y220147D01*
X342904D01*
Y220338D01*
X342714D01*
Y220528D01*
X342524D01*
Y220718D01*
X342333D01*
Y220908D01*
X342143D01*
Y221099D01*
X341763D01*
Y221289D01*
X341572D01*
Y221479D01*
X341382D01*
Y221669D01*
X341192D01*
Y221860D01*
X341001D01*
Y222050D01*
X340811D01*
Y222240D01*
X340621D01*
Y222430D01*
X340240D01*
Y222621D01*
X340050D01*
Y222811D01*
X339860D01*
Y223001D01*
X339669D01*
Y223192D01*
X339479D01*
Y223382D01*
X339289D01*
Y223572D01*
X339099D01*
Y223762D01*
X338718D01*
Y224143D01*
X338338D01*
Y224333D01*
X338147D01*
Y224524D01*
X337957D01*
Y224714D01*
X337767D01*
Y224904D01*
X337576D01*
Y225094D01*
X337196D01*
Y225285D01*
X337006D01*
Y225475D01*
X336815D01*
Y225665D01*
X336435D01*
Y225856D01*
X336245D01*
Y226046D01*
X336054D01*
Y226236D01*
X335864D01*
Y226426D01*
X335674D01*
Y226617D01*
X335293D01*
Y226807D01*
X335103D01*
Y226997D01*
X334912D01*
Y227188D01*
X334722D01*
Y227378D01*
X334342D01*
Y227568D01*
X334151D01*
Y227758D01*
X333961D01*
Y227949D01*
X333581D01*
Y228139D01*
X333390D01*
Y228329D01*
X333200D01*
Y228519D01*
X333010D01*
Y228710D01*
X332629D01*
Y228900D01*
X332439D01*
Y229090D01*
X332249D01*
Y229280D01*
X331868D01*
Y229471D01*
X331678D01*
Y229661D01*
X331297D01*
Y229851D01*
X331107D01*
Y230042D01*
X330917D01*
Y230232D01*
X330536D01*
Y230422D01*
X330346D01*
Y230613D01*
X329965D01*
Y230803D01*
X329775D01*
Y230993D01*
X329394D01*
Y231183D01*
X329204D01*
Y231374D01*
X329014D01*
Y231564D01*
X328633D01*
Y231754D01*
X328443D01*
Y231944D01*
X328063D01*
Y232135D01*
X327872D01*
Y232325D01*
X327492D01*
Y232515D01*
X327301D01*
Y232705D01*
X327111D01*
Y232896D01*
X326731D01*
Y233086D01*
X326540D01*
Y233276D01*
X326160D01*
Y233467D01*
X325779D01*
Y233657D01*
X325589D01*
Y233847D01*
X325208D01*
Y234037D01*
X325018D01*
Y234228D01*
X324637D01*
Y234418D01*
X324257D01*
Y234608D01*
X324067D01*
Y234799D01*
X323686D01*
Y234989D01*
X323496D01*
Y235179D01*
X322925D01*
Y235369D01*
X322735D01*
Y235560D01*
X322354D01*
Y235750D01*
X322164D01*
Y235940D01*
X321783D01*
Y236131D01*
X321403D01*
Y236321D01*
X321213D01*
Y236511D01*
X320832D01*
Y236701D01*
X320451D01*
Y236892D01*
X320261D01*
Y237082D01*
X319690D01*
Y237272D01*
X319500D01*
Y237463D01*
X319119D01*
Y237653D01*
X318739D01*
Y237843D01*
X318358D01*
Y238033D01*
X317978D01*
Y238224D01*
X317787D01*
Y238414D01*
X317407D01*
Y238604D01*
X317026D01*
Y238794D01*
X316646D01*
Y238985D01*
X316456D01*
Y239175D01*
X316075D01*
Y239365D01*
X315504D01*
Y239555D01*
X315314D01*
Y239746D01*
X314743D01*
Y239936D01*
X314553D01*
Y240126D01*
X313982D01*
Y240317D01*
X313601D01*
Y240507D01*
X313411D01*
Y240697D01*
X312840D01*
Y240888D01*
X312650D01*
Y241078D01*
X312079D01*
Y241268D01*
X311699D01*
Y241458D01*
X311318D01*
Y241649D01*
X310938D01*
Y241839D01*
X310557D01*
Y242029D01*
X309986D01*
Y242219D01*
X309606D01*
Y242410D01*
X309225D01*
Y242600D01*
X308654D01*
Y242790D01*
X308464D01*
Y242980D01*
X307893D01*
Y243171D01*
X307512D01*
Y243361D01*
X306942D01*
Y243551D01*
X306561D01*
Y243742D01*
X306181D01*
Y243932D01*
X305610D01*
Y244122D01*
X305229D01*
Y244312D01*
X304658D01*
Y244503D01*
X304278D01*
Y244693D01*
X303707D01*
Y244883D01*
X303136D01*
Y245074D01*
X302756D01*
Y245264D01*
X302185D01*
Y245454D01*
X301804D01*
Y245644D01*
X301233D01*
Y245835D01*
X300662D01*
Y246025D01*
X300282D01*
Y246215D01*
X299521D01*
Y246406D01*
X299140D01*
Y246596D01*
X298379D01*
Y246786D01*
X297999D01*
Y246976D01*
X297237D01*
Y247167D01*
X296857D01*
Y247357D01*
X296286D01*
Y247547D01*
X295525D01*
Y247738D01*
X295145D01*
Y247928D01*
X294383D01*
Y248118D01*
X293813D01*
Y248308D01*
X293242D01*
Y248499D01*
X292481D01*
Y248689D01*
X291910D01*
Y248879D01*
X291149D01*
Y249069D01*
X290578D01*
Y249260D01*
X289817D01*
Y249450D01*
X289056D01*
Y249640D01*
X288485D01*
Y249830D01*
X287533D01*
Y250021D01*
X286963D01*
Y250211D01*
X286011D01*
Y250401D01*
X285250D01*
Y250592D01*
X284489D01*
Y250782D01*
X283538D01*
Y250972D01*
X282776D01*
Y251162D01*
X281635D01*
Y251353D01*
X280874D01*
Y251543D01*
X279732D01*
Y251733D01*
X278781D01*
Y251924D01*
X277829D01*
Y252114D01*
X276117D01*
Y252304D01*
X275165D01*
Y252494D01*
X273453D01*
Y252685D01*
X272501D01*
Y252875D01*
X271169D01*
Y253065D01*
X268696D01*
Y253256D01*
X267364D01*
Y253446D01*
X263749D01*
Y253636D01*
X263558D01*
Y253446D01*
X263368D01*
Y249450D01*
X262987D01*
Y249260D01*
X261465D01*
Y249069D01*
X260704D01*
Y248879D01*
X259372D01*
Y248689D01*
X258801D01*
Y248879D01*
X258611D01*
Y249260D01*
X258421D01*
Y250401D01*
X258231D01*
Y250972D01*
X258040D01*
Y252114D01*
X257850D01*
Y269810D01*
X258040D01*
Y270761D01*
X258231D01*
Y271332D01*
X258421D01*
Y271522D01*
X258611D01*
Y271712D01*
X258801D01*
Y271903D01*
X258992D01*
Y272093D01*
X259182D01*
Y272283D01*
X259562D01*
Y272474D01*
X259943D01*
Y272664D01*
X261275D01*
Y272474D01*
D02*
G37*
%LPC*%
G36*
X384004Y115875D02*
X383433D01*
Y115685D01*
X383053D01*
Y115494D01*
X382292D01*
Y115304D01*
X381911D01*
Y115114D01*
X381340D01*
Y114924D01*
X380960D01*
Y114733D01*
X380769D01*
Y114543D01*
X380960D01*
Y114163D01*
X381150D01*
Y113401D01*
X381340D01*
Y113211D01*
X381531D01*
Y112640D01*
X381721D01*
Y112260D01*
X381911D01*
Y111879D01*
X382101D01*
Y111308D01*
X382292D01*
Y110928D01*
X382482D01*
Y110357D01*
X382672D01*
Y109976D01*
X382863D01*
Y109405D01*
X383053D01*
Y109025D01*
X383243D01*
Y108644D01*
X383433D01*
Y108074D01*
X383624D01*
Y107693D01*
X383814D01*
Y106932D01*
X384004D01*
Y106742D01*
X384385D01*
Y111879D01*
X384194D01*
Y112640D01*
Y112830D01*
Y115494D01*
X384004D01*
Y115875D01*
D02*
G37*
G36*
X379818Y114163D02*
X379057D01*
Y113972D01*
X378676D01*
Y113782D01*
X378296D01*
Y113592D01*
X377915D01*
Y113401D01*
X377535D01*
Y113211D01*
X376964D01*
Y113021D01*
X376774D01*
Y112830D01*
X376393D01*
Y112640D01*
X376203D01*
Y112450D01*
X375822D01*
Y112260D01*
X375442D01*
Y112069D01*
X375251D01*
Y111879D01*
X374871D01*
Y111689D01*
X374681D01*
Y111499D01*
X374871D01*
Y111308D01*
X375061D01*
Y111118D01*
X375251D01*
Y110737D01*
X375442D01*
Y110547D01*
X375632D01*
Y110167D01*
X375822D01*
Y109976D01*
X376012D01*
Y109596D01*
X376203D01*
Y109215D01*
X376393D01*
Y109025D01*
X376583D01*
Y108644D01*
X376774D01*
Y108454D01*
X376964D01*
Y108074D01*
X377154D01*
Y107883D01*
X377345D01*
Y107693D01*
X377535D01*
Y107312D01*
X377725D01*
Y107122D01*
X377915D01*
Y106742D01*
X378106D01*
Y106551D01*
X378296D01*
Y106171D01*
X378486D01*
Y105981D01*
X378676D01*
Y105600D01*
X378867D01*
Y105219D01*
X379057D01*
Y105029D01*
X379247D01*
Y104839D01*
X379437D01*
Y104458D01*
X379628D01*
Y104268D01*
X379818D01*
Y103888D01*
X380008D01*
Y103697D01*
X380199D01*
Y103317D01*
X380389D01*
Y103126D01*
X380579D01*
Y102746D01*
X380769D01*
Y102365D01*
X380960D01*
Y102175D01*
X381150D01*
Y101794D01*
X381340D01*
Y101604D01*
X381531D01*
Y101414D01*
X381721D01*
Y101033D01*
X381911D01*
Y100843D01*
X382101D01*
Y100463D01*
X382292D01*
Y100272D01*
X382482D01*
Y99892D01*
X382672D01*
Y99701D01*
X382863D01*
Y99321D01*
X383053D01*
Y99130D01*
X383243D01*
Y98940D01*
X383433D01*
Y98369D01*
X383624D01*
Y98179D01*
X383814D01*
Y97989D01*
X384004D01*
Y97608D01*
X384194D01*
Y97228D01*
X384385D01*
Y97037D01*
X384575D01*
Y96847D01*
X384765D01*
Y99130D01*
X384575D01*
Y100653D01*
X384385D01*
Y103507D01*
X384194D01*
Y103888D01*
X384004D01*
Y104268D01*
X383814D01*
Y104839D01*
X383624D01*
Y105029D01*
X383433D01*
Y105790D01*
X383243D01*
Y105981D01*
X383053D01*
Y106551D01*
X382863D01*
Y107122D01*
X382672D01*
Y107503D01*
X382482D01*
Y108074D01*
X382292D01*
Y108264D01*
X382101D01*
Y109025D01*
X381911D01*
Y109405D01*
X381721D01*
Y109786D01*
X381531D01*
Y110357D01*
X381340D01*
Y110547D01*
X381150D01*
Y111308D01*
X380960D01*
Y111499D01*
X380769D01*
Y112069D01*
X380579D01*
Y112640D01*
X380389D01*
Y113021D01*
X380199D01*
Y113592D01*
X380008D01*
Y113782D01*
X379818D01*
Y114163D01*
D02*
G37*
G36*
X395611Y117207D02*
X394089D01*
Y117017D01*
X393899D01*
Y114733D01*
Y114543D01*
Y93803D01*
X394089D01*
Y93232D01*
X394850D01*
Y93422D01*
X395040D01*
Y93803D01*
X395231D01*
Y94944D01*
X395421D01*
Y95896D01*
X395611D01*
Y96467D01*
X395801D01*
Y97799D01*
X395992D01*
Y98560D01*
X396182D01*
Y99701D01*
X396372D01*
Y100463D01*
X396562D01*
Y101414D01*
X396753D01*
Y102556D01*
X396943D01*
Y103126D01*
X397133D01*
Y104458D01*
X397324D01*
Y105219D01*
X397514D01*
Y106361D01*
X397704D01*
Y107312D01*
X397895D01*
Y108074D01*
X398085D01*
Y109215D01*
X398275D01*
Y109976D01*
X398465D01*
Y111118D01*
X398656D01*
Y112069D01*
X398846D01*
Y112830D01*
X399036D01*
Y113972D01*
X399226D01*
Y114733D01*
X399417D01*
Y115875D01*
X399607D01*
Y116636D01*
X399226D01*
Y116826D01*
X397704D01*
Y117017D01*
X395611D01*
Y117207D01*
D02*
G37*
G36*
X392947D02*
X391235D01*
Y117017D01*
X389522D01*
Y116826D01*
X389332D01*
Y115494D01*
X389522D01*
Y110928D01*
X389712D01*
Y104458D01*
X389903D01*
Y102746D01*
X390093D01*
Y102175D01*
X390283D01*
Y100843D01*
X390474D01*
Y100082D01*
X390664D01*
Y98940D01*
X390854D01*
Y98179D01*
X391045D01*
Y97418D01*
X391235D01*
Y96086D01*
X391425D01*
Y95325D01*
X391615D01*
Y94183D01*
X391806D01*
Y93422D01*
X391996D01*
Y93232D01*
X392757D01*
Y93422D01*
X392947D01*
Y113021D01*
Y113211D01*
Y117207D01*
D02*
G37*
G36*
X401319Y116446D02*
X400939D01*
Y116256D01*
X400749D01*
Y115875D01*
X400558D01*
Y115114D01*
X400368D01*
Y113972D01*
X400178D01*
Y113211D01*
X399987D01*
Y112260D01*
X399797D01*
Y111118D01*
X399607D01*
Y110357D01*
X399417D01*
Y109025D01*
X399226D01*
Y108454D01*
X399036D01*
Y107312D01*
X398846D01*
Y106361D01*
X398656D01*
Y105600D01*
X398465D01*
Y104268D01*
X398275D01*
Y103697D01*
X398085D01*
Y102365D01*
X397895D01*
Y101604D01*
X397704D01*
Y100843D01*
X397514D01*
Y99511D01*
X397324D01*
Y98940D01*
X397133D01*
Y97608D01*
X396943D01*
Y96847D01*
X396753D01*
Y95896D01*
X396562D01*
Y94944D01*
X396372D01*
Y94183D01*
X396182D01*
Y93042D01*
X396372D01*
Y92851D01*
X396562D01*
Y92661D01*
X396943D01*
Y92851D01*
X397133D01*
Y93232D01*
X397324D01*
Y93612D01*
X397514D01*
Y94183D01*
X397704D01*
Y94564D01*
X397895D01*
Y94944D01*
X398085D01*
Y95515D01*
X398275D01*
Y95896D01*
X398465D01*
Y96467D01*
X398656D01*
Y96847D01*
X398846D01*
Y97228D01*
X399036D01*
Y97799D01*
X399226D01*
Y98179D01*
X399417D01*
Y98750D01*
X399607D01*
Y99130D01*
X399797D01*
Y99701D01*
X399987D01*
Y100082D01*
X400178D01*
Y100463D01*
X400368D01*
Y101033D01*
X400558D01*
Y101414D01*
X400749D01*
Y101985D01*
X400939D01*
Y102365D01*
X401129D01*
Y102746D01*
X401319D01*
Y103317D01*
X401510D01*
Y103697D01*
X401700D01*
Y104268D01*
X401890D01*
Y104649D01*
X402081D01*
Y105029D01*
X402271D01*
Y105600D01*
X402461D01*
Y105981D01*
X402651D01*
Y106551D01*
X402842D01*
Y106932D01*
X403032D01*
Y107503D01*
X403222D01*
Y107883D01*
X403413D01*
Y108264D01*
X403603D01*
Y108835D01*
X403793D01*
Y109215D01*
X403983D01*
Y109786D01*
X404174D01*
Y110167D01*
X404364D01*
Y110547D01*
X404554D01*
Y111118D01*
X404744D01*
Y111499D01*
X404935D01*
Y112069D01*
X405125D01*
Y112450D01*
X405315D01*
Y113021D01*
X405506D01*
Y113401D01*
X405696D01*
Y113782D01*
X405886D01*
Y114353D01*
X406076D01*
Y114924D01*
X405696D01*
Y115114D01*
X404935D01*
Y115304D01*
X404554D01*
Y115494D01*
X403983D01*
Y115685D01*
X403413D01*
Y115875D01*
X402651D01*
Y116065D01*
X401700D01*
Y116256D01*
X401319D01*
Y116446D01*
D02*
G37*
G36*
X407979Y114163D02*
X407028D01*
Y113782D01*
X406838D01*
Y113401D01*
X406647D01*
Y112830D01*
X406457D01*
Y112450D01*
X406267D01*
Y111879D01*
X406076D01*
Y111499D01*
X405886D01*
Y110928D01*
X405696D01*
Y110547D01*
X405506D01*
Y110167D01*
X405315D01*
Y109596D01*
X405125D01*
Y109215D01*
X404935D01*
Y108644D01*
X404744D01*
Y108264D01*
X404554D01*
Y107883D01*
X404364D01*
Y107312D01*
X404174D01*
Y106932D01*
X403983D01*
Y106361D01*
X403793D01*
Y105981D01*
X403603D01*
Y105410D01*
X403413D01*
Y105029D01*
X403222D01*
Y104649D01*
X403032D01*
Y104078D01*
X402842D01*
Y103697D01*
X402651D01*
Y103126D01*
X402461D01*
Y102746D01*
X402271D01*
Y102365D01*
X402081D01*
Y101794D01*
X401890D01*
Y101414D01*
X401700D01*
Y100843D01*
X401510D01*
Y100463D01*
X401319D01*
Y99892D01*
X401129D01*
Y99511D01*
X400939D01*
Y99130D01*
X400749D01*
Y98560D01*
X400558D01*
Y98179D01*
X400368D01*
Y97608D01*
X400178D01*
Y97228D01*
X399987D01*
Y96847D01*
X399797D01*
Y96276D01*
X399607D01*
Y95896D01*
X399417D01*
Y95325D01*
X399226D01*
Y94944D01*
X399036D01*
Y94374D01*
X398846D01*
Y93993D01*
X398656D01*
Y93612D01*
X398465D01*
Y93042D01*
X398275D01*
Y92661D01*
X398085D01*
Y92281D01*
X398275D01*
Y92090D01*
X398465D01*
Y91900D01*
X399036D01*
Y92090D01*
X399226D01*
Y92281D01*
X399417D01*
Y92661D01*
X399607D01*
Y92851D01*
X399797D01*
Y93232D01*
X399987D01*
Y93612D01*
X400178D01*
Y93803D01*
X400368D01*
Y94183D01*
X400558D01*
Y94374D01*
X400749D01*
Y94754D01*
X400939D01*
Y94944D01*
X401129D01*
Y95135D01*
X401319D01*
Y95515D01*
X401510D01*
Y95705D01*
X401700D01*
Y96086D01*
X401890D01*
Y96276D01*
X402081D01*
Y96657D01*
X402271D01*
Y97037D01*
X402461D01*
Y97228D01*
X402651D01*
Y97608D01*
X402842D01*
Y97799D01*
X403032D01*
Y98179D01*
X403222D01*
Y98369D01*
X403413D01*
Y98560D01*
X403603D01*
Y98940D01*
X403793D01*
Y99130D01*
X403983D01*
Y99511D01*
X404174D01*
Y99701D01*
X404364D01*
Y100082D01*
X404554D01*
Y100463D01*
X404744D01*
Y100653D01*
X404935D01*
Y101033D01*
X405125D01*
Y101224D01*
X405315D01*
Y101604D01*
X405506D01*
Y101794D01*
X405696D01*
Y101985D01*
X405886D01*
Y102365D01*
X406076D01*
Y102556D01*
X406267D01*
Y102936D01*
X406457D01*
Y103126D01*
X406647D01*
Y103507D01*
X406838D01*
Y103697D01*
X407028D01*
Y104078D01*
X407218D01*
Y104458D01*
X407408D01*
Y104649D01*
X407599D01*
Y105029D01*
X407789D01*
Y105219D01*
X407979D01*
Y105410D01*
X408169D01*
Y105790D01*
X408360D01*
Y105981D01*
X408550D01*
Y106361D01*
X408740D01*
Y106551D01*
X408931D01*
Y106932D01*
X409121D01*
Y107312D01*
X409311D01*
Y107503D01*
X409501D01*
Y107883D01*
X409692D01*
Y108074D01*
X409882D01*
Y108454D01*
X410072D01*
Y108644D01*
X410262D01*
Y108835D01*
X410453D01*
Y109215D01*
X410643D01*
Y109405D01*
X410833D01*
Y109786D01*
X411024D01*
Y109976D01*
X411214D01*
Y110357D01*
X411404D01*
Y110547D01*
X411595D01*
Y110928D01*
X411785D01*
Y111308D01*
X411975D01*
Y111499D01*
X412165D01*
Y111879D01*
X411595D01*
Y112069D01*
X411404D01*
Y112260D01*
X411024D01*
Y112450D01*
X410833D01*
Y112640D01*
X410453D01*
Y112830D01*
X410072D01*
Y113021D01*
X409882D01*
Y113211D01*
X409311D01*
Y113401D01*
X409121D01*
Y113592D01*
X408740D01*
Y113782D01*
X408169D01*
Y113972D01*
X407979D01*
Y114163D01*
D02*
G37*
G36*
X373919Y110928D02*
X373349D01*
Y110737D01*
X373158D01*
Y110547D01*
X372968D01*
Y110357D01*
X372778D01*
Y110167D01*
X372397D01*
Y109976D01*
X372207D01*
Y109786D01*
X372017D01*
Y109596D01*
X371636D01*
Y109405D01*
X371446D01*
Y109215D01*
X371256D01*
Y109025D01*
X371065D01*
Y108835D01*
X370875D01*
Y108644D01*
X370685D01*
Y108454D01*
X370494D01*
Y108264D01*
X370114D01*
Y108074D01*
X369924D01*
Y107883D01*
X369733D01*
Y107693D01*
X369543D01*
Y107312D01*
X369733D01*
Y107122D01*
X369924D01*
Y106932D01*
X370114D01*
Y106742D01*
X370304D01*
Y106551D01*
X370494D01*
Y106361D01*
X370685D01*
Y106171D01*
X370875D01*
Y105981D01*
X371065D01*
Y105790D01*
X371256D01*
Y105600D01*
X371446D01*
Y105410D01*
X371636D01*
Y105219D01*
X371826D01*
Y105029D01*
X372017D01*
Y104839D01*
X372207D01*
Y104649D01*
X372397D01*
Y104458D01*
X372588D01*
Y104268D01*
X372778D01*
Y104078D01*
X372968D01*
Y103888D01*
X373158D01*
Y103697D01*
X373349D01*
Y103507D01*
X373539D01*
Y103317D01*
X373729D01*
Y103126D01*
X373919D01*
Y102936D01*
X374110D01*
Y102746D01*
X374300D01*
Y102556D01*
X374490D01*
Y102365D01*
X374681D01*
Y102175D01*
X374871D01*
Y101985D01*
X375061D01*
Y101794D01*
X375251D01*
Y101604D01*
X375442D01*
Y101414D01*
X375632D01*
Y101224D01*
X375822D01*
Y101033D01*
X376012D01*
Y100843D01*
X376203D01*
Y100653D01*
X376393D01*
Y100463D01*
X376583D01*
Y100272D01*
X376774D01*
Y100082D01*
X376964D01*
Y99892D01*
X377154D01*
Y99701D01*
X377345D01*
Y99511D01*
X377535D01*
Y99321D01*
X377725D01*
Y99130D01*
X377915D01*
Y98940D01*
X378106D01*
Y98750D01*
X378296D01*
Y98560D01*
X378486D01*
Y98369D01*
X378676D01*
Y98179D01*
X378867D01*
Y97989D01*
X379057D01*
Y97799D01*
X379247D01*
Y97608D01*
X379437D01*
Y97418D01*
X379628D01*
Y97228D01*
X379818D01*
Y97037D01*
X380008D01*
Y96847D01*
X380199D01*
Y96657D01*
X380389D01*
Y96467D01*
X380579D01*
Y96276D01*
X380769D01*
Y96086D01*
X380960D01*
Y95896D01*
X381150D01*
Y95705D01*
X381340D01*
Y95515D01*
X381531D01*
Y95325D01*
X381721D01*
Y95135D01*
X381911D01*
Y94944D01*
X382101D01*
Y94754D01*
X382292D01*
Y94564D01*
X382482D01*
Y94374D01*
X382672D01*
Y94183D01*
X382863D01*
Y93993D01*
X383053D01*
Y93803D01*
X383243D01*
Y93612D01*
X383433D01*
Y93422D01*
X383624D01*
Y93232D01*
X383814D01*
Y93042D01*
X384004D01*
Y92851D01*
X384194D01*
Y92661D01*
X384385D01*
Y92471D01*
X384575D01*
Y92281D01*
X384765D01*
Y92090D01*
X384956D01*
Y91900D01*
X385146D01*
Y91710D01*
X385336D01*
Y91519D01*
X385526D01*
Y91329D01*
X385717D01*
Y90949D01*
X386097D01*
Y91710D01*
X385907D01*
Y92281D01*
X385717D01*
Y93232D01*
X385526D01*
Y93422D01*
X385336D01*
Y93993D01*
X385146D01*
Y94183D01*
X384956D01*
Y94564D01*
X384765D01*
Y94944D01*
X384575D01*
Y95135D01*
X384385D01*
Y95515D01*
X384194D01*
Y95705D01*
X384004D01*
Y95896D01*
X383814D01*
Y96276D01*
X383624D01*
Y96467D01*
X383433D01*
Y96847D01*
X383243D01*
Y97037D01*
X383053D01*
Y97418D01*
X382863D01*
Y97608D01*
X382672D01*
Y97989D01*
X382482D01*
Y98179D01*
X382292D01*
Y98560D01*
X382101D01*
Y98940D01*
X381911D01*
Y99130D01*
X381721D01*
Y99321D01*
X381531D01*
Y99701D01*
X381340D01*
Y99892D01*
X381150D01*
Y100272D01*
X380960D01*
Y100463D01*
X380769D01*
Y100843D01*
X380579D01*
Y101033D01*
X380389D01*
Y101414D01*
X380199D01*
Y101794D01*
X380008D01*
Y101985D01*
X379818D01*
Y102175D01*
X379628D01*
Y102556D01*
X379437D01*
Y102746D01*
X379247D01*
Y103126D01*
X379057D01*
Y103317D01*
X378867D01*
Y103697D01*
X378676D01*
Y103888D01*
X378486D01*
Y104268D01*
X378296D01*
Y104458D01*
X378106D01*
Y104839D01*
X377915D01*
Y105029D01*
X377725D01*
Y105410D01*
X377535D01*
Y105600D01*
X377345D01*
Y105981D01*
X377154D01*
Y106171D01*
X376964D01*
Y106551D01*
X376774D01*
Y106742D01*
X376583D01*
Y107122D01*
X376393D01*
Y107312D01*
X376203D01*
Y107693D01*
X376012D01*
Y107883D01*
X375822D01*
Y108264D01*
X375632D01*
Y108454D01*
X375442D01*
Y108644D01*
X375251D01*
Y109025D01*
X375061D01*
Y109405D01*
X374871D01*
Y109596D01*
X374681D01*
Y109976D01*
X374490D01*
Y110167D01*
X374300D01*
Y110547D01*
X374110D01*
Y110737D01*
X373919D01*
Y110928D01*
D02*
G37*
G36*
X413497D02*
X412926D01*
Y110547D01*
X412736D01*
Y110357D01*
X412546D01*
Y109976D01*
X412356D01*
Y109786D01*
X412165D01*
Y109405D01*
X411975D01*
Y109215D01*
X411785D01*
Y108835D01*
X411595D01*
Y108644D01*
X411404D01*
Y108454D01*
X411214D01*
Y108074D01*
X411024D01*
Y107883D01*
X410833D01*
Y107503D01*
X410643D01*
Y107312D01*
X410453D01*
Y106932D01*
X410262D01*
Y106742D01*
X410072D01*
Y106361D01*
X409882D01*
Y105981D01*
X409692D01*
Y105790D01*
X409501D01*
Y105410D01*
X409311D01*
Y105219D01*
X409121D01*
Y105029D01*
X408931D01*
Y104649D01*
X408740D01*
Y104458D01*
X408550D01*
Y104078D01*
X408360D01*
Y103888D01*
X408169D01*
Y103507D01*
X407979D01*
Y103317D01*
X407789D01*
Y102936D01*
X407599D01*
Y102556D01*
X407408D01*
Y102365D01*
X407218D01*
Y101985D01*
X407028D01*
Y101794D01*
X406838D01*
Y101604D01*
X406647D01*
Y101224D01*
X406457D01*
Y101033D01*
X406267D01*
Y100653D01*
X406076D01*
Y100463D01*
X405886D01*
Y100082D01*
X405696D01*
Y99892D01*
X405506D01*
Y99511D01*
X405315D01*
Y99130D01*
X405125D01*
Y98940D01*
X404935D01*
Y98560D01*
X404744D01*
Y98369D01*
X404554D01*
Y98179D01*
X404364D01*
Y97799D01*
X404174D01*
Y97608D01*
X403983D01*
Y97228D01*
X403793D01*
Y97037D01*
X403603D01*
Y96657D01*
X403413D01*
Y96467D01*
X403222D01*
Y96086D01*
X403032D01*
Y95705D01*
X402842D01*
Y95515D01*
X402651D01*
Y95135D01*
X402461D01*
Y94944D01*
X402271D01*
Y94754D01*
X402081D01*
Y94374D01*
X401890D01*
Y94183D01*
X401700D01*
Y93803D01*
X401510D01*
Y93612D01*
X401319D01*
Y93232D01*
X401129D01*
Y93042D01*
X400939D01*
Y92661D01*
X400749D01*
Y92281D01*
X400558D01*
Y92090D01*
X400368D01*
Y91900D01*
X400178D01*
Y91519D01*
X399987D01*
Y90949D01*
X400178D01*
Y90758D01*
X400939D01*
Y90949D01*
X401129D01*
Y91139D01*
X401319D01*
Y91329D01*
X401510D01*
Y91519D01*
X401700D01*
Y91710D01*
X401890D01*
Y91900D01*
X402081D01*
Y92090D01*
X402271D01*
Y92281D01*
X402461D01*
Y92471D01*
X402651D01*
Y92661D01*
X402842D01*
Y92851D01*
X403032D01*
Y93042D01*
X403222D01*
Y93232D01*
X403413D01*
Y93422D01*
X403603D01*
Y93612D01*
X403793D01*
Y93803D01*
X403983D01*
Y93993D01*
X404174D01*
Y94183D01*
X404364D01*
Y94374D01*
X404554D01*
Y94564D01*
X404744D01*
Y94754D01*
X404935D01*
Y94944D01*
X405125D01*
Y95135D01*
X405315D01*
Y95325D01*
X405506D01*
Y95515D01*
X405696D01*
Y95705D01*
X405886D01*
Y95896D01*
X406076D01*
Y96086D01*
X406267D01*
Y96276D01*
X406457D01*
Y96467D01*
X406647D01*
Y96657D01*
X406838D01*
Y96847D01*
X407028D01*
Y97037D01*
X407218D01*
Y97228D01*
X407408D01*
Y97418D01*
X407599D01*
Y97608D01*
X407789D01*
Y97799D01*
X407979D01*
Y97989D01*
X408169D01*
Y98179D01*
X408360D01*
Y98369D01*
X408550D01*
Y98560D01*
X408740D01*
Y98750D01*
X408931D01*
Y98940D01*
X409121D01*
Y99130D01*
X409311D01*
Y99321D01*
X409501D01*
Y99511D01*
X409692D01*
Y99701D01*
X409882D01*
Y99892D01*
X410072D01*
Y100082D01*
X410262D01*
Y100272D01*
X410453D01*
Y100463D01*
X410643D01*
Y100653D01*
X410833D01*
Y100843D01*
X411024D01*
Y101033D01*
X411214D01*
Y101224D01*
X411404D01*
Y101414D01*
X411595D01*
Y101604D01*
X411785D01*
Y101794D01*
X411975D01*
Y101985D01*
X412165D01*
Y102175D01*
X412356D01*
Y102365D01*
X412546D01*
Y102556D01*
X412736D01*
Y102746D01*
X412926D01*
Y102936D01*
X413117D01*
Y103126D01*
X413307D01*
Y103317D01*
X413497D01*
Y103507D01*
X413688D01*
Y103697D01*
X413878D01*
Y103888D01*
X414068D01*
Y104078D01*
X414258D01*
Y104268D01*
X414449D01*
Y104458D01*
X414639D01*
Y104649D01*
X414829D01*
Y104839D01*
X415019D01*
Y105029D01*
X415210D01*
Y105219D01*
X415400D01*
Y105410D01*
X415590D01*
Y105600D01*
X415781D01*
Y105790D01*
X415971D01*
Y105981D01*
X416161D01*
Y106171D01*
X416351D01*
Y106361D01*
X416542D01*
Y106551D01*
X416732D01*
Y106742D01*
X416922D01*
Y106932D01*
X417113D01*
Y107122D01*
X417303D01*
Y107693D01*
X417113D01*
Y107883D01*
X416922D01*
Y108074D01*
X416732D01*
Y108264D01*
X416542D01*
Y108454D01*
X416351D01*
Y108644D01*
X416161D01*
Y108835D01*
X415971D01*
Y109025D01*
X415781D01*
Y109215D01*
X415400D01*
Y109405D01*
X415210D01*
Y109596D01*
X415019D01*
Y109786D01*
X414829D01*
Y109976D01*
X414449D01*
Y110167D01*
X414258D01*
Y110357D01*
X414068D01*
Y110547D01*
X413688D01*
Y110737D01*
X413497D01*
Y110928D01*
D02*
G37*
G36*
X418635Y106551D02*
X418064D01*
Y106361D01*
X417874D01*
Y106171D01*
X417683D01*
Y105981D01*
X417493D01*
Y105790D01*
X417303D01*
Y105600D01*
X417113D01*
Y105410D01*
X416922D01*
Y105219D01*
X416732D01*
Y105029D01*
X416542D01*
Y104839D01*
X416351D01*
Y104649D01*
X416161D01*
Y104458D01*
X415971D01*
Y104268D01*
X415781D01*
Y104078D01*
X415590D01*
Y103888D01*
X415400D01*
Y103697D01*
X415210D01*
Y103507D01*
X415019D01*
Y103317D01*
X414829D01*
Y103126D01*
X414639D01*
Y102936D01*
X414449D01*
Y102746D01*
X414258D01*
Y102556D01*
X414068D01*
Y102365D01*
X413878D01*
Y102175D01*
X413688D01*
Y101985D01*
X413497D01*
Y101794D01*
X413307D01*
Y101604D01*
X413117D01*
Y101414D01*
X412926D01*
Y101224D01*
X412736D01*
Y101033D01*
X412546D01*
Y100843D01*
X412356D01*
Y100653D01*
X412165D01*
Y100463D01*
X411975D01*
Y100272D01*
X411785D01*
Y100082D01*
X411595D01*
Y99892D01*
X411404D01*
Y99701D01*
X411214D01*
Y99511D01*
X411024D01*
Y99321D01*
X410833D01*
Y99130D01*
X410643D01*
Y98940D01*
X410453D01*
Y98750D01*
X410262D01*
Y98560D01*
X410072D01*
Y98369D01*
X409882D01*
Y98179D01*
X409692D01*
Y97989D01*
X409501D01*
Y97799D01*
X409311D01*
Y97608D01*
X409121D01*
Y97418D01*
X408931D01*
Y97228D01*
X408740D01*
Y97037D01*
X408550D01*
Y96847D01*
X408360D01*
Y96657D01*
X408169D01*
Y96467D01*
X407979D01*
Y96276D01*
X407789D01*
Y96086D01*
X407599D01*
Y95896D01*
X407408D01*
Y95705D01*
X407218D01*
Y95515D01*
X407028D01*
Y95325D01*
X406838D01*
Y95135D01*
X406647D01*
Y94944D01*
X406457D01*
Y94754D01*
X406267D01*
Y94564D01*
X406076D01*
Y94374D01*
X405886D01*
Y94183D01*
X405696D01*
Y93993D01*
X405506D01*
Y93803D01*
X405315D01*
Y93612D01*
X405125D01*
Y93422D01*
X404935D01*
Y93232D01*
X404744D01*
Y93042D01*
X404554D01*
Y92851D01*
X404364D01*
Y92661D01*
X404174D01*
Y92471D01*
X403983D01*
Y92281D01*
X403793D01*
Y92090D01*
X403603D01*
Y91900D01*
X403413D01*
Y91710D01*
X403222D01*
Y91519D01*
X403032D01*
Y91329D01*
X402842D01*
Y91139D01*
X402651D01*
Y90949D01*
X402461D01*
Y90758D01*
X402271D01*
Y90568D01*
X402081D01*
Y90378D01*
X401890D01*
Y90188D01*
X401700D01*
Y89997D01*
X401510D01*
Y89426D01*
X401700D01*
Y89236D01*
X401890D01*
Y89046D01*
X402271D01*
Y89236D01*
X402461D01*
Y89426D01*
X402842D01*
Y89617D01*
X403032D01*
Y89807D01*
X403222D01*
Y89997D01*
X403603D01*
Y90188D01*
X403793D01*
Y90378D01*
X404174D01*
Y90568D01*
X404554D01*
Y90758D01*
X404744D01*
Y90949D01*
X405125D01*
Y91139D01*
X405315D01*
Y91329D01*
X405696D01*
Y91519D01*
X405886D01*
Y91710D01*
X406267D01*
Y91900D01*
X406457D01*
Y92090D01*
X406647D01*
Y92281D01*
X407028D01*
Y92471D01*
X407218D01*
Y92661D01*
X407599D01*
Y92851D01*
X407789D01*
Y93042D01*
X408169D01*
Y93232D01*
X408550D01*
Y93422D01*
X408740D01*
Y93612D01*
X409121D01*
Y93803D01*
X409311D01*
Y93993D01*
X409692D01*
Y94183D01*
X409882D01*
Y94374D01*
X410072D01*
Y94564D01*
X410453D01*
Y94754D01*
X410643D01*
Y94944D01*
X411024D01*
Y95135D01*
X411214D01*
Y95325D01*
X411595D01*
Y95515D01*
X411975D01*
Y95705D01*
X412165D01*
Y95896D01*
X412546D01*
Y96086D01*
X412736D01*
Y96276D01*
X413117D01*
Y96467D01*
X413307D01*
Y96657D01*
X413497D01*
Y96847D01*
X413878D01*
Y97037D01*
X414068D01*
Y97228D01*
X414449D01*
Y97418D01*
X414639D01*
Y97608D01*
X415019D01*
Y97799D01*
X415400D01*
Y97989D01*
X415590D01*
Y98179D01*
X415971D01*
Y98369D01*
X416161D01*
Y98560D01*
X416542D01*
Y98750D01*
X416732D01*
Y98940D01*
X416922D01*
Y99130D01*
X417303D01*
Y99321D01*
X417493D01*
Y99511D01*
X417874D01*
Y99701D01*
X418064D01*
Y99892D01*
X418445D01*
Y100082D01*
X418825D01*
Y100272D01*
X419015D01*
Y100463D01*
X419396D01*
Y100653D01*
X419586D01*
Y100843D01*
X419776D01*
Y101033D01*
X420157D01*
Y101224D01*
X420347D01*
Y101414D01*
X420728D01*
Y101604D01*
X420918D01*
Y101794D01*
X421299D01*
Y101985D01*
X421489D01*
Y102175D01*
X421679D01*
Y102365D01*
X421869D01*
Y102556D01*
X421679D01*
Y102746D01*
X421489D01*
Y102936D01*
X421299D01*
Y103317D01*
X421108D01*
Y103507D01*
X420918D01*
Y103697D01*
X420728D01*
Y104078D01*
X420537D01*
Y104268D01*
X420347D01*
Y104458D01*
X420157D01*
Y104649D01*
X419967D01*
Y105029D01*
X419776D01*
Y105219D01*
X419586D01*
Y105410D01*
X419396D01*
Y105600D01*
X419206D01*
Y105790D01*
X419015D01*
Y105981D01*
X418825D01*
Y106171D01*
X418635D01*
Y106551D01*
D02*
G37*
G36*
X368782D02*
X368401D01*
Y106361D01*
X368211D01*
Y106171D01*
X368021D01*
Y105981D01*
X367831D01*
Y105600D01*
X367640D01*
Y105410D01*
X367450D01*
Y105219D01*
X367260D01*
Y105029D01*
X367069D01*
Y104839D01*
X366879D01*
Y104649D01*
X366689D01*
Y104458D01*
X366499D01*
Y104078D01*
X366308D01*
Y103888D01*
X366118D01*
Y103697D01*
X365928D01*
Y103317D01*
X365737D01*
Y103126D01*
X365547D01*
Y102936D01*
X365357D01*
Y102746D01*
X365167D01*
Y102175D01*
X365357D01*
Y101985D01*
X365737D01*
Y101794D01*
X365928D01*
Y101604D01*
X366118D01*
Y101414D01*
X366499D01*
Y101224D01*
X366689D01*
Y101033D01*
X367069D01*
Y100843D01*
X367450D01*
Y100653D01*
X367640D01*
Y100463D01*
X368021D01*
Y100272D01*
X368211D01*
Y100082D01*
X368592D01*
Y99892D01*
X368782D01*
Y99701D01*
X368972D01*
Y99511D01*
X369353D01*
Y99321D01*
X369543D01*
Y99130D01*
X369924D01*
Y98940D01*
X370114D01*
Y98750D01*
X370494D01*
Y98560D01*
X370875D01*
Y98369D01*
X371065D01*
Y98179D01*
X371446D01*
Y97989D01*
X371636D01*
Y97799D01*
X372017D01*
Y97608D01*
X372207D01*
Y97418D01*
X372397D01*
Y97228D01*
X372778D01*
Y97037D01*
X372968D01*
Y96847D01*
X373349D01*
Y96657D01*
X373539D01*
Y96467D01*
X373919D01*
Y96276D01*
X374300D01*
Y96086D01*
X374490D01*
Y95896D01*
X374871D01*
Y95705D01*
X375061D01*
Y95515D01*
X375442D01*
Y95325D01*
X375632D01*
Y95135D01*
X375822D01*
Y94944D01*
X376203D01*
Y94754D01*
X376393D01*
Y94564D01*
X376774D01*
Y94374D01*
X376964D01*
Y94183D01*
X377345D01*
Y93993D01*
X377725D01*
Y93803D01*
X377915D01*
Y93612D01*
X378296D01*
Y93422D01*
X378486D01*
Y93232D01*
X378676D01*
Y93042D01*
X379057D01*
Y92851D01*
X379247D01*
Y92661D01*
X379628D01*
Y92471D01*
X379818D01*
Y92281D01*
X380199D01*
Y92090D01*
X380389D01*
Y91900D01*
X380769D01*
Y91710D01*
X381150D01*
Y91519D01*
X381340D01*
Y91329D01*
X381721D01*
Y91139D01*
X381911D01*
Y90949D01*
X382101D01*
Y90758D01*
X382482D01*
Y90568D01*
X382672D01*
Y90378D01*
X383053D01*
Y90188D01*
X383243D01*
Y89997D01*
X383624D01*
Y89807D01*
X383814D01*
Y89617D01*
X384194D01*
Y89426D01*
X384385D01*
Y89236D01*
X384765D01*
Y89046D01*
X384956D01*
Y89236D01*
X385146D01*
Y89426D01*
X385336D01*
Y90188D01*
X385146D01*
Y90378D01*
X384765D01*
Y90758D01*
X384575D01*
Y90949D01*
X384385D01*
Y91139D01*
X384194D01*
Y91329D01*
X384004D01*
Y91519D01*
X383814D01*
Y91710D01*
X383624D01*
Y91900D01*
X383433D01*
Y92090D01*
X383243D01*
Y92281D01*
X383053D01*
Y92471D01*
X382863D01*
Y92661D01*
X382672D01*
Y92851D01*
X382482D01*
Y93042D01*
X382292D01*
Y93232D01*
X382101D01*
Y93422D01*
X381911D01*
Y93612D01*
X381721D01*
Y93803D01*
X381531D01*
Y93993D01*
X381340D01*
Y94183D01*
X381150D01*
Y94374D01*
X380960D01*
Y94564D01*
X380769D01*
Y94754D01*
X380579D01*
Y94944D01*
X380389D01*
Y95135D01*
X380199D01*
Y95325D01*
X380008D01*
Y95515D01*
X379818D01*
Y95705D01*
X379628D01*
Y95896D01*
X379437D01*
Y96086D01*
X379247D01*
Y96276D01*
X379057D01*
Y96467D01*
X378867D01*
Y96657D01*
X378676D01*
Y96847D01*
X378486D01*
Y97037D01*
X378296D01*
Y97228D01*
X377915D01*
Y97608D01*
X377725D01*
Y97799D01*
X377535D01*
Y97989D01*
X377345D01*
Y98179D01*
X377154D01*
Y98369D01*
X376964D01*
Y98560D01*
X376774D01*
Y98750D01*
X376583D01*
Y98940D01*
X376393D01*
Y99130D01*
X376203D01*
Y99321D01*
X376012D01*
Y99511D01*
X375632D01*
Y99892D01*
X375442D01*
Y100082D01*
X375251D01*
Y100272D01*
X375061D01*
Y100463D01*
X374871D01*
Y100653D01*
X374681D01*
Y100843D01*
X374490D01*
Y101033D01*
X374300D01*
Y101224D01*
X374110D01*
Y101414D01*
X373919D01*
Y101604D01*
X373729D01*
Y101794D01*
X373349D01*
Y102175D01*
X373158D01*
Y102365D01*
X372968D01*
Y102556D01*
X372778D01*
Y102746D01*
X372397D01*
Y103126D01*
X372207D01*
Y103317D01*
X372017D01*
Y103507D01*
X371826D01*
Y103697D01*
X371636D01*
Y103888D01*
X371446D01*
Y104078D01*
X371065D01*
Y104458D01*
X370875D01*
Y104649D01*
X370685D01*
Y104839D01*
X370494D01*
Y105029D01*
X370114D01*
Y105410D01*
X369924D01*
Y105600D01*
X369733D01*
Y105790D01*
X369543D01*
Y105981D01*
X369162D01*
Y106361D01*
X368782D01*
Y106551D01*
D02*
G37*
G36*
X422631Y101414D02*
X422250D01*
Y101224D01*
X422060D01*
Y101033D01*
X421869D01*
Y100843D01*
X421489D01*
Y100653D01*
X421299D01*
Y100463D01*
X420918D01*
Y100272D01*
X420728D01*
Y100082D01*
X420347D01*
Y99892D01*
X420157D01*
Y99701D01*
X419776D01*
Y99511D01*
X419586D01*
Y99321D01*
X419396D01*
Y99130D01*
X419015D01*
Y98940D01*
X418635D01*
Y98750D01*
X418445D01*
Y98560D01*
X418064D01*
Y98369D01*
X417874D01*
Y98179D01*
X417493D01*
Y97989D01*
X417303D01*
Y97799D01*
X416922D01*
Y97608D01*
X416732D01*
Y97418D01*
X416542D01*
Y97228D01*
X416161D01*
Y97037D01*
X415971D01*
Y96847D01*
X415590D01*
Y96657D01*
X415210D01*
Y96467D01*
X415019D01*
Y96276D01*
X414639D01*
Y96086D01*
X414449D01*
Y95896D01*
X414068D01*
Y95705D01*
X413878D01*
Y95515D01*
X413497D01*
Y95325D01*
X413307D01*
Y95135D01*
X413117D01*
Y94944D01*
X412736D01*
Y94754D01*
X412546D01*
Y94564D01*
X412165D01*
Y94374D01*
X411785D01*
Y94183D01*
X411595D01*
Y93993D01*
X411214D01*
Y93803D01*
X411024D01*
Y93612D01*
X410643D01*
Y93422D01*
X410453D01*
Y93232D01*
X410072D01*
Y93042D01*
X409882D01*
Y92851D01*
X409692D01*
Y92661D01*
X409311D01*
Y92471D01*
X409121D01*
Y92281D01*
X408740D01*
Y92090D01*
X408550D01*
Y91900D01*
X408169D01*
Y91710D01*
X407789D01*
Y91519D01*
X407599D01*
Y91329D01*
X407218D01*
Y91139D01*
X407028D01*
Y90949D01*
X406647D01*
Y90758D01*
X406457D01*
Y90568D01*
X406267D01*
Y90378D01*
X405886D01*
Y90188D01*
X405696D01*
Y89997D01*
X405315D01*
Y89807D01*
X404935D01*
Y89617D01*
X404744D01*
Y89426D01*
X404364D01*
Y89236D01*
X404174D01*
Y89046D01*
X403793D01*
Y88855D01*
X403603D01*
Y88665D01*
X403222D01*
Y88475D01*
X403032D01*
Y88285D01*
X402842D01*
Y88094D01*
X402651D01*
Y87714D01*
X402842D01*
Y87524D01*
X403032D01*
Y87333D01*
X403603D01*
Y87524D01*
X403983D01*
Y87714D01*
X404554D01*
Y87904D01*
X404935D01*
Y88094D01*
X405506D01*
Y88285D01*
X405886D01*
Y88475D01*
X406267D01*
Y88665D01*
X406838D01*
Y88855D01*
X407218D01*
Y89046D01*
X407789D01*
Y89236D01*
X408169D01*
Y89426D01*
X408740D01*
Y89617D01*
X409121D01*
Y89807D01*
X409501D01*
Y89997D01*
X410072D01*
Y90188D01*
X410453D01*
Y90378D01*
X411024D01*
Y90568D01*
X411404D01*
Y90758D01*
X411785D01*
Y90949D01*
X412356D01*
Y91139D01*
X412736D01*
Y91329D01*
X413307D01*
Y91519D01*
X413688D01*
Y91710D01*
X414258D01*
Y91900D01*
X414639D01*
Y92090D01*
X415019D01*
Y92281D01*
X415590D01*
Y92471D01*
X415971D01*
Y92661D01*
X416542D01*
Y92851D01*
X416922D01*
Y93042D01*
X417303D01*
Y93232D01*
X417874D01*
Y93422D01*
X418254D01*
Y93612D01*
X418825D01*
Y93803D01*
X419206D01*
Y93993D01*
X419776D01*
Y94183D01*
X420157D01*
Y94374D01*
X420537D01*
Y94564D01*
X421108D01*
Y94754D01*
X421489D01*
Y94944D01*
X422060D01*
Y95135D01*
X422440D01*
Y95325D01*
X422821D01*
Y95515D01*
X423392D01*
Y95705D01*
X423772D01*
Y95896D01*
X424343D01*
Y96086D01*
X424724D01*
Y96276D01*
X425104D01*
Y96847D01*
X424914D01*
Y97228D01*
X424724D01*
Y97418D01*
X424533D01*
Y97989D01*
X424343D01*
Y98369D01*
X424153D01*
Y98750D01*
X423963D01*
Y99130D01*
X423772D01*
Y99511D01*
X423582D01*
Y99892D01*
X423392D01*
Y100082D01*
X423201D01*
Y100463D01*
X423011D01*
Y100653D01*
X422821D01*
Y101033D01*
X422631D01*
Y101414D01*
D02*
G37*
G36*
X364596D02*
X364406D01*
Y101224D01*
X364215D01*
Y100843D01*
X364025D01*
Y100653D01*
X363835D01*
Y100272D01*
X363644D01*
Y99892D01*
X363454D01*
Y99701D01*
X363264D01*
Y99321D01*
X363074D01*
Y99130D01*
X362883D01*
Y98560D01*
X362693D01*
Y98179D01*
X362503D01*
Y97799D01*
X362313D01*
Y97418D01*
X362122D01*
Y97037D01*
X361932D01*
Y96276D01*
X362313D01*
Y96086D01*
X362503D01*
Y95896D01*
X363264D01*
Y95705D01*
X363644D01*
Y95515D01*
X364025D01*
Y95325D01*
X364596D01*
Y95135D01*
X364786D01*
Y94944D01*
X365547D01*
Y94754D01*
X365737D01*
Y94564D01*
X366499D01*
Y94374D01*
X366879D01*
Y94183D01*
X367260D01*
Y93993D01*
X367831D01*
Y93803D01*
X368021D01*
Y93612D01*
X368782D01*
Y93422D01*
X368972D01*
Y93232D01*
X369543D01*
Y93042D01*
X370114D01*
Y92851D01*
X370304D01*
Y92661D01*
X371065D01*
Y92471D01*
X371256D01*
Y92281D01*
X372017D01*
Y92090D01*
X372397D01*
Y91900D01*
X372778D01*
Y91710D01*
X373349D01*
Y91519D01*
X373539D01*
Y91329D01*
X374300D01*
Y91139D01*
X374490D01*
Y90949D01*
X375061D01*
Y90758D01*
X375632D01*
Y90568D01*
X376012D01*
Y90378D01*
X376583D01*
Y90188D01*
X376774D01*
Y89997D01*
X377535D01*
Y89807D01*
X377915D01*
Y89617D01*
X378296D01*
Y89426D01*
X378867D01*
Y89236D01*
X379057D01*
Y89046D01*
X379818D01*
Y88855D01*
X380008D01*
Y88665D01*
X380579D01*
Y88475D01*
X381150D01*
Y88285D01*
X381531D01*
Y88094D01*
X382101D01*
Y87904D01*
X382292D01*
Y87714D01*
X383053D01*
Y87524D01*
X383243D01*
Y87333D01*
X383814D01*
Y87524D01*
X384004D01*
Y87714D01*
X384194D01*
Y88094D01*
X384004D01*
Y88285D01*
X383814D01*
Y88475D01*
X383624D01*
Y88665D01*
X383243D01*
Y88855D01*
X383053D01*
Y89046D01*
X382672D01*
Y89236D01*
X382482D01*
Y89426D01*
X382101D01*
Y89617D01*
X381911D01*
Y89807D01*
X381721D01*
Y89997D01*
X381340D01*
Y90188D01*
X381150D01*
Y90378D01*
X380769D01*
Y90568D01*
X380579D01*
Y90758D01*
X380199D01*
Y90949D01*
X379818D01*
Y91139D01*
X379628D01*
Y91329D01*
X379247D01*
Y91519D01*
X379057D01*
Y91710D01*
X378676D01*
Y91900D01*
X378486D01*
Y92090D01*
X378296D01*
Y92281D01*
X377915D01*
Y92471D01*
X377725D01*
Y92661D01*
X377345D01*
Y92851D01*
X377154D01*
Y93042D01*
X376774D01*
Y93232D01*
X376393D01*
Y93422D01*
X376203D01*
Y93612D01*
X375822D01*
Y93803D01*
X375632D01*
Y93993D01*
X375251D01*
Y94183D01*
X375061D01*
Y94374D01*
X374871D01*
Y94564D01*
X374490D01*
Y94754D01*
X374300D01*
Y94944D01*
X373919D01*
Y95135D01*
X373729D01*
Y95325D01*
X373349D01*
Y95515D01*
X372968D01*
Y95705D01*
X372778D01*
Y95896D01*
X372397D01*
Y96086D01*
X372207D01*
Y96276D01*
X371826D01*
Y96467D01*
X371636D01*
Y96657D01*
X371446D01*
Y96847D01*
X371065D01*
Y97037D01*
X370875D01*
Y97228D01*
X370494D01*
Y97418D01*
X370304D01*
Y97608D01*
X369924D01*
Y97799D01*
X369543D01*
Y97989D01*
X369353D01*
Y98179D01*
X368972D01*
Y98369D01*
X368782D01*
Y98560D01*
X368592D01*
Y98750D01*
X368211D01*
Y98940D01*
X368021D01*
Y99130D01*
X367640D01*
Y99321D01*
X367450D01*
Y99511D01*
X367069D01*
Y99701D01*
X366879D01*
Y99892D01*
X366499D01*
Y100082D01*
X366118D01*
Y100272D01*
X365928D01*
Y100463D01*
X365547D01*
Y100653D01*
X365357D01*
Y100843D01*
X364976D01*
Y101033D01*
X364786D01*
Y101224D01*
X364596D01*
Y101414D01*
D02*
G37*
G36*
X425485Y95325D02*
X425294D01*
Y95135D01*
X424914D01*
Y94944D01*
X424343D01*
Y94754D01*
X423963D01*
Y94564D01*
X423392D01*
Y94374D01*
X423011D01*
Y94183D01*
X422631D01*
Y93993D01*
X422060D01*
Y93803D01*
X421679D01*
Y93612D01*
X421108D01*
Y93422D01*
X420728D01*
Y93232D01*
X420157D01*
Y93042D01*
X419776D01*
Y92851D01*
X419396D01*
Y92661D01*
X418825D01*
Y92471D01*
X418445D01*
Y92281D01*
X417874D01*
Y92090D01*
X417493D01*
Y91900D01*
X417113D01*
Y91710D01*
X416542D01*
Y91519D01*
X416161D01*
Y91329D01*
X415590D01*
Y91139D01*
X415210D01*
Y90949D01*
X414639D01*
Y90758D01*
X414258D01*
Y90568D01*
X413878D01*
Y90378D01*
X413307D01*
Y90188D01*
X412926D01*
Y89997D01*
X412356D01*
Y89807D01*
X411975D01*
Y89617D01*
X411595D01*
Y89426D01*
X411024D01*
Y89236D01*
X410643D01*
Y89046D01*
X410072D01*
Y88855D01*
X409692D01*
Y88665D01*
X409121D01*
Y88475D01*
X408740D01*
Y88285D01*
X408360D01*
Y88094D01*
X407789D01*
Y87904D01*
X407408D01*
Y87714D01*
X406838D01*
Y87524D01*
X406457D01*
Y87333D01*
X406076D01*
Y87143D01*
X405506D01*
Y86953D01*
X405125D01*
Y86763D01*
X404554D01*
Y86572D01*
X404174D01*
Y86382D01*
X403793D01*
Y86192D01*
X403603D01*
Y85621D01*
X403793D01*
Y85430D01*
X405315D01*
Y85621D01*
X405886D01*
Y85811D01*
X407218D01*
Y86001D01*
X407979D01*
Y86192D01*
X408931D01*
Y86382D01*
X410072D01*
Y86572D01*
X410643D01*
Y86763D01*
X411975D01*
Y86953D01*
X412736D01*
Y87143D01*
X413878D01*
Y87333D01*
X414639D01*
Y87524D01*
X415590D01*
Y87714D01*
X416732D01*
Y87904D01*
X417493D01*
Y88094D01*
X418635D01*
Y88285D01*
X419396D01*
Y88475D01*
X420347D01*
Y88665D01*
X421489D01*
Y88855D01*
X422250D01*
Y89046D01*
X423582D01*
Y89236D01*
X424153D01*
Y89426D01*
X425294D01*
Y89617D01*
X426246D01*
Y89807D01*
X427007D01*
Y89997D01*
X427197D01*
Y90568D01*
X427007D01*
Y91139D01*
X426817D01*
Y92281D01*
X426626D01*
Y92661D01*
X426436D01*
Y93422D01*
X426246D01*
Y93803D01*
Y93993D01*
X426056D01*
Y94374D01*
X425865D01*
Y94944D01*
X425675D01*
Y95135D01*
X425485D01*
Y95325D01*
D02*
G37*
G36*
X361551D02*
X361361D01*
Y95135D01*
X361171D01*
Y94754D01*
X360981D01*
Y94183D01*
X360790D01*
Y93803D01*
X360600D01*
Y93042D01*
X360410D01*
Y92471D01*
X360219D01*
Y91710D01*
X360029D01*
Y90949D01*
X359839D01*
Y90568D01*
X359649D01*
Y89997D01*
X360029D01*
Y89807D01*
X360790D01*
Y89617D01*
X361551D01*
Y89426D01*
X362693D01*
Y89236D01*
X363454D01*
Y89046D01*
X364786D01*
Y88855D01*
X365357D01*
Y88665D01*
X366499D01*
Y88475D01*
X367450D01*
Y88285D01*
X368211D01*
Y88094D01*
X369543D01*
Y87904D01*
X370114D01*
Y87714D01*
X371446D01*
Y87524D01*
X372207D01*
Y87333D01*
X372968D01*
Y87143D01*
X374300D01*
Y86953D01*
X374871D01*
Y86763D01*
X376203D01*
Y86572D01*
X376964D01*
Y86382D01*
X377915D01*
Y86192D01*
X379057D01*
Y86001D01*
X379628D01*
Y85811D01*
X380960D01*
Y85621D01*
X381721D01*
Y85430D01*
X383243D01*
Y85811D01*
X383433D01*
Y86192D01*
X383243D01*
Y86382D01*
X382672D01*
Y86572D01*
X382482D01*
Y86763D01*
X381721D01*
Y86953D01*
X381531D01*
Y87143D01*
X380960D01*
Y87333D01*
X380389D01*
Y87524D01*
X380199D01*
Y87714D01*
X379437D01*
Y87904D01*
X379247D01*
Y88094D01*
X378486D01*
Y88285D01*
X378106D01*
Y88475D01*
X377725D01*
Y88665D01*
X377154D01*
Y88855D01*
X376964D01*
Y89046D01*
X376203D01*
Y89236D01*
X376012D01*
Y89426D01*
X375442D01*
Y89617D01*
X374871D01*
Y89807D01*
X374681D01*
Y89997D01*
X373919D01*
Y90188D01*
X373729D01*
Y90378D01*
X372968D01*
Y90568D01*
X372778D01*
Y90758D01*
X372207D01*
Y90949D01*
X371636D01*
Y91139D01*
X371446D01*
Y91329D01*
X370685D01*
Y91519D01*
X370494D01*
Y91710D01*
X369924D01*
Y91900D01*
X369353D01*
Y92090D01*
X369162D01*
Y92281D01*
X368401D01*
Y92471D01*
X368211D01*
Y92661D01*
X367450D01*
Y92851D01*
X367260D01*
Y93042D01*
X366689D01*
Y93232D01*
X366118D01*
Y93422D01*
X365928D01*
Y93612D01*
X365167D01*
Y93803D01*
X364976D01*
Y93993D01*
X364406D01*
Y94183D01*
X364025D01*
Y94374D01*
X363644D01*
Y94564D01*
X362883D01*
Y94754D01*
X362693D01*
Y94944D01*
X362122D01*
Y95135D01*
X361551D01*
Y95325D01*
D02*
G37*
G36*
X427388Y88665D02*
X425865D01*
Y88475D01*
X425104D01*
Y88285D01*
X424343D01*
Y88094D01*
X423011D01*
Y87904D01*
X422440D01*
Y87714D01*
X421108D01*
Y87524D01*
X420347D01*
Y87333D01*
X419396D01*
Y87143D01*
X418254D01*
Y86953D01*
X417683D01*
Y86763D01*
X416351D01*
Y86572D01*
X415590D01*
Y86382D01*
X414449D01*
Y86192D01*
X413497D01*
Y86001D01*
X412736D01*
Y85811D01*
X411595D01*
Y85621D01*
X410833D01*
Y85430D01*
X409501D01*
Y85240D01*
X408931D01*
Y85050D01*
X407979D01*
Y84860D01*
X406838D01*
Y84669D01*
X406076D01*
Y84479D01*
X404744D01*
Y84289D01*
X404174D01*
Y83908D01*
X403983D01*
Y83528D01*
X404174D01*
Y83147D01*
X427958D01*
Y85811D01*
X427768D01*
Y87714D01*
X427578D01*
Y88475D01*
X427388D01*
Y88665D01*
D02*
G37*
G36*
X359839Y88855D02*
X359649D01*
Y88665D01*
X359458D01*
Y88475D01*
X359268D01*
Y86763D01*
X359078D01*
Y85050D01*
X358887D01*
Y83147D01*
X382672D01*
Y83337D01*
X382863D01*
Y84099D01*
X382672D01*
Y84289D01*
X382101D01*
Y84479D01*
X380769D01*
Y84669D01*
X380199D01*
Y84860D01*
X379057D01*
Y85050D01*
X378106D01*
Y85240D01*
X377345D01*
Y85430D01*
X376012D01*
Y85621D01*
X375442D01*
Y85811D01*
X374110D01*
Y86001D01*
X373349D01*
Y86192D01*
X372397D01*
Y86382D01*
X371256D01*
Y86572D01*
X370685D01*
Y86763D01*
X369353D01*
Y86953D01*
X368592D01*
Y87143D01*
X367450D01*
Y87333D01*
X366499D01*
Y87524D01*
X365928D01*
Y87714D01*
X364596D01*
Y87904D01*
X363835D01*
Y88094D01*
X362693D01*
Y88285D01*
X361932D01*
Y88475D01*
X360981D01*
Y88665D01*
X359839D01*
Y88855D01*
D02*
G37*
G36*
X427958Y82196D02*
X404364D01*
Y82006D01*
X404174D01*
Y81815D01*
X403983D01*
Y81435D01*
X404174D01*
Y81054D01*
X404554D01*
Y80864D01*
X405886D01*
Y80674D01*
X406647D01*
Y80483D01*
X407599D01*
Y80293D01*
X408740D01*
Y80103D01*
X409311D01*
Y79913D01*
X410643D01*
Y79722D01*
X411404D01*
Y79532D01*
X412546D01*
Y79342D01*
X413497D01*
Y79151D01*
X414068D01*
Y78961D01*
X415400D01*
Y78771D01*
X416161D01*
Y78580D01*
X417303D01*
Y78390D01*
X418064D01*
Y78200D01*
X419015D01*
Y78010D01*
X420157D01*
Y77819D01*
X420918D01*
Y77629D01*
X422250D01*
Y77439D01*
X422821D01*
Y77249D01*
X423963D01*
Y77058D01*
X424914D01*
Y76868D01*
X425675D01*
Y76678D01*
X426817D01*
Y76487D01*
X427388D01*
Y76678D01*
X427578D01*
Y77629D01*
X427768D01*
Y79532D01*
X427958D01*
Y82196D01*
D02*
G37*
G36*
X382482D02*
X359078D01*
Y82006D01*
X358887D01*
Y80293D01*
X359078D01*
Y78580D01*
X359268D01*
Y76868D01*
X359458D01*
Y76487D01*
X360029D01*
Y76678D01*
X361361D01*
Y76868D01*
X361932D01*
Y77058D01*
X362883D01*
Y77249D01*
X364025D01*
Y77439D01*
X364786D01*
Y77629D01*
X366118D01*
Y77819D01*
X366689D01*
Y78010D01*
X367831D01*
Y78200D01*
X368782D01*
Y78390D01*
X369543D01*
Y78580D01*
X370875D01*
Y78771D01*
X371446D01*
Y78961D01*
X372778D01*
Y79151D01*
X373539D01*
Y79342D01*
X374490D01*
Y79532D01*
X375632D01*
Y79722D01*
X376203D01*
Y79913D01*
X377535D01*
Y80103D01*
X378296D01*
Y80293D01*
X379437D01*
Y80483D01*
X380199D01*
Y80674D01*
X380960D01*
Y80864D01*
X382292D01*
Y81054D01*
X382672D01*
Y81244D01*
X382863D01*
Y82006D01*
X382482D01*
Y82196D01*
D02*
G37*
G36*
X405125Y79913D02*
X403793D01*
Y79722D01*
X403603D01*
Y78961D01*
X404174D01*
Y78771D01*
X404364D01*
Y78580D01*
X404935D01*
Y78390D01*
X405315D01*
Y78200D01*
X405886D01*
Y78010D01*
X406457D01*
Y77819D01*
X406647D01*
Y77629D01*
X407408D01*
Y77439D01*
X407599D01*
Y77249D01*
X408169D01*
Y77058D01*
X408740D01*
Y76868D01*
X408931D01*
Y76678D01*
X409692D01*
Y76487D01*
X409882D01*
Y76297D01*
X410453D01*
Y76107D01*
X410833D01*
Y75917D01*
X411404D01*
Y75726D01*
X411975D01*
Y75536D01*
X412165D01*
Y75346D01*
X412926D01*
Y75156D01*
X413117D01*
Y74965D01*
X413688D01*
Y74775D01*
X414068D01*
Y74585D01*
X414449D01*
Y74394D01*
X415210D01*
Y74204D01*
X415400D01*
Y74014D01*
X415971D01*
Y73824D01*
X416351D01*
Y73633D01*
X416732D01*
Y73443D01*
X417493D01*
Y73253D01*
X417683D01*
Y73063D01*
X418254D01*
Y72872D01*
X418635D01*
Y72682D01*
X419206D01*
Y72492D01*
X419586D01*
Y72301D01*
X419967D01*
Y72111D01*
X420728D01*
Y71921D01*
X420918D01*
Y71730D01*
X421489D01*
Y71540D01*
X421869D01*
Y71350D01*
X422250D01*
Y71160D01*
X423011D01*
Y70969D01*
X423201D01*
Y70779D01*
X423772D01*
Y70589D01*
X424153D01*
Y70399D01*
X424724D01*
Y70208D01*
X425104D01*
Y70018D01*
X425675D01*
Y70208D01*
X425865D01*
Y70969D01*
X426056D01*
Y71350D01*
X426246D01*
Y71921D01*
X426436D01*
Y72492D01*
X426626D01*
Y73063D01*
X426817D01*
Y74014D01*
X427007D01*
Y74585D01*
X427197D01*
Y74965D01*
Y75156D01*
Y75346D01*
X426817D01*
Y75536D01*
X426056D01*
Y75726D01*
X424914D01*
Y75917D01*
X423963D01*
Y76107D01*
X423201D01*
Y76297D01*
X421869D01*
Y76487D01*
X421299D01*
Y76678D01*
X419967D01*
Y76868D01*
X419206D01*
Y77058D01*
X418445D01*
Y77249D01*
X417303D01*
Y77439D01*
X416542D01*
Y77629D01*
X415210D01*
Y77819D01*
X414449D01*
Y78010D01*
X413497D01*
Y78200D01*
X412546D01*
Y78390D01*
X411785D01*
Y78580D01*
X410453D01*
Y78771D01*
X409882D01*
Y78961D01*
X408550D01*
Y79151D01*
X407789D01*
Y79342D01*
X406838D01*
Y79532D01*
X405696D01*
Y79722D01*
X405125D01*
Y79913D01*
D02*
G37*
G36*
X383053D02*
X381911D01*
Y79722D01*
X381150D01*
Y79532D01*
X380008D01*
Y79342D01*
X379247D01*
Y79151D01*
X378296D01*
Y78961D01*
X377154D01*
Y78771D01*
X376393D01*
Y78580D01*
X375251D01*
Y78390D01*
X374490D01*
Y78200D01*
X373539D01*
Y78010D01*
X372397D01*
Y77819D01*
X371636D01*
Y77629D01*
X370304D01*
Y77439D01*
X369733D01*
Y77249D01*
X368592D01*
Y77058D01*
X367640D01*
Y76868D01*
X366879D01*
Y76678D01*
X365547D01*
Y76487D01*
X364976D01*
Y76297D01*
X363644D01*
Y76107D01*
X362883D01*
Y75917D01*
X361932D01*
Y75726D01*
X360981D01*
Y75536D01*
X360219D01*
Y75346D01*
X359839D01*
Y75156D01*
X359649D01*
Y74775D01*
X359839D01*
Y74394D01*
X360029D01*
Y73633D01*
X360219D01*
Y72682D01*
X360410D01*
Y72301D01*
X360600D01*
Y71540D01*
X360790D01*
Y71160D01*
X360981D01*
Y70589D01*
X361171D01*
Y70018D01*
X361742D01*
Y70208D01*
X362122D01*
Y70399D01*
X362693D01*
Y70589D01*
X363074D01*
Y70779D01*
X363644D01*
Y70969D01*
X364025D01*
Y71160D01*
X364596D01*
Y71350D01*
X364976D01*
Y71540D01*
X365357D01*
Y71730D01*
X365928D01*
Y71921D01*
X366308D01*
Y72111D01*
X366879D01*
Y72301D01*
X367260D01*
Y72492D01*
X367640D01*
Y72682D01*
X368211D01*
Y72872D01*
X368592D01*
Y73063D01*
X369162D01*
Y73253D01*
X369543D01*
Y73443D01*
X370114D01*
Y73633D01*
X370494D01*
Y73824D01*
X370875D01*
Y74014D01*
X371446D01*
Y74204D01*
X371826D01*
Y74394D01*
X372397D01*
Y74585D01*
X372778D01*
Y74775D01*
X373158D01*
Y74965D01*
X373729D01*
Y75156D01*
X374110D01*
Y75346D01*
X374681D01*
Y75536D01*
X375061D01*
Y75726D01*
X375632D01*
Y75917D01*
X376012D01*
Y76107D01*
X376393D01*
Y76297D01*
X376964D01*
Y76487D01*
X377345D01*
Y76678D01*
X377915D01*
Y76868D01*
X378296D01*
Y77058D01*
X378676D01*
Y77249D01*
X379247D01*
Y77439D01*
X379628D01*
Y77629D01*
X380199D01*
Y77819D01*
X380579D01*
Y78010D01*
X381150D01*
Y78200D01*
X381531D01*
Y78390D01*
X381911D01*
Y78580D01*
X382482D01*
Y78771D01*
X382863D01*
Y78961D01*
X383243D01*
Y79151D01*
X383433D01*
Y79532D01*
X383243D01*
Y79722D01*
X383053D01*
Y79913D01*
D02*
G37*
G36*
X403603Y78010D02*
X403032D01*
Y77819D01*
X402842D01*
Y77629D01*
X402651D01*
Y77249D01*
X402842D01*
Y77058D01*
X403032D01*
Y76868D01*
X403222D01*
Y76678D01*
X403603D01*
Y76487D01*
X403793D01*
Y76297D01*
X404174D01*
Y76107D01*
X404364D01*
Y75917D01*
X404554D01*
Y75726D01*
X404935D01*
Y75536D01*
X405125D01*
Y75346D01*
X405506D01*
Y75156D01*
X405696D01*
Y74965D01*
X406076D01*
Y74775D01*
X406457D01*
Y74585D01*
X406647D01*
Y74394D01*
X407028D01*
Y74204D01*
X407218D01*
Y74014D01*
X407599D01*
Y73824D01*
X407789D01*
Y73633D01*
X407979D01*
Y73443D01*
X408360D01*
Y73253D01*
X408550D01*
Y73063D01*
X408931D01*
Y72872D01*
X409121D01*
Y72682D01*
X409501D01*
Y72492D01*
X409882D01*
Y72301D01*
X410072D01*
Y72111D01*
X410453D01*
Y71921D01*
X410643D01*
Y71730D01*
X411024D01*
Y71540D01*
X411214D01*
Y71350D01*
X411404D01*
Y71160D01*
X411785D01*
Y70969D01*
X411975D01*
Y70779D01*
X412356D01*
Y70589D01*
X412546D01*
Y70399D01*
X412926D01*
Y70208D01*
X413117D01*
Y70018D01*
X413497D01*
Y69828D01*
X413878D01*
Y69637D01*
X414068D01*
Y69447D01*
X414449D01*
Y69257D01*
X414639D01*
Y69067D01*
X414829D01*
Y68876D01*
X415210D01*
Y68686D01*
X415400D01*
Y68496D01*
X415781D01*
Y68306D01*
X415971D01*
Y68115D01*
X416351D01*
Y67925D01*
X416732D01*
Y67735D01*
X416922D01*
Y67544D01*
X417303D01*
Y67354D01*
X417493D01*
Y67164D01*
X417874D01*
Y66974D01*
X418064D01*
Y66783D01*
X418254D01*
Y66593D01*
X418635D01*
Y66403D01*
X418825D01*
Y66213D01*
X419206D01*
Y66022D01*
X419396D01*
Y65832D01*
X419776D01*
Y65642D01*
X419967D01*
Y65451D01*
X420347D01*
Y65261D01*
X420728D01*
Y65071D01*
X420918D01*
Y64880D01*
X421299D01*
Y64690D01*
X421489D01*
Y64500D01*
X421679D01*
Y64310D01*
X422060D01*
Y64119D01*
X422250D01*
Y63929D01*
X422631D01*
Y64310D01*
X422821D01*
Y64500D01*
X423011D01*
Y64880D01*
X423201D01*
Y65261D01*
X423392D01*
Y65451D01*
X423582D01*
Y65832D01*
X423772D01*
Y66213D01*
X423963D01*
Y66593D01*
X424153D01*
Y66974D01*
X424343D01*
Y67164D01*
X424533D01*
Y67735D01*
X424724D01*
Y68115D01*
X424914D01*
Y68496D01*
X425104D01*
Y68876D01*
X424914D01*
Y69067D01*
X424533D01*
Y69257D01*
X424153D01*
Y69447D01*
X423582D01*
Y69637D01*
X423201D01*
Y69828D01*
X422631D01*
Y70018D01*
X422250D01*
Y70208D01*
X421869D01*
Y70399D01*
X421299D01*
Y70589D01*
X420918D01*
Y70779D01*
X420347D01*
Y70969D01*
X419967D01*
Y71160D01*
X419586D01*
Y71350D01*
X419015D01*
Y71540D01*
X418635D01*
Y71730D01*
X418064D01*
Y71921D01*
X417874D01*
Y72111D01*
X417113D01*
Y72301D01*
X416732D01*
Y72492D01*
X416351D01*
Y72682D01*
X415781D01*
Y72872D01*
X415590D01*
Y73063D01*
X414829D01*
Y73253D01*
X414449D01*
Y73443D01*
X414068D01*
Y73633D01*
X413497D01*
Y73824D01*
X413117D01*
Y74014D01*
X412546D01*
Y74204D01*
X412356D01*
Y74394D01*
X411595D01*
Y74585D01*
X411214D01*
Y74775D01*
X410833D01*
Y74965D01*
X410262D01*
Y75156D01*
X410072D01*
Y75346D01*
X409311D01*
Y75536D01*
X408931D01*
Y75726D01*
X408550D01*
Y75917D01*
X407979D01*
Y76107D01*
X407599D01*
Y76297D01*
X407028D01*
Y76487D01*
X406838D01*
Y76678D01*
X406076D01*
Y76868D01*
X405696D01*
Y77058D01*
X405315D01*
Y77249D01*
X404744D01*
Y77439D01*
X404554D01*
Y77629D01*
X403793D01*
Y77819D01*
X403603D01*
Y78010D01*
D02*
G37*
G36*
X383814D02*
X383433D01*
Y77819D01*
X383053D01*
Y77629D01*
X382482D01*
Y77439D01*
X382101D01*
Y77249D01*
X381531D01*
Y77058D01*
X381150D01*
Y76868D01*
X380769D01*
Y76678D01*
X380199D01*
Y76487D01*
X379818D01*
Y76297D01*
X379247D01*
Y76107D01*
X378867D01*
Y75917D01*
X378486D01*
Y75726D01*
X377915D01*
Y75536D01*
X377535D01*
Y75346D01*
X376964D01*
Y75156D01*
X376583D01*
Y74965D01*
X376012D01*
Y74775D01*
X375632D01*
Y74585D01*
X375251D01*
Y74394D01*
X374681D01*
Y74204D01*
X374300D01*
Y74014D01*
X373729D01*
Y73824D01*
X373349D01*
Y73633D01*
X372968D01*
Y73443D01*
X372397D01*
Y73253D01*
X372017D01*
Y73063D01*
X371446D01*
Y72872D01*
X371065D01*
Y72682D01*
X370494D01*
Y72492D01*
X370114D01*
Y72301D01*
X369733D01*
Y72111D01*
X369162D01*
Y71921D01*
X368782D01*
Y71730D01*
X368211D01*
Y71540D01*
X367831D01*
Y71350D01*
X367450D01*
Y71160D01*
X366879D01*
Y70969D01*
X366499D01*
Y70779D01*
X365928D01*
Y70589D01*
X365547D01*
Y70399D01*
X364976D01*
Y70208D01*
X364596D01*
Y70018D01*
X364215D01*
Y69828D01*
X363644D01*
Y69637D01*
X363264D01*
Y69447D01*
X362693D01*
Y69257D01*
X362313D01*
Y69067D01*
X361932D01*
Y68306D01*
X362122D01*
Y67925D01*
X362313D01*
Y67544D01*
X362503D01*
Y66974D01*
X362693D01*
Y66783D01*
X362883D01*
Y66213D01*
X363074D01*
Y66022D01*
X363264D01*
Y65642D01*
X363454D01*
Y65261D01*
X363644D01*
Y65071D01*
X363835D01*
Y64690D01*
X364025D01*
Y64500D01*
X364215D01*
Y64119D01*
X364406D01*
Y63929D01*
X364786D01*
Y64310D01*
X365167D01*
Y64500D01*
X365547D01*
Y64690D01*
X365737D01*
Y64880D01*
X366118D01*
Y65071D01*
X366308D01*
Y65261D01*
X366689D01*
Y65451D01*
X366879D01*
Y65642D01*
X367069D01*
Y65832D01*
X367450D01*
Y66022D01*
X367640D01*
Y66213D01*
X368021D01*
Y66403D01*
X368211D01*
Y66593D01*
X368592D01*
Y66783D01*
X368782D01*
Y66974D01*
X369162D01*
Y67164D01*
X369543D01*
Y67354D01*
X369733D01*
Y67544D01*
X370114D01*
Y67735D01*
X370304D01*
Y67925D01*
X370494D01*
Y68115D01*
X370875D01*
Y68306D01*
X371065D01*
Y68496D01*
X371446D01*
Y68686D01*
X371636D01*
Y68876D01*
X372017D01*
Y69067D01*
X372397D01*
Y69257D01*
X372588D01*
Y69447D01*
X372968D01*
Y69637D01*
X373158D01*
Y69828D01*
X373539D01*
Y70018D01*
X373729D01*
Y70208D01*
X373919D01*
Y70399D01*
X374300D01*
Y70589D01*
X374490D01*
Y70779D01*
X374871D01*
Y70969D01*
X375061D01*
Y71160D01*
X375442D01*
Y71350D01*
X375632D01*
Y71540D01*
X376012D01*
Y71730D01*
X376393D01*
Y71921D01*
X376583D01*
Y72111D01*
X376964D01*
Y72301D01*
X377154D01*
Y72492D01*
X377345D01*
Y72682D01*
X377725D01*
Y72872D01*
X377915D01*
Y73063D01*
X378296D01*
Y73253D01*
X378486D01*
Y73443D01*
X378867D01*
Y73633D01*
X379057D01*
Y73824D01*
X379437D01*
Y74014D01*
X379818D01*
Y74204D01*
X380008D01*
Y74394D01*
X380389D01*
Y74585D01*
X380579D01*
Y74775D01*
X380769D01*
Y74965D01*
X381150D01*
Y75156D01*
X381340D01*
Y75346D01*
X381721D01*
Y75536D01*
X381911D01*
Y75726D01*
X382292D01*
Y75917D01*
X382482D01*
Y76107D01*
X382863D01*
Y76297D01*
X383243D01*
Y76487D01*
X383433D01*
Y76678D01*
X383814D01*
Y76868D01*
X384004D01*
Y77058D01*
X384194D01*
Y77629D01*
X384004D01*
Y77819D01*
X383814D01*
Y78010D01*
D02*
G37*
G36*
X402461Y76107D02*
X401700D01*
Y75726D01*
X401510D01*
Y75346D01*
X401700D01*
Y75156D01*
X401890D01*
Y74965D01*
X402081D01*
Y74775D01*
X402271D01*
Y74585D01*
X402461D01*
Y74394D01*
X402651D01*
Y74204D01*
X402842D01*
Y74014D01*
X403032D01*
Y73824D01*
X403222D01*
Y73633D01*
X403413D01*
Y73443D01*
X403603D01*
Y73253D01*
X403793D01*
Y73063D01*
X403983D01*
Y72872D01*
X404174D01*
Y72682D01*
X404364D01*
Y72492D01*
X404554D01*
Y72301D01*
X404744D01*
Y72111D01*
X404935D01*
Y71921D01*
X405125D01*
Y71730D01*
X405315D01*
Y71540D01*
X405506D01*
Y71350D01*
X405696D01*
Y71160D01*
X405886D01*
Y70969D01*
X406076D01*
Y70779D01*
X406267D01*
Y70589D01*
X406457D01*
Y70399D01*
X406647D01*
Y70208D01*
X406838D01*
Y70018D01*
X407028D01*
Y69828D01*
X407218D01*
Y69637D01*
X407408D01*
Y69447D01*
X407599D01*
Y69257D01*
X407789D01*
Y69067D01*
X407979D01*
Y68876D01*
X408169D01*
Y68686D01*
X408360D01*
Y68496D01*
X408550D01*
Y68306D01*
X408740D01*
Y68115D01*
X408931D01*
Y67925D01*
X409121D01*
Y67735D01*
X409311D01*
Y67544D01*
X409501D01*
Y67354D01*
X409692D01*
Y67164D01*
X409882D01*
Y66974D01*
X410072D01*
Y66783D01*
X410262D01*
Y66593D01*
X410453D01*
Y66403D01*
X410643D01*
Y66213D01*
X410833D01*
Y66022D01*
X411024D01*
Y65832D01*
X411214D01*
Y65642D01*
X411404D01*
Y65451D01*
X411595D01*
Y65261D01*
X411785D01*
Y65071D01*
X411975D01*
Y64880D01*
X412165D01*
Y64690D01*
X412356D01*
Y64500D01*
X412546D01*
Y64310D01*
X412736D01*
Y64119D01*
X412926D01*
Y63929D01*
X413117D01*
Y63739D01*
X413307D01*
Y63549D01*
X413497D01*
Y63358D01*
X413688D01*
Y63168D01*
X413878D01*
Y62978D01*
X414068D01*
Y62787D01*
X414258D01*
Y62597D01*
X414449D01*
Y62407D01*
X414639D01*
Y62217D01*
X414829D01*
Y62026D01*
X415019D01*
Y61836D01*
X415210D01*
Y61646D01*
X415400D01*
Y61455D01*
X415590D01*
Y61265D01*
X415781D01*
Y61075D01*
X415971D01*
Y60885D01*
X416161D01*
Y60694D01*
X416351D01*
Y60504D01*
X416542D01*
Y60314D01*
X416732D01*
Y60124D01*
X416922D01*
Y59933D01*
X417113D01*
Y59743D01*
X417303D01*
Y59553D01*
X417493D01*
Y59363D01*
X417683D01*
Y59172D01*
X417874D01*
Y58982D01*
X418064D01*
Y58792D01*
X418635D01*
Y59172D01*
X418825D01*
Y59363D01*
X419015D01*
Y59553D01*
X419206D01*
Y59743D01*
X419396D01*
Y59933D01*
X419586D01*
Y60124D01*
X419776D01*
Y60314D01*
X419967D01*
Y60504D01*
X420157D01*
Y60694D01*
X420347D01*
Y61075D01*
X420537D01*
Y61265D01*
X420728D01*
Y61455D01*
X420918D01*
Y61836D01*
X421108D01*
Y62026D01*
X421299D01*
Y62407D01*
X421489D01*
Y62597D01*
X421679D01*
Y62787D01*
X421869D01*
Y62978D01*
X421679D01*
Y63168D01*
X421489D01*
Y63358D01*
X421299D01*
Y63549D01*
X420918D01*
Y63739D01*
X420728D01*
Y63929D01*
X420347D01*
Y64119D01*
X420157D01*
Y64310D01*
X419776D01*
Y64500D01*
X419396D01*
Y64690D01*
X419206D01*
Y64880D01*
X418825D01*
Y65071D01*
X418635D01*
Y65261D01*
X418254D01*
Y65451D01*
X418064D01*
Y65642D01*
X417874D01*
Y65832D01*
X417493D01*
Y66022D01*
X417303D01*
Y66213D01*
X416922D01*
Y66403D01*
X416732D01*
Y66593D01*
X416351D01*
Y66783D01*
X415971D01*
Y66974D01*
X415781D01*
Y67164D01*
X415400D01*
Y67354D01*
X415210D01*
Y67544D01*
X414829D01*
Y67735D01*
X414639D01*
Y67925D01*
X414449D01*
Y68115D01*
X414068D01*
Y68306D01*
X413878D01*
Y68496D01*
X413497D01*
Y68686D01*
X413307D01*
Y68876D01*
X412926D01*
Y69067D01*
X412736D01*
Y69257D01*
X412356D01*
Y69447D01*
X411975D01*
Y69637D01*
X411785D01*
Y69828D01*
X411404D01*
Y70018D01*
X411214D01*
Y70208D01*
X411024D01*
Y70399D01*
X410643D01*
Y70589D01*
X410453D01*
Y70779D01*
X410072D01*
Y70969D01*
X409882D01*
Y71160D01*
X409501D01*
Y71350D01*
X409311D01*
Y71540D01*
X408931D01*
Y71730D01*
X408550D01*
Y71921D01*
X408360D01*
Y72111D01*
X407979D01*
Y72301D01*
X407789D01*
Y72492D01*
X407599D01*
Y72682D01*
X407218D01*
Y72872D01*
X407028D01*
Y73063D01*
X406647D01*
Y73253D01*
X406457D01*
Y73443D01*
X406076D01*
Y73633D01*
X405886D01*
Y73824D01*
X405506D01*
Y74014D01*
X405125D01*
Y74204D01*
X404935D01*
Y74394D01*
X404554D01*
Y74585D01*
X404364D01*
Y74775D01*
X404174D01*
Y74965D01*
X403793D01*
Y75156D01*
X403603D01*
Y75346D01*
X403222D01*
Y75536D01*
X403032D01*
Y75726D01*
X402651D01*
Y75917D01*
X402461D01*
Y76107D01*
D02*
G37*
G36*
X385146D02*
X384575D01*
Y75917D01*
X384194D01*
Y75726D01*
X384004D01*
Y75536D01*
X383814D01*
Y75346D01*
X383433D01*
Y75156D01*
X383053D01*
Y74965D01*
X382863D01*
Y74775D01*
X382482D01*
Y74585D01*
X382292D01*
Y74394D01*
X381911D01*
Y74204D01*
X381721D01*
Y74014D01*
X381340D01*
Y73824D01*
X381150D01*
Y73633D01*
X380769D01*
Y73443D01*
X380579D01*
Y73253D01*
X380199D01*
Y73063D01*
X380008D01*
Y72872D01*
X379628D01*
Y72682D01*
X379437D01*
Y72492D01*
X379057D01*
Y72301D01*
X378867D01*
Y72111D01*
X378486D01*
Y71921D01*
X378296D01*
Y71730D01*
X377915D01*
Y71540D01*
X377725D01*
Y71350D01*
X377345D01*
Y71160D01*
X377154D01*
Y70969D01*
X376964D01*
Y70779D01*
X376583D01*
Y70589D01*
X376203D01*
Y70399D01*
X376012D01*
Y70208D01*
X375632D01*
Y70018D01*
X375442D01*
Y69828D01*
X375061D01*
Y69637D01*
X374871D01*
Y69447D01*
X374490D01*
Y69257D01*
X374300D01*
Y69067D01*
X373919D01*
Y68876D01*
X373729D01*
Y68686D01*
X373539D01*
Y68496D01*
X373158D01*
Y68306D01*
X372968D01*
Y68115D01*
X372588D01*
Y67925D01*
X372207D01*
Y67735D01*
X372017D01*
Y67544D01*
X371636D01*
Y67354D01*
X371446D01*
Y67164D01*
X371065D01*
Y66974D01*
X370875D01*
Y66783D01*
X370494D01*
Y66593D01*
X370304D01*
Y66403D01*
X370114D01*
Y66213D01*
X369733D01*
Y66022D01*
X369543D01*
Y65832D01*
X369162D01*
Y65642D01*
X368782D01*
Y65451D01*
X368592D01*
Y65261D01*
X368211D01*
Y65071D01*
X368021D01*
Y64880D01*
X367640D01*
Y64690D01*
X367450D01*
Y64500D01*
X367260D01*
Y64310D01*
X366879D01*
Y64119D01*
X366689D01*
Y63929D01*
X366308D01*
Y63739D01*
X366118D01*
Y63549D01*
X365737D01*
Y63358D01*
X365547D01*
Y63168D01*
X365167D01*
Y62597D01*
X365357D01*
Y62407D01*
X365547D01*
Y62217D01*
X365737D01*
Y61836D01*
X365928D01*
Y61646D01*
X366118D01*
Y61265D01*
X366308D01*
Y61075D01*
X366499D01*
Y60885D01*
X366689D01*
Y60694D01*
X366879D01*
Y60504D01*
X367069D01*
Y60314D01*
X367260D01*
Y60124D01*
X367450D01*
Y59743D01*
X367640D01*
Y59553D01*
X367831D01*
Y59363D01*
X368021D01*
Y59172D01*
X368211D01*
Y58982D01*
X368401D01*
Y58792D01*
X368972D01*
Y58982D01*
X369162D01*
Y59172D01*
X369353D01*
Y59363D01*
X369543D01*
Y59553D01*
X369733D01*
Y59743D01*
X369924D01*
Y59933D01*
X370114D01*
Y60124D01*
X370304D01*
Y60314D01*
X370494D01*
Y60504D01*
X370685D01*
Y60694D01*
X370875D01*
Y60885D01*
X371065D01*
Y61075D01*
X371256D01*
Y61265D01*
X371446D01*
Y61455D01*
X371636D01*
Y61646D01*
X371826D01*
Y61836D01*
X372017D01*
Y62026D01*
X372207D01*
Y62217D01*
X372397D01*
Y62407D01*
X372588D01*
Y62597D01*
X372778D01*
Y62787D01*
X372968D01*
Y62978D01*
X373158D01*
Y63168D01*
X373349D01*
Y63358D01*
X373539D01*
Y63549D01*
X373729D01*
Y63739D01*
X373919D01*
Y63929D01*
X374110D01*
Y64119D01*
X374300D01*
Y64310D01*
X374490D01*
Y64500D01*
X374681D01*
Y64690D01*
X374871D01*
Y64880D01*
X375061D01*
Y65071D01*
X375251D01*
Y65261D01*
X375442D01*
Y65451D01*
X375632D01*
Y65642D01*
X375822D01*
Y65832D01*
X376012D01*
Y66022D01*
X376203D01*
Y66213D01*
X376393D01*
Y66403D01*
X376583D01*
Y66593D01*
X376774D01*
Y66783D01*
X376964D01*
Y66974D01*
X377154D01*
Y67164D01*
X377345D01*
Y67354D01*
X377535D01*
Y67544D01*
X377725D01*
Y67735D01*
X377915D01*
Y67925D01*
X378106D01*
Y68115D01*
X378296D01*
Y68306D01*
X378486D01*
Y68496D01*
X378676D01*
Y68686D01*
X378867D01*
Y68876D01*
X379057D01*
Y69067D01*
X379247D01*
Y69257D01*
X379437D01*
Y69447D01*
X379628D01*
Y69637D01*
X379818D01*
Y69828D01*
X380008D01*
Y70018D01*
X380199D01*
Y70208D01*
X380389D01*
Y70399D01*
X380579D01*
Y70589D01*
X380769D01*
Y70779D01*
X380960D01*
Y70969D01*
X381150D01*
Y71160D01*
X381340D01*
Y71350D01*
X381531D01*
Y71540D01*
X381721D01*
Y71730D01*
X381911D01*
Y71921D01*
X382101D01*
Y72111D01*
X382292D01*
Y72301D01*
X382482D01*
Y72492D01*
X382672D01*
Y72682D01*
X382863D01*
Y72872D01*
X383053D01*
Y73063D01*
X383243D01*
Y73253D01*
X383433D01*
Y73443D01*
X383624D01*
Y73633D01*
X383814D01*
Y73824D01*
X384004D01*
Y74014D01*
X384194D01*
Y74204D01*
X384385D01*
Y74394D01*
X384575D01*
Y74585D01*
X384765D01*
Y74775D01*
X384956D01*
Y74965D01*
X385146D01*
Y75156D01*
X385336D01*
Y75917D01*
X385146D01*
Y76107D01*
D02*
G37*
G36*
X400749Y74585D02*
X400368D01*
Y74394D01*
X399987D01*
Y73633D01*
X400178D01*
Y73443D01*
X400368D01*
Y73063D01*
X400558D01*
Y72872D01*
X400749D01*
Y72492D01*
X400939D01*
Y72301D01*
X401129D01*
Y72111D01*
X401319D01*
Y71730D01*
X401510D01*
Y71540D01*
X401700D01*
Y71160D01*
X401890D01*
Y70969D01*
X402081D01*
Y70589D01*
X402271D01*
Y70399D01*
X402461D01*
Y70018D01*
X402651D01*
Y69637D01*
X402842D01*
Y69447D01*
X403032D01*
Y69067D01*
X403222D01*
Y68876D01*
X403413D01*
Y68686D01*
X403603D01*
Y68306D01*
X403793D01*
Y68115D01*
X403983D01*
Y67735D01*
X404174D01*
Y67544D01*
X404364D01*
Y67164D01*
X404554D01*
Y66974D01*
X404744D01*
Y66593D01*
X404935D01*
Y66213D01*
X405125D01*
Y66022D01*
X405315D01*
Y65642D01*
X405506D01*
Y65451D01*
X405696D01*
Y65261D01*
X405886D01*
Y64880D01*
X406076D01*
Y64690D01*
X406267D01*
Y64310D01*
X406457D01*
Y64119D01*
X406647D01*
Y63739D01*
X406838D01*
Y63549D01*
X407028D01*
Y63168D01*
X407218D01*
Y62787D01*
X407408D01*
Y62597D01*
X407599D01*
Y62217D01*
X407789D01*
Y62026D01*
X407979D01*
Y61836D01*
X408169D01*
Y61455D01*
X408360D01*
Y61265D01*
X408550D01*
Y60885D01*
X408740D01*
Y60694D01*
X408931D01*
Y60314D01*
X409121D01*
Y60124D01*
X409311D01*
Y59743D01*
X409501D01*
Y59363D01*
X409692D01*
Y59172D01*
X409882D01*
Y58982D01*
X410072D01*
Y58601D01*
X410262D01*
Y58411D01*
X410453D01*
Y58031D01*
X410643D01*
Y57840D01*
X410833D01*
Y57460D01*
X411024D01*
Y57269D01*
X411214D01*
Y56889D01*
X411404D01*
Y56699D01*
X411595D01*
Y56318D01*
X411785D01*
Y56128D01*
X411975D01*
Y55747D01*
X412165D01*
Y55557D01*
X412356D01*
Y55176D01*
X412546D01*
Y54986D01*
X412736D01*
Y54605D01*
X412926D01*
Y54415D01*
X413497D01*
Y54605D01*
X413688D01*
Y54796D01*
X414068D01*
Y54986D01*
X414258D01*
Y55176D01*
X414639D01*
Y55367D01*
X414829D01*
Y55557D01*
X415019D01*
Y55747D01*
X415400D01*
Y55938D01*
X415590D01*
Y56128D01*
X415781D01*
Y56318D01*
X415971D01*
Y56508D01*
X416161D01*
Y56699D01*
X416351D01*
Y56889D01*
X416542D01*
Y57079D01*
X416732D01*
Y57269D01*
X416922D01*
Y57460D01*
X417303D01*
Y58031D01*
X417113D01*
Y58411D01*
X416732D01*
Y58792D01*
X416542D01*
Y58982D01*
X416351D01*
Y59172D01*
X416161D01*
Y59363D01*
X415781D01*
Y59743D01*
X415590D01*
Y59933D01*
X415400D01*
Y60124D01*
X415210D01*
Y60314D01*
X415019D01*
Y60504D01*
X414829D01*
Y60694D01*
X414449D01*
Y61075D01*
X414258D01*
Y61265D01*
X414068D01*
Y61455D01*
X413878D01*
Y61646D01*
X413497D01*
Y62026D01*
X413307D01*
Y62217D01*
X413117D01*
Y62407D01*
X412926D01*
Y62597D01*
X412736D01*
Y62787D01*
X412546D01*
Y62978D01*
X412165D01*
Y63358D01*
X411975D01*
Y63549D01*
X411785D01*
Y63739D01*
X411595D01*
Y63929D01*
X411214D01*
Y64310D01*
X411024D01*
Y64500D01*
X410833D01*
Y64690D01*
X410643D01*
Y64880D01*
X410453D01*
Y65071D01*
X410262D01*
Y65261D01*
X409882D01*
Y65642D01*
X409692D01*
Y65832D01*
X409501D01*
Y66022D01*
X409311D01*
Y66213D01*
X408931D01*
Y66593D01*
X408740D01*
Y66783D01*
X408550D01*
Y66974D01*
X408360D01*
Y67164D01*
X408169D01*
Y67354D01*
X407979D01*
Y67544D01*
X407599D01*
Y67925D01*
X407408D01*
Y68115D01*
X407218D01*
Y68306D01*
X407028D01*
Y68496D01*
X406647D01*
Y68876D01*
X406457D01*
Y69067D01*
X406267D01*
Y69257D01*
X406076D01*
Y69447D01*
X405886D01*
Y69637D01*
X405696D01*
Y69828D01*
X405315D01*
Y70208D01*
X405125D01*
Y70399D01*
X404935D01*
Y70589D01*
X404744D01*
Y70779D01*
X404364D01*
Y71160D01*
X404174D01*
Y71350D01*
X403983D01*
Y71540D01*
X403793D01*
Y71730D01*
X403603D01*
Y71921D01*
X403413D01*
Y72111D01*
X403032D01*
Y72492D01*
X402842D01*
Y72682D01*
X402651D01*
Y72872D01*
X402461D01*
Y73063D01*
X402081D01*
Y73443D01*
X401890D01*
Y73633D01*
X401700D01*
Y73824D01*
X401510D01*
Y74014D01*
X401129D01*
Y74394D01*
X400749D01*
Y74585D01*
D02*
G37*
G36*
X386668D02*
X386097D01*
Y74394D01*
X385907D01*
Y74204D01*
X385717D01*
Y74014D01*
X385526D01*
Y73824D01*
X385336D01*
Y73633D01*
X385146D01*
Y73443D01*
X384956D01*
Y73253D01*
X384765D01*
Y73063D01*
X384575D01*
Y72872D01*
X384385D01*
Y72682D01*
X384194D01*
Y72492D01*
X384004D01*
Y72301D01*
X383814D01*
Y72111D01*
X383624D01*
Y71921D01*
X383433D01*
Y71730D01*
X383243D01*
Y71540D01*
X383053D01*
Y71350D01*
X382863D01*
Y71160D01*
X382672D01*
Y70969D01*
X382482D01*
Y70779D01*
X382292D01*
Y70589D01*
X382101D01*
Y70399D01*
X381911D01*
Y70208D01*
X381721D01*
Y70018D01*
X381531D01*
Y69828D01*
X381340D01*
Y69637D01*
X381150D01*
Y69447D01*
X380960D01*
Y69257D01*
X380769D01*
Y69067D01*
X380579D01*
Y68876D01*
X380389D01*
Y68686D01*
X380199D01*
Y68496D01*
X380008D01*
Y68306D01*
X379818D01*
Y68115D01*
X379628D01*
Y67925D01*
X379437D01*
Y67735D01*
X379247D01*
Y67544D01*
X379057D01*
Y67354D01*
X378867D01*
Y67164D01*
X378676D01*
Y66974D01*
X378486D01*
Y66783D01*
X378296D01*
Y66593D01*
X378106D01*
Y66403D01*
X377915D01*
Y66213D01*
X377725D01*
Y66022D01*
X377535D01*
Y65832D01*
X377345D01*
Y65642D01*
X377154D01*
Y65451D01*
X376964D01*
Y65261D01*
X376774D01*
Y65071D01*
X376583D01*
Y64880D01*
X376393D01*
Y64690D01*
X376203D01*
Y64500D01*
X376012D01*
Y64310D01*
X375822D01*
Y64119D01*
X375632D01*
Y63929D01*
X375442D01*
Y63739D01*
X375251D01*
Y63549D01*
X375061D01*
Y63358D01*
X374871D01*
Y63168D01*
X374681D01*
Y62978D01*
X374490D01*
Y62787D01*
X374300D01*
Y62597D01*
X374110D01*
Y62407D01*
X373919D01*
Y62217D01*
X373729D01*
Y62026D01*
X373539D01*
Y61836D01*
X373349D01*
Y61646D01*
X373158D01*
Y61455D01*
X372968D01*
Y61265D01*
X372778D01*
Y61075D01*
X372588D01*
Y60885D01*
X372397D01*
Y60694D01*
X372207D01*
Y60504D01*
X372017D01*
Y60314D01*
X371826D01*
Y60124D01*
X371636D01*
Y59933D01*
X371446D01*
Y59743D01*
X371256D01*
Y59553D01*
X371065D01*
Y59363D01*
X370875D01*
Y59172D01*
X370685D01*
Y58982D01*
X370494D01*
Y58792D01*
X370304D01*
Y58601D01*
X370114D01*
Y58411D01*
X369924D01*
Y58221D01*
X369733D01*
Y58031D01*
X369543D01*
Y57650D01*
X369733D01*
Y57460D01*
X369924D01*
Y57269D01*
X370114D01*
Y57079D01*
X370304D01*
Y56889D01*
X370494D01*
Y56699D01*
X370685D01*
Y56508D01*
X371065D01*
Y56318D01*
X371256D01*
Y56128D01*
X371446D01*
Y55938D01*
X371636D01*
Y55747D01*
X371826D01*
Y55557D01*
X372017D01*
Y55367D01*
X372397D01*
Y55176D01*
X372588D01*
Y54986D01*
X372778D01*
Y54796D01*
X373158D01*
Y54605D01*
X373349D01*
Y54415D01*
X373919D01*
Y54605D01*
X374110D01*
Y54796D01*
X374300D01*
Y55176D01*
X374490D01*
Y55367D01*
X374681D01*
Y55747D01*
X374871D01*
Y55938D01*
X375061D01*
Y56128D01*
X375251D01*
Y56508D01*
X375442D01*
Y56699D01*
X375632D01*
Y57079D01*
X375822D01*
Y57460D01*
X376012D01*
Y57650D01*
X376203D01*
Y58031D01*
X376393D01*
Y58221D01*
X376583D01*
Y58601D01*
X376774D01*
Y58792D01*
X376964D01*
Y59172D01*
X377154D01*
Y59363D01*
X377345D01*
Y59553D01*
X377535D01*
Y59933D01*
X377725D01*
Y60124D01*
X377915D01*
Y60504D01*
X378106D01*
Y60694D01*
X378296D01*
Y61075D01*
X378486D01*
Y61455D01*
X378676D01*
Y61646D01*
X378867D01*
Y62026D01*
X379057D01*
Y62217D01*
X379247D01*
Y62597D01*
X379437D01*
Y62787D01*
X379628D01*
Y62978D01*
X379818D01*
Y63358D01*
X380008D01*
Y63549D01*
X380199D01*
Y63929D01*
X380389D01*
Y64119D01*
X380579D01*
Y64500D01*
X380769D01*
Y64880D01*
X380960D01*
Y65071D01*
X381150D01*
Y65451D01*
X381340D01*
Y65642D01*
X381531D01*
Y66022D01*
X381721D01*
Y66213D01*
X381911D01*
Y66403D01*
X382101D01*
Y66783D01*
X382292D01*
Y66974D01*
X382482D01*
Y67354D01*
X382672D01*
Y67544D01*
X382863D01*
Y67925D01*
X383053D01*
Y68306D01*
X383243D01*
Y68496D01*
X383433D01*
Y68876D01*
X383624D01*
Y69067D01*
X383814D01*
Y69257D01*
X384004D01*
Y69637D01*
X384194D01*
Y69828D01*
X384385D01*
Y70208D01*
X384575D01*
Y70399D01*
X384765D01*
Y70779D01*
X384956D01*
Y70969D01*
X385146D01*
Y71350D01*
X385336D01*
Y71730D01*
X385526D01*
Y71921D01*
X385717D01*
Y72301D01*
X385907D01*
Y72492D01*
X386097D01*
Y72682D01*
X386287D01*
Y73063D01*
X386478D01*
Y73253D01*
X386668D01*
Y73633D01*
X386858D01*
Y73824D01*
X387049D01*
Y74204D01*
X386858D01*
Y74394D01*
X386668D01*
Y74585D01*
D02*
G37*
G36*
X399036Y73443D02*
X398465D01*
Y73253D01*
X398275D01*
Y73063D01*
X398085D01*
Y72492D01*
X398275D01*
Y72301D01*
X398465D01*
Y71730D01*
X398656D01*
Y71350D01*
X398846D01*
Y70779D01*
X399036D01*
Y70399D01*
X399226D01*
Y70018D01*
X399417D01*
Y69447D01*
X399607D01*
Y69067D01*
X399797D01*
Y68496D01*
X399987D01*
Y68115D01*
X400178D01*
Y67735D01*
X400368D01*
Y67164D01*
X400558D01*
Y66783D01*
X400749D01*
Y66213D01*
X400939D01*
Y65832D01*
X401129D01*
Y65451D01*
X401319D01*
Y64880D01*
X401510D01*
Y64500D01*
X401700D01*
Y63929D01*
X401890D01*
Y63549D01*
X402081D01*
Y62978D01*
X402271D01*
Y62597D01*
X402461D01*
Y62217D01*
X402651D01*
Y61646D01*
X402842D01*
Y61265D01*
X403032D01*
Y60694D01*
X403222D01*
Y60314D01*
X403413D01*
Y59933D01*
X403603D01*
Y59363D01*
X403793D01*
Y58982D01*
X403983D01*
Y58411D01*
X404174D01*
Y58031D01*
X404364D01*
Y57650D01*
Y57460D01*
X404554D01*
Y57079D01*
X404744D01*
Y56699D01*
X404935D01*
Y56128D01*
X405125D01*
Y55747D01*
X405315D01*
Y55176D01*
X405506D01*
Y54796D01*
X405696D01*
Y54415D01*
X405886D01*
Y53844D01*
X406076D01*
Y53464D01*
X406267D01*
Y52893D01*
X406457D01*
Y52512D01*
X406647D01*
Y51942D01*
X406838D01*
Y51561D01*
X407028D01*
Y51181D01*
X407218D01*
Y50990D01*
X407599D01*
Y51181D01*
X407979D01*
Y51371D01*
X408360D01*
Y51561D01*
X408931D01*
Y51751D01*
X409121D01*
Y51942D01*
X409501D01*
Y52132D01*
X409882D01*
Y52322D01*
X410262D01*
Y52512D01*
X410643D01*
Y52703D01*
X410833D01*
Y52893D01*
X411214D01*
Y53083D01*
X411595D01*
Y53274D01*
X411785D01*
Y53464D01*
X412165D01*
Y53844D01*
X411975D01*
Y54035D01*
X411785D01*
Y54415D01*
X411595D01*
Y54605D01*
X411404D01*
Y54986D01*
X411214D01*
Y55176D01*
X411024D01*
Y55557D01*
X410833D01*
Y55938D01*
X410643D01*
Y56128D01*
X410453D01*
Y56318D01*
X410262D01*
Y56699D01*
X410072D01*
Y56889D01*
X409882D01*
Y57269D01*
X409692D01*
Y57460D01*
X409501D01*
Y57840D01*
X409311D01*
Y58031D01*
X409121D01*
Y58411D01*
X408931D01*
Y58601D01*
X408740D01*
Y58982D01*
X408550D01*
Y59363D01*
X408360D01*
Y59553D01*
X408169D01*
Y59743D01*
X407979D01*
Y60124D01*
X407789D01*
Y60314D01*
X407599D01*
Y60694D01*
X407408D01*
Y60885D01*
X407218D01*
Y61265D01*
X407028D01*
Y61455D01*
X406838D01*
Y61836D01*
X406647D01*
Y62026D01*
X406457D01*
Y62217D01*
X406267D01*
Y62597D01*
X406076D01*
Y62978D01*
X405886D01*
Y63168D01*
X405696D01*
Y63549D01*
X405506D01*
Y63739D01*
X405315D01*
Y64119D01*
X405125D01*
Y64310D01*
X404935D01*
Y64690D01*
X404744D01*
Y64880D01*
X404554D01*
Y65261D01*
X404364D01*
Y65451D01*
X404174D01*
Y65832D01*
X403983D01*
Y66022D01*
X403793D01*
Y66213D01*
X403603D01*
Y66593D01*
X403413D01*
Y66974D01*
X403222D01*
Y67164D01*
X403032D01*
Y67544D01*
X402842D01*
Y67735D01*
X402651D01*
Y68115D01*
X402461D01*
Y68306D01*
X402271D01*
Y68686D01*
X402081D01*
Y68876D01*
X401890D01*
Y69067D01*
X401700D01*
Y69447D01*
X401510D01*
Y69828D01*
X401319D01*
Y70018D01*
X401129D01*
Y70399D01*
X400939D01*
Y70589D01*
X400749D01*
Y70969D01*
X400558D01*
Y71160D01*
X400368D01*
Y71540D01*
X400178D01*
Y71730D01*
X399987D01*
Y72111D01*
X399797D01*
Y72301D01*
X399607D01*
Y72492D01*
X399417D01*
Y72872D01*
X399226D01*
Y73063D01*
X399036D01*
Y73443D01*
D02*
G37*
G36*
X388381D02*
X388000D01*
Y73253D01*
X387810D01*
Y73063D01*
X387619D01*
Y72682D01*
X387429D01*
Y72492D01*
X387239D01*
Y72301D01*
X387049D01*
Y71921D01*
X386858D01*
Y71730D01*
X386668D01*
Y71350D01*
X386478D01*
Y71160D01*
X386287D01*
Y70779D01*
X386097D01*
Y70399D01*
X385907D01*
Y70208D01*
X385717D01*
Y69828D01*
X385526D01*
Y69637D01*
X385336D01*
Y69257D01*
X385146D01*
Y69067D01*
X384956D01*
Y68876D01*
X384765D01*
Y68496D01*
X384575D01*
Y68306D01*
X384385D01*
Y67925D01*
X384194D01*
Y67544D01*
X384004D01*
Y67354D01*
X383814D01*
Y66974D01*
X383624D01*
Y66783D01*
X383433D01*
Y66403D01*
X383243D01*
Y66213D01*
X383053D01*
Y65832D01*
X382863D01*
Y65642D01*
X382672D01*
Y65451D01*
X382482D01*
Y65071D01*
X382292D01*
Y64880D01*
X382101D01*
Y64500D01*
X381911D01*
Y64310D01*
X381721D01*
Y63929D01*
X381531D01*
Y63549D01*
X381340D01*
Y63358D01*
X381150D01*
Y62978D01*
X380960D01*
Y62787D01*
X380769D01*
Y62407D01*
X380579D01*
Y62217D01*
X380389D01*
Y62026D01*
X380199D01*
Y61646D01*
X380008D01*
Y61455D01*
X379818D01*
Y61075D01*
X379628D01*
Y60885D01*
X379437D01*
Y60504D01*
X379247D01*
Y60124D01*
X379057D01*
Y59933D01*
X378867D01*
Y59553D01*
X378676D01*
Y59363D01*
X378486D01*
Y59172D01*
X378296D01*
Y58792D01*
X378106D01*
Y58601D01*
X377915D01*
Y58221D01*
X377725D01*
Y58031D01*
X377535D01*
Y57650D01*
X377345D01*
Y57460D01*
X377154D01*
Y57079D01*
X376964D01*
Y56699D01*
X376774D01*
Y56508D01*
X376583D01*
Y56128D01*
X376393D01*
Y55938D01*
X376203D01*
Y55747D01*
X376012D01*
Y55367D01*
X375822D01*
Y55176D01*
X375632D01*
Y54796D01*
X375442D01*
Y54605D01*
X375251D01*
Y54225D01*
X375061D01*
Y54035D01*
X374871D01*
Y53844D01*
X374681D01*
Y53464D01*
X375061D01*
Y53274D01*
X375442D01*
Y53083D01*
X375632D01*
Y52893D01*
X376012D01*
Y52703D01*
X376203D01*
Y52512D01*
X376774D01*
Y52322D01*
X376964D01*
Y52132D01*
X377345D01*
Y51942D01*
X377725D01*
Y51751D01*
X378106D01*
Y51561D01*
X378676D01*
Y51371D01*
X378867D01*
Y51181D01*
X379247D01*
Y50990D01*
X379818D01*
Y51371D01*
X380008D01*
Y51751D01*
X380199D01*
Y52322D01*
X380389D01*
Y52703D01*
X380579D01*
Y53083D01*
X380769D01*
Y53654D01*
X380960D01*
Y54035D01*
X381150D01*
Y54605D01*
X381340D01*
Y54986D01*
X381531D01*
Y55557D01*
X381721D01*
Y55938D01*
X381911D01*
Y56318D01*
X382101D01*
Y56889D01*
X382292D01*
Y57269D01*
X382482D01*
Y57840D01*
X382672D01*
Y58221D01*
X382863D01*
Y58601D01*
X383053D01*
Y59172D01*
X383243D01*
Y59553D01*
X383433D01*
Y60124D01*
X383624D01*
Y60504D01*
X383814D01*
Y61075D01*
X384004D01*
Y61455D01*
X384194D01*
Y61836D01*
X384385D01*
Y62407D01*
X384575D01*
Y62787D01*
X384765D01*
Y63358D01*
X384956D01*
Y63739D01*
X385146D01*
Y64119D01*
X385336D01*
Y64690D01*
X385526D01*
Y65071D01*
X385717D01*
Y65642D01*
X385907D01*
Y66022D01*
X386097D01*
Y66593D01*
X386287D01*
Y66974D01*
X386478D01*
Y67354D01*
X386668D01*
Y67925D01*
X386858D01*
Y68306D01*
X387049D01*
Y68876D01*
X387239D01*
Y69257D01*
X387429D01*
Y69637D01*
X387619D01*
Y70208D01*
X387810D01*
Y70589D01*
X388000D01*
Y71160D01*
X388190D01*
Y71540D01*
X388381D01*
Y72111D01*
X388571D01*
Y72492D01*
X388761D01*
Y73063D01*
X388571D01*
Y73253D01*
X388381D01*
Y73443D01*
D02*
G37*
G36*
X397133Y72492D02*
X396372D01*
Y72301D01*
X396182D01*
Y71160D01*
X396372D01*
Y70399D01*
X396562D01*
Y69447D01*
X396753D01*
Y68306D01*
X396943D01*
Y67735D01*
X397133D01*
Y66403D01*
X397324D01*
Y65642D01*
X397514D01*
Y64500D01*
X397704D01*
Y63549D01*
X397895D01*
Y62787D01*
X398085D01*
Y61646D01*
X398275D01*
Y60885D01*
X398465D01*
Y59743D01*
X398656D01*
Y58982D01*
X398846D01*
Y58031D01*
X399036D01*
Y56889D01*
X399226D01*
Y56128D01*
X399417D01*
Y54796D01*
X399607D01*
Y54225D01*
X399797D01*
Y53083D01*
X399987D01*
Y52132D01*
X400178D01*
Y51371D01*
X400368D01*
Y50039D01*
X400558D01*
Y49468D01*
X400749D01*
Y48897D01*
X401510D01*
Y49088D01*
X401890D01*
Y49278D01*
X403032D01*
Y49468D01*
X403603D01*
Y49658D01*
X404174D01*
Y49849D01*
X404744D01*
Y50039D01*
X405125D01*
Y50229D01*
X405886D01*
Y50419D01*
X406076D01*
Y50990D01*
X405886D01*
Y51561D01*
X405696D01*
Y51942D01*
X405506D01*
Y52322D01*
X405315D01*
Y52893D01*
X405125D01*
Y53274D01*
X404935D01*
Y53844D01*
X404744D01*
Y54225D01*
X404554D01*
Y54605D01*
X404364D01*
Y55176D01*
X404174D01*
Y55557D01*
X403983D01*
Y56128D01*
X403793D01*
Y56508D01*
X403603D01*
Y56889D01*
Y57079D01*
X403413D01*
Y57460D01*
X403222D01*
Y57840D01*
X403032D01*
Y58411D01*
X402842D01*
Y58792D01*
X402651D01*
Y59363D01*
X402461D01*
Y59743D01*
X402271D01*
Y60124D01*
X402081D01*
Y60694D01*
X401890D01*
Y61075D01*
X401700D01*
Y61646D01*
X401510D01*
Y62026D01*
X401319D01*
Y62597D01*
X401129D01*
Y62978D01*
X400939D01*
Y63358D01*
X400749D01*
Y63929D01*
X400558D01*
Y64310D01*
X400368D01*
Y64880D01*
X400178D01*
Y65261D01*
X399987D01*
Y65642D01*
X399797D01*
Y66213D01*
X399607D01*
Y66593D01*
X399417D01*
Y67164D01*
X399226D01*
Y67544D01*
X399036D01*
Y68115D01*
X398846D01*
Y68496D01*
X398656D01*
Y68876D01*
X398465D01*
Y69447D01*
X398275D01*
Y69828D01*
X398085D01*
Y70399D01*
X397895D01*
Y70779D01*
X397704D01*
Y71160D01*
X397514D01*
Y71730D01*
X397324D01*
Y72111D01*
X397133D01*
Y72492D01*
D02*
G37*
G36*
X390474D02*
X389903D01*
Y72301D01*
X389712D01*
Y71921D01*
X389522D01*
Y71540D01*
X389332D01*
Y70969D01*
X389142D01*
Y70589D01*
X388951D01*
Y70018D01*
X388761D01*
Y69637D01*
X388571D01*
Y69257D01*
X388381D01*
Y68686D01*
X388190D01*
Y68306D01*
X388000D01*
Y67735D01*
X387810D01*
Y67354D01*
X387619D01*
Y66783D01*
X387429D01*
Y66403D01*
X387239D01*
Y66022D01*
X387049D01*
Y65451D01*
X386858D01*
Y65071D01*
X386668D01*
Y64500D01*
X386478D01*
Y64119D01*
X386287D01*
Y63739D01*
X386097D01*
Y63168D01*
X385907D01*
Y62787D01*
X385717D01*
Y62217D01*
X385526D01*
Y61836D01*
X385336D01*
Y61265D01*
X385146D01*
Y60885D01*
X384956D01*
Y60504D01*
X384765D01*
Y59933D01*
X384575D01*
Y59553D01*
X384385D01*
Y58982D01*
X384194D01*
Y58601D01*
X384004D01*
Y58221D01*
X383814D01*
Y57650D01*
X383624D01*
Y57269D01*
X383433D01*
Y56699D01*
X383243D01*
Y56318D01*
X383053D01*
Y55747D01*
X382863D01*
Y55367D01*
X382672D01*
Y55176D01*
Y54986D01*
X382482D01*
Y54415D01*
X382292D01*
Y54035D01*
X382101D01*
Y53464D01*
X381911D01*
Y53083D01*
X381721D01*
Y52703D01*
X381531D01*
Y52132D01*
X381340D01*
Y51751D01*
X381150D01*
Y51181D01*
X380960D01*
Y50800D01*
X380769D01*
Y50610D01*
X380960D01*
Y50419D01*
X381150D01*
Y50229D01*
X381911D01*
Y50039D01*
X382292D01*
Y49849D01*
X382863D01*
Y49658D01*
X383433D01*
Y49468D01*
X384004D01*
Y49278D01*
X384956D01*
Y49088D01*
X385526D01*
Y48897D01*
X386097D01*
Y49088D01*
X386287D01*
Y49849D01*
X386478D01*
Y50610D01*
X386668D01*
Y51942D01*
X386858D01*
Y52512D01*
X387049D01*
Y53844D01*
X387239D01*
Y54605D01*
X387429D01*
Y55557D01*
X387619D01*
Y56699D01*
X387810D01*
Y57269D01*
X388000D01*
Y58601D01*
X388190D01*
Y59363D01*
X388381D01*
Y60504D01*
X388571D01*
Y61455D01*
X388761D01*
Y62026D01*
X388951D01*
Y63358D01*
X389142D01*
Y64119D01*
X389332D01*
Y65261D01*
X389522D01*
Y66022D01*
X389712D01*
Y66974D01*
X389903D01*
Y68115D01*
X390093D01*
Y68876D01*
X390283D01*
Y70208D01*
X390474D01*
Y70779D01*
X390664D01*
Y72301D01*
X390474D01*
Y72492D01*
D02*
G37*
G36*
X394850Y72111D02*
X394279D01*
Y71921D01*
X394089D01*
Y71540D01*
X393899D01*
Y48326D01*
X394089D01*
Y48136D01*
X396562D01*
Y48326D01*
X398275D01*
Y48517D01*
X399417D01*
Y48707D01*
X399607D01*
Y49278D01*
X399417D01*
Y50610D01*
X399226D01*
Y51181D01*
X399036D01*
Y52512D01*
X398846D01*
Y53274D01*
X398656D01*
Y54035D01*
X398465D01*
Y55367D01*
X398275D01*
Y55938D01*
X398085D01*
Y57269D01*
X397895D01*
Y58031D01*
X397704D01*
Y58982D01*
X397514D01*
Y60124D01*
X397324D01*
Y60694D01*
X397133D01*
Y62026D01*
X396943D01*
Y62787D01*
X396753D01*
Y63929D01*
X396562D01*
Y64690D01*
X396372D01*
Y65642D01*
X396182D01*
Y66783D01*
X395992D01*
Y67544D01*
X395801D01*
Y68686D01*
X395611D01*
Y69447D01*
X395421D01*
Y70399D01*
X395231D01*
Y71540D01*
X395040D01*
Y71921D01*
X394850D01*
Y72111D01*
D02*
G37*
G36*
X392757D02*
X392186D01*
Y71921D01*
X391806D01*
Y71160D01*
X391615D01*
Y69828D01*
X391425D01*
Y69257D01*
X391235D01*
Y68306D01*
Y68115D01*
Y67925D01*
X391045D01*
Y67164D01*
X390854D01*
Y66403D01*
X390664D01*
Y65261D01*
X390474D01*
Y64500D01*
X390283D01*
Y63168D01*
X390093D01*
Y62407D01*
X389903D01*
Y61455D01*
X389712D01*
Y60504D01*
X389522D01*
Y59743D01*
X389332D01*
Y58411D01*
X389142D01*
Y57840D01*
X388951D01*
Y56508D01*
X388761D01*
Y55747D01*
X388571D01*
Y54796D01*
X388381D01*
Y53654D01*
X388190D01*
Y53083D01*
X388000D01*
Y51751D01*
X387810D01*
Y50990D01*
X387619D01*
Y49849D01*
X387429D01*
Y48707D01*
X387619D01*
Y48517D01*
X388571D01*
Y48326D01*
X390283D01*
Y48136D01*
X392947D01*
Y71921D01*
X392757D01*
Y72111D01*
D02*
G37*
%LPD*%
D10*
X358234Y144000D02*
G03*
X358234Y144000I-98234J0D01*
G01*
X264000Y127000D02*
X277740Y77927D01*
X268000Y130000D02*
X308000Y58000D01*
X276000Y139000D02*
X324941Y126765D01*
X273000Y135000D02*
X344000Y96000D01*
X271000Y132000D02*
X306460Y97473D01*
X274000Y152000D02*
X344000Y194000D01*
X276000Y148000D02*
X325647Y160412D01*
X176000Y192000D02*
X247000Y152000D01*
X193887Y160537D02*
X245000Y148000D01*
X211000Y228000D02*
X253000Y158000D01*
X241860Y209960D02*
X256000Y160000D01*
X212000Y192000D02*
X249000Y155000D01*
X268000Y159000D02*
X308000Y228000D01*
X264000Y160000D02*
X276965Y210009D01*
X271000Y156000D02*
X308974Y192027D01*
X276000Y144000D02*
X358234D01*
X193887Y127463D02*
X245000Y140000D01*
X175000Y96000D02*
X246000Y137000D01*
X211000Y60000D02*
X252192Y130889D01*
X242055Y77985D02*
X256000Y129000D01*
X211500Y96500D02*
X248000Y133000D01*
X260000Y46000D02*
Y128000D01*
X162000Y144000D02*
X245000D01*
X231665Y511332D02*
X233331Y512998D01*
X236663D01*
X238329Y511332D01*
Y504668D01*
X236663Y503002D01*
X233331D01*
X231665Y504668D01*
X221668Y503002D02*
X228332D01*
X221668Y509666D01*
Y511332D01*
X223334Y512998D01*
X226666D01*
X228332Y511332D01*
X211671Y512998D02*
X218335D01*
Y508000D01*
X215003Y509666D01*
X213337D01*
X211671Y508000D01*
Y504668D01*
X213337Y503002D01*
X216669D01*
X218335Y504668D01*
X329998Y419329D02*
X320002D01*
Y414331D01*
X321668Y412665D01*
X325000D01*
X326666Y414331D01*
Y419329D01*
Y415997D02*
X329998Y412665D01*
Y402668D02*
Y409332D01*
X323334Y402668D01*
X321668D01*
X320002Y404334D01*
Y407666D01*
X321668Y409332D01*
X329998Y394337D02*
X320002D01*
X325000Y399336D01*
Y392671D01*
X286002Y336002D02*
X279337D01*
Y341000D01*
X282669D01*
X279337D01*
Y345998D01*
X289334Y336002D02*
Y345998D01*
X294332D01*
X295998Y344332D01*
Y342666D01*
X294332Y341000D01*
X289334D01*
X294332D01*
X295998Y339334D01*
Y337668D01*
X294332Y336002D01*
X289334D01*
X299331Y345998D02*
X302663D01*
X300997D01*
Y336002D01*
X299331Y337668D01*
X256668Y423665D02*
X255002Y425331D01*
Y428663D01*
X256668Y430329D01*
X263332D01*
X264998Y428663D01*
Y425331D01*
X263332Y423665D01*
X264998Y413668D02*
Y420332D01*
X258334Y413668D01*
X256668D01*
X255002Y415334D01*
Y418666D01*
X256668Y420332D01*
Y410336D02*
X255002Y408669D01*
Y405337D01*
X256668Y403671D01*
X258334D01*
X260000Y405337D01*
Y407003D01*
Y405337D01*
X261666Y403671D01*
X263332D01*
X264998Y405337D01*
Y408669D01*
X263332Y410336D01*
X223169Y346668D02*
X221502Y345002D01*
X218170D01*
X216504Y346668D01*
Y353332D01*
X218170Y354998D01*
X221502D01*
X223169Y353332D01*
X226501Y354998D02*
X229833D01*
X228167D01*
Y345002D01*
X226501Y346668D01*
X234831Y353332D02*
X236497Y354998D01*
X239830D01*
X241496Y353332D01*
Y346668D01*
X239830Y345002D01*
X236497D01*
X234831Y346668D01*
Y348334D01*
X236497Y350000D01*
X241496D01*
X255168Y338668D02*
X253502Y337002D01*
X250170D01*
X248504Y338668D01*
Y345332D01*
X250170Y346998D01*
X253502D01*
X255168Y345332D01*
X258501Y346998D02*
X261833D01*
X260167D01*
Y337002D01*
X258501Y338668D01*
X266831D02*
X268498Y337002D01*
X271830D01*
X273496Y338668D01*
Y340334D01*
X271830Y342000D01*
X273496Y343666D01*
Y345332D01*
X271830Y346998D01*
X268498D01*
X266831Y345332D01*
Y343666D01*
X268498Y342000D01*
X266831Y340334D01*
Y338668D01*
X268498Y342000D02*
X271830D01*
X265668Y455664D02*
X264002Y457331D01*
Y460663D01*
X265668Y462329D01*
X272332D01*
X273998Y460663D01*
Y457331D01*
X272332Y455664D01*
X273998Y445668D02*
Y452332D01*
X267334Y445668D01*
X265668D01*
X264002Y447334D01*
Y450666D01*
X265668Y452332D01*
X264002Y442336D02*
Y435671D01*
X265668D01*
X272332Y442336D01*
X273998D01*
X261665Y522332D02*
X263331Y523998D01*
X266663D01*
X268329Y522332D01*
Y515668D01*
X266663Y514002D01*
X263331D01*
X261665Y515668D01*
X251668Y514002D02*
X258332D01*
X251668Y520666D01*
Y522332D01*
X253334Y523998D01*
X256666D01*
X258332Y522332D01*
X243337Y514002D02*
Y523998D01*
X248335Y519000D01*
X241671D01*
X303664Y449332D02*
X305331Y450998D01*
X308663D01*
X310329Y449332D01*
Y442668D01*
X308663Y441002D01*
X305331D01*
X303664Y442668D01*
X293668Y441002D02*
X300332D01*
X293668Y447666D01*
Y449332D01*
X295334Y450998D01*
X298666D01*
X300332Y449332D01*
X283671Y441002D02*
X290335D01*
X283671Y447666D01*
Y449332D01*
X285337Y450998D01*
X288669D01*
X290335Y449332D01*
X304668Y484665D02*
X303001Y486331D01*
Y489663D01*
X304668Y491329D01*
X311332D01*
X312998Y489663D01*
Y486331D01*
X311332Y484665D01*
X304668Y481332D02*
X303001Y479666D01*
Y476334D01*
X304668Y474668D01*
X306334D01*
X308000Y476334D01*
Y478000D01*
Y476334D01*
X309666Y474668D01*
X311332D01*
X312998Y476334D01*
Y479666D01*
X311332Y481332D01*
X312998Y466337D02*
X303001D01*
X308000Y471335D01*
Y464671D01*
D12*
X219250Y362500D02*
Y384500D01*
X240750Y362500D02*
Y384500D01*
X274000Y488750D02*
X296000D01*
X274000Y467250D02*
X296000D01*
X249750Y406000D02*
Y428000D01*
X228250Y406000D02*
Y428000D01*
X236000Y444250D02*
X258000D01*
X236000Y465750D02*
X258000D01*
X314750Y396750D02*
Y401250D01*
X301250Y396750D02*
Y401250D01*
D85*
X276279Y144000D02*
G03*
X276279Y144000I-16279J0D01*
G01*
D86*
X260000Y161000D02*
Y216500D01*
Y231000D02*
Y269500D01*
M02*
