G04*
G04 #@! TF.GenerationSoftware,Altium Limited,Altium Designer,26.4.1 (12)*
G04*
G04 Layer_Physical_Order=1*
G04 Layer_Color=255*
%FSLAX44Y44*%
%MOMM*%
G71*
G04*
G04 #@! TF.SameCoordinates,B61F4D15-3026-40D7-BC73-F169385026C6*
G04*
G04*
G04 #@! TF.FilePolarity,Positive*
G04*
G01*
G75*
%ADD10C,0.2540*%
%ADD17R,1.4000X0.9500*%
%ADD18R,1.6042X0.8798*%
%ADD19R,1.5000X1.5500*%
%ADD20R,1.5500X1.5000*%
%ADD21R,0.9000X1.4000*%
%ADD22R,1.3500X0.9500*%
%ADD23R,0.7000X1.3000*%
%ADD24R,1.4620X0.2794*%
%ADD25R,1.3000X1.4500*%
%ADD26R,1.5500X1.3500*%
%ADD27R,0.9500X1.3500*%
%ADD28R,0.2794X1.4620*%
%ADD29R,1.3000X0.7000*%
G04:AMPARAMS|DCode=30|XSize=0.7587mm|YSize=1.3082mm|CornerRadius=0mm|HoleSize=0mm|Usage=FLASHONLY|Rotation=30.000|XOffset=0mm|YOffset=0mm|HoleType=Round|Shape=Rectangle|*
%AMROTATEDRECTD30*
4,1,4,-0.0015,-0.7562,-0.6556,0.3768,0.0015,0.7562,0.6556,-0.3768,-0.0015,-0.7562,0.0*
%
%ADD30ROTATEDRECTD30*%

%ADD31R,1.2621X0.8081*%
%ADD32R,0.9500X1.4000*%
%ADD33R,0.9000X0.7500*%
%ADD34R,1.4000X1.1500*%
%ADD35R,0.7500X0.9000*%
%ADD36R,1.7000X2.5000*%
%ADD37R,0.9000X0.5000*%
%ADD38R,1.6000X2.5000*%
G04:AMPARAMS|DCode=39|XSize=1.6042mm|YSize=0.8798mm|CornerRadius=0.4399mm|HoleSize=0mm|Usage=FLASHONLY|Rotation=0.000|XOffset=0mm|YOffset=0mm|HoleType=Round|Shape=RoundedRectangle|*
%AMROUNDEDRECTD39*
21,1,1.6042,0.0000,0,0,0.0*
21,1,0.7244,0.8798,0,0,0.0*
1,1,0.8798,0.3622,0.0000*
1,1,0.8798,-0.3622,0.0000*
1,1,0.8798,-0.3622,0.0000*
1,1,0.8798,0.3622,0.0000*
%
%ADD39ROUNDEDRECTD39*%
G04:AMPARAMS|DCode=40|XSize=1.6042mm|YSize=3.1798mm|CornerRadius=0.4411mm|HoleSize=0mm|Usage=FLASHONLY|Rotation=0.000|XOffset=0mm|YOffset=0mm|HoleType=Round|Shape=RoundedRectangle|*
%AMROUNDEDRECTD40*
21,1,1.6042,2.2975,0,0,0.0*
21,1,0.7219,3.1798,0,0,0.0*
1,1,0.8823,0.3609,-1.1488*
1,1,0.8823,-0.3609,-1.1488*
1,1,0.8823,-0.3609,1.1488*
1,1,0.8823,0.3609,1.1488*
%
%ADD40ROUNDEDRECTD40*%
%ADD41R,1.3082X0.7587*%
%ADD42R,0.8000X1.2500*%
%ADD43R,1.2000X0.9000*%
%ADD44R,0.9587X1.4082*%
%ADD45R,0.8552X1.3562*%
%ADD46R,1.2500X0.8000*%
G04:AMPARAMS|DCode=47|XSize=0.7587mm|YSize=1.3082mm|CornerRadius=0mm|HoleSize=0mm|Usage=FLASHONLY|Rotation=240.000|XOffset=0mm|YOffset=0mm|HoleType=Round|Shape=Rectangle|*
%AMROTATEDRECTD47*
4,1,4,-0.3768,0.6556,0.7562,0.0015,0.3768,-0.6556,-0.7562,-0.0015,-0.3768,0.6556,0.0*
%
%ADD47ROTATEDRECTD47*%

%ADD48R,0.7587X1.3082*%
G04:AMPARAMS|DCode=49|XSize=0.7587mm|YSize=1.3082mm|CornerRadius=0mm|HoleSize=0mm|Usage=FLASHONLY|Rotation=300.000|XOffset=0mm|YOffset=0mm|HoleType=Round|Shape=Rectangle|*
%AMROTATEDRECTD49*
4,1,4,-0.7562,0.0015,0.3768,0.6556,0.7562,-0.0015,-0.3768,-0.6556,-0.7562,0.0015,0.0*
%
%ADD49ROTATEDRECTD49*%

G04:AMPARAMS|DCode=50|XSize=0.7587mm|YSize=1.3082mm|CornerRadius=0mm|HoleSize=0mm|Usage=FLASHONLY|Rotation=330.000|XOffset=0mm|YOffset=0mm|HoleType=Round|Shape=Rectangle|*
%AMROTATEDRECTD50*
4,1,4,-0.6556,-0.3768,-0.0015,0.7562,0.6556,0.3768,0.0015,-0.7562,-0.6556,-0.3768,0.0*
%
%ADD50ROTATEDRECTD50*%

%ADD51R,1.5000X1.3000*%
%ADD52C,1.7000*%
%ADD53C,2.1500*%
%ADD54C,1.5000*%
%ADD55C,6.0000*%
%ADD56R,1.5500X1.5500*%
%ADD57C,1.5500*%
%ADD58C,1.4000*%
%ADD59R,1.4000X1.4000*%
%ADD60C,1.2000*%
%ADD61R,1.2000X1.2000*%
%ADD62R,1.5000X1.5000*%
%ADD63R,1.7000X1.7000*%
%ADD64C,0.7000*%
%ADD65C,1.2700*%
%ADD66C,1.0160*%
%ADD67C,0.5080*%
G36*
X196000Y468000D02*
Y453824D01*
X187000D01*
Y456250D01*
X175000D01*
Y455119D01*
X169000D01*
X167424Y454806D01*
X166087Y453913D01*
X161547Y449373D01*
X161465Y449250D01*
X151500D01*
Y434750D01*
X168500D01*
Y444675D01*
X170706Y446881D01*
X175000D01*
Y445750D01*
X187000D01*
Y448176D01*
X190089D01*
X191141Y445636D01*
X182006Y436500D01*
X174000D01*
Y428500D01*
X186000D01*
Y432506D01*
X193653Y440159D01*
X196000Y439187D01*
Y385000D01*
X180000Y369000D01*
X115000D01*
X105000Y379000D01*
Y462000D01*
X122000Y479000D01*
X185000D01*
X196000Y468000D01*
D02*
G37*
G36*
X551000Y472000D02*
X541000Y463000D01*
Y448000D01*
X501000D01*
Y487000D01*
X551000D01*
Y472000D01*
D02*
G37*
%LPC*%
G36*
X146500Y433250D02*
X129500D01*
Y418750D01*
X140675D01*
X143881Y415544D01*
Y410000D01*
X142750D01*
Y398000D01*
X153250D01*
Y399881D01*
X164580D01*
X166156Y400194D01*
X167493Y401087D01*
X179786Y413381D01*
X180000D01*
X180599Y413500D01*
X186000D01*
Y421500D01*
X180599D01*
X180000Y421619D01*
X178080D01*
X177481Y421500D01*
X174000D01*
Y419245D01*
X162874Y408119D01*
X153250D01*
Y410000D01*
X152119D01*
Y417250D01*
X151805Y418826D01*
X150913Y420163D01*
X146500Y424575D01*
Y433250D01*
D02*
G37*
%LPD*%
D10*
X383793Y504000D02*
X385000D01*
X362432Y501000D02*
X380793D01*
X383793Y504000D01*
X340108Y368892D02*
Y384892D01*
X340000Y385000D02*
X340108Y384892D01*
Y368892D02*
X340216Y368784D01*
X230336Y534336D02*
X232000Y536000D01*
X230216Y523216D02*
X230336Y523336D01*
Y534336D01*
X193000Y461000D02*
X208000D01*
X223000Y423376D02*
Y431000D01*
X208127Y416127D02*
X215751D01*
X223000Y423376D01*
X220216Y368784D02*
X225216D01*
X208000Y416000D02*
X208127Y416127D01*
X212790Y246133D02*
X237654Y221270D01*
X239290D01*
X283346Y66730D02*
X308210Y41866D01*
X280710Y66730D02*
X283346D01*
X203430Y200570D02*
Y204483D01*
X239290Y221270D02*
X252733Y234713D01*
X182730Y164710D02*
Y167933D01*
X212290Y41866D02*
X237154Y66730D01*
X239290D01*
X175729Y200570D02*
X203430D01*
X162190Y164710D02*
X182730D01*
X199517Y87430D02*
X203430D01*
X194301Y82214D02*
X199517Y87430D01*
X316570Y200570D02*
Y228271D01*
Y200570D02*
X319547D01*
X326763Y207786D01*
X350493D01*
X239290Y47190D02*
Y66730D01*
X280710Y221270D02*
Y241810D01*
X283933Y221270D02*
X307796Y245133D01*
X280710Y221270D02*
X283933D01*
X203430Y59256D02*
Y87430D01*
X337270Y164710D02*
X355810D01*
X337270D02*
X357034Y184475D01*
X269267Y55287D02*
X280710Y66730D01*
X164190Y123290D02*
X182730D01*
X157866Y96290D02*
X182730Y121154D01*
Y123290D01*
X157866Y95160D02*
Y96290D01*
X150747Y136733D02*
X164190Y123290D01*
X148000Y136733D02*
X150747D01*
X269267Y31000D02*
Y55287D01*
X357034Y191742D02*
X360134Y194841D01*
X357034Y184475D02*
Y191742D01*
X370252Y150267D02*
X373000D01*
X355810Y164710D02*
X370252Y150267D01*
X196840Y52667D02*
X203430Y59256D01*
X196840Y50134D02*
Y52667D01*
X307796Y245133D02*
X309841D01*
X269267Y253253D02*
Y256000D01*
Y253253D02*
X280710Y241810D01*
X239290Y47190D02*
X252733Y33747D01*
Y31000D02*
Y33747D01*
X350493Y207786D02*
X351866Y209160D01*
X324159Y235861D02*
Y236866D01*
X316570Y228271D02*
X324159Y235861D01*
X167507Y82214D02*
X194301D01*
X166133Y80841D02*
X167507Y82214D01*
X150747Y153267D02*
X162190Y164710D01*
X148000Y153267D02*
X150747D01*
X168139Y208160D02*
X175729Y200570D01*
X167134Y208160D02*
X168139D01*
X211159Y41866D02*
X212290D01*
X158866Y191796D02*
Y193841D01*
Y191796D02*
X182730Y167933D01*
X252733Y234713D02*
Y256000D01*
X199214Y208699D02*
X203430Y204483D01*
X199214Y208699D02*
Y236493D01*
X197840Y237866D02*
X199214Y236493D01*
X308210Y41866D02*
X309841D01*
X212159Y246133D02*
X212790D01*
X180000Y432500D02*
X182000D01*
X195500Y446000D02*
X208000D01*
X182000Y432500D02*
X195500Y446000D01*
X208000Y481000D02*
X222000D01*
X368472Y509972D02*
X370000Y511500D01*
X368472Y506127D02*
Y509972D01*
X368345Y506000D02*
X368472Y506127D01*
X362432Y506000D02*
X368345D01*
X345343Y362744D02*
X349756D01*
X345216Y362871D02*
X345343Y362744D01*
X345216Y362871D02*
Y368784D01*
X349756Y362744D02*
X350000Y362500D01*
X224000Y535000D02*
X225089Y533911D01*
Y523343D02*
Y533911D01*
Y523343D02*
X225216Y523216D01*
X230089Y368657D02*
X230216Y368784D01*
X230089Y360089D02*
Y368657D01*
X217404Y352404D02*
X222404D01*
X230089Y360089D01*
X208000Y456000D02*
X222000D01*
X214000Y349000D02*
X217404Y352404D01*
X350000Y495808D02*
Y561400D01*
X348400Y563000D02*
X350000Y561400D01*
Y495808D02*
X354681Y491127D01*
X362305D01*
X362432Y491000D01*
X280216Y523216D02*
Y545616D01*
X297600Y563000D01*
X345216Y523216D02*
Y540784D01*
X323000Y563000D02*
X345216Y540784D01*
X245343Y359657D02*
X260500Y344500D01*
X245343Y359657D02*
Y368657D01*
X260500Y317000D02*
Y344500D01*
X245216Y368784D02*
X245343Y368657D01*
X270216Y368784D02*
X270343Y368657D01*
Y361033D02*
Y368657D01*
Y361033D02*
X327376Y304000D01*
X394500D01*
X397980Y300520D01*
Y293520D02*
Y300520D01*
Y293520D02*
X404270Y287230D01*
Y285730D02*
Y287230D01*
Y285730D02*
X407500Y282500D01*
X409000D01*
X527000Y290000D02*
X541500D01*
X546000Y265000D02*
Y267250D01*
X556500Y277750D01*
Y290000D01*
X424745Y374755D02*
X427500Y372000D01*
X456000Y424000D02*
X460000Y428000D01*
X449000Y417000D02*
X456000Y424000D01*
X441255Y417000D02*
X449000D01*
X460000Y428000D02*
X474750D01*
X424745Y374755D02*
Y417000D01*
X373552Y496000D02*
X378270Y491282D01*
X224000Y397000D02*
Y397624D01*
X335000Y350000D02*
X335216Y350216D01*
Y368784D01*
X335089Y368911D02*
Y377911D01*
Y368911D02*
X335216Y368784D01*
X208127Y405873D02*
X215751D01*
X380000Y470000D02*
X380250Y470250D01*
Y485750D01*
X378270Y488230D02*
Y491282D01*
X181000Y451000D02*
X208000D01*
X181000Y451000D02*
X181000Y451000D01*
X255089Y529256D02*
Y532977D01*
X380250Y485750D02*
X380500Y486000D01*
X250793Y437000D02*
X252000D01*
X246793Y441000D02*
X250793Y437000D01*
X327000Y386000D02*
X335089Y377911D01*
X208000Y441000D02*
X246793D01*
X215751Y405873D02*
X224000Y397624D01*
X222793Y413000D02*
X224000D01*
X378270Y488230D02*
X380500Y486000D01*
X237987Y349020D02*
X240000D01*
X235216Y351791D02*
X237987Y349020D01*
X235216Y351791D02*
Y368784D01*
X255000Y533066D02*
Y537250D01*
X260730Y542980D01*
X263000D01*
X255000Y533066D02*
X255089Y532977D01*
X220793Y411000D02*
X222793Y413000D01*
X208000Y411000D02*
X220793D01*
X208000Y406000D02*
X208127Y405873D01*
X255089Y529256D02*
X255216Y529129D01*
Y523216D02*
Y529129D01*
X362432Y496000D02*
X373552D01*
D17*
X514000Y750250D02*
D03*
Y731750D02*
D03*
D18*
X429000Y754000D02*
D03*
D19*
X447000Y683000D02*
D03*
X429000D02*
D03*
D20*
X543000Y498000D02*
D03*
Y480000D02*
D03*
D21*
X554000Y457000D02*
D03*
X489000Y478000D02*
D03*
X536000Y457000D02*
D03*
X507000Y478000D02*
D03*
D22*
X509000Y513500D02*
D03*
X379000Y533500D02*
D03*
X562000Y388500D02*
D03*
X408000Y220500D02*
D03*
X214000Y334000D02*
D03*
X194000Y287000D02*
D03*
X65000Y282500D02*
D03*
X509000Y498500D02*
D03*
X562000Y373500D02*
D03*
X379000Y518500D02*
D03*
X408000Y235500D02*
D03*
X214000Y349000D02*
D03*
X65000Y297500D02*
D03*
X194000Y302000D02*
D03*
D23*
X399500Y486000D02*
D03*
X380500D02*
D03*
D24*
X362432Y501000D02*
D03*
X208000Y461000D02*
D03*
Y416000D02*
D03*
X362432Y506000D02*
D03*
X208000Y481000D02*
D03*
Y456000D02*
D03*
X362432Y496000D02*
D03*
Y491000D02*
D03*
Y486000D02*
D03*
Y481000D02*
D03*
Y476000D02*
D03*
Y471000D02*
D03*
Y466000D02*
D03*
Y461000D02*
D03*
Y456000D02*
D03*
Y451000D02*
D03*
Y446000D02*
D03*
Y441000D02*
D03*
Y436000D02*
D03*
Y431000D02*
D03*
Y426000D02*
D03*
Y421000D02*
D03*
Y416000D02*
D03*
Y411000D02*
D03*
Y406000D02*
D03*
Y401000D02*
D03*
Y396000D02*
D03*
Y391000D02*
D03*
Y386000D02*
D03*
X208000D02*
D03*
Y391000D02*
D03*
Y396000D02*
D03*
Y401000D02*
D03*
Y406000D02*
D03*
Y411000D02*
D03*
Y421000D02*
D03*
Y426000D02*
D03*
Y431000D02*
D03*
Y436000D02*
D03*
Y441000D02*
D03*
Y446000D02*
D03*
Y451000D02*
D03*
Y466000D02*
D03*
Y471000D02*
D03*
Y476000D02*
D03*
Y486000D02*
D03*
Y491000D02*
D03*
Y496000D02*
D03*
Y501000D02*
D03*
Y506000D02*
D03*
D25*
X491250Y428000D02*
D03*
X474750D02*
D03*
D26*
X539000Y222000D02*
D03*
Y242000D02*
D03*
D27*
X409500Y304000D02*
D03*
X374500Y351000D02*
D03*
X275500Y317000D02*
D03*
X211000Y552000D02*
D03*
X359500Y351000D02*
D03*
X226000Y552000D02*
D03*
X556500Y290000D02*
D03*
X541500D02*
D03*
X394500Y304000D02*
D03*
X442500Y372000D02*
D03*
X427500D02*
D03*
X260500Y317000D02*
D03*
D28*
X340216Y368784D02*
D03*
X230216Y523216D02*
D03*
X225216Y368784D02*
D03*
X345216D02*
D03*
X225216Y523216D02*
D03*
X230216Y368784D02*
D03*
X235216Y523216D02*
D03*
X240216D02*
D03*
X245216D02*
D03*
X250216D02*
D03*
X255216D02*
D03*
X260216D02*
D03*
X265216D02*
D03*
X270216D02*
D03*
X275216D02*
D03*
X280216D02*
D03*
X285216D02*
D03*
X290216D02*
D03*
X295216D02*
D03*
X300216D02*
D03*
X305216D02*
D03*
X310216D02*
D03*
X315216D02*
D03*
X320216D02*
D03*
X325216D02*
D03*
X330216D02*
D03*
X335216D02*
D03*
X340216D02*
D03*
X345216D02*
D03*
X335216Y368784D02*
D03*
X330216D02*
D03*
X325216D02*
D03*
X320216D02*
D03*
X315216D02*
D03*
X310216D02*
D03*
X305216D02*
D03*
X300216D02*
D03*
X295216D02*
D03*
X290216D02*
D03*
X285216D02*
D03*
X280216D02*
D03*
X275216D02*
D03*
X270216D02*
D03*
X265216D02*
D03*
X260216D02*
D03*
X255216D02*
D03*
X250216D02*
D03*
X245216D02*
D03*
X240216D02*
D03*
X235216D02*
D03*
D29*
X335000Y331000D02*
D03*
Y350000D02*
D03*
D30*
X324159Y50134D02*
D03*
X309841Y41866D02*
D03*
X197840Y237866D02*
D03*
X212159Y246133D02*
D03*
D31*
X263000Y559020D02*
D03*
X234000Y808980D02*
D03*
Y825020D02*
D03*
X263000Y542980D02*
D03*
X240000Y332980D02*
D03*
Y349020D02*
D03*
D32*
X207750Y578000D02*
D03*
X226250D02*
D03*
D33*
X181000Y463000D02*
D03*
Y451000D02*
D03*
D34*
X160000Y426000D02*
D03*
X138000Y442000D02*
D03*
Y426000D02*
D03*
X160000Y442000D02*
D03*
D35*
X136000Y404000D02*
D03*
X148000D02*
D03*
D36*
X330000Y750000D02*
D03*
Y710000D02*
D03*
X384000D02*
D03*
Y750000D02*
D03*
D37*
X180000Y432500D02*
D03*
Y417500D02*
D03*
D38*
X50000Y358500D02*
D03*
Y323500D02*
D03*
D39*
X429000Y708000D02*
D03*
Y731000D02*
D03*
D40*
X489000D02*
D03*
D41*
X373000Y133733D02*
D03*
X148000Y136733D02*
D03*
X148000Y153267D02*
D03*
X373000Y150267D02*
D03*
D42*
X546000Y265000D02*
D03*
X530000D02*
D03*
D43*
X409000Y261500D02*
D03*
Y282500D02*
D03*
D44*
X487733Y455000D02*
D03*
X506267D02*
D03*
D45*
X454255Y449000D02*
D03*
X441255Y417000D02*
D03*
X424745D02*
D03*
X437745Y449000D02*
D03*
D46*
X562000Y346000D02*
D03*
Y330000D02*
D03*
D47*
X158866Y193841D02*
D03*
X167134Y208160D02*
D03*
D48*
X269267Y31000D02*
D03*
X252733Y31000D02*
D03*
Y256000D02*
D03*
X269267Y256000D02*
D03*
D49*
X166133Y80841D02*
D03*
X157866Y95160D02*
D03*
X351866Y209160D02*
D03*
X360134Y194841D02*
D03*
D50*
X211159Y41866D02*
D03*
X196840Y50134D02*
D03*
X309841Y245133D02*
D03*
X324159Y236866D02*
D03*
D51*
X260000Y169000D02*
D03*
X260000Y188500D02*
D03*
D52*
X392000Y812000D02*
D03*
X304000D02*
D03*
X297600Y588400D02*
D03*
X316570Y87430D02*
D03*
X233000Y670000D02*
D03*
X260000Y144000D02*
D03*
X203430Y87430D02*
D03*
X182730Y123290D02*
D03*
X203430Y200570D02*
D03*
X239290Y221270D02*
D03*
X182730Y164710D02*
D03*
X239290Y66730D02*
D03*
X280710D02*
D03*
Y221270D02*
D03*
X316570Y200570D02*
D03*
X337270Y164710D02*
D03*
Y123290D02*
D03*
X268000Y670000D02*
D03*
X198000D02*
D03*
Y705000D02*
D03*
X323000Y588400D02*
D03*
X233000Y705000D02*
D03*
X268000Y635000D02*
D03*
X198000D02*
D03*
X297600Y563000D02*
D03*
X323000D02*
D03*
X348400Y588400D02*
D03*
Y563000D02*
D03*
D53*
X371000Y640000D02*
D03*
X135000Y518000D02*
D03*
X325000Y640000D02*
D03*
X135000Y566000D02*
D03*
D54*
X462800Y321600D02*
D03*
X507100Y286100D02*
D03*
X165100Y348100D02*
D03*
X539000Y372400D02*
D03*
X430900Y235300D02*
D03*
X88900Y297300D02*
D03*
X430900Y260700D02*
D03*
X507100Y235300D02*
D03*
Y260700D02*
D03*
X430900Y209900D02*
D03*
Y286100D02*
D03*
X462800Y347000D02*
D03*
X539000Y321600D02*
D03*
Y347000D02*
D03*
Y397800D02*
D03*
X462800Y372400D02*
D03*
X88900Y348100D02*
D03*
Y322700D02*
D03*
Y271900D02*
D03*
X165100Y322700D02*
D03*
Y297300D02*
D03*
D55*
X46900Y816100D02*
D03*
X516800Y54100D02*
D03*
X529500Y803600D02*
D03*
X59600Y54100D02*
D03*
D56*
X50000Y537000D02*
D03*
D57*
Y487000D02*
D03*
Y512000D02*
D03*
D58*
X234000Y738300D02*
D03*
D59*
Y763700D02*
D03*
D60*
X451000Y479000D02*
D03*
D61*
Y529000D02*
D03*
D62*
X507100Y209900D02*
D03*
X462800Y397800D02*
D03*
X165100Y271900D02*
D03*
D63*
X268000Y705000D02*
D03*
D64*
X336026Y62000D02*
D03*
X535250Y750250D02*
D03*
X489500Y513500D02*
D03*
X470000Y683000D02*
D03*
X429000Y775000D02*
D03*
X566000Y498000D02*
D03*
X385000Y504000D02*
D03*
X399500Y467500D02*
D03*
X379000Y548000D02*
D03*
X278000Y500000D02*
D03*
X554000Y439000D02*
D03*
X523000Y428000D02*
D03*
X562000Y415000D02*
D03*
X391000Y351000D02*
D03*
X539000Y200000D02*
D03*
X409500Y324500D02*
D03*
X408000Y203000D02*
D03*
X340000Y385000D02*
D03*
X307000Y425000D02*
D03*
X335000Y316000D02*
D03*
X275500Y296500D02*
D03*
X243000Y547000D02*
D03*
X125000Y467000D02*
D03*
X164000D02*
D03*
X145000Y459000D02*
D03*
X223000Y431000D02*
D03*
X183000Y391000D02*
D03*
X166000Y378000D02*
D03*
X145000Y388000D02*
D03*
X116000Y444000D02*
D03*
X112000Y423000D02*
D03*
X124000Y379000D02*
D03*
X206000Y369000D02*
D03*
X194000Y271000D02*
D03*
X193000Y334000D02*
D03*
X65000Y265000D02*
D03*
X234000Y841000D02*
D03*
X260000Y224000D02*
D03*
X489000Y495000D02*
D03*
X535750Y731750D02*
D03*
X222000Y481000D02*
D03*
X300000Y348000D02*
D03*
X398500Y518500D02*
D03*
X359500Y331500D02*
D03*
X244000Y584000D02*
D03*
X222000Y456000D02*
D03*
X195000Y353000D02*
D03*
X260000Y293000D02*
D03*
X527000Y290000D02*
D03*
X456000Y424000D02*
D03*
X327000Y386000D02*
D03*
X224000Y397000D02*
D03*
X252000Y437000D02*
D03*
X224000Y413000D02*
D03*
X380000Y470000D02*
D03*
D65*
X265000Y589000D02*
D03*
X189000Y566000D02*
D03*
D66*
X472261Y242740D02*
G03*
X490221Y235300I17960J17960D01*
G01*
X461740Y253260D02*
G03*
X443779Y260700I-17960J-17960D01*
G01*
X508560Y354440D02*
G03*
X526521Y347000I17960J17960D01*
G01*
X498040Y364961D02*
G03*
X480079Y372400I-17960J-17960D01*
G01*
X119740Y315261D02*
G03*
X101779Y322700I-17960J-17960D01*
G01*
X130260Y304739D02*
G03*
X148221Y297300I17960J17960D01*
G01*
X387420Y742580D02*
X393420D01*
X405000Y731000D02*
X489000D01*
X393420Y742580D02*
X405000Y731000D01*
X384000Y746000D02*
X387420Y742580D01*
X384000Y746000D02*
Y750000D01*
X386000Y708000D02*
X429000D01*
X384000Y710000D02*
X386000Y708000D01*
X429000Y683000D02*
X429000Y683000D01*
X429000Y683000D02*
Y708000D01*
X330000Y710000D02*
X384000D01*
X304000Y812000D02*
X330000Y786000D01*
Y750000D02*
Y786000D01*
X324159Y50134D02*
X336026Y62000D01*
X514000Y750250D02*
X535250D01*
X489500Y513500D02*
X509000D01*
X429000Y754000D02*
Y775000D01*
X447000Y683000D02*
X470000D01*
X543000Y498000D02*
X566000D01*
X379000Y533500D02*
X379000Y533500D01*
Y548000D01*
X265000Y588313D02*
Y589000D01*
X263000Y586313D02*
X265000Y588313D01*
X554000Y439000D02*
Y457000D01*
X562000Y388500D02*
Y415000D01*
X491250Y428000D02*
X523000D01*
X374500Y351000D02*
X391000D01*
X539000Y200000D02*
Y222000D01*
X409500Y304000D02*
Y324500D01*
X408000Y203000D02*
Y220500D01*
X335000Y331000D02*
X335000Y331000D01*
Y316000D02*
Y331000D01*
X275500Y296500D02*
Y317000D01*
X263000Y559020D02*
Y586313D01*
X207750Y565750D02*
Y578000D01*
X205486Y563486D02*
X207750Y565750D01*
Y556590D02*
X211000Y553340D01*
X207750Y556590D02*
Y563486D01*
X189000Y566000D02*
X189486Y565514D01*
X203458D01*
X205486Y563486D01*
X211000Y552000D02*
Y553340D01*
X193000Y334000D02*
X214000D01*
X194000Y271000D02*
Y287000D01*
X65000Y265000D02*
Y282500D01*
X295000Y670000D02*
X325000Y640000D01*
X268000Y670000D02*
X295000D01*
X124169Y631169D02*
X198000Y705000D01*
X124169Y586169D02*
Y631169D01*
X50000Y512000D02*
X124169Y586169D01*
X166931Y638931D02*
X198000Y670000D01*
X166931Y597930D02*
Y638931D01*
X135000Y566000D02*
X166931Y597930D01*
X234000Y825020D02*
Y841000D01*
X234000Y763700D02*
X234000Y763700D01*
Y808980D01*
X337270Y123290D02*
X362382D01*
X260000Y144000D02*
Y169000D01*
X260000Y144000D02*
X260000Y144000D01*
X372825Y133733D02*
X373000D01*
X362382Y123290D02*
X372825Y133733D01*
X260000Y224000D02*
X260000Y224000D01*
Y188500D02*
Y224000D01*
X507000Y478000D02*
Y479340D01*
X509000Y481340D01*
Y498500D01*
X489000Y478000D02*
Y495000D01*
X50400Y323100D02*
X88500D01*
X50000Y358500D02*
Y487000D01*
Y323500D02*
X50400Y323100D01*
X88500D02*
X88900Y322700D01*
X101779D01*
X455059Y450701D02*
X457582D01*
X454255Y449897D02*
X455059Y450701D01*
X454255Y449000D02*
Y449897D01*
X457582Y450701D02*
X460206Y453325D01*
X487447D02*
X487733Y453612D01*
Y455000D01*
X454255Y453325D02*
Y475247D01*
Y449000D02*
Y453325D01*
X460206D02*
X487447D01*
X514000Y731750D02*
X535750D01*
X512410D02*
X514000D01*
X511660Y731000D02*
X512410Y731750D01*
X489000Y731000D02*
X511660D01*
X379000Y518500D02*
X398500D01*
X539770Y373170D02*
X561670D01*
X562000Y373500D01*
X539000Y372400D02*
X539770Y373170D01*
X430800Y235400D02*
X430900Y235300D01*
X408000Y235500D02*
X408100Y235400D01*
X430800D01*
X359500Y331500D02*
Y351000D01*
X226580Y579920D02*
X239920D01*
X244000Y584000D01*
X226250Y578000D02*
Y579590D01*
X226580Y579920D01*
X226125Y577875D02*
X226250Y578000D01*
X226125Y552125D02*
Y577875D01*
X226000Y552000D02*
X226125Y552125D01*
X199000Y349000D02*
X214000D01*
X195000Y353000D02*
X199000Y349000D01*
X88800Y297400D02*
X88900Y297300D01*
X65000Y297500D02*
X65100Y297400D01*
X88800D01*
X198000Y635000D02*
X268000D01*
X208829Y302000D02*
X238769Y331941D01*
X192660Y302000D02*
X208829D01*
X165100Y322700D02*
X166026Y321774D01*
X172886D01*
X192660Y302000D01*
X424745Y417000D02*
Y436000D01*
X430697Y441952D01*
X431594D01*
X437745Y448103D01*
Y449000D01*
X451000Y478502D02*
Y479000D01*
Y478502D02*
X454255Y475247D01*
X260000Y293000D02*
X260500Y293500D01*
Y317000D01*
X409000Y261500D02*
X409340D01*
X410140Y260700D01*
X430900D01*
X490221Y235300D02*
X507100D01*
X461740Y253260D02*
X472261Y242740D01*
X430900Y260700D02*
X443779D01*
X530000Y265000D02*
X531080Y263920D01*
Y248920D02*
Y263920D01*
Y248920D02*
X538000Y242000D01*
X539000D01*
X507100Y260700D02*
X508410D01*
X511540Y263830D01*
X528920D01*
X530000Y264910D01*
Y265000D01*
X556500Y291340D02*
X562000Y296840D01*
Y330000D01*
X561500Y346500D02*
X562000Y346000D01*
X539000Y347000D02*
X539500Y346500D01*
X561500D01*
X442500Y372070D02*
X442830Y372400D01*
X442500Y372000D02*
Y372070D01*
X442830Y372400D02*
X462800D01*
X498040Y364961D02*
X508560Y354440D01*
X526521Y347000D02*
X539000D01*
X462800Y372400D02*
X480079D01*
X119740Y315261D02*
X130260Y304739D01*
X148221Y297300D02*
X165100D01*
D67*
X399500Y467500D02*
Y486000D01*
X232000Y536000D02*
X243000Y547000D01*
X206000Y369000D02*
X220000D01*
X220216Y368784D01*
X164580Y404000D02*
X178080Y417500D01*
X180000D01*
X148000Y404000D02*
X164580D01*
X233000Y705000D02*
X233500Y705500D01*
Y737800D01*
X234000Y738300D01*
X370000Y511500D02*
X377000Y518500D01*
X379000D01*
X350000Y362500D02*
X359500Y353000D01*
Y351000D02*
Y353000D01*
X224000Y550000D02*
X226000Y552000D01*
X224000Y535000D02*
Y550000D01*
X138000Y426000D02*
X139250D01*
X148000Y417250D01*
Y404000D02*
Y417250D01*
X164460Y445210D02*
Y446460D01*
X160000Y442000D02*
X161250D01*
X164460Y445210D01*
Y446460D02*
X169000Y451000D01*
X181000D01*
M02*
