M48
;Layer_Color=9474304
;FILE_FORMAT=4:4
METRIC,LZ
;TYPE=PLATED
T01F00S00C0.3000
T02F00S00C0.7000
T03F00S00C0.7112
T04F00S00C0.9000
T05F00S00C1.0000
T06F00S00C1.1900
T07F00S00C1.4000
T08F00S00C3.2000
%
T01
X00408Y00203
X004095Y003245
X00391Y00351
X003595Y003315
X00527Y0029
X00539Y002
X0026Y00224
X0026Y00293
X002755Y002965
X003Y00348
X00327Y00386
X0034Y00385
X00335Y00316
X00193Y00334
X00195Y00353
X00206Y00369
X00183Y00391
X00166Y00378
X00145Y00388
X00124Y00379
X00224Y00397
X00194Y00271
X00065Y00265
X00336026Y00062
X00307Y00425
X00252Y00437
X00223Y00431
X00224Y00413
X00222Y00456
Y00481
X00164Y00467
X00145Y00459
X00125Y00467
X00116Y00444
X00112Y00423
X00278Y005
X00243Y00547
X00244Y00584
X00379Y00548
X003985Y005185
X00385Y00504
X0038Y0047
X003995Y004675
X00456Y00424
X00523Y00428
X00554Y00439
X00562Y00415
X00566Y00498
X00489Y00495
X004895Y005135
X0047Y00683
X0053575Y0073175
X0053525Y0075025
X00429Y00775
X00234Y00841
T02
X00451Y00479
Y00529
T03
X00189Y00566
X00265Y00589
T04
X004309Y002099
Y002353
Y002607
Y002861
X004628Y003216
Y00347
Y003724
Y003978
X00539
Y003724
Y00347
Y003216
X005071Y002861
Y002607
Y002353
Y002099
X001651Y002719
Y002973
Y003227
Y003481
X000889
Y003227
Y002973
Y002719
X00234Y007383
Y007637
T05
X0005Y00487
Y00512
Y00537
X00198Y00635
Y0067
Y00705
X00233
Y0067
X00268
X00268Y00705
Y00635
X002976Y005884
X00323
Y00563
X002976
X003484
Y005884
T06
X0020343Y0008743
X0018273Y0012329
Y0016471
X0020343Y0020057
X0023929Y0022127
X0028071
X0031657Y0020057
X0033727Y0016471
Y0012329
X0031657Y0008743
X0028071Y0006673
X0023929
X0026Y00144
X00392Y00812
X00304
T07
X00135Y00518
Y00566
X00325Y0064
X00371Y0064
T08
X005168Y000541
X000596
X005295Y008036
X000469Y008161
M30
