G04*
G04 #@! TF.GenerationSoftware,Altium Limited,Altium Designer,26.4.1 (12)*
G04*
G04 Layer_Color=65535*
%FSLAX44Y44*%
%MOMM*%
G71*
G04*
G04 #@! TF.SameCoordinates,B61F4D15-3026-40D7-BC73-F169385026C6*
G04*
G04*
G04 #@! TF.FilePolarity,Positive*
G04*
G01*
G75*
%ADD10C,0.2540*%
%ADD11C,0.2500*%
%ADD12C,0.2000*%
%ADD13C,0.6000*%
%ADD14C,0.1524*%
%ADD15C,0.1270*%
%ADD16C,0.0762*%
G36*
X191108Y849833D02*
X191197D01*
Y849745D01*
X191285D01*
Y849657D01*
X191197D01*
Y829340D01*
X191285D01*
Y829252D01*
X191197D01*
Y829075D01*
X170527D01*
Y829163D01*
X170438D01*
Y834463D01*
Y834552D01*
Y849833D01*
X170615D01*
Y849922D01*
X170703D01*
Y849833D01*
X191020D01*
Y849922D01*
X191108D01*
Y849833D01*
D02*
G37*
G36*
X167347D02*
X167523D01*
Y847007D01*
X167435D01*
Y846918D01*
X158602D01*
Y844003D01*
X158513D01*
Y843915D01*
X155598D01*
Y849833D01*
X155775D01*
Y849922D01*
X155863D01*
Y849833D01*
X167258D01*
Y849922D01*
X167347D01*
Y849833D01*
D02*
G37*
G36*
X113905D02*
X114082D01*
Y829163D01*
X113993D01*
Y829075D01*
X93323D01*
Y829252D01*
X93235D01*
Y829340D01*
X93323D01*
Y849657D01*
X93235D01*
Y849745D01*
X93323D01*
Y849833D01*
X93412D01*
Y849922D01*
X93500D01*
Y849833D01*
X113817D01*
Y849922D01*
X113905D01*
Y849833D01*
D02*
G37*
G36*
X152507D02*
X152683D01*
Y843915D01*
X155598D01*
Y841000D01*
X161517D01*
Y843827D01*
X161605D01*
Y843915D01*
X164520D01*
Y841000D01*
X167435D01*
Y840912D01*
X167523D01*
Y838085D01*
X167435D01*
Y837997D01*
X149680D01*
Y843915D01*
X137843D01*
Y829163D01*
X137755D01*
Y829075D01*
X134840D01*
Y837997D01*
X128922D01*
Y832078D01*
X131837D01*
Y831902D01*
X131925D01*
Y831813D01*
X131837D01*
Y829075D01*
X134840D01*
Y826160D01*
X131837D01*
Y829075D01*
X128922D01*
Y832078D01*
X125918D01*
Y834993D01*
X120000D01*
Y826160D01*
X125830D01*
Y826072D01*
X125918D01*
Y823245D01*
X126007D01*
Y823157D01*
X128833D01*
Y823245D01*
X128922D01*
Y826072D01*
X129010D01*
Y826160D01*
X131837D01*
Y817238D01*
X128922D01*
Y820153D01*
X125918D01*
Y817238D01*
X128922D01*
Y814235D01*
X134840D01*
Y811320D01*
X131925D01*
Y811232D01*
X131837D01*
Y806992D01*
Y806903D01*
Y805402D01*
X131925D01*
Y805313D01*
X134840D01*
Y799483D01*
X134928D01*
Y799395D01*
X137755D01*
Y799307D01*
X137843D01*
Y796480D01*
X140670D01*
Y796392D01*
X140758D01*
Y793565D01*
X140847D01*
Y793477D01*
X146677D01*
Y790562D01*
X146765D01*
Y790473D01*
X149592D01*
Y790562D01*
X149680D01*
Y793477D01*
X155598D01*
Y794890D01*
Y794978D01*
Y799395D01*
X161517D01*
Y796480D01*
X164520D01*
Y799395D01*
X161517D01*
Y805313D01*
X155598D01*
Y802398D01*
X152683D01*
Y796480D01*
X152507D01*
Y796392D01*
X152418D01*
Y796480D01*
X143762D01*
Y799395D01*
X149592D01*
Y799483D01*
X149680D01*
Y802310D01*
X149592D01*
Y802398D01*
X146765D01*
Y802487D01*
X146677D01*
Y805313D01*
X143762D01*
Y802398D01*
X137843D01*
Y805313D01*
X134840D01*
Y808317D01*
X137755D01*
Y808228D01*
X137843D01*
Y807963D01*
Y807875D01*
Y805313D01*
X140670D01*
Y805402D01*
X140758D01*
Y811232D01*
X140670D01*
Y811320D01*
X138020D01*
Y811232D01*
X137932D01*
Y811320D01*
X137843D01*
Y811408D01*
X137755D01*
Y811497D01*
X137843D01*
Y817150D01*
X137755D01*
Y817238D01*
X134840D01*
Y820153D01*
X137755D01*
Y820242D01*
X137843D01*
Y823157D01*
X140758D01*
Y820242D01*
X140847D01*
Y820153D01*
X143762D01*
Y817238D01*
X146677D01*
Y814323D01*
X146765D01*
Y814235D01*
X149680D01*
Y811320D01*
X152683D01*
Y808317D01*
X161517D01*
Y811320D01*
X158602D01*
Y814235D01*
X161517D01*
Y811320D01*
X164520D01*
Y805402D01*
X164608D01*
Y805313D01*
X167523D01*
Y802398D01*
X170438D01*
Y796480D01*
X173353D01*
Y796392D01*
X173442D01*
Y793565D01*
X173353D01*
Y793477D01*
X170527D01*
Y793388D01*
X170438D01*
Y790473D01*
X176357D01*
Y784643D01*
X176445D01*
Y784555D01*
X185278D01*
Y787558D01*
X179360D01*
Y787647D01*
Y787735D01*
Y790473D01*
X176357D01*
Y793388D01*
X176445D01*
Y793477D01*
X182275D01*
Y793388D01*
X182363D01*
Y790562D01*
X182452D01*
Y790473D01*
X185278D01*
Y787558D01*
X188193D01*
Y787470D01*
X188282D01*
Y784555D01*
X191197D01*
Y781817D01*
X191285D01*
Y781728D01*
X191197D01*
Y781640D01*
X191108D01*
Y781552D01*
X191020D01*
Y781640D01*
X182452D01*
Y781552D01*
X182363D01*
Y772718D01*
X185278D01*
Y766800D01*
X188282D01*
Y763797D01*
X191197D01*
Y761058D01*
X191285D01*
Y760970D01*
X191197D01*
Y760793D01*
X188282D01*
Y757878D01*
X191197D01*
Y757702D01*
X191285D01*
Y757613D01*
X191197D01*
Y755140D01*
X191285D01*
Y755052D01*
X191197D01*
Y754875D01*
X188282D01*
Y757878D01*
X185278D01*
Y760793D01*
X182363D01*
Y757967D01*
X182275D01*
Y757878D01*
X179360D01*
Y760793D01*
X176445D01*
Y760705D01*
X176357D01*
Y757967D01*
X176445D01*
Y757878D01*
X179360D01*
Y756023D01*
Y755935D01*
Y754963D01*
X179448D01*
Y754875D01*
X182275D01*
Y754787D01*
X182363D01*
Y751960D01*
X182187D01*
Y751872D01*
X182098D01*
Y751960D01*
X173442D01*
Y757790D01*
X173353D01*
Y757878D01*
X167523D01*
Y754875D01*
X170438D01*
Y751960D01*
X164520D01*
Y754875D01*
X158602D01*
Y757878D01*
X161517D01*
Y760793D01*
X152683D01*
Y757878D01*
X155598D01*
Y754963D01*
X155687D01*
Y754875D01*
X158602D01*
Y751960D01*
X158425D01*
Y751872D01*
X158337D01*
Y751960D01*
X152860D01*
Y751872D01*
X152772D01*
Y751960D01*
X152683D01*
Y752048D01*
X152595D01*
Y752137D01*
X152683D01*
Y754787D01*
X152595D01*
Y754875D01*
X146677D01*
Y757878D01*
X143762D01*
Y763797D01*
X137843D01*
Y769627D01*
X137755D01*
Y769715D01*
X131925D01*
Y769803D01*
X131837D01*
Y772718D01*
X128922D01*
Y773955D01*
Y774043D01*
Y775633D01*
X125918D01*
Y772718D01*
X123003D01*
Y778637D01*
X116997D01*
Y781463D01*
Y781552D01*
X117085D01*
Y781640D01*
X123003D01*
Y778637D01*
X128922D01*
Y775633D01*
X131660D01*
Y775722D01*
X131748D01*
Y775633D01*
X131837D01*
Y775545D01*
X131925D01*
Y775457D01*
X131837D01*
Y772718D01*
X134840D01*
Y775633D01*
X137755D01*
Y775722D01*
X137843D01*
Y781640D01*
X134840D01*
Y782258D01*
Y782347D01*
Y784555D01*
X137843D01*
Y781640D01*
X140758D01*
Y778725D01*
X140847D01*
Y778637D01*
X143762D01*
Y772718D01*
X146677D01*
Y772542D01*
X146765D01*
Y772453D01*
X146677D01*
Y769803D01*
X146765D01*
Y769715D01*
X155598D01*
Y763885D01*
X155687D01*
Y763797D01*
X164520D01*
Y760882D01*
X164608D01*
Y760793D01*
X173353D01*
Y760882D01*
X173442D01*
Y763708D01*
X173353D01*
Y763797D01*
X164520D01*
Y769715D01*
X161605D01*
Y769803D01*
X161517D01*
Y772718D01*
X158602D01*
Y769803D01*
X158513D01*
Y769715D01*
X155598D01*
Y772718D01*
X149680D01*
Y775633D01*
X146765D01*
Y775722D01*
X146677D01*
Y778637D01*
X143762D01*
Y780315D01*
Y780403D01*
Y781640D01*
X140758D01*
Y783672D01*
Y783760D01*
Y784555D01*
X137843D01*
Y787293D01*
X137755D01*
Y787382D01*
X137843D01*
Y787558D01*
X140758D01*
Y784555D01*
X143762D01*
Y781640D01*
X146677D01*
Y781463D01*
X146765D01*
Y781375D01*
X146677D01*
Y778637D01*
X149680D01*
Y775633D01*
X164432D01*
Y775722D01*
X164520D01*
Y781552D01*
X164432D01*
Y781640D01*
X161782D01*
Y781552D01*
X161693D01*
Y781640D01*
X161517D01*
Y787558D01*
X158602D01*
Y784643D01*
X158513D01*
Y784555D01*
X155598D01*
Y787558D01*
X152683D01*
Y784555D01*
X155598D01*
Y784467D01*
Y784378D01*
Y781640D01*
X152860D01*
Y781552D01*
X152772D01*
Y781640D01*
X152683D01*
Y781728D01*
X152595D01*
Y781817D01*
X152683D01*
Y784555D01*
X146765D01*
Y784643D01*
X146677D01*
Y787558D01*
X143762D01*
Y790473D01*
X137843D01*
Y790650D01*
X137755D01*
Y790738D01*
X137843D01*
Y796480D01*
X134928D01*
Y796392D01*
X134840D01*
Y787558D01*
X131925D01*
Y787647D01*
X131837D01*
Y790473D01*
X128922D01*
Y793477D01*
X126007D01*
Y793565D01*
X125918D01*
Y796392D01*
X125830D01*
Y796480D01*
X123092D01*
Y796392D01*
X123003D01*
Y787558D01*
X125918D01*
Y790473D01*
X126095D01*
Y790562D01*
X126183D01*
Y790473D01*
X128922D01*
Y784555D01*
X131837D01*
Y781728D01*
X131925D01*
Y781640D01*
X134840D01*
Y778637D01*
X128922D01*
Y784555D01*
X125918D01*
Y781640D01*
X123003D01*
Y784467D01*
X122915D01*
Y784555D01*
X120088D01*
Y784643D01*
X120000D01*
Y796392D01*
X119912D01*
Y796480D01*
X117262D01*
Y796392D01*
X117173D01*
Y796480D01*
X116997D01*
Y799395D01*
X111078D01*
Y802310D01*
X111167D01*
Y802398D01*
X116997D01*
Y799395D01*
X125918D01*
Y802310D01*
X126007D01*
Y802398D01*
X128922D01*
Y793477D01*
X131837D01*
Y802398D01*
X128922D01*
Y805313D01*
X126007D01*
Y805402D01*
X125918D01*
Y808317D01*
X120000D01*
Y811232D01*
X120088D01*
Y811320D01*
X128922D01*
Y814235D01*
X126007D01*
Y814323D01*
X125918D01*
Y817238D01*
X120000D01*
Y818387D01*
Y818475D01*
Y820153D01*
X117085D01*
Y820242D01*
X116997D01*
Y823068D01*
X117085D01*
Y823157D01*
X120000D01*
Y820153D01*
X122915D01*
Y820242D01*
X123003D01*
Y823068D01*
X122915D01*
Y823157D01*
X120000D01*
Y826160D01*
X117262D01*
Y826072D01*
X117173D01*
Y826160D01*
X116997D01*
Y846830D01*
X117085D01*
Y846918D01*
X120000D01*
Y849833D01*
X128657D01*
Y849922D01*
X128745D01*
Y849833D01*
X128922D01*
Y846918D01*
X131837D01*
Y849833D01*
X132013D01*
Y849922D01*
X132102D01*
Y849833D01*
X137578D01*
Y849922D01*
X137667D01*
Y849833D01*
X137843D01*
Y846918D01*
X140758D01*
Y849833D01*
X140935D01*
Y849922D01*
X141023D01*
Y849833D01*
X146500D01*
Y849922D01*
X146588D01*
Y849833D01*
X146677D01*
Y849745D01*
X146765D01*
Y849657D01*
X146677D01*
Y847007D01*
X146765D01*
Y846918D01*
X149680D01*
Y849833D01*
X152418D01*
Y849922D01*
X152507D01*
Y849833D01*
D02*
G37*
G36*
X161517Y826337D02*
X161605D01*
Y826248D01*
X161517D01*
Y826160D01*
X161428D01*
Y826072D01*
X161340D01*
Y826160D01*
X155863D01*
Y826072D01*
X155775D01*
Y826160D01*
X155598D01*
Y829075D01*
X152683D01*
Y829252D01*
X152595D01*
Y829340D01*
X152683D01*
Y831813D01*
X152595D01*
Y831902D01*
X152683D01*
Y832078D01*
X155598D01*
Y829075D01*
X158513D01*
Y829163D01*
X158602D01*
Y832078D01*
X161517D01*
Y826337D01*
D02*
G37*
G36*
X146677Y840823D02*
X146765D01*
Y840735D01*
X146677D01*
Y834993D01*
X149680D01*
Y829163D01*
X149592D01*
Y829075D01*
X146765D01*
Y829163D01*
X146677D01*
Y834993D01*
X143762D01*
Y829163D01*
X143673D01*
Y829075D01*
X140847D01*
Y829163D01*
X140758D01*
Y836053D01*
Y836142D01*
Y840912D01*
X140847D01*
Y841000D01*
X146677D01*
Y840823D01*
D02*
G37*
G36*
X125918Y829075D02*
X123003D01*
Y829252D01*
X122915D01*
Y829340D01*
X123003D01*
Y830312D01*
Y830400D01*
Y831813D01*
X122915D01*
Y831902D01*
X123003D01*
Y832078D01*
X125918D01*
Y829075D01*
D02*
G37*
G36*
X161782Y834993D02*
X164520D01*
Y832078D01*
X167435D01*
Y831990D01*
X167523D01*
Y826160D01*
X188193D01*
Y826072D01*
X188282D01*
Y823157D01*
X191197D01*
Y820418D01*
X191285D01*
Y820330D01*
X191197D01*
Y820153D01*
X185278D01*
Y823157D01*
X179360D01*
Y820153D01*
X185278D01*
Y817238D01*
X188193D01*
Y817150D01*
X188282D01*
Y808405D01*
X188193D01*
Y808317D01*
X185367D01*
Y808405D01*
X185278D01*
Y813440D01*
Y813528D01*
Y814235D01*
X182363D01*
Y814412D01*
X182275D01*
Y814500D01*
X182363D01*
Y817150D01*
X182275D01*
Y817238D01*
X179360D01*
Y820153D01*
X173442D01*
Y814323D01*
X173353D01*
Y814235D01*
X170438D01*
Y811320D01*
X164520D01*
Y814235D01*
X167435D01*
Y814323D01*
X167523D01*
Y817150D01*
X167435D01*
Y817238D01*
X164520D01*
Y820153D01*
X161605D01*
Y820065D01*
X161517D01*
Y817238D01*
X158602D01*
Y820153D01*
X149680D01*
Y817238D01*
X146677D01*
Y820153D01*
X143762D01*
Y823068D01*
X143673D01*
Y823157D01*
X140758D01*
Y826072D01*
X140847D01*
Y826160D01*
X146677D01*
Y825983D01*
X146765D01*
Y825895D01*
X146677D01*
Y823245D01*
X146765D01*
Y823157D01*
X164520D01*
Y832078D01*
X161517D01*
Y834993D01*
X161693D01*
Y835082D01*
X161782D01*
Y834993D01*
D02*
G37*
G36*
X96150Y826072D02*
X96238D01*
Y823157D01*
X93323D01*
Y825277D01*
Y825365D01*
Y825895D01*
X93235D01*
Y825983D01*
X93323D01*
Y826160D01*
X96150D01*
Y826072D01*
D02*
G37*
G36*
X105160Y820153D02*
X108163D01*
Y811320D01*
X107987D01*
Y811232D01*
X107898D01*
Y811320D01*
X105160D01*
Y814235D01*
X99242D01*
Y817150D01*
X99153D01*
Y817238D01*
X93323D01*
Y819977D01*
X93235D01*
Y820065D01*
X93323D01*
Y820153D01*
X93412D01*
Y820242D01*
X93500D01*
Y820153D01*
X102157D01*
Y817327D01*
X102245D01*
Y817238D01*
X105160D01*
Y820153D01*
X102157D01*
Y823068D01*
X102245D01*
Y823157D01*
X105160D01*
Y820153D01*
D02*
G37*
G36*
X179360Y814323D02*
X179272D01*
Y814235D01*
X176445D01*
Y814323D01*
X176357D01*
Y817150D01*
X176445D01*
Y817238D01*
X179360D01*
Y814323D01*
D02*
G37*
G36*
X113993Y826072D02*
X114082D01*
Y824570D01*
Y824482D01*
Y823245D01*
X113993D01*
Y823157D01*
X111167D01*
Y823068D01*
X111078D01*
Y820153D01*
X113817D01*
Y820242D01*
X113905D01*
Y820153D01*
X114082D01*
Y817238D01*
X120000D01*
Y814323D01*
X119912D01*
Y814235D01*
X114082D01*
Y817238D01*
X111078D01*
Y820153D01*
X108163D01*
Y823068D01*
X108075D01*
Y823157D01*
X105160D01*
Y826072D01*
X105248D01*
Y826160D01*
X113993D01*
Y826072D01*
D02*
G37*
G36*
X155598Y811320D02*
X152683D01*
Y816973D01*
X152595D01*
Y817062D01*
X152683D01*
Y817238D01*
X155598D01*
Y811320D01*
D02*
G37*
G36*
X182275Y811232D02*
X182363D01*
Y805402D01*
X182452D01*
Y805313D01*
X185278D01*
Y802398D01*
X188282D01*
Y799483D01*
X188193D01*
Y799395D01*
X182363D01*
Y802310D01*
X182275D01*
Y802398D01*
X179360D01*
Y805313D01*
X176445D01*
Y805225D01*
X176357D01*
Y799395D01*
X182363D01*
Y796833D01*
Y796745D01*
Y796480D01*
X182187D01*
Y796392D01*
X182098D01*
Y796480D01*
X176622D01*
Y796392D01*
X176533D01*
Y796480D01*
X176357D01*
Y799395D01*
X173442D01*
Y802310D01*
X173353D01*
Y802398D01*
X170438D01*
Y805313D01*
X167523D01*
Y808317D01*
X173353D01*
Y808405D01*
X173442D01*
Y811232D01*
X173530D01*
Y811320D01*
X176357D01*
Y811143D01*
X176445D01*
Y811055D01*
X176357D01*
Y808405D01*
X176445D01*
Y808317D01*
X179360D01*
Y811232D01*
X179448D01*
Y811320D01*
X182275D01*
Y811232D01*
D02*
G37*
G36*
X99242Y811320D02*
X105160D01*
Y808317D01*
X96327D01*
Y808405D01*
X96238D01*
Y814235D01*
X99242D01*
Y811320D01*
D02*
G37*
G36*
X99065Y805313D02*
X99242D01*
Y802398D01*
X96238D01*
Y805313D01*
X96415D01*
Y805402D01*
X96503D01*
Y805313D01*
X98977D01*
Y805402D01*
X99065D01*
Y805313D01*
D02*
G37*
G36*
X191108D02*
X191197D01*
Y805225D01*
X191285D01*
Y805137D01*
X191197D01*
Y802398D01*
X188282D01*
Y805313D01*
X191020D01*
Y805402D01*
X191108D01*
Y805313D01*
D02*
G37*
G36*
X114082Y811320D02*
X116997D01*
Y811143D01*
X117085D01*
Y811055D01*
X116997D01*
Y808405D01*
X117085D01*
Y808317D01*
X120000D01*
Y804253D01*
Y804165D01*
Y802398D01*
X116997D01*
Y805313D01*
X108163D01*
Y808317D01*
X113993D01*
Y808405D01*
X114082D01*
Y811320D01*
X111343D01*
Y811232D01*
X111255D01*
Y811320D01*
X111078D01*
Y814235D01*
X114082D01*
Y811320D01*
D02*
G37*
G36*
X108163Y799395D02*
X111078D01*
Y796480D01*
X113993D01*
Y796392D01*
X114082D01*
Y793565D01*
X113993D01*
Y793477D01*
X111167D01*
Y793565D01*
X111078D01*
Y796480D01*
X108252D01*
Y796392D01*
X108163D01*
Y790562D01*
X108252D01*
Y790473D01*
X116820D01*
Y790562D01*
X116908D01*
Y790473D01*
X116997D01*
Y790385D01*
X117085D01*
Y790297D01*
X116997D01*
Y784820D01*
X117085D01*
Y784732D01*
X116997D01*
Y784555D01*
X114082D01*
Y787470D01*
X113993D01*
Y787558D01*
X108163D01*
Y778725D01*
X108075D01*
Y778637D01*
X105160D01*
Y781552D01*
X105072D01*
Y781640D01*
X102422D01*
Y781552D01*
X102333D01*
Y781640D01*
X102157D01*
Y784555D01*
X99242D01*
Y787470D01*
X99153D01*
Y787558D01*
X93323D01*
Y796215D01*
X93235D01*
Y796303D01*
X93323D01*
Y796480D01*
X96238D01*
Y797982D01*
Y798070D01*
Y799395D01*
X99242D01*
Y796480D01*
X105160D01*
Y805313D01*
X108163D01*
Y799395D01*
D02*
G37*
G36*
X191197Y796303D02*
X191285D01*
Y796215D01*
X191197D01*
Y793477D01*
X188282D01*
Y790562D01*
X188193D01*
Y790473D01*
X185278D01*
Y793918D01*
Y794007D01*
Y796392D01*
X185367D01*
Y796480D01*
X191197D01*
Y796303D01*
D02*
G37*
G36*
X114082Y781640D02*
X113905D01*
Y781552D01*
X113817D01*
Y781640D01*
X111343D01*
Y781552D01*
X111255D01*
Y781640D01*
X111078D01*
Y782258D01*
Y782347D01*
Y784555D01*
X114082D01*
Y781640D01*
D02*
G37*
G36*
X99242Y783407D02*
Y783318D01*
Y781640D01*
X99065D01*
Y781552D01*
X98977D01*
Y781640D01*
X96238D01*
Y784555D01*
X99242D01*
Y783407D01*
D02*
G37*
G36*
X96238Y778637D02*
X93323D01*
Y781375D01*
X93235D01*
Y781463D01*
X93323D01*
Y781640D01*
X96238D01*
Y778637D01*
D02*
G37*
G36*
X191197Y775898D02*
X191285D01*
Y775810D01*
X191197D01*
Y775633D01*
X188370D01*
Y775722D01*
X188282D01*
Y777753D01*
Y777842D01*
Y778637D01*
X191197D01*
Y775898D01*
D02*
G37*
G36*
X116997D02*
X117085D01*
Y775810D01*
X116997D01*
Y775633D01*
X111167D01*
Y775722D01*
X111078D01*
Y778548D01*
X111167D01*
Y778637D01*
X116997D01*
Y775898D01*
D02*
G37*
G36*
X105160Y775722D02*
X105072D01*
Y775633D01*
X102245D01*
Y775722D01*
X102157D01*
Y776517D01*
Y776605D01*
Y778548D01*
X102245D01*
Y778637D01*
X105160D01*
Y775722D01*
D02*
G37*
G36*
X191197Y772542D02*
X191285D01*
Y772453D01*
X191197D01*
Y769097D01*
Y769008D01*
Y766977D01*
X191285D01*
Y766888D01*
X191197D01*
Y766800D01*
X191108D01*
Y766712D01*
X191020D01*
Y766800D01*
X188282D01*
Y772718D01*
X191197D01*
Y772542D01*
D02*
G37*
G36*
X146677Y752137D02*
X146765D01*
Y752048D01*
X146677D01*
Y751960D01*
X146588D01*
Y751872D01*
X146500D01*
Y751960D01*
X141023D01*
Y751872D01*
X140935D01*
Y751960D01*
X140758D01*
Y754875D01*
X146677D01*
Y752137D01*
D02*
G37*
G36*
X123003Y770333D02*
Y770245D01*
Y766800D01*
X131837D01*
Y766623D01*
X131925D01*
Y766535D01*
X131837D01*
Y760793D01*
X134752D01*
Y760882D01*
X134840D01*
Y763797D01*
X137843D01*
Y760882D01*
X137932D01*
Y760793D01*
X140758D01*
Y760528D01*
Y760440D01*
Y757878D01*
X137843D01*
Y754963D01*
X137755D01*
Y754875D01*
X134840D01*
Y751960D01*
X132102D01*
Y751872D01*
X132013D01*
Y751960D01*
X131837D01*
Y760793D01*
X128922D01*
Y756377D01*
Y756288D01*
Y751960D01*
X128745D01*
Y751872D01*
X128657D01*
Y751960D01*
X126183D01*
Y751872D01*
X126095D01*
Y751960D01*
X125918D01*
Y757878D01*
X123003D01*
Y751960D01*
X122827D01*
Y751872D01*
X122738D01*
Y751960D01*
X117262D01*
Y751872D01*
X117173D01*
Y751960D01*
X116997D01*
Y754787D01*
X117085D01*
Y754875D01*
X119912D01*
Y754963D01*
X120000D01*
Y763797D01*
X117085D01*
Y763885D01*
X116997D01*
Y769627D01*
X117085D01*
Y769715D01*
X119912D01*
Y769803D01*
X120000D01*
Y772630D01*
X120088D01*
Y772718D01*
X123003D01*
Y770333D01*
D02*
G37*
G36*
X113993Y772630D02*
X114082D01*
Y751960D01*
X113905D01*
Y751872D01*
X113817D01*
Y751960D01*
X93500D01*
Y751872D01*
X93412D01*
Y751960D01*
X93323D01*
Y752048D01*
X93235D01*
Y752137D01*
X93323D01*
Y752402D01*
Y752490D01*
Y772453D01*
X93235D01*
Y772542D01*
X93323D01*
Y772718D01*
X113993D01*
Y772630D01*
D02*
G37*
G36*
X327121Y533066D02*
X323311D01*
Y535606D01*
X327121D01*
Y533066D01*
D02*
G37*
G36*
X277121D02*
X273311D01*
Y535606D01*
X277121D01*
Y533066D01*
D02*
G37*
G36*
X227121D02*
X223311D01*
Y535606D01*
X227121D01*
Y533066D01*
D02*
G37*
G36*
X374822Y479095D02*
X372282D01*
Y482905D01*
X374822D01*
Y479095D01*
D02*
G37*
G36*
X198150Y459095D02*
X195610D01*
Y462905D01*
X198150D01*
Y459095D01*
D02*
G37*
G36*
X374822Y429095D02*
X372282D01*
Y432905D01*
X374822D01*
Y429095D01*
D02*
G37*
G36*
X198150Y409095D02*
X195610D01*
Y412905D01*
X198150D01*
Y409095D01*
D02*
G37*
G36*
X347121Y356394D02*
X343311D01*
Y358934D01*
X347121D01*
Y356394D01*
D02*
G37*
G36*
X297121D02*
X293311D01*
Y358934D01*
X297121D01*
Y356394D01*
D02*
G37*
G36*
X247121D02*
X243311D01*
Y358934D01*
X247121D01*
Y356394D01*
D02*
G37*
G36*
X100617Y708969D02*
X96661Y699285D01*
X94888D01*
X90869Y708969D01*
Y709128D01*
X92958D01*
X95363Y702766D01*
X95395Y702735D01*
Y702640D01*
X95458Y702545D01*
X95490Y702418D01*
X95553Y702260D01*
X95616Y702038D01*
X95711Y701753D01*
X95838Y701310D01*
Y701342D01*
X95870Y701437D01*
X95933Y701595D01*
X95996Y701785D01*
X96059Y702007D01*
X96154Y702260D01*
X96313Y702766D01*
X98560Y709128D01*
X100617D01*
Y708969D01*
D02*
G37*
G36*
X116757Y714096D02*
X117106Y714065D01*
X117485Y714001D01*
X117928Y713938D01*
X118340Y713811D01*
X118751Y713653D01*
X118783Y713622D01*
X118910Y713558D01*
X119099Y713463D01*
X119353Y713305D01*
X119574Y713115D01*
X119859Y712894D01*
X120080Y712641D01*
X120302Y712356D01*
X120334Y712324D01*
X120397Y712229D01*
X120460Y712039D01*
X120587Y711849D01*
X120682Y711564D01*
X120745Y711248D01*
X120808Y710931D01*
X120840Y710552D01*
Y710488D01*
Y710362D01*
X120808Y710140D01*
X120745Y709855D01*
X120650Y709539D01*
X120524Y709191D01*
X120334Y708874D01*
X120080Y708526D01*
X120049Y708494D01*
X119954Y708400D01*
X119796Y708241D01*
X119543Y708052D01*
X119258Y707830D01*
X118910Y707608D01*
X118530Y707387D01*
X118055Y707197D01*
X118087D01*
X118118Y707165D01*
X118308Y707134D01*
X118561Y707007D01*
X118910Y706880D01*
X119289Y706691D01*
X119669Y706437D01*
X120017Y706153D01*
X120334Y705804D01*
X120365Y705773D01*
X120460Y705646D01*
X120587Y705425D01*
X120745Y705140D01*
X120872Y704823D01*
X120998Y704412D01*
X121093Y703937D01*
X121125Y703431D01*
Y703367D01*
Y703209D01*
X121093Y702956D01*
X121062Y702671D01*
X120967Y702291D01*
X120872Y701912D01*
X120714Y701500D01*
X120492Y701121D01*
X120460Y701089D01*
X120365Y700962D01*
X120239Y700772D01*
X120017Y700551D01*
X119764Y700298D01*
X119448Y700044D01*
X119068Y699791D01*
X118625Y699570D01*
X118561Y699538D01*
X118403Y699475D01*
X118150Y699380D01*
X117802Y699285D01*
X117359Y699190D01*
X116852Y699095D01*
X116251Y699032D01*
X115618Y699000D01*
X115207D01*
X114922Y699032D01*
X114574Y699063D01*
X114194Y699095D01*
X113403Y699253D01*
X113371D01*
X113213Y699285D01*
X113023Y699348D01*
X112770Y699443D01*
X112485Y699506D01*
X112200Y699633D01*
X111915Y699760D01*
X111630Y699886D01*
X112327Y701437D01*
X112358D01*
X112453Y701374D01*
X112580Y701342D01*
X112770Y701247D01*
X112991Y701184D01*
X113244Y701089D01*
X113846Y700931D01*
X113877D01*
X114004Y700899D01*
X114162Y700867D01*
X114416Y700836D01*
X114669Y700804D01*
X114953Y700772D01*
X115618Y700741D01*
X115871D01*
X116156Y700772D01*
X116504Y700836D01*
X116916Y700899D01*
X117327Y701025D01*
X117707Y701184D01*
X118055Y701405D01*
X118087Y701437D01*
X118182Y701532D01*
X118340Y701690D01*
X118498Y701880D01*
X118656Y702165D01*
X118815Y702481D01*
X118910Y702861D01*
X118941Y703304D01*
Y703336D01*
Y703462D01*
X118910Y703621D01*
Y703811D01*
X118783Y704317D01*
X118720Y704570D01*
X118593Y704792D01*
Y704823D01*
X118530Y704887D01*
X118435Y705013D01*
X118340Y705140D01*
X118182Y705298D01*
X117992Y705456D01*
X117739Y705614D01*
X117454Y705741D01*
X117422Y705773D01*
X117296Y705804D01*
X117106Y705868D01*
X116852Y705931D01*
X116536Y705994D01*
X116156Y706026D01*
X115681Y706089D01*
X114194D01*
X114320Y707703D01*
X115998D01*
X116030Y707735D01*
X116156Y707767D01*
X116346Y707830D01*
X116599Y707956D01*
X117137Y708178D01*
X117390Y708336D01*
X117644Y708463D01*
X117675Y708494D01*
X117739Y708526D01*
X117833Y708621D01*
X117992Y708716D01*
X118245Y709001D01*
X118403Y709159D01*
X118498Y709349D01*
Y709381D01*
X118530Y709444D01*
X118593Y709539D01*
X118625Y709697D01*
X118688Y709855D01*
X118720Y710077D01*
X118751Y710552D01*
Y710583D01*
Y710647D01*
Y710742D01*
X118720Y710868D01*
X118625Y711185D01*
X118467Y711501D01*
Y711533D01*
X118403Y711564D01*
X118245Y711754D01*
X117960Y711976D01*
X117580Y712197D01*
X117549D01*
X117485Y712229D01*
X117359Y712292D01*
X117169Y712324D01*
X116979Y712387D01*
X116726Y712419D01*
X116156Y712451D01*
X115998D01*
X115840Y712419D01*
X115618Y712387D01*
X115333Y712356D01*
X115048Y712292D01*
X114700Y712166D01*
X114352Y712039D01*
X114320Y712008D01*
X114194Y711976D01*
X114004Y711881D01*
X113783Y711786D01*
X113529Y711628D01*
X113244Y711438D01*
X112612Y711026D01*
X111567Y712261D01*
X111599Y712292D01*
X111757Y712419D01*
X111947Y712545D01*
X112232Y712767D01*
X112548Y712957D01*
X112928Y713210D01*
X113308Y713432D01*
X113751Y713622D01*
X113814Y713653D01*
X113972Y713717D01*
X114194Y713780D01*
X114510Y713875D01*
X114890Y713970D01*
X115302Y714065D01*
X115745Y714096D01*
X116219Y714128D01*
X116473D01*
X116757Y714096D01*
D02*
G37*
G36*
X74349Y713843D02*
X74760Y713811D01*
X75203Y713748D01*
X75678Y713622D01*
X76153Y713495D01*
X76627Y713305D01*
X76691Y713273D01*
X76817Y713210D01*
X77039Y713084D01*
X77292Y712925D01*
X77608Y712704D01*
X77893Y712451D01*
X78178Y712134D01*
X78431Y711786D01*
X78463Y711754D01*
X78526Y711628D01*
X78621Y711406D01*
X78748Y711153D01*
X78843Y710836D01*
X78938Y710457D01*
X79001Y710045D01*
X79033Y709571D01*
Y709539D01*
Y709381D01*
X79001Y709191D01*
X78969Y708938D01*
X78938Y708653D01*
X78874Y708305D01*
X78748Y707988D01*
X78621Y707640D01*
X78590Y707608D01*
X78558Y707482D01*
X78463Y707324D01*
X78336Y707134D01*
X78178Y706880D01*
X77957Y706627D01*
X77735Y706374D01*
X77450Y706121D01*
X77418Y706089D01*
X77323Y706026D01*
X77134Y705899D01*
X76912Y705773D01*
X76627Y705614D01*
X76279Y705456D01*
X75899Y705330D01*
X75488Y705203D01*
X79855Y699411D01*
Y699285D01*
X77450D01*
X73241Y704950D01*
X71057D01*
Y699285D01*
X69000D01*
Y713875D01*
X74032D01*
X74349Y713843D01*
D02*
G37*
G36*
X103149Y701880D02*
X103370Y701817D01*
X103623Y701690D01*
X103655D01*
X103687Y701658D01*
X103813Y701563D01*
X104003Y701405D01*
X104161Y701184D01*
X104193Y701121D01*
X104288Y700994D01*
X104351Y700772D01*
X104383Y700488D01*
Y700456D01*
Y700424D01*
X104351Y700234D01*
X104288Y700013D01*
X104161Y699760D01*
X104130Y699696D01*
X104035Y699570D01*
X103845Y699411D01*
X103623Y699253D01*
X103560Y699222D01*
X103434Y699158D01*
X103212Y699095D01*
X102927Y699063D01*
X102864D01*
X102706Y699095D01*
X102452Y699158D01*
X102199Y699253D01*
X102136Y699285D01*
X102009Y699380D01*
X101851Y699538D01*
X101693Y699760D01*
X101661Y699823D01*
X101598Y699981D01*
X101535Y700203D01*
X101503Y700488D01*
Y700519D01*
Y700551D01*
X101535Y700709D01*
X101598Y700931D01*
X101693Y701184D01*
X101725Y701247D01*
X101819Y701374D01*
X101978Y701532D01*
X102199Y701690D01*
X102231D01*
X102262Y701722D01*
X102421Y701817D01*
X102642Y701880D01*
X102927Y701912D01*
X102990D01*
X103149Y701880D01*
D02*
G37*
G36*
X86248Y709381D02*
X86533Y709349D01*
X86881Y709286D01*
X87261Y709191D01*
X87641Y709064D01*
X87989Y708874D01*
X88021Y708843D01*
X88147Y708779D01*
X88306Y708653D01*
X88527Y708494D01*
X88749Y708273D01*
X89002Y708020D01*
X89223Y707735D01*
X89413Y707419D01*
X89445Y707387D01*
X89476Y707260D01*
X89572Y707070D01*
X89666Y706817D01*
X89730Y706501D01*
X89825Y706153D01*
X89856Y705741D01*
X89888Y705298D01*
X89825Y703874D01*
X82957D01*
Y703842D01*
Y703811D01*
Y703716D01*
X82989Y703589D01*
X83020Y703304D01*
X83084Y702924D01*
X83179Y702513D01*
X83305Y702102D01*
X83527Y701722D01*
X83780Y701374D01*
X83812Y701342D01*
X83938Y701247D01*
X84096Y701121D01*
X84349Y700994D01*
X84634Y700867D01*
X84983Y700741D01*
X85394Y700646D01*
X85837Y700614D01*
X86153D01*
X86375Y700646D01*
X86881Y700709D01*
X87419Y700836D01*
X87451D01*
X87546Y700899D01*
X87673Y700931D01*
X87863Y701025D01*
X88052Y701121D01*
X88306Y701247D01*
X88875Y701563D01*
X89635Y700171D01*
X89603D01*
X89540Y700108D01*
X89445Y700076D01*
X89318Y699981D01*
X89128Y699886D01*
X88939Y699791D01*
X88464Y699601D01*
X87863Y699380D01*
X87198Y699190D01*
X86502Y699063D01*
X85742Y699000D01*
X85520D01*
X85394Y699032D01*
X85204D01*
X84983Y699063D01*
X84508Y699158D01*
X83970Y699285D01*
X83368Y699506D01*
X82799Y699791D01*
X82292Y700203D01*
X82229Y700266D01*
X82102Y700424D01*
X81881Y700709D01*
X81659Y701121D01*
X81438Y701658D01*
X81216Y702323D01*
X81153Y702703D01*
X81090Y703083D01*
X81026Y703526D01*
Y704000D01*
Y704032D01*
Y704064D01*
Y704254D01*
X81058Y704538D01*
X81090Y704887D01*
X81153Y705298D01*
X81248Y705773D01*
X81375Y706216D01*
X81564Y706691D01*
X81596Y706754D01*
X81659Y706880D01*
X81786Y707134D01*
X81976Y707387D01*
X82197Y707703D01*
X82451Y708052D01*
X82767Y708368D01*
X83147Y708653D01*
X83210Y708684D01*
X83337Y708779D01*
X83558Y708906D01*
X83875Y709033D01*
X84255Y709159D01*
X84698Y709286D01*
X85204Y709381D01*
X85774Y709412D01*
X85995D01*
X86248Y709381D01*
D02*
G37*
G36*
X15469Y740274D02*
X15817D01*
X16229Y740211D01*
X16672Y740147D01*
X17115Y740084D01*
X17558Y739957D01*
X17621D01*
X17779Y739894D01*
X18001Y739799D01*
X18286Y739704D01*
X18634Y739578D01*
X19014Y739388D01*
X19836Y738976D01*
X18919Y737394D01*
X18887Y737426D01*
X18792Y737489D01*
X18634Y737552D01*
X18412Y737679D01*
X18159Y737805D01*
X17843Y737932D01*
X17178Y738185D01*
X17146D01*
X17020Y738248D01*
X16830Y738280D01*
X16577Y738343D01*
X16260Y738407D01*
X15912Y738438D01*
X15532Y738502D01*
X14868D01*
X14710Y738470D01*
X14488D01*
X14235Y738438D01*
X13697Y738312D01*
X13064Y738122D01*
X12462Y737869D01*
X11861Y737489D01*
X11608Y737236D01*
X11355Y736982D01*
Y736951D01*
X11291Y736919D01*
X11260Y736824D01*
X11165Y736698D01*
X11070Y736539D01*
X10975Y736349D01*
X10880Y736128D01*
X10785Y735906D01*
X10563Y735305D01*
X10374Y734577D01*
X10247Y733754D01*
X10184Y732805D01*
Y732773D01*
Y732678D01*
Y732552D01*
X10215Y732330D01*
Y732109D01*
X10247Y731824D01*
X10310Y731222D01*
X10469Y730495D01*
X10659Y729798D01*
X10912Y729102D01*
X11291Y728469D01*
Y728437D01*
X11355Y728406D01*
X11513Y728248D01*
X11798Y727994D01*
X12178Y727710D01*
X12684Y727425D01*
X13001Y727298D01*
X13349Y727203D01*
X13697Y727076D01*
X14108Y727013D01*
X14520Y726982D01*
X14994Y726950D01*
X15279D01*
X15564Y726982D01*
X15975Y727013D01*
X16450Y727076D01*
X16956Y727203D01*
X17526Y727330D01*
X18096Y727520D01*
Y731760D01*
X14361D01*
X14583Y733533D01*
X20185D01*
Y726412D01*
X20121Y726380D01*
X19963Y726317D01*
X19710Y726190D01*
X19362Y726064D01*
X18982Y725906D01*
X18571Y725747D01*
X17684Y725462D01*
X17621D01*
X17463Y725431D01*
X17241Y725368D01*
X16893Y725336D01*
X16513Y725273D01*
X16039Y725209D01*
X15501Y725178D01*
X14710D01*
X14520Y725209D01*
X14330D01*
X14076Y725241D01*
X13539Y725304D01*
X12905Y725399D01*
X12241Y725589D01*
X11576Y725811D01*
X10975Y726127D01*
X10943D01*
X10912Y726159D01*
X10722Y726317D01*
X10437Y726538D01*
X10121Y726823D01*
X9741Y727203D01*
X9361Y727678D01*
X9013Y728184D01*
X8696Y728785D01*
Y728817D01*
X8665Y728849D01*
X8633Y728944D01*
X8601Y729070D01*
X8538Y729229D01*
X8475Y729450D01*
X8348Y729893D01*
X8221Y730495D01*
X8095Y731159D01*
X8032Y731887D01*
X8000Y732710D01*
Y732742D01*
Y732837D01*
Y732963D01*
Y733153D01*
X8032Y733374D01*
X8063Y733628D01*
X8127Y734229D01*
X8221Y734894D01*
X8380Y735622D01*
X8601Y736349D01*
X8918Y737014D01*
Y737046D01*
X8949Y737077D01*
X9013Y737172D01*
X9108Y737299D01*
X9298Y737584D01*
X9582Y737963D01*
X9962Y738375D01*
X10374Y738786D01*
X10880Y739166D01*
X11450Y739514D01*
X11481D01*
X11513Y739546D01*
X11608Y739578D01*
X11734Y739641D01*
X12051Y739768D01*
X12494Y739926D01*
X13001Y740052D01*
X13602Y740179D01*
X14266Y740274D01*
X14963Y740305D01*
X15216D01*
X15469Y740274D01*
D02*
G37*
G36*
X76867D02*
X77215D01*
X77595Y740211D01*
X78038Y740147D01*
X78481Y740084D01*
X78924Y739957D01*
X78987D01*
X79146Y739894D01*
X79367Y739799D01*
X79684Y739704D01*
X80032Y739546D01*
X80443Y739356D01*
X80855Y739103D01*
X81298Y738850D01*
X80348Y737362D01*
X80317Y737394D01*
X80190Y737457D01*
X79969Y737584D01*
X79715Y737710D01*
X79430Y737869D01*
X79114Y738027D01*
X78766Y738153D01*
X78418Y738280D01*
X78386D01*
X78260Y738312D01*
X78070Y738375D01*
X77816Y738438D01*
X77500Y738470D01*
X77152Y738533D01*
X76772Y738565D01*
X76171D01*
X75949Y738533D01*
X75664Y738502D01*
X75348Y738438D01*
X75000Y738343D01*
X74683Y738217D01*
X74367Y738058D01*
X74335Y738027D01*
X74240Y737963D01*
X74113Y737837D01*
X73987Y737679D01*
X73829Y737457D01*
X73702Y737204D01*
X73607Y736888D01*
X73576Y736539D01*
Y736508D01*
Y736444D01*
Y736349D01*
X73607Y736223D01*
X73670Y735906D01*
X73829Y735590D01*
Y735558D01*
X73892Y735527D01*
X74050Y735337D01*
X74335Y735083D01*
X74525Y734957D01*
X74746Y734799D01*
X74778D01*
X74873Y734735D01*
X75000Y734672D01*
X75221Y734577D01*
X75474Y734451D01*
X75791Y734324D01*
X76139Y734197D01*
X76550Y734039D01*
X76930Y733913D01*
X76962D01*
X76993Y733881D01*
X77183Y733818D01*
X77437Y733723D01*
X77785Y733596D01*
X78165Y733438D01*
X78576Y733280D01*
X78956Y733121D01*
X79304Y732932D01*
X79335Y732900D01*
X79462Y732837D01*
X79620Y732742D01*
X79842Y732615D01*
X80095Y732425D01*
X80348Y732172D01*
X80633Y731919D01*
X80886Y731602D01*
X80918Y731571D01*
X80981Y731444D01*
X81108Y731254D01*
X81234Y731001D01*
X81329Y730684D01*
X81456Y730305D01*
X81519Y729862D01*
X81551Y729387D01*
Y729324D01*
Y729165D01*
X81519Y728912D01*
X81456Y728564D01*
X81393Y728216D01*
X81266Y727804D01*
X81108Y727425D01*
X80886Y727045D01*
X80855Y727013D01*
X80760Y726887D01*
X80601Y726728D01*
X80412Y726538D01*
X80127Y726317D01*
X79810Y726064D01*
X79430Y725842D01*
X79019Y725652D01*
X78956Y725621D01*
X78797Y725589D01*
X78544Y725494D01*
X78196Y725431D01*
X77785Y725336D01*
X77310Y725241D01*
X76740Y725209D01*
X76139Y725178D01*
X75886D01*
X75569Y725209D01*
X75190Y725241D01*
X74746Y725273D01*
X74240Y725368D01*
X73734Y725462D01*
X73227Y725589D01*
X73164Y725621D01*
X73006Y725684D01*
X72753Y725779D01*
X72436Y725906D01*
X72088Y726095D01*
X71708Y726285D01*
X71297Y726538D01*
X70917Y726823D01*
X71898Y728311D01*
X71930Y728279D01*
X72056Y728184D01*
X72246Y728058D01*
X72499Y727931D01*
X72784Y727741D01*
X73132Y727583D01*
X73512Y727425D01*
X73924Y727266D01*
X73987D01*
X74113Y727203D01*
X74335Y727171D01*
X74620Y727108D01*
X74936Y727045D01*
X75316Y726982D01*
X75696Y726950D01*
X76076Y726918D01*
X76329D01*
X76645Y726950D01*
X76993Y726982D01*
X77373Y727045D01*
X77785Y727171D01*
X78165Y727298D01*
X78513Y727488D01*
X78544Y727520D01*
X78639Y727615D01*
X78797Y727741D01*
X78956Y727931D01*
X79082Y728184D01*
X79241Y728501D01*
X79335Y728880D01*
X79367Y729292D01*
Y729324D01*
Y729418D01*
Y729545D01*
X79335Y729703D01*
X79241Y730083D01*
X79051Y730431D01*
Y730463D01*
X78987Y730495D01*
X78924Y730590D01*
X78829Y730716D01*
X78703Y730843D01*
X78513Y730969D01*
X78323Y731096D01*
X78070Y731254D01*
X78038Y731286D01*
X77943Y731317D01*
X77785Y731412D01*
X77563Y731507D01*
X77310Y731634D01*
X76962Y731760D01*
X76550Y731919D01*
X76107Y732077D01*
X75728Y732204D01*
X75664Y732235D01*
X75506Y732299D01*
X75221Y732393D01*
X74905Y732520D01*
X74525Y732678D01*
X74145Y732837D01*
X73765Y732995D01*
X73417Y733185D01*
X73386Y733216D01*
X73291Y733280D01*
X73132Y733374D01*
X72911Y733533D01*
X72689Y733691D01*
X72468Y733913D01*
X72246Y734166D01*
X72025Y734451D01*
X71993Y734482D01*
X71930Y734609D01*
X71866Y734767D01*
X71771Y734989D01*
X71645Y735273D01*
X71582Y735622D01*
X71518Y736001D01*
X71487Y736444D01*
Y736508D01*
Y736666D01*
X71518Y736888D01*
X71582Y737172D01*
X71645Y737521D01*
X71771Y737869D01*
X71930Y738217D01*
X72151Y738565D01*
X72183Y738596D01*
X72278Y738691D01*
X72436Y738850D01*
X72626Y739040D01*
X72911Y739261D01*
X73196Y739483D01*
X73576Y739673D01*
X73955Y739863D01*
X74019Y739894D01*
X74145Y739926D01*
X74398Y739989D01*
X74683Y740084D01*
X75063Y740179D01*
X75474Y740242D01*
X75918Y740274D01*
X76392Y740305D01*
X76614D01*
X76867Y740274D01*
D02*
G37*
G36*
X146525Y740052D02*
X146747Y739989D01*
X146968Y739863D01*
X147031Y739831D01*
X147158Y739736D01*
X147316Y739578D01*
X147474Y739356D01*
X147506Y739293D01*
X147601Y739166D01*
X147664Y738945D01*
X147696Y738691D01*
Y738660D01*
Y738628D01*
X147664Y738470D01*
X147601Y738248D01*
X147474Y737995D01*
X147443Y737963D01*
X147348Y737837D01*
X147190Y737679D01*
X146968Y737521D01*
X146905Y737489D01*
X146778Y737426D01*
X146557Y737362D01*
X146304Y737331D01*
X146240D01*
X146082Y737362D01*
X145860Y737426D01*
X145607Y737521D01*
X145576Y737552D01*
X145449Y737647D01*
X145291Y737805D01*
X145133Y737995D01*
X145101Y738058D01*
X145038Y738217D01*
X144974Y738438D01*
X144943Y738691D01*
Y738723D01*
Y738755D01*
X144974Y738913D01*
X145038Y739135D01*
X145133Y739356D01*
X145164Y739419D01*
X145259Y739546D01*
X145417Y739704D01*
X145607Y739863D01*
X145670Y739894D01*
X145829Y739989D01*
X146050Y740052D01*
X146304Y740084D01*
X146367D01*
X146525Y740052D01*
D02*
G37*
G36*
X35661D02*
X35882Y739989D01*
X36104Y739863D01*
X36167Y739831D01*
X36294Y739736D01*
X36452Y739578D01*
X36610Y739356D01*
X36642Y739293D01*
X36737Y739166D01*
X36800Y738945D01*
X36832Y738691D01*
Y738660D01*
Y738628D01*
X36800Y738470D01*
X36737Y738248D01*
X36610Y737995D01*
X36579Y737963D01*
X36484Y737837D01*
X36325Y737679D01*
X36104Y737521D01*
X36040Y737489D01*
X35914Y737426D01*
X35692Y737362D01*
X35439Y737331D01*
X35376D01*
X35218Y737362D01*
X34996Y737426D01*
X34743Y737521D01*
X34711Y737552D01*
X34585Y737647D01*
X34426Y737805D01*
X34268Y737995D01*
X34237Y738058D01*
X34173Y738217D01*
X34110Y738438D01*
X34078Y738691D01*
Y738723D01*
Y738755D01*
X34110Y738913D01*
X34173Y739135D01*
X34268Y739356D01*
X34300Y739419D01*
X34395Y739546D01*
X34553Y739704D01*
X34743Y739863D01*
X34806Y739894D01*
X34964Y739989D01*
X35186Y740052D01*
X35439Y740084D01*
X35503D01*
X35661Y740052D01*
D02*
G37*
G36*
X100002Y735558D02*
X100192Y735527D01*
X100413Y735495D01*
X100667Y735432D01*
X100951Y735337D01*
X101236Y735210D01*
X101521Y735020D01*
X101806Y734830D01*
X102059Y734577D01*
X102281Y734261D01*
X102471Y733913D01*
X102629Y733501D01*
X102724Y732995D01*
X102755Y732457D01*
Y725462D01*
X100793D01*
Y731729D01*
Y731760D01*
Y731855D01*
Y732014D01*
X100761Y732204D01*
X100730Y732615D01*
X100698Y732805D01*
X100635Y732995D01*
Y733026D01*
X100603Y733058D01*
X100508Y733248D01*
X100318Y733469D01*
X100065Y733659D01*
X100034D01*
X100002Y733691D01*
X99907Y733723D01*
X99780Y733786D01*
X99464Y733849D01*
X99021Y733881D01*
X98768D01*
X98578Y733849D01*
X98356D01*
X98103Y733818D01*
X97565Y733691D01*
X97533D01*
X97438Y733659D01*
X97280Y733628D01*
X97090Y733564D01*
X96647Y733406D01*
X96141Y733185D01*
Y725462D01*
X94210D01*
Y735305D01*
X96141Y735558D01*
Y734577D01*
X96173D01*
X96236Y734609D01*
X96331Y734672D01*
X96457Y734735D01*
X96615Y734799D01*
X96837Y734894D01*
X97280Y735083D01*
X97850Y735273D01*
X98451Y735432D01*
X99084Y735558D01*
X99717Y735590D01*
X99844D01*
X100002Y735558D01*
D02*
G37*
G36*
X175610D02*
X175863Y735527D01*
X175926D01*
X176085Y735495D01*
X176306Y735463D01*
X176559Y735400D01*
X176180Y733406D01*
X176148D01*
X176053Y733438D01*
X175895Y733501D01*
X175737Y733533D01*
X175262Y733628D01*
X174787Y733659D01*
X174534D01*
X174376Y733628D01*
X173933Y733533D01*
X173458Y733343D01*
X173426D01*
X173363Y733280D01*
X173236Y733185D01*
X173078Y733090D01*
X172920Y732900D01*
X172730Y732710D01*
X172508Y732457D01*
X172318Y732140D01*
Y725462D01*
X170388D01*
Y735337D01*
X172318Y735558D01*
Y734102D01*
X172350Y734134D01*
X172413Y734229D01*
X172540Y734356D01*
X172667Y734514D01*
X172857Y734704D01*
X173078Y734894D01*
X173331Y735052D01*
X173584Y735210D01*
X173616Y735242D01*
X173711Y735273D01*
X173869Y735337D01*
X174059Y735400D01*
X174312Y735463D01*
X174566Y735527D01*
X174850Y735590D01*
X175388D01*
X175610Y735558D01*
D02*
G37*
G36*
X63511D02*
X63765Y735527D01*
X63828D01*
X63986Y735495D01*
X64208Y735463D01*
X64461Y735400D01*
X64081Y733406D01*
X64049D01*
X63954Y733438D01*
X63796Y733501D01*
X63638Y733533D01*
X63163Y733628D01*
X62688Y733659D01*
X62435D01*
X62277Y733628D01*
X61834Y733533D01*
X61359Y733343D01*
X61328D01*
X61264Y733280D01*
X61138Y733185D01*
X60979Y733090D01*
X60821Y732900D01*
X60631Y732710D01*
X60410Y732457D01*
X60220Y732140D01*
Y725462D01*
X58289D01*
Y735337D01*
X60220Y735558D01*
Y734102D01*
X60251Y734134D01*
X60315Y734229D01*
X60441Y734356D01*
X60568Y734514D01*
X60758Y734704D01*
X60979Y734894D01*
X61233Y735052D01*
X61486Y735210D01*
X61518Y735242D01*
X61612Y735273D01*
X61771Y735337D01*
X61961Y735400D01*
X62214Y735463D01*
X62467Y735527D01*
X62752Y735590D01*
X63290D01*
X63511Y735558D01*
D02*
G37*
G36*
X139562D02*
X139847Y735527D01*
X140164Y735495D01*
X140860Y735337D01*
X140892D01*
X141018Y735305D01*
X141208Y735242D01*
X141461Y735147D01*
X141746Y735052D01*
X142063Y734925D01*
X142442Y734735D01*
X142790Y734546D01*
X141999Y733185D01*
X141968Y733216D01*
X141841Y733248D01*
X141651Y733343D01*
X141430Y733438D01*
X141177Y733564D01*
X140892Y733659D01*
X140354Y733849D01*
X140322D01*
X140227Y733881D01*
X140100Y733913D01*
X139942Y733944D01*
X139721Y733976D01*
X139467Y734007D01*
X138929Y734039D01*
X138803D01*
X138645Y734007D01*
X138455D01*
X138043Y733881D01*
X137822Y733818D01*
X137632Y733691D01*
X137600D01*
X137569Y733628D01*
X137410Y733469D01*
X137252Y733185D01*
X137220Y733026D01*
X137189Y732837D01*
Y732805D01*
Y732773D01*
X137252Y732583D01*
X137347Y732330D01*
X137442Y732204D01*
X137569Y732109D01*
X137600D01*
X137632Y732077D01*
X137727Y732014D01*
X137885Y731950D01*
X138043Y731887D01*
X138265Y731792D01*
X138550Y731697D01*
X138866Y731602D01*
X139562Y731412D01*
X139626D01*
X139784Y731349D01*
X140006Y731286D01*
X140322Y731191D01*
X140639Y731096D01*
X140987Y730969D01*
X141303Y730811D01*
X141620Y730653D01*
X141651Y730621D01*
X141746Y730590D01*
X141904Y730495D01*
X142063Y730368D01*
X142442Y730051D01*
X142601Y729862D01*
X142759Y729640D01*
X142790Y729608D01*
X142822Y729545D01*
X142886Y729418D01*
X142949Y729229D01*
X143012Y729039D01*
X143075Y728785D01*
X143139Y728501D01*
Y728216D01*
Y728184D01*
Y728058D01*
X143107Y727899D01*
X143075Y727678D01*
X143012Y727425D01*
X142949Y727140D01*
X142822Y726887D01*
X142664Y726602D01*
X142632Y726570D01*
X142569Y726507D01*
X142474Y726380D01*
X142316Y726222D01*
X142126Y726064D01*
X141873Y725874D01*
X141588Y725716D01*
X141271Y725557D01*
X141240D01*
X141113Y725494D01*
X140923Y725431D01*
X140670Y725368D01*
X140354Y725304D01*
X140006Y725241D01*
X139562Y725209D01*
X139119Y725178D01*
X138898D01*
X138645Y725209D01*
X138328D01*
X137948Y725241D01*
X137537Y725304D01*
X136714Y725494D01*
X136682Y725526D01*
X136524Y725557D01*
X136334Y725621D01*
X136081Y725747D01*
X135796Y725874D01*
X135448Y726032D01*
X135132Y726254D01*
X134783Y726475D01*
X135638Y727868D01*
X135670D01*
X135701Y727804D01*
X135796Y727773D01*
X135923Y727678D01*
X136239Y727488D01*
X136682Y727298D01*
X137189Y727076D01*
X137790Y726887D01*
X138391Y726760D01*
X139056Y726697D01*
X139214D01*
X139404Y726728D01*
X139626D01*
X140132Y726855D01*
X140385Y726918D01*
X140607Y727045D01*
X140639Y727076D01*
X140702Y727108D01*
X140765Y727203D01*
X140892Y727298D01*
X141050Y727615D01*
X141113Y727836D01*
X141145Y728058D01*
Y728089D01*
Y728152D01*
X141113Y728248D01*
X141081Y728374D01*
X141018Y728532D01*
X140923Y728659D01*
X140797Y728817D01*
X140639Y728975D01*
X140607Y729007D01*
X140543Y729039D01*
X140417Y729134D01*
X140259Y729229D01*
X140037Y729324D01*
X139721Y729450D01*
X139373Y729577D01*
X138961Y729703D01*
X138265Y729893D01*
X138233D01*
X138202Y729925D01*
X138012Y729957D01*
X137727Y730051D01*
X137379Y730178D01*
X136999Y730336D01*
X136619Y730526D01*
X136271Y730748D01*
X135955Y730969D01*
X135923Y731001D01*
X135828Y731096D01*
X135733Y731254D01*
X135606Y731444D01*
X135448Y731697D01*
X135353Y732014D01*
X135258Y732362D01*
X135227Y732742D01*
Y732773D01*
Y732868D01*
X135258Y733026D01*
X135290Y733248D01*
X135416Y733691D01*
X135511Y733944D01*
X135670Y734197D01*
X135701Y734229D01*
X135765Y734292D01*
X135859Y734419D01*
X136018Y734577D01*
X136208Y734735D01*
X136429Y734894D01*
X136682Y735052D01*
X136999Y735210D01*
X137030Y735242D01*
X137157Y735273D01*
X137315Y735337D01*
X137569Y735400D01*
X137853Y735463D01*
X138170Y735527D01*
X138550Y735590D01*
X139309D01*
X139562Y735558D01*
D02*
G37*
G36*
X92438Y735147D02*
X88672Y724766D01*
X88640Y724703D01*
X88577Y724545D01*
X88482Y724291D01*
X88355Y723975D01*
X88197Y723627D01*
X88007Y723279D01*
X87817Y722899D01*
X87596Y722582D01*
X87564Y722551D01*
X87501Y722456D01*
X87374Y722298D01*
X87248Y722139D01*
X87058Y721918D01*
X86836Y721728D01*
X86583Y721538D01*
X86330Y721380D01*
X86298D01*
X86203Y721317D01*
X86045Y721253D01*
X85855Y721190D01*
X85602Y721127D01*
X85317Y721063D01*
X85001Y721032D01*
X84652Y721000D01*
X84494D01*
X84304Y721032D01*
X84051D01*
X83766Y721095D01*
X83418Y721158D01*
X83070Y721221D01*
X82722Y721348D01*
X83228Y722836D01*
X83260D01*
X83323Y722804D01*
X83450Y722772D01*
X83640Y722741D01*
X84019Y722677D01*
X84494Y722646D01*
X84684D01*
X84811Y722677D01*
X85096Y722709D01*
X85380Y722804D01*
X85412D01*
X85444Y722836D01*
X85602Y722931D01*
X85823Y723120D01*
X86077Y723405D01*
X86108Y723437D01*
X86140Y723500D01*
X86203Y723595D01*
X86298Y723753D01*
X86393Y723943D01*
X86520Y724165D01*
X86646Y724450D01*
X86773Y724766D01*
X87058Y725462D01*
X86520D01*
X82753Y735147D01*
Y735305D01*
X84811D01*
X87121Y729007D01*
X87374Y728311D01*
X87722Y727266D01*
X88292Y729007D01*
X90444Y735305D01*
X92438D01*
Y735147D01*
D02*
G37*
G36*
X31388Y725462D02*
X29648D01*
X29521Y726190D01*
X29489D01*
X29458Y726159D01*
X29363Y726095D01*
X29236Y726032D01*
X28888Y725874D01*
X28445Y725684D01*
X27907Y725494D01*
X27306Y725336D01*
X26673Y725209D01*
X26008Y725178D01*
X25786D01*
X25533Y725209D01*
X25217Y725273D01*
X24837Y725368D01*
X24489Y725494D01*
X24109Y725684D01*
X23761Y725937D01*
X23729Y725969D01*
X23634Y726095D01*
X23476Y726285D01*
X23349Y726538D01*
X23191Y726855D01*
X23033Y727266D01*
X22938Y727741D01*
X22906Y728311D01*
Y735305D01*
X24837Y735558D01*
Y728849D01*
Y728817D01*
Y728722D01*
Y728596D01*
X24869Y728437D01*
X24900Y728058D01*
X24995Y727678D01*
Y727646D01*
X25027Y727615D01*
X25153Y727425D01*
X25343Y727235D01*
X25596Y727045D01*
X25628D01*
X25660Y727013D01*
X25755Y726982D01*
X25881Y726950D01*
X26071Y726918D01*
X26261Y726887D01*
X26483Y726855D01*
X26926D01*
X27147Y726887D01*
X27464Y726950D01*
X27875Y727045D01*
X28318Y727203D01*
X28856Y727393D01*
X29426Y727678D01*
Y735305D01*
X31388Y735558D01*
Y725462D01*
D02*
G37*
G36*
X157665Y734419D02*
X152222Y727108D01*
X157697D01*
Y725462D01*
X149468D01*
Y726317D01*
X154944Y733628D01*
X149848D01*
X150070Y735305D01*
X157665D01*
Y734419D01*
D02*
G37*
G36*
X147316Y725462D02*
X145386D01*
Y735305D01*
X147316Y735558D01*
Y725462D01*
D02*
G37*
G36*
X115858Y734609D02*
X115889D01*
X115953Y734641D01*
X116048Y734704D01*
X116174Y734767D01*
X116522Y734925D01*
X116997Y735115D01*
X117535Y735273D01*
X118136Y735432D01*
X118769Y735558D01*
X119402Y735590D01*
X119624D01*
X119877Y735558D01*
X120194Y735495D01*
X120542Y735400D01*
X120921Y735273D01*
X121301Y735115D01*
X121618Y734862D01*
X121649Y734830D01*
X121744Y734735D01*
X121871Y734546D01*
X122029Y734292D01*
X122187Y733976D01*
X122314Y733564D01*
X122409Y733090D01*
X122441Y732520D01*
Y725462D01*
X120478D01*
Y731729D01*
Y731760D01*
Y731855D01*
Y732014D01*
X120447Y732204D01*
X120415Y732615D01*
X120384Y732805D01*
X120320Y732995D01*
Y733026D01*
X120288Y733058D01*
X120194Y733248D01*
X120004Y733469D01*
X119750Y733659D01*
X119719D01*
X119687Y733691D01*
X119592Y733723D01*
X119466Y733786D01*
X119307Y733818D01*
X119149Y733849D01*
X118674Y733881D01*
X118421D01*
X118263Y733849D01*
X118041D01*
X117788Y733818D01*
X117250Y733691D01*
X117219D01*
X117124Y733659D01*
X116966Y733628D01*
X116807Y733564D01*
X116333Y733438D01*
X115858Y733216D01*
Y725462D01*
X113927D01*
Y740907D01*
X115858Y741160D01*
Y734609D01*
D02*
G37*
G36*
X52371Y735558D02*
X52751Y735495D01*
X53162Y735400D01*
X53605Y735242D01*
X54017Y735052D01*
X54365Y734799D01*
X54397Y734767D01*
X54492Y734641D01*
X54650Y734451D01*
X54808Y734197D01*
X54966Y733849D01*
X55125Y733406D01*
X55219Y732900D01*
X55251Y732299D01*
Y725462D01*
X53479D01*
X53352Y726285D01*
X53320D01*
X53289Y726254D01*
X53194Y726190D01*
X53067Y726127D01*
X52751Y725937D01*
X52339Y725747D01*
X51801Y725526D01*
X51200Y725368D01*
X50504Y725241D01*
X49776Y725178D01*
X49618D01*
X49459Y725209D01*
X49269D01*
X49016Y725241D01*
X48763Y725304D01*
X48225Y725494D01*
X48193D01*
X48130Y725557D01*
X48004Y725621D01*
X47845Y725716D01*
X47497Y726001D01*
X47181Y726412D01*
Y726443D01*
X47117Y726507D01*
X47086Y726633D01*
X47023Y726823D01*
X46959Y727013D01*
X46896Y727235D01*
X46864Y727488D01*
X46833Y727773D01*
Y727836D01*
Y727994D01*
X46864Y728216D01*
X46927Y728501D01*
X47054Y728849D01*
X47181Y729197D01*
X47402Y729545D01*
X47687Y729862D01*
X47719Y729893D01*
X47845Y729988D01*
X48035Y730146D01*
X48320Y730336D01*
X48637Y730526D01*
X49048Y730716D01*
X49523Y730906D01*
X50029Y731064D01*
X50061D01*
X50092Y731096D01*
X50282Y731127D01*
X50599Y731191D01*
X51010Y731254D01*
X51485Y731349D01*
X52023Y731412D01*
X52656Y731476D01*
X53289Y731507D01*
Y731982D01*
Y732014D01*
Y732140D01*
X53257Y732330D01*
X53226Y732552D01*
X53131Y733026D01*
X53004Y733248D01*
X52877Y733438D01*
X52846Y733469D01*
X52814Y733501D01*
X52719Y733596D01*
X52561Y733691D01*
X52371Y733754D01*
X52150Y733849D01*
X51865Y733881D01*
X51517Y733913D01*
X51358D01*
X51232Y733881D01*
X50915Y733849D01*
X50472Y733754D01*
X49966Y733628D01*
X49396Y733406D01*
X48763Y733121D01*
X48099Y732742D01*
X47244Y734102D01*
X47276Y734134D01*
X47339Y734166D01*
X47466Y734229D01*
X47624Y734324D01*
X47814Y734451D01*
X48067Y734577D01*
X48320Y734704D01*
X48605Y734862D01*
X49301Y735115D01*
X50061Y735368D01*
X50884Y735527D01*
X51327Y735590D01*
X52055D01*
X52371Y735558D01*
D02*
G37*
G36*
X36452Y725462D02*
X34521D01*
Y735305D01*
X36452Y735558D01*
Y725462D01*
D02*
G37*
G36*
X164375Y735558D02*
X164660Y735527D01*
X165008Y735463D01*
X165387Y735368D01*
X165767Y735242D01*
X166115Y735052D01*
X166147Y735020D01*
X166274Y734957D01*
X166432Y734830D01*
X166653Y734672D01*
X166875Y734451D01*
X167128Y734197D01*
X167350Y733913D01*
X167540Y733596D01*
X167571Y733564D01*
X167603Y733438D01*
X167698Y733248D01*
X167793Y732995D01*
X167856Y732678D01*
X167951Y732330D01*
X167983Y731919D01*
X168014Y731476D01*
X167951Y730051D01*
X161083D01*
Y730020D01*
Y729988D01*
Y729893D01*
X161115Y729767D01*
X161147Y729482D01*
X161210Y729102D01*
X161305Y728691D01*
X161432Y728279D01*
X161653Y727899D01*
X161906Y727551D01*
X161938Y727520D01*
X162064Y727425D01*
X162223Y727298D01*
X162476Y727171D01*
X162761Y727045D01*
X163109Y726918D01*
X163520Y726823D01*
X163963Y726792D01*
X164280D01*
X164501Y726823D01*
X165008Y726887D01*
X165546Y727013D01*
X165577D01*
X165672Y727076D01*
X165799Y727108D01*
X165989Y727203D01*
X166179Y727298D01*
X166432Y727425D01*
X167002Y727741D01*
X167761Y726349D01*
X167729D01*
X167666Y726285D01*
X167571Y726254D01*
X167445Y726159D01*
X167255Y726064D01*
X167065Y725969D01*
X166590Y725779D01*
X165989Y725557D01*
X165324Y725368D01*
X164628Y725241D01*
X163868Y725178D01*
X163647D01*
X163520Y725209D01*
X163330D01*
X163109Y725241D01*
X162634Y725336D01*
X162096Y725462D01*
X161495Y725684D01*
X160925Y725969D01*
X160419Y726380D01*
X160355Y726443D01*
X160229Y726602D01*
X160007Y726887D01*
X159786Y727298D01*
X159564Y727836D01*
X159343Y728501D01*
X159279Y728880D01*
X159216Y729260D01*
X159153Y729703D01*
Y730178D01*
Y730210D01*
Y730241D01*
Y730431D01*
X159184Y730716D01*
X159216Y731064D01*
X159279Y731476D01*
X159374Y731950D01*
X159501Y732393D01*
X159691Y732868D01*
X159722Y732932D01*
X159786Y733058D01*
X159912Y733311D01*
X160102Y733564D01*
X160324Y733881D01*
X160577Y734229D01*
X160893Y734546D01*
X161273Y734830D01*
X161336Y734862D01*
X161463Y734957D01*
X161685Y735083D01*
X162001Y735210D01*
X162381Y735337D01*
X162824Y735463D01*
X163330Y735558D01*
X163900Y735590D01*
X164122D01*
X164375Y735558D01*
D02*
G37*
G36*
X129910D02*
X130195Y735527D01*
X130543Y735463D01*
X130922Y735368D01*
X131302Y735242D01*
X131650Y735052D01*
X131682Y735020D01*
X131809Y734957D01*
X131967Y734830D01*
X132188Y734672D01*
X132410Y734451D01*
X132663Y734197D01*
X132885Y733913D01*
X133075Y733596D01*
X133106Y733564D01*
X133138Y733438D01*
X133233Y733248D01*
X133328Y732995D01*
X133391Y732678D01*
X133486Y732330D01*
X133518Y731919D01*
X133549Y731476D01*
X133486Y730051D01*
X126618D01*
Y730020D01*
Y729988D01*
Y729893D01*
X126650Y729767D01*
X126681Y729482D01*
X126745Y729102D01*
X126840Y728691D01*
X126966Y728279D01*
X127188Y727899D01*
X127441Y727551D01*
X127473Y727520D01*
X127599Y727425D01*
X127758Y727298D01*
X128011Y727171D01*
X128296Y727045D01*
X128644Y726918D01*
X129055Y726823D01*
X129498Y726792D01*
X129815D01*
X130036Y726823D01*
X130543Y726887D01*
X131081Y727013D01*
X131112D01*
X131207Y727076D01*
X131334Y727108D01*
X131524Y727203D01*
X131714Y727298D01*
X131967Y727425D01*
X132536Y727741D01*
X133296Y726349D01*
X133264D01*
X133201Y726285D01*
X133106Y726254D01*
X132979Y726159D01*
X132790Y726064D01*
X132600Y725969D01*
X132125Y725779D01*
X131524Y725557D01*
X130859Y725368D01*
X130163Y725241D01*
X129403Y725178D01*
X129182D01*
X129055Y725209D01*
X128865D01*
X128644Y725241D01*
X128169Y725336D01*
X127631Y725462D01*
X127030Y725684D01*
X126460Y725969D01*
X125954Y726380D01*
X125890Y726443D01*
X125764Y726602D01*
X125542Y726887D01*
X125321Y727298D01*
X125099Y727836D01*
X124878Y728501D01*
X124814Y728880D01*
X124751Y729260D01*
X124688Y729703D01*
Y730178D01*
Y730210D01*
Y730241D01*
Y730431D01*
X124719Y730716D01*
X124751Y731064D01*
X124814Y731476D01*
X124909Y731950D01*
X125036Y732393D01*
X125226Y732868D01*
X125257Y732932D01*
X125321Y733058D01*
X125447Y733311D01*
X125637Y733564D01*
X125859Y733881D01*
X126112Y734229D01*
X126428Y734546D01*
X126808Y734830D01*
X126871Y734862D01*
X126998Y734957D01*
X127219Y735083D01*
X127536Y735210D01*
X127916Y735337D01*
X128359Y735463D01*
X128865Y735558D01*
X129435Y735590D01*
X129656D01*
X129910Y735558D01*
D02*
G37*
G36*
X108452Y735305D02*
X111743D01*
X111554Y733754D01*
X108452D01*
Y728659D01*
Y728627D01*
Y728564D01*
Y728501D01*
X108484Y728374D01*
X108515Y728058D01*
X108642Y727741D01*
X108800Y727393D01*
X109053Y727076D01*
X109212Y726950D01*
X109402Y726887D01*
X109591Y726823D01*
X109845Y726792D01*
X110098D01*
X110319Y726823D01*
X110604Y726855D01*
X110636D01*
X110667Y726887D01*
X110857Y726918D01*
X111110Y727045D01*
X111459Y727171D01*
X111997Y725779D01*
X111933Y725747D01*
X111807Y725684D01*
X111554Y725589D01*
X111237Y725494D01*
X110889Y725368D01*
X110478Y725273D01*
X110003Y725209D01*
X109528Y725178D01*
X109306D01*
X109053Y725209D01*
X108737Y725273D01*
X108389Y725368D01*
X108009Y725526D01*
X107661Y725716D01*
X107313Y725969D01*
X107281Y726001D01*
X107186Y726127D01*
X107059Y726317D01*
X106933Y726570D01*
X106775Y726887D01*
X106648Y727298D01*
X106553Y727773D01*
X106522Y728342D01*
Y733754D01*
X104528D01*
Y735305D01*
X106522D01*
Y737521D01*
X108452Y737837D01*
Y735305D01*
D02*
G37*
G36*
X42275D02*
X45567D01*
X45377Y733754D01*
X42275D01*
Y728659D01*
Y728627D01*
Y728564D01*
Y728501D01*
X42307Y728374D01*
X42339Y728058D01*
X42465Y727741D01*
X42623Y727393D01*
X42877Y727076D01*
X43035Y726950D01*
X43225Y726887D01*
X43415Y726823D01*
X43668Y726792D01*
X43921D01*
X44142Y726823D01*
X44427Y726855D01*
X44459D01*
X44491Y726887D01*
X44681Y726918D01*
X44934Y727045D01*
X45282Y727171D01*
X45820Y725779D01*
X45757Y725747D01*
X45630Y725684D01*
X45377Y725589D01*
X45060Y725494D01*
X44712Y725368D01*
X44301Y725273D01*
X43826Y725209D01*
X43351Y725178D01*
X43130D01*
X42877Y725209D01*
X42560Y725273D01*
X42212Y725368D01*
X41832Y725526D01*
X41484Y725716D01*
X41136Y725969D01*
X41104Y726001D01*
X41009Y726127D01*
X40883Y726317D01*
X40756Y726570D01*
X40598Y726887D01*
X40471Y727298D01*
X40376Y727773D01*
X40345Y728342D01*
Y733754D01*
X38351D01*
Y735305D01*
X40345D01*
Y737521D01*
X42275Y737837D01*
Y735305D01*
D02*
G37*
G36*
X83591Y680922D02*
X83866D01*
X84166Y680872D01*
X84491Y680822D01*
X84841Y680772D01*
X85190Y680672D01*
X85240D01*
X85340Y680622D01*
X85515Y680547D01*
X85765Y680472D01*
X86015Y680372D01*
X86315Y680222D01*
X86940Y679897D01*
X86240Y678648D01*
X86215D01*
X86190Y678698D01*
X86090Y678723D01*
X85990Y678798D01*
X85865Y678848D01*
X85715Y678923D01*
X85340Y679097D01*
X84891Y679247D01*
X84391Y679397D01*
X83841Y679497D01*
X83266Y679522D01*
X83091D01*
X82966Y679497D01*
X82816D01*
X82641Y679447D01*
X82241Y679372D01*
X81791Y679222D01*
X81341Y678997D01*
X81117Y678873D01*
X80917Y678698D01*
X80717Y678523D01*
X80542Y678298D01*
Y678273D01*
X80517Y678248D01*
X80467Y678173D01*
X80417Y678073D01*
X80342Y677948D01*
X80267Y677798D01*
X80192Y677648D01*
X80117Y677448D01*
X79942Y676973D01*
X79817Y676423D01*
X79717Y675748D01*
X79667Y675023D01*
Y674998D01*
Y674923D01*
Y674824D01*
X79692Y674674D01*
Y674499D01*
X79717Y674274D01*
X79792Y673799D01*
X79892Y673249D01*
X80067Y672674D01*
X80292Y672124D01*
X80592Y671624D01*
Y671599D01*
X80642Y671574D01*
X80767Y671424D01*
X80992Y671249D01*
X81292Y671024D01*
X81666Y670799D01*
X82141Y670600D01*
X82691Y670450D01*
X82991Y670425D01*
X83316Y670400D01*
X83466D01*
X83641Y670425D01*
X83866D01*
X84116Y670450D01*
X84391Y670500D01*
X84941Y670625D01*
X84965D01*
X85065Y670675D01*
X85216Y670725D01*
X85390Y670799D01*
X85615Y670900D01*
X85865Y671024D01*
X86390Y671299D01*
X87065Y670100D01*
X87015Y670075D01*
X86915Y670000D01*
X86715Y669900D01*
X86490Y669800D01*
X86190Y669650D01*
X85890Y669525D01*
X85565Y669400D01*
X85216Y669275D01*
X85166D01*
X85065Y669225D01*
X84866Y669200D01*
X84641Y669150D01*
X84341Y669100D01*
X84016Y669050D01*
X83641Y669025D01*
X83241Y669000D01*
X82941D01*
X82791Y669025D01*
X82616Y669050D01*
X82216Y669100D01*
X81741Y669175D01*
X81242Y669300D01*
X80742Y669475D01*
X80267Y669725D01*
X80242D01*
X80217Y669750D01*
X80067Y669850D01*
X79867Y670025D01*
X79617Y670250D01*
X79317Y670550D01*
X79042Y670900D01*
X78767Y671299D01*
X78517Y671774D01*
Y671799D01*
X78492Y671824D01*
X78467Y671899D01*
X78417Y672024D01*
X78392Y672149D01*
X78342Y672299D01*
X78242Y672674D01*
X78117Y673149D01*
X78042Y673674D01*
X77967Y674274D01*
X77942Y674923D01*
Y674949D01*
Y675023D01*
Y675123D01*
Y675273D01*
X77967Y675448D01*
X77992Y675648D01*
X78042Y676148D01*
X78117Y676673D01*
X78242Y677248D01*
X78417Y677823D01*
X78667Y678348D01*
Y678373D01*
X78692Y678398D01*
X78742Y678473D01*
X78792Y678573D01*
X78967Y678798D01*
X79192Y679097D01*
X79467Y679422D01*
X79792Y679747D01*
X80167Y680047D01*
X80592Y680322D01*
X80617D01*
X80642Y680347D01*
X80717Y680372D01*
X80792Y680422D01*
X81041Y680522D01*
X81367Y680647D01*
X81766Y680747D01*
X82191Y680847D01*
X82666Y680922D01*
X83191Y680947D01*
X83366D01*
X83591Y680922D01*
D02*
G37*
G36*
X128329Y680747D02*
X128504Y680697D01*
X128679Y680597D01*
X128729Y680572D01*
X128829Y680497D01*
X128954Y680372D01*
X129079Y680197D01*
X129104Y680147D01*
X129179Y680047D01*
X129229Y679872D01*
X129254Y679672D01*
Y679647D01*
Y679622D01*
X129229Y679497D01*
X129179Y679322D01*
X129079Y679122D01*
X129054Y679097D01*
X128979Y678997D01*
X128854Y678873D01*
X128679Y678747D01*
X128629Y678723D01*
X128529Y678672D01*
X128354Y678623D01*
X128154Y678598D01*
X128104D01*
X127979Y678623D01*
X127805Y678672D01*
X127605Y678747D01*
X127580Y678773D01*
X127480Y678848D01*
X127355Y678972D01*
X127230Y679122D01*
X127205Y679172D01*
X127155Y679297D01*
X127105Y679472D01*
X127080Y679672D01*
Y679697D01*
Y679722D01*
X127105Y679847D01*
X127155Y680022D01*
X127230Y680197D01*
X127255Y680247D01*
X127330Y680347D01*
X127455Y680472D01*
X127605Y680597D01*
X127655Y680622D01*
X127780Y680697D01*
X127955Y680747D01*
X128154Y680772D01*
X128204D01*
X128329Y680747D01*
D02*
G37*
G36*
X98587D02*
X98762Y680697D01*
X98937Y680597D01*
X98987Y680572D01*
X99087Y680497D01*
X99212Y680372D01*
X99337Y680197D01*
X99362Y680147D01*
X99437Y680047D01*
X99487Y679872D01*
X99512Y679672D01*
Y679647D01*
Y679622D01*
X99487Y679497D01*
X99437Y679322D01*
X99337Y679122D01*
X99312Y679097D01*
X99237Y678997D01*
X99112Y678873D01*
X98937Y678747D01*
X98887Y678723D01*
X98787Y678672D01*
X98612Y678623D01*
X98412Y678598D01*
X98362D01*
X98237Y678623D01*
X98062Y678672D01*
X97862Y678747D01*
X97837Y678773D01*
X97737Y678848D01*
X97612Y678972D01*
X97487Y679122D01*
X97462Y679172D01*
X97412Y679297D01*
X97362Y679472D01*
X97337Y679672D01*
Y679697D01*
Y679722D01*
X97362Y679847D01*
X97412Y680022D01*
X97487Y680197D01*
X97512Y680247D01*
X97587Y680347D01*
X97712Y680472D01*
X97862Y680597D01*
X97912Y680622D01*
X98037Y680697D01*
X98212Y680747D01*
X98412Y680772D01*
X98462D01*
X98587Y680747D01*
D02*
G37*
G36*
X106285Y677198D02*
X106435Y677173D01*
X106610Y677148D01*
X106810Y677098D01*
X107035Y677023D01*
X107260Y676923D01*
X107485Y676773D01*
X107710Y676623D01*
X107910Y676423D01*
X108085Y676173D01*
X108235Y675898D01*
X108359Y675573D01*
X108434Y675173D01*
X108460Y674749D01*
Y669225D01*
X106910D01*
Y674174D01*
Y674199D01*
Y674274D01*
Y674399D01*
X106885Y674549D01*
X106860Y674874D01*
X106835Y675023D01*
X106785Y675173D01*
Y675198D01*
X106760Y675223D01*
X106685Y675373D01*
X106535Y675548D01*
X106335Y675698D01*
X106310D01*
X106285Y675723D01*
X106210Y675748D01*
X106110Y675798D01*
X105860Y675848D01*
X105510Y675873D01*
X105310D01*
X105160Y675848D01*
X104985D01*
X104785Y675823D01*
X104361Y675723D01*
X104336D01*
X104261Y675698D01*
X104136Y675673D01*
X103986Y675623D01*
X103636Y675498D01*
X103236Y675323D01*
Y669225D01*
X101711D01*
Y676998D01*
X103236Y677198D01*
Y676423D01*
X103261D01*
X103311Y676448D01*
X103386Y676498D01*
X103486Y676548D01*
X103611Y676598D01*
X103786Y676673D01*
X104136Y676823D01*
X104586Y676973D01*
X105060Y677098D01*
X105560Y677198D01*
X106060Y677223D01*
X106160D01*
X106285Y677198D01*
D02*
G37*
G36*
X114608D02*
X114908Y677148D01*
X115283Y677048D01*
X115708Y676923D01*
X116158Y676748D01*
X116632Y676523D01*
X116058Y675348D01*
X116033Y675373D01*
X115958Y675398D01*
X115833Y675448D01*
X115683Y675523D01*
X115333Y675673D01*
X114983Y675798D01*
X114958D01*
X114908Y675823D01*
X114808Y675848D01*
X114708Y675873D01*
X114383Y675898D01*
X114033Y675923D01*
X113858D01*
X113658Y675873D01*
X113433Y675823D01*
X113158Y675723D01*
X112883Y675598D01*
X112633Y675398D01*
X112383Y675123D01*
X112359Y675098D01*
X112283Y674974D01*
X112209Y674799D01*
X112109Y674549D01*
X111984Y674224D01*
X111909Y673849D01*
X111834Y673399D01*
X111809Y672899D01*
Y672874D01*
Y672849D01*
Y672774D01*
Y672674D01*
X111834Y672424D01*
X111884Y672124D01*
X111959Y671799D01*
X112059Y671474D01*
X112209Y671174D01*
X112409Y670900D01*
X112434Y670874D01*
X112508Y670799D01*
X112658Y670700D01*
X112833Y670600D01*
X113058Y670500D01*
X113358Y670400D01*
X113658Y670325D01*
X114033Y670300D01*
X114258D01*
X114383Y670325D01*
X114733Y670375D01*
X115108Y670475D01*
X115133D01*
X115208Y670525D01*
X115308Y670550D01*
X115433Y670625D01*
X115583Y670700D01*
X115783Y670799D01*
X116182Y671024D01*
X116807Y669925D01*
X116782Y669900D01*
X116682Y669850D01*
X116558Y669775D01*
X116383Y669675D01*
X116182Y669575D01*
X115933Y669450D01*
X115433Y669250D01*
X115408D01*
X115308Y669200D01*
X115158Y669175D01*
X114983Y669125D01*
X114758Y669075D01*
X114483Y669050D01*
X114183Y669000D01*
X113733D01*
X113608Y669025D01*
X113458D01*
X113308Y669050D01*
X112933Y669125D01*
X112484Y669225D01*
X112059Y669400D01*
X111609Y669625D01*
X111209Y669925D01*
X111159Y669975D01*
X111059Y670100D01*
X110909Y670325D01*
X110734Y670650D01*
X110534Y671049D01*
X110459Y671299D01*
X110384Y671574D01*
X110334Y671874D01*
X110284Y672174D01*
X110234Y672524D01*
Y672899D01*
Y672924D01*
Y672974D01*
Y673049D01*
Y673149D01*
X110259Y673424D01*
X110309Y673749D01*
X110359Y674149D01*
X110459Y674549D01*
X110609Y674974D01*
X110784Y675348D01*
X110809Y675398D01*
X110884Y675498D01*
X111009Y675673D01*
X111184Y675898D01*
X111409Y676123D01*
X111659Y676373D01*
X111934Y676573D01*
X112259Y676773D01*
X112309Y676798D01*
X112409Y676848D01*
X112608Y676923D01*
X112833Y676998D01*
X113108Y677073D01*
X113433Y677148D01*
X113783Y677198D01*
X114158Y677223D01*
X114358D01*
X114608Y677198D01*
D02*
G37*
G36*
X143151D02*
X143451Y677148D01*
X143776Y677073D01*
X144125Y676948D01*
X144450Y676798D01*
X144725Y676598D01*
X144750Y676573D01*
X144825Y676473D01*
X144950Y676323D01*
X145075Y676123D01*
X145200Y675848D01*
X145325Y675498D01*
X145400Y675098D01*
X145425Y674624D01*
Y669225D01*
X144025D01*
X143925Y669875D01*
X143900D01*
X143876Y669850D01*
X143800Y669800D01*
X143701Y669750D01*
X143451Y669600D01*
X143126Y669450D01*
X142701Y669275D01*
X142226Y669150D01*
X141676Y669050D01*
X141101Y669000D01*
X140976D01*
X140851Y669025D01*
X140701D01*
X140501Y669050D01*
X140301Y669100D01*
X139876Y669250D01*
X139852D01*
X139802Y669300D01*
X139701Y669350D01*
X139577Y669425D01*
X139302Y669650D01*
X139052Y669975D01*
Y670000D01*
X139002Y670050D01*
X138977Y670150D01*
X138927Y670300D01*
X138877Y670450D01*
X138827Y670625D01*
X138802Y670825D01*
X138777Y671049D01*
Y671099D01*
Y671224D01*
X138802Y671399D01*
X138852Y671624D01*
X138952Y671899D01*
X139052Y672174D01*
X139227Y672449D01*
X139452Y672699D01*
X139477Y672724D01*
X139577Y672799D01*
X139726Y672924D01*
X139951Y673074D01*
X140201Y673224D01*
X140526Y673374D01*
X140901Y673524D01*
X141301Y673649D01*
X141326D01*
X141351Y673674D01*
X141501Y673699D01*
X141751Y673749D01*
X142076Y673799D01*
X142451Y673874D01*
X142876Y673924D01*
X143376Y673974D01*
X143876Y673999D01*
Y674374D01*
Y674399D01*
Y674499D01*
X143850Y674649D01*
X143826Y674824D01*
X143750Y675198D01*
X143651Y675373D01*
X143551Y675523D01*
X143525Y675548D01*
X143501Y675573D01*
X143426Y675648D01*
X143301Y675723D01*
X143151Y675773D01*
X142976Y675848D01*
X142751Y675873D01*
X142476Y675898D01*
X142351D01*
X142251Y675873D01*
X142001Y675848D01*
X141651Y675773D01*
X141251Y675673D01*
X140801Y675498D01*
X140301Y675273D01*
X139776Y674974D01*
X139102Y676048D01*
X139127Y676073D01*
X139177Y676098D01*
X139277Y676148D01*
X139402Y676223D01*
X139552Y676323D01*
X139752Y676423D01*
X139951Y676523D01*
X140176Y676648D01*
X140726Y676848D01*
X141326Y677048D01*
X141976Y677173D01*
X142326Y677223D01*
X142901D01*
X143151Y677198D01*
D02*
G37*
G36*
X137002Y669225D02*
X135478D01*
Y681422D01*
X137002Y681622D01*
Y669225D01*
D02*
G37*
G36*
X132978D02*
X131454D01*
Y681422D01*
X132978Y681622D01*
Y669225D01*
D02*
G37*
G36*
X128954D02*
X127430D01*
Y676998D01*
X128954Y677198D01*
Y669225D01*
D02*
G37*
G36*
X119832Y676448D02*
X119857D01*
X119907Y676473D01*
X119982Y676523D01*
X120082Y676573D01*
X120357Y676698D01*
X120731Y676848D01*
X121156Y676973D01*
X121631Y677098D01*
X122131Y677198D01*
X122631Y677223D01*
X122806D01*
X123006Y677198D01*
X123256Y677148D01*
X123531Y677073D01*
X123831Y676973D01*
X124130Y676848D01*
X124380Y676648D01*
X124405Y676623D01*
X124480Y676548D01*
X124580Y676398D01*
X124705Y676198D01*
X124830Y675948D01*
X124930Y675623D01*
X125005Y675248D01*
X125030Y674799D01*
Y669225D01*
X123481D01*
Y674174D01*
Y674199D01*
Y674274D01*
Y674399D01*
X123456Y674549D01*
X123431Y674874D01*
X123406Y675023D01*
X123356Y675173D01*
Y675198D01*
X123331Y675223D01*
X123256Y675373D01*
X123106Y675548D01*
X122906Y675698D01*
X122881D01*
X122856Y675723D01*
X122781Y675748D01*
X122681Y675798D01*
X122556Y675823D01*
X122431Y675848D01*
X122056Y675873D01*
X121856D01*
X121731Y675848D01*
X121556D01*
X121356Y675823D01*
X120931Y675723D01*
X120906D01*
X120831Y675698D01*
X120706Y675673D01*
X120581Y675623D01*
X120206Y675523D01*
X119832Y675348D01*
Y669225D01*
X118307D01*
Y681422D01*
X119832Y681622D01*
Y676448D01*
D02*
G37*
G36*
X99212Y669225D02*
X97687D01*
Y676998D01*
X99212Y677198D01*
Y669225D01*
D02*
G37*
G36*
X90089Y676448D02*
X90114D01*
X90164Y676473D01*
X90239Y676523D01*
X90339Y676573D01*
X90614Y676698D01*
X90989Y676848D01*
X91414Y676973D01*
X91889Y677098D01*
X92389Y677198D01*
X92888Y677223D01*
X93063D01*
X93263Y677198D01*
X93513Y677148D01*
X93788Y677073D01*
X94088Y676973D01*
X94388Y676848D01*
X94638Y676648D01*
X94663Y676623D01*
X94738Y676548D01*
X94838Y676398D01*
X94963Y676198D01*
X95088Y675948D01*
X95188Y675623D01*
X95263Y675248D01*
X95288Y674799D01*
Y669225D01*
X93738D01*
Y674174D01*
Y674199D01*
Y674274D01*
Y674399D01*
X93713Y674549D01*
X93688Y674874D01*
X93663Y675023D01*
X93613Y675173D01*
Y675198D01*
X93588Y675223D01*
X93513Y675373D01*
X93363Y675548D01*
X93163Y675698D01*
X93138D01*
X93113Y675723D01*
X93039Y675748D01*
X92938Y675798D01*
X92814Y675823D01*
X92689Y675848D01*
X92314Y675873D01*
X92114D01*
X91989Y675848D01*
X91814D01*
X91614Y675823D01*
X91189Y675723D01*
X91164D01*
X91089Y675698D01*
X90964Y675673D01*
X90839Y675623D01*
X90464Y675523D01*
X90089Y675348D01*
Y669225D01*
X88565D01*
Y681422D01*
X90089Y681622D01*
Y676448D01*
D02*
G37*
G36*
X49625Y670625D02*
X55298D01*
Y669225D01*
X48000D01*
Y680747D01*
X49625D01*
Y670625D01*
D02*
G37*
G36*
X68970Y677198D02*
X69245Y677148D01*
X69570Y677098D01*
X69919Y676998D01*
X70269Y676848D01*
X70594Y676673D01*
X70644Y676648D01*
X70744Y676573D01*
X70894Y676448D01*
X71069Y676273D01*
X71269Y676073D01*
X71469Y675823D01*
X71669Y675523D01*
X71844Y675198D01*
X71869Y675148D01*
X71919Y675049D01*
X71969Y674848D01*
X72069Y674599D01*
X72144Y674274D01*
X72194Y673924D01*
X72244Y673524D01*
X72269Y673099D01*
Y673074D01*
Y673024D01*
Y672949D01*
Y672849D01*
X72244Y672599D01*
X72194Y672249D01*
X72144Y671874D01*
X72044Y671474D01*
X71894Y671099D01*
X71719Y670725D01*
X71694Y670675D01*
X71619Y670575D01*
X71494Y670425D01*
X71344Y670225D01*
X71144Y670000D01*
X70894Y669775D01*
X70594Y669575D01*
X70269Y669400D01*
X70219Y669375D01*
X70119Y669350D01*
X69919Y669275D01*
X69669Y669200D01*
X69370Y669125D01*
X69020Y669075D01*
X68645Y669025D01*
X68220Y669000D01*
X68020D01*
X67770Y669025D01*
X67495Y669075D01*
X67170Y669125D01*
X66820Y669225D01*
X66445Y669350D01*
X66120Y669525D01*
X66095Y669550D01*
X65995Y669625D01*
X65845Y669750D01*
X65670Y669925D01*
X65470Y670125D01*
X65246Y670375D01*
X65071Y670675D01*
X64896Y671000D01*
X64871Y671049D01*
X64846Y671174D01*
X64771Y671374D01*
X64696Y671624D01*
X64621Y671924D01*
X64571Y672299D01*
X64521Y672699D01*
X64496Y673124D01*
Y673149D01*
Y673199D01*
Y673274D01*
Y673374D01*
X64521Y673624D01*
X64571Y673949D01*
X64621Y674324D01*
X64721Y674698D01*
X64846Y675098D01*
X65021Y675448D01*
X65046Y675498D01*
X65121Y675598D01*
X65246Y675773D01*
X65396Y675973D01*
X65595Y676173D01*
X65845Y676398D01*
X66120Y676623D01*
X66445Y676798D01*
X66495Y676823D01*
X66620Y676873D01*
X66795Y676923D01*
X67045Y677023D01*
X67370Y677098D01*
X67720Y677148D01*
X68095Y677198D01*
X68520Y677223D01*
X68720D01*
X68970Y677198D01*
D02*
G37*
G36*
X60372D02*
X60597Y677173D01*
X60872Y677123D01*
X61172Y677048D01*
X61472Y676948D01*
X61747Y676798D01*
X61771Y676773D01*
X61872Y676723D01*
X61996Y676623D01*
X62171Y676498D01*
X62346Y676323D01*
X62546Y676123D01*
X62721Y675898D01*
X62871Y675648D01*
X62896Y675623D01*
X62921Y675523D01*
X62996Y675373D01*
X63071Y675173D01*
X63121Y674923D01*
X63196Y674649D01*
X63221Y674324D01*
X63246Y673974D01*
X63196Y672849D01*
X57772D01*
Y672824D01*
Y672799D01*
Y672724D01*
X57797Y672624D01*
X57822Y672399D01*
X57873Y672099D01*
X57948Y671774D01*
X58047Y671449D01*
X58222Y671150D01*
X58422Y670874D01*
X58447Y670850D01*
X58547Y670775D01*
X58672Y670675D01*
X58872Y670575D01*
X59097Y670475D01*
X59372Y670375D01*
X59697Y670300D01*
X60047Y670275D01*
X60297D01*
X60472Y670300D01*
X60872Y670350D01*
X61297Y670450D01*
X61322D01*
X61397Y670500D01*
X61497Y670525D01*
X61646Y670600D01*
X61796Y670675D01*
X61996Y670775D01*
X62446Y671024D01*
X63046Y669925D01*
X63021D01*
X62971Y669875D01*
X62896Y669850D01*
X62796Y669775D01*
X62646Y669700D01*
X62496Y669625D01*
X62121Y669475D01*
X61646Y669300D01*
X61122Y669150D01*
X60572Y669050D01*
X59972Y669000D01*
X59797D01*
X59697Y669025D01*
X59547D01*
X59372Y669050D01*
X58997Y669125D01*
X58572Y669225D01*
X58097Y669400D01*
X57648Y669625D01*
X57248Y669950D01*
X57198Y670000D01*
X57098Y670125D01*
X56923Y670350D01*
X56748Y670675D01*
X56573Y671099D01*
X56398Y671624D01*
X56348Y671924D01*
X56298Y672224D01*
X56248Y672574D01*
Y672949D01*
Y672974D01*
Y672999D01*
Y673149D01*
X56273Y673374D01*
X56298Y673649D01*
X56348Y673974D01*
X56423Y674349D01*
X56523Y674698D01*
X56673Y675073D01*
X56698Y675123D01*
X56748Y675223D01*
X56848Y675423D01*
X56998Y675623D01*
X57173Y675873D01*
X57373Y676148D01*
X57622Y676398D01*
X57923Y676623D01*
X57972Y676648D01*
X58072Y676723D01*
X58247Y676823D01*
X58497Y676923D01*
X58797Y677023D01*
X59147Y677123D01*
X59547Y677198D01*
X59997Y677223D01*
X60172D01*
X60372Y677198D01*
D02*
G37*
%LPC*%
G36*
X188193Y846918D02*
X173442D01*
Y832078D01*
X188282D01*
Y846830D01*
X188193D01*
Y846918D01*
D02*
G37*
%LPD*%
G36*
X185278Y835082D02*
X185190D01*
Y834993D01*
X176445D01*
Y835082D01*
X176357D01*
Y843827D01*
X176445D01*
Y843915D01*
X185278D01*
Y835082D01*
D02*
G37*
%LPC*%
G36*
X111078Y846918D02*
X96327D01*
Y846830D01*
X96238D01*
Y832078D01*
X111078D01*
Y834640D01*
Y834728D01*
Y846918D01*
D02*
G37*
%LPD*%
G36*
X108075Y843827D02*
X108163D01*
Y835082D01*
X108075D01*
Y834993D01*
X99330D01*
Y835082D01*
X99242D01*
Y843915D01*
X108075D01*
Y843827D01*
D02*
G37*
%LPC*%
G36*
X128922Y846918D02*
X123003D01*
Y843915D01*
X128922D01*
Y841000D01*
X131837D01*
Y842325D01*
Y842413D01*
Y843915D01*
X128922D01*
Y846918D01*
D02*
G37*
G36*
X123003Y843915D02*
X120000D01*
Y841000D01*
X122915D01*
Y841088D01*
X123003D01*
Y843915D01*
D02*
G37*
G36*
X143762Y817238D02*
X140847D01*
Y817150D01*
X140758D01*
Y814323D01*
X140847D01*
Y814235D01*
X143673D01*
Y814323D01*
X143762D01*
Y817238D01*
D02*
G37*
G36*
X146588Y811320D02*
X143850D01*
Y811232D01*
X143762D01*
Y808317D01*
X146677D01*
Y805313D01*
X149592D01*
Y805402D01*
X149680D01*
Y808317D01*
X146677D01*
Y811232D01*
X146588D01*
Y811320D01*
D02*
G37*
G36*
X161517Y796480D02*
X158690D01*
Y796392D01*
X158602D01*
Y790562D01*
X158690D01*
Y790473D01*
X161340D01*
Y790562D01*
X161428D01*
Y790473D01*
X161517D01*
Y790385D01*
X161605D01*
Y790297D01*
X161517D01*
Y787558D01*
X164432D01*
Y787470D01*
X164520D01*
Y784643D01*
X164608D01*
Y784555D01*
X167523D01*
Y781640D01*
X170438D01*
Y784555D01*
X167523D01*
Y787293D01*
X167435D01*
Y787382D01*
X167523D01*
Y787558D01*
X170438D01*
Y790473D01*
X164608D01*
Y790562D01*
X164520D01*
Y793477D01*
X161605D01*
Y793565D01*
X161517D01*
Y796480D01*
D02*
G37*
G36*
X179272Y781640D02*
X176445D01*
Y781552D01*
X176357D01*
Y780227D01*
Y780138D01*
Y778725D01*
X176445D01*
Y778637D01*
X179360D01*
Y781552D01*
X179272D01*
Y781640D01*
D02*
G37*
G36*
X143762Y772718D02*
X140847D01*
Y772630D01*
X140758D01*
Y769803D01*
X140847D01*
Y769715D01*
X143673D01*
Y769803D01*
X143762D01*
Y772718D01*
D02*
G37*
G36*
X176357Y775633D02*
X167523D01*
Y775015D01*
Y774927D01*
Y766800D01*
X176357D01*
Y775633D01*
D02*
G37*
G36*
X182363Y772718D02*
X179448D01*
Y772630D01*
X179360D01*
Y766800D01*
X182363D01*
Y763797D01*
X185278D01*
Y766800D01*
X182363D01*
Y770068D01*
Y770157D01*
Y772718D01*
D02*
G37*
G36*
X146588Y766800D02*
X143850D01*
Y766712D01*
X143762D01*
Y763797D01*
X146677D01*
Y760882D01*
X146765D01*
Y760793D01*
X149592D01*
Y760882D01*
X149680D01*
Y763797D01*
X146677D01*
Y766712D01*
X146588D01*
Y766800D01*
D02*
G37*
%LPD*%
G36*
X173353Y772630D02*
X173442D01*
Y769803D01*
X173353D01*
Y769715D01*
X170527D01*
Y769803D01*
X170438D01*
Y772630D01*
X170527D01*
Y772718D01*
X173353D01*
Y772630D01*
D02*
G37*
%LPC*%
G36*
X105160Y793477D02*
X96327D01*
Y793388D01*
X96238D01*
Y790562D01*
X96327D01*
Y790473D01*
X105072D01*
Y790562D01*
X105160D01*
Y793477D01*
D02*
G37*
G36*
X105072Y787558D02*
X102245D01*
Y787470D01*
X102157D01*
Y784555D01*
X105072D01*
Y784643D01*
X105160D01*
Y787470D01*
X105072D01*
Y787558D01*
D02*
G37*
G36*
X123003Y766800D02*
X120088D01*
Y766712D01*
X120000D01*
Y763797D01*
X123003D01*
Y760882D01*
X123092D01*
Y760793D01*
X125830D01*
Y760882D01*
X125918D01*
Y763797D01*
X123003D01*
Y766800D01*
D02*
G37*
G36*
X111078Y769715D02*
X96238D01*
Y754963D01*
X96327D01*
Y754875D01*
X111078D01*
Y769715D01*
D02*
G37*
%LPD*%
G36*
X108075Y766712D02*
X108163D01*
Y757967D01*
X108075D01*
Y757878D01*
X99242D01*
Y766447D01*
Y766535D01*
Y766712D01*
X99330D01*
Y766800D01*
X108075D01*
Y766712D01*
D02*
G37*
%LPC*%
G36*
X73684Y712103D02*
X71057D01*
Y706691D01*
X73716D01*
X74001Y706722D01*
X74380Y706786D01*
X74792Y706880D01*
X75203Y707007D01*
X75615Y707165D01*
X75963Y707419D01*
X75994Y707450D01*
X76089Y707545D01*
X76248Y707735D01*
X76406Y707956D01*
X76564Y708241D01*
X76722Y708589D01*
X76817Y709001D01*
X76849Y709476D01*
Y709539D01*
Y709697D01*
X76817Y709919D01*
X76754Y710204D01*
X76659Y710520D01*
X76501Y710836D01*
X76311Y711121D01*
X76058Y711406D01*
X76026Y711438D01*
X75899Y711501D01*
X75710Y711628D01*
X75456Y711754D01*
X75140Y711881D01*
X74728Y712008D01*
X74254Y712071D01*
X73684Y712103D01*
D02*
G37*
G36*
X85774Y707893D02*
X85584D01*
X85362Y707862D01*
X85109Y707798D01*
X84824Y707735D01*
X84508Y707608D01*
X84223Y707419D01*
X83938Y707197D01*
X83906Y707165D01*
X83843Y707070D01*
X83716Y706912D01*
X83590Y706691D01*
X83432Y706406D01*
X83305Y706089D01*
X83179Y705710D01*
X83084Y705266D01*
X87989D01*
Y705361D01*
Y705425D01*
Y705583D01*
X87957Y705804D01*
X87926Y706089D01*
X87863Y706374D01*
X87736Y706691D01*
X87609Y707007D01*
X87419Y707260D01*
X87388Y707292D01*
X87324Y707355D01*
X87198Y707450D01*
X87008Y707577D01*
X86755Y707703D01*
X86502Y707798D01*
X86153Y707862D01*
X85774Y707893D01*
D02*
G37*
G36*
X53289Y730083D02*
X53099D01*
X52972Y730051D01*
X52593Y730020D01*
X52150Y729957D01*
X51643Y729893D01*
X51105Y729767D01*
X50599Y729640D01*
X50092Y729450D01*
X50029Y729418D01*
X49903Y729355D01*
X49713Y729229D01*
X49491Y729070D01*
X49269Y728880D01*
X49080Y728627D01*
X48953Y728342D01*
X48890Y727994D01*
Y727963D01*
Y727899D01*
X48921Y727773D01*
Y727646D01*
X49048Y727361D01*
X49111Y727203D01*
X49238Y727076D01*
X49269D01*
X49301Y727045D01*
X49396Y726982D01*
X49491Y726950D01*
X49649Y726887D01*
X49839Y726823D01*
X50029Y726792D01*
X50535D01*
X50852Y726855D01*
X51232Y726918D01*
X51706Y727013D01*
X52213Y727171D01*
X52751Y727393D01*
X53289Y727710D01*
Y730083D01*
D02*
G37*
G36*
X163900Y734071D02*
X163710D01*
X163489Y734039D01*
X163235Y733976D01*
X162951Y733913D01*
X162634Y733786D01*
X162349Y733596D01*
X162064Y733374D01*
X162033Y733343D01*
X161970Y733248D01*
X161843Y733090D01*
X161716Y732868D01*
X161558Y732583D01*
X161432Y732267D01*
X161305Y731887D01*
X161210Y731444D01*
X166115D01*
Y731539D01*
Y731602D01*
Y731760D01*
X166084Y731982D01*
X166052Y732267D01*
X165989Y732552D01*
X165862Y732868D01*
X165736Y733185D01*
X165546Y733438D01*
X165514Y733469D01*
X165451Y733533D01*
X165324Y733628D01*
X165134Y733754D01*
X164881Y733881D01*
X164628Y733976D01*
X164280Y734039D01*
X163900Y734071D01*
D02*
G37*
G36*
X129435D02*
X129245D01*
X129024Y734039D01*
X128770Y733976D01*
X128485Y733913D01*
X128169Y733786D01*
X127884Y733596D01*
X127599Y733374D01*
X127568Y733343D01*
X127504Y733248D01*
X127378Y733090D01*
X127251Y732868D01*
X127093Y732583D01*
X126966Y732267D01*
X126840Y731887D01*
X126745Y731444D01*
X131650D01*
Y731539D01*
Y731602D01*
Y731760D01*
X131619Y731982D01*
X131587Y732267D01*
X131524Y732552D01*
X131397Y732868D01*
X131271Y733185D01*
X131081Y733438D01*
X131049Y733469D01*
X130986Y733533D01*
X130859Y733628D01*
X130669Y733754D01*
X130416Y733881D01*
X130163Y733976D01*
X129815Y734039D01*
X129435Y734071D01*
D02*
G37*
G36*
X143876Y672874D02*
X143726D01*
X143625Y672849D01*
X143326Y672824D01*
X142976Y672774D01*
X142576Y672724D01*
X142151Y672624D01*
X141751Y672524D01*
X141351Y672374D01*
X141301Y672349D01*
X141201Y672299D01*
X141051Y672199D01*
X140876Y672074D01*
X140701Y671924D01*
X140551Y671724D01*
X140451Y671499D01*
X140401Y671224D01*
Y671199D01*
Y671150D01*
X140426Y671049D01*
Y670949D01*
X140526Y670725D01*
X140576Y670600D01*
X140676Y670500D01*
X140701D01*
X140726Y670475D01*
X140801Y670425D01*
X140876Y670400D01*
X141001Y670350D01*
X141151Y670300D01*
X141301Y670275D01*
X141701D01*
X141951Y670325D01*
X142251Y670375D01*
X142626Y670450D01*
X143026Y670575D01*
X143451Y670750D01*
X143876Y671000D01*
Y672874D01*
D02*
G37*
G36*
X68420Y675973D02*
X68220D01*
X67995Y675923D01*
X67720Y675873D01*
X67420Y675773D01*
X67145Y675648D01*
X66845Y675448D01*
X66620Y675198D01*
X66595Y675173D01*
X66545Y675073D01*
X66445Y674899D01*
X66345Y674649D01*
X66245Y674374D01*
X66145Y673999D01*
X66095Y673599D01*
X66070Y673124D01*
Y673099D01*
Y673074D01*
Y672999D01*
Y672899D01*
X66095Y672674D01*
X66145Y672374D01*
X66220Y672024D01*
X66320Y671674D01*
X66445Y671324D01*
X66645Y671000D01*
X66670Y670975D01*
X66745Y670874D01*
X66895Y670750D01*
X67070Y670625D01*
X67320Y670475D01*
X67620Y670350D01*
X67970Y670250D01*
X68370Y670225D01*
X68470D01*
X68595Y670250D01*
X68720Y670275D01*
X68895Y670325D01*
X69095Y670375D01*
X69295Y670475D01*
X69520Y670600D01*
X69744Y670750D01*
X69944Y670925D01*
X70144Y671174D01*
X70319Y671449D01*
X70469Y671774D01*
X70569Y672174D01*
X70644Y672624D01*
X70669Y673124D01*
Y673149D01*
Y673174D01*
Y673249D01*
Y673349D01*
X70644Y673574D01*
X70594Y673874D01*
X70519Y674199D01*
X70419Y674549D01*
X70294Y674899D01*
X70094Y675198D01*
X70069Y675223D01*
X69994Y675323D01*
X69869Y675448D01*
X69669Y675598D01*
X69444Y675723D01*
X69145Y675848D01*
X68820Y675948D01*
X68420Y675973D01*
D02*
G37*
G36*
X59997Y676023D02*
X59847D01*
X59672Y675998D01*
X59472Y675948D01*
X59247Y675898D01*
X58997Y675798D01*
X58772Y675648D01*
X58547Y675473D01*
X58522Y675448D01*
X58472Y675373D01*
X58372Y675248D01*
X58272Y675073D01*
X58147Y674848D01*
X58047Y674599D01*
X57948Y674299D01*
X57873Y673949D01*
X61747D01*
Y674024D01*
Y674074D01*
Y674199D01*
X61722Y674374D01*
X61697Y674599D01*
X61646Y674824D01*
X61547Y675073D01*
X61447Y675323D01*
X61297Y675523D01*
X61272Y675548D01*
X61222Y675598D01*
X61122Y675673D01*
X60972Y675773D01*
X60772Y675873D01*
X60572Y675948D01*
X60297Y675998D01*
X59997Y676023D01*
D02*
G37*
%LPD*%
D10*
X212000Y128000D02*
G03*
X308029Y128237I48000J6000D01*
G01*
X284000Y190000D02*
G03*
X300000Y190000I8000J0D01*
G01*
X358082Y144000D02*
G03*
X358082Y144000I-98082J0D01*
G01*
X226211Y186000D02*
G03*
X226211Y186000I-7211J0D01*
G01*
X173000Y626000D02*
G03*
X173000Y626000I-1000J0D01*
G01*
X374000Y563000D02*
G03*
X374000Y563000I-1000J0D01*
G01*
X411000Y559000D02*
X566000D01*
X411000Y651000D02*
X566000D01*
Y559000D02*
Y651000D01*
X411000Y559000D02*
Y651000D01*
X395000Y770000D02*
X415000D01*
X282000Y771000D02*
X302000D01*
X282000Y838000D02*
X302000D01*
X282000Y818000D02*
Y838000D01*
X395000D02*
X415000D01*
Y770000D02*
Y788000D01*
X282000Y771000D02*
Y787000D01*
X415000Y818000D02*
Y838000D01*
X451000Y559000D02*
Y604000D01*
X510000Y559000D02*
Y604000D01*
X515000Y605000D02*
Y651000D01*
X462000Y605000D02*
Y651000D01*
X411000Y605000D02*
X566000Y605000D01*
X299000Y686000D02*
X392000Y686000D01*
X294000Y681000D02*
X299000Y686000D01*
X294000Y618000D02*
X296000Y616000D01*
X396000Y620000D02*
Y682000D01*
X294000Y618000D02*
Y681000D01*
X392000Y616000D02*
X396000Y620000D01*
X392000Y686000D02*
X396000Y682000D01*
X296000Y616000D02*
X392000D01*
X111000Y498000D02*
Y581000D01*
X134000Y493000D02*
X176000D01*
X116000D02*
X134000D01*
X176000D02*
X178000Y495000D01*
X111000Y581000D02*
X118000Y588000D01*
X111000Y498000D02*
X116000Y493000D01*
X118000Y588000D02*
X173000D01*
X178000Y583000D01*
Y495000D02*
Y583000D01*
X71000Y572000D02*
X74000Y569000D01*
X28000Y461000D02*
Y568000D01*
X74000Y461000D02*
Y569000D01*
X28000Y568000D02*
X32000Y572000D01*
X28000Y461000D02*
X33000Y456000D01*
X49000Y572000D02*
X71000D01*
X69000Y456000D02*
X74000Y461000D01*
X33000Y456000D02*
X69000D01*
X32000Y572000D02*
X49000D01*
X284000Y723000D02*
X287000Y720000D01*
X183000Y613000D02*
X285000D01*
X181000Y723000D02*
X284000D01*
X181000Y615000D02*
Y723000D01*
X287000Y615000D02*
Y720000D01*
X181000Y615000D02*
X183000Y613000D01*
X285000D02*
X287000Y615000D01*
X279820Y542680D02*
Y606180D01*
X366180Y542680D02*
Y606180D01*
X279820Y542680D02*
X366180D01*
X279820Y606180D02*
X366180D01*
X433537Y829796D02*
Y833128D01*
Y831462D01*
X425206D01*
X423540Y833128D01*
Y834794D01*
X425206Y836460D01*
X423540Y826463D02*
Y823131D01*
Y824797D01*
X433537D01*
X431871Y826463D01*
X395460Y791460D02*
X388796D01*
X307460Y793128D02*
X300795D01*
X304128Y789795D02*
Y796460D01*
X354524Y79743D02*
X351055Y78814D01*
X348516Y74416D01*
X349445Y70947D01*
X351644Y69678D01*
X355113Y70607D01*
X357652Y75005D01*
X361121Y75934D01*
X363320Y74665D01*
X364249Y71196D01*
X361710Y66798D01*
X358241Y65869D01*
X354864Y85411D02*
X368058Y77793D01*
X366199Y84730D01*
X373136Y86589D01*
X359942Y94207D01*
X380754Y99783D02*
X375675Y90987D01*
X371958Y104861D01*
X369759Y106131D01*
X366290Y105202D01*
X363751Y100804D01*
X364680Y97335D01*
X300205Y702537D02*
X296872D01*
X298538D01*
Y694206D01*
X296872Y692540D01*
X295206D01*
X293540Y694206D01*
X310201Y702537D02*
X303537D01*
Y697538D01*
X306869Y699204D01*
X308535D01*
X310201Y697538D01*
Y694206D01*
X308535Y692540D01*
X305203D01*
X303537Y694206D01*
X522205Y584871D02*
X520538Y586537D01*
X517206D01*
X515540Y584871D01*
Y583204D01*
X517206Y581538D01*
X520538D01*
X522205Y579872D01*
Y578206D01*
X520538Y576540D01*
X517206D01*
X515540Y578206D01*
X525537Y586537D02*
Y576540D01*
X528869Y579872D01*
X532201Y576540D01*
Y586537D01*
X535533D02*
Y576540D01*
X540532D01*
X542198Y578206D01*
Y584871D01*
X540532Y586537D01*
X535533D01*
X545530D02*
X548863D01*
X547197D01*
Y576540D01*
X545530D01*
X548863D01*
X558859Y586537D02*
X555527D01*
X553861Y584871D01*
Y578206D01*
X555527Y576540D01*
X558859D01*
X560526Y578206D01*
Y584871D01*
X558859Y586537D01*
X464204Y584871D02*
X462538Y586537D01*
X459206D01*
X457540Y584871D01*
Y583204D01*
X459206Y581538D01*
X462538D01*
X464204Y579872D01*
Y578206D01*
X462538Y576540D01*
X459206D01*
X457540Y578206D01*
X467537Y586537D02*
Y576540D01*
X470869Y579872D01*
X474201Y576540D01*
Y586537D01*
X484198Y584871D02*
X482532Y586537D01*
X479200D01*
X477534Y584871D01*
Y578206D01*
X479200Y576540D01*
X482532D01*
X484198Y578206D01*
X487530Y586537D02*
Y576540D01*
X494195D01*
X497527Y586537D02*
Y576540D01*
Y579872D01*
X504192Y586537D01*
X499193Y581538D01*
X504192Y576540D01*
X424204Y584871D02*
X422538Y586537D01*
X419206D01*
X417540Y584871D01*
Y583204D01*
X419206Y581538D01*
X422538D01*
X424204Y579872D01*
Y578206D01*
X422538Y576540D01*
X419206D01*
X417540Y578206D01*
X427537Y586537D02*
Y576540D01*
X430869Y579872D01*
X434201Y576540D01*
Y586537D01*
X442532D02*
X439200D01*
X437533Y584871D01*
Y578206D01*
X439200Y576540D01*
X442532D01*
X444198Y578206D01*
Y584871D01*
X442532Y586537D01*
X522540Y622540D02*
Y632537D01*
X529204Y622540D01*
Y632537D01*
X532537Y622540D02*
Y632537D01*
X537535D01*
X539201Y630871D01*
Y627538D01*
X537535Y625872D01*
X532537D01*
X535869D02*
X539201Y622540D01*
X549198Y630871D02*
X547532Y632537D01*
X544200D01*
X542534Y630871D01*
Y629204D01*
X544200Y627538D01*
X547532D01*
X549198Y625872D01*
Y624206D01*
X547532Y622540D01*
X544200D01*
X542534Y624206D01*
X552530Y632537D02*
X559195D01*
X555863D01*
Y622540D01*
X469540Y627538D02*
X476204D01*
X472872Y630871D02*
Y624206D01*
X479537Y630871D02*
X481203Y632537D01*
X484535D01*
X486201Y630871D01*
Y629204D01*
X484535Y627538D01*
X482869D01*
X484535D01*
X486201Y625872D01*
Y624206D01*
X484535Y622540D01*
X481203D01*
X479537Y624206D01*
X489534Y632537D02*
Y625872D01*
X492866Y622540D01*
X496198Y625872D01*
Y632537D01*
X499530Y630871D02*
X501197Y632537D01*
X504529D01*
X506195Y630871D01*
Y629204D01*
X504529Y627538D01*
X502863D01*
X504529D01*
X506195Y625872D01*
Y624206D01*
X504529Y622540D01*
X501197D01*
X499530Y624206D01*
X429204Y630871D02*
X427538Y632537D01*
X424206D01*
X422540Y630871D01*
Y624206D01*
X424206Y622540D01*
X427538D01*
X429204Y624206D01*
Y627538D01*
X425872D01*
X432537Y622540D02*
Y632537D01*
X439201Y622540D01*
Y632537D01*
X442534D02*
Y622540D01*
X447532D01*
X449198Y624206D01*
Y630871D01*
X447532Y632537D01*
X442534D01*
X424204Y667871D02*
X422538Y669537D01*
X419206D01*
X417540Y667871D01*
Y666205D01*
X419206Y664538D01*
X422538D01*
X424204Y662872D01*
Y661206D01*
X422538Y659540D01*
X419206D01*
X417540Y661206D01*
X427537Y669537D02*
Y659540D01*
X430869Y662872D01*
X434201Y659540D01*
Y669537D01*
X437533D02*
Y659540D01*
X442532D01*
X444198Y661206D01*
Y667871D01*
X442532Y669537D01*
X437533D01*
X457527D02*
Y659540D01*
Y664538D01*
X464192D01*
Y669537D01*
Y659540D01*
X472522D02*
X469190D01*
X467524Y661206D01*
Y664538D01*
X469190Y666205D01*
X472522D01*
X474188Y664538D01*
Y662872D01*
X467524D01*
X479187Y666205D02*
X482519D01*
X484185Y664538D01*
Y659540D01*
X479187D01*
X477521Y661206D01*
X479187Y662872D01*
X484185D01*
X494182Y669537D02*
Y659540D01*
X489184D01*
X487517Y661206D01*
Y664538D01*
X489184Y666205D01*
X494182D01*
X502513Y659540D02*
X499180D01*
X497514Y661206D01*
Y664538D01*
X499180Y666205D01*
X502513D01*
X504179Y664538D01*
Y662872D01*
X497514D01*
X507511Y666205D02*
Y659540D01*
Y662872D01*
X509177Y664538D01*
X510843Y666205D01*
X512509D01*
X530837Y659540D02*
X527505Y662872D01*
Y666205D01*
X530837Y669537D01*
X542500D02*
X539168D01*
X540834D01*
Y661206D01*
X539168Y659540D01*
X537501D01*
X535835Y661206D01*
X552496Y659540D02*
X545832D01*
X552496Y666205D01*
Y667871D01*
X550830Y669537D01*
X547498D01*
X545832Y667871D01*
X555829Y659540D02*
X559161Y662872D01*
Y666205D01*
X555829Y669537D01*
X118204Y604537D02*
X114872D01*
X116538D01*
Y596206D01*
X114872Y594540D01*
X113206D01*
X111540Y596206D01*
X128201Y604537D02*
X124869Y602871D01*
X121537Y599538D01*
Y596206D01*
X123203Y594540D01*
X126535D01*
X128201Y596206D01*
Y597872D01*
X126535Y599538D01*
X121537D01*
X27540Y578540D02*
Y588537D01*
X32538D01*
X34204Y586871D01*
Y583538D01*
X32538Y581872D01*
X27540D01*
X30872D02*
X34204Y578540D01*
X44201D02*
X37537D01*
X44201Y585205D01*
Y586871D01*
X42535Y588537D01*
X39203D01*
X37537Y586871D01*
X47534D02*
X49200Y588537D01*
X52532D01*
X54198Y586871D01*
Y585205D01*
X52532Y583538D01*
X50866D01*
X52532D01*
X54198Y581872D01*
Y580206D01*
X52532Y578540D01*
X49200D01*
X47534Y580206D01*
X188329Y409998D02*
Y400002D01*
X183331D01*
X181665Y401668D01*
Y405000D01*
X183331Y406666D01*
X188329D01*
X184997D02*
X181665Y409998D01*
X171668D02*
X178332D01*
X171668Y403334D01*
Y401668D01*
X173334Y400002D01*
X176666D01*
X178332Y401668D01*
X161671Y400002D02*
X168335D01*
Y405000D01*
X165003Y403334D01*
X163337D01*
X161671Y405000D01*
Y408332D01*
X163337Y409998D01*
X166669D01*
X168335Y408332D01*
X321540Y669537D02*
X328204D01*
X324872D01*
Y659540D01*
X362540Y669537D02*
X369204D01*
X365872D01*
Y659540D01*
X372537D02*
Y669537D01*
X379201Y659540D01*
Y669537D01*
X158080Y571077D02*
X164744D01*
X161412D01*
Y561080D01*
X154080Y522077D02*
X160744D01*
X157412D01*
Y512080D01*
X164077D02*
Y522077D01*
X170741Y512080D01*
Y522077D01*
X55168Y392832D02*
X53502Y394498D01*
X50170D01*
X48504Y392832D01*
Y386168D01*
X50170Y384502D01*
X53502D01*
X55168Y386168D01*
X58501Y384502D02*
X61833D01*
X60167D01*
Y394498D01*
X58501Y392832D01*
X73496Y394498D02*
X70164Y392832D01*
X66831Y389500D01*
Y386168D01*
X68498Y384502D01*
X71830D01*
X73496Y386168D01*
Y387834D01*
X71830Y389500D01*
X66831D01*
X49460Y554540D02*
Y561204D01*
X49128Y465540D02*
Y472205D01*
X45795Y468872D02*
X52460D01*
X504169Y532332D02*
X502502Y533998D01*
X499170D01*
X497504Y532332D01*
Y525668D01*
X499170Y524002D01*
X502502D01*
X504169Y525668D01*
X507501Y524002D02*
X510833D01*
X509167D01*
Y533998D01*
X507501Y532332D01*
X515831D02*
X517498Y533998D01*
X520830D01*
X522496Y532332D01*
Y530666D01*
X520830Y529000D01*
X519164D01*
X520830D01*
X522496Y527334D01*
Y525668D01*
X520830Y524002D01*
X517498D01*
X515831Y525668D01*
X222337Y795998D02*
Y786002D01*
X227335D01*
X229002Y787668D01*
Y794332D01*
X227335Y795998D01*
X222337D01*
X238998Y794332D02*
X237332Y795998D01*
X234000D01*
X232334Y794332D01*
Y792666D01*
X234000Y791000D01*
X237332D01*
X238998Y789334D01*
Y787668D01*
X237332Y786002D01*
X234000D01*
X232334Y787668D01*
X242331Y786002D02*
X245663D01*
X243997D01*
Y795998D01*
X242331Y794332D01*
X298002Y707669D02*
X307998D01*
Y712668D01*
X306332Y714334D01*
X299668D01*
X298002Y712668D01*
Y707669D01*
X307998Y724331D02*
Y717666D01*
X301334Y724331D01*
X299668D01*
X298002Y722664D01*
Y719332D01*
X299668Y717666D01*
X460336Y778998D02*
Y770668D01*
X462002Y769002D01*
X465334D01*
X467000Y770668D01*
Y778998D01*
X470332Y769002D02*
X473665D01*
X471998D01*
Y778998D01*
X470332Y777332D01*
X512334Y768332D02*
X510668Y769998D01*
X507336D01*
X505669Y768332D01*
Y761668D01*
X507336Y760002D01*
X510668D01*
X512334Y761668D01*
X522331Y760002D02*
X515666D01*
X522331Y766666D01*
Y768332D01*
X520664Y769998D01*
X517332D01*
X515666Y768332D01*
X404668Y681334D02*
X403002Y679668D01*
Y676336D01*
X404668Y674669D01*
X411332D01*
X412998Y676336D01*
Y679668D01*
X411332Y681334D01*
X404668Y684666D02*
X403002Y686332D01*
Y689665D01*
X404668Y691331D01*
X406334D01*
X408000Y689665D01*
Y687998D01*
Y689665D01*
X409666Y691331D01*
X411332D01*
X412998Y689665D01*
Y686332D01*
X411332Y684666D01*
X354002Y707336D02*
X363998D01*
Y712334D01*
X362332Y714000D01*
X355668D01*
X354002Y712334D01*
Y707336D01*
X363998Y717332D02*
Y720665D01*
Y718998D01*
X354002D01*
X355668Y717332D01*
X558334Y314332D02*
X556668Y315998D01*
X553335D01*
X551669Y314332D01*
Y307668D01*
X553335Y306002D01*
X556668D01*
X558334Y307668D01*
X568331Y315998D02*
X564998Y314332D01*
X561666Y311000D01*
Y307668D01*
X563332Y306002D01*
X566665D01*
X568331Y307668D01*
Y309334D01*
X566665Y311000D01*
X561666D01*
X563332Y236165D02*
X564998Y237831D01*
Y241164D01*
X563332Y242830D01*
X556668D01*
X555002Y241164D01*
Y237831D01*
X556668Y236165D01*
X555002Y232833D02*
Y229501D01*
Y231167D01*
X564998D01*
X563332Y232833D01*
X555002Y224502D02*
Y221170D01*
Y222836D01*
X564998D01*
X563332Y224502D01*
X556002Y273331D02*
X565998D01*
Y268332D01*
X564332Y266666D01*
X561000D01*
X559334Y268332D01*
Y273331D01*
Y269998D02*
X556002Y266666D01*
Y258335D02*
X565998D01*
X561000Y263334D01*
Y256669D01*
X490332Y534666D02*
X491998Y536332D01*
Y539664D01*
X490332Y541331D01*
X483668D01*
X482002Y539664D01*
Y536332D01*
X483668Y534666D01*
X490332Y531334D02*
X491998Y529668D01*
Y526335D01*
X490332Y524669D01*
X488666D01*
X487000Y526335D01*
X485334Y524669D01*
X483668D01*
X482002Y526335D01*
Y529668D01*
X483668Y531334D01*
X485334D01*
X487000Y529668D01*
X488666Y531334D01*
X490332D01*
X487000Y529668D02*
Y526335D01*
X443669Y191998D02*
Y183668D01*
X445336Y182002D01*
X448668D01*
X450334Y183668D01*
Y191998D01*
X460331Y182002D02*
X453666D01*
X460331Y188666D01*
Y190332D01*
X458665Y191998D01*
X455332D01*
X453666Y190332D01*
X560334Y408332D02*
X558668Y409998D01*
X555336D01*
X553669Y408332D01*
Y401668D01*
X555336Y400002D01*
X558668D01*
X560334Y401668D01*
X568665Y400002D02*
Y409998D01*
X563666Y405000D01*
X570331D01*
X553669Y354002D02*
Y363998D01*
X558668D01*
X560334Y362332D01*
Y359000D01*
X558668Y357334D01*
X553669D01*
X557002D02*
X560334Y354002D01*
X563666Y362332D02*
X565332Y363998D01*
X568665D01*
X570331Y362332D01*
Y360666D01*
X568665Y359000D01*
X566998D01*
X568665D01*
X570331Y357334D01*
Y355668D01*
X568665Y354002D01*
X565332D01*
X563666Y355668D01*
X537169Y522332D02*
X535502Y523998D01*
X532170D01*
X530504Y522332D01*
Y515668D01*
X532170Y514002D01*
X535502D01*
X537169Y515668D01*
X540501Y514002D02*
X543833D01*
X542167D01*
Y523998D01*
X540501Y522332D01*
X555496Y514002D02*
X548831D01*
X555496Y520666D01*
Y522332D01*
X553830Y523998D01*
X550498D01*
X548831Y522332D01*
X375668Y302334D02*
X374002Y300668D01*
Y297335D01*
X375668Y295669D01*
X382332D01*
X383998Y297335D01*
Y300668D01*
X382332Y302334D01*
Y305666D02*
X383998Y307332D01*
Y310665D01*
X382332Y312331D01*
X375668D01*
X374002Y310665D01*
Y307332D01*
X375668Y305666D01*
X377334D01*
X379000Y307332D01*
Y312331D01*
X383668Y226334D02*
X382001Y224668D01*
Y221336D01*
X383668Y219669D01*
X390332D01*
X391998Y221336D01*
Y224668D01*
X390332Y226334D01*
X382001Y236331D02*
Y229666D01*
X387000D01*
X385334Y232998D01*
Y234664D01*
X387000Y236331D01*
X390332D01*
X391998Y234664D01*
Y231332D01*
X390332Y229666D01*
X439002Y312669D02*
X447332D01*
X448998Y314335D01*
Y317668D01*
X447332Y319334D01*
X439002D01*
X440668Y322666D02*
X439002Y324332D01*
Y327664D01*
X440668Y329331D01*
X442334D01*
X444000Y327664D01*
Y325998D01*
Y327664D01*
X445666Y329331D01*
X447332D01*
X448998Y327664D01*
Y324332D01*
X447332Y322666D01*
X511332Y434831D02*
X512998Y436498D01*
Y439830D01*
X511332Y441496D01*
X504668D01*
X503002Y439830D01*
Y436498D01*
X504668Y434831D01*
X503002Y431499D02*
Y428167D01*
Y429833D01*
X512998D01*
X511332Y431499D01*
Y423168D02*
X512998Y421502D01*
Y418170D01*
X511332Y416504D01*
X504668D01*
X503002Y418170D01*
Y421502D01*
X504668Y423168D01*
X511332D01*
X563002Y465331D02*
X572998D01*
Y460332D01*
X571332Y458666D01*
X568000D01*
X566334Y460332D01*
Y465331D01*
Y461998D02*
X563002Y458666D01*
X571332Y455334D02*
X572998Y453668D01*
Y450335D01*
X571332Y448669D01*
X569666D01*
X568000Y450335D01*
X566334Y448669D01*
X564668D01*
X563002Y450335D01*
Y453668D01*
X564668Y455334D01*
X566334D01*
X568000Y453668D01*
X569666Y455334D01*
X571332D01*
X568000Y453668D02*
Y450335D01*
X517002Y462664D02*
X526998D01*
Y457666D01*
X525332Y456000D01*
X522000D01*
X520334Y457666D01*
Y462664D01*
Y459332D02*
X517002Y456000D01*
Y452668D02*
Y449335D01*
Y451002D01*
X526998D01*
X525332Y452668D01*
X408168Y371334D02*
X406502Y369668D01*
Y366335D01*
X408168Y364669D01*
X414832D01*
X416498Y366335D01*
Y369668D01*
X414832Y371334D01*
X406502Y374666D02*
Y381331D01*
X408168D01*
X414832Y374666D01*
X416498D01*
X415998Y409669D02*
X406002D01*
Y414668D01*
X407668Y416334D01*
X411000D01*
X412666Y414668D01*
Y409669D01*
Y413002D02*
X415998Y416334D01*
X406002Y426331D02*
X407668Y422998D01*
X411000Y419666D01*
X414332D01*
X415998Y421332D01*
Y424665D01*
X414332Y426331D01*
X412666D01*
X411000Y424665D01*
Y419666D01*
X516002Y486331D02*
X525998D01*
Y481332D01*
X524332Y479666D01*
X521000D01*
X519334Y481332D01*
Y486331D01*
Y482998D02*
X516002Y479666D01*
X525998Y476334D02*
Y469669D01*
X524332D01*
X517668Y476334D01*
X516002D01*
X463002Y458331D02*
X472998D01*
Y453332D01*
X471332Y451666D01*
X468000D01*
X466334Y453332D01*
Y458331D01*
Y454998D02*
X463002Y451666D01*
X472998Y441669D02*
Y448334D01*
X468000D01*
X469666Y445002D01*
Y443335D01*
X468000Y441669D01*
X464668D01*
X463002Y443335D01*
Y446668D01*
X464668Y448334D01*
X396998Y263669D02*
X387002D01*
Y268668D01*
X388668Y270334D01*
X392000D01*
X393666Y268668D01*
Y263669D01*
Y267002D02*
X396998Y270334D01*
Y280331D02*
Y273666D01*
X390334Y280331D01*
X388668D01*
X387002Y278664D01*
Y275332D01*
X388668Y273666D01*
X192204Y737411D02*
X190538Y739077D01*
X187206D01*
X185540Y737411D01*
Y735744D01*
X187206Y734078D01*
X190538D01*
X192204Y732412D01*
Y730746D01*
X190538Y729080D01*
X187206D01*
X185540Y730746D01*
X195537Y739077D02*
Y729080D01*
X198869Y732412D01*
X202201Y729080D01*
Y739077D01*
X205534Y729080D02*
X208866D01*
X207200D01*
Y739077D01*
X205534Y737411D01*
X381598Y599666D02*
Y602998D01*
Y601332D01*
X373268D01*
X371602Y602998D01*
Y604664D01*
X373268Y606331D01*
X371602Y589669D02*
Y596334D01*
X378266Y589669D01*
X379932D01*
X381598Y591335D01*
Y594668D01*
X379932Y596334D01*
X117001Y425336D02*
X118668D01*
X122000Y428668D01*
X118668Y432000D01*
X117001D01*
X122000Y428668D02*
X126998D01*
Y435332D02*
Y438665D01*
Y436998D01*
X117001D01*
X118668Y435332D01*
X385998Y400331D02*
X377668D01*
X376002Y398665D01*
Y395332D01*
X377668Y393666D01*
X385998D01*
Y383669D02*
Y390334D01*
X381000D01*
X382666Y387002D01*
Y385335D01*
X381000Y383669D01*
X377668D01*
X376002Y385335D01*
Y388668D01*
X377668Y390334D01*
X247671Y568002D02*
Y577998D01*
X252669D01*
X254335Y576332D01*
Y573000D01*
X252669Y571334D01*
X247671D01*
X251003D02*
X254335Y568002D01*
X264332D02*
X257668D01*
X264332Y574666D01*
Y576332D01*
X262666Y577998D01*
X259334D01*
X257668Y576332D01*
X274329Y577998D02*
X270997Y576332D01*
X267665Y573000D01*
Y569668D01*
X269331Y568002D01*
X272663D01*
X274329Y569668D01*
Y571334D01*
X272663Y573000D01*
X267665D01*
X118668Y397336D02*
X117001Y395669D01*
Y392337D01*
X118668Y390671D01*
X125332D01*
X126998Y392337D01*
Y395669D01*
X125332Y397336D01*
X118668Y400668D02*
X117001Y402334D01*
Y405666D01*
X118668Y407332D01*
X120334D01*
X122000Y405666D01*
Y404000D01*
Y405666D01*
X123666Y407332D01*
X125332D01*
X126998Y405666D01*
Y402334D01*
X125332Y400668D01*
X118668Y410664D02*
X117001Y412331D01*
Y415663D01*
X118668Y417329D01*
X120334D01*
X122000Y415663D01*
Y413997D01*
Y415663D01*
X123666Y417329D01*
X125332D01*
X126998Y415663D01*
Y412331D01*
X125332Y410664D01*
X174335Y481332D02*
X172669Y482998D01*
X169337D01*
X167671Y481332D01*
Y474668D01*
X169337Y473002D01*
X172669D01*
X174335Y474668D01*
X177668Y481332D02*
X179334Y482998D01*
X182666D01*
X184332Y481332D01*
Y479666D01*
X182666Y478000D01*
X181000D01*
X182666D01*
X184332Y476334D01*
Y474668D01*
X182666Y473002D01*
X179334D01*
X177668Y474668D01*
X194329Y473002D02*
X187665D01*
X194329Y479666D01*
Y481332D01*
X192663Y482998D01*
X189331D01*
X187665Y481332D01*
X216664Y315668D02*
X218331Y314002D01*
X221663D01*
X223329Y315668D01*
Y322332D01*
X221663Y323998D01*
X218331D01*
X216664Y322332D01*
X206668Y323998D02*
X213332D01*
X206668Y317334D01*
Y315668D01*
X208334Y314002D01*
X211666D01*
X213332Y315668D01*
X203335D02*
X201669Y314002D01*
X198337D01*
X196671Y315668D01*
Y317334D01*
X198337Y319000D01*
X196671Y320666D01*
Y322332D01*
X198337Y323998D01*
X201669D01*
X203335Y322332D01*
Y320666D01*
X201669Y319000D01*
X203335Y317334D01*
Y315668D01*
X201669Y319000D02*
X198337D01*
X403332Y545664D02*
X404998Y547331D01*
Y550663D01*
X403332Y552329D01*
X396668D01*
X395002Y550663D01*
Y547331D01*
X396668Y545664D01*
X403332Y542332D02*
X404998Y540666D01*
Y537334D01*
X403332Y535668D01*
X401666D01*
X400000Y537334D01*
Y539000D01*
Y537334D01*
X398334Y535668D01*
X396668D01*
X395002Y537334D01*
Y540666D01*
X396668Y542332D01*
X403332Y532336D02*
X404998Y530669D01*
Y527337D01*
X403332Y525671D01*
X396668D01*
X395002Y527337D01*
Y530669D01*
X396668Y532336D01*
X403332D01*
X189668Y541002D02*
X188002Y539336D01*
Y536003D01*
X189668Y534337D01*
X196332D01*
X197998Y536003D01*
Y539336D01*
X196332Y541002D01*
X189668Y544334D02*
X188002Y546000D01*
Y549332D01*
X189668Y550998D01*
X191334D01*
X193000Y549332D01*
Y547666D01*
Y549332D01*
X194666Y550998D01*
X196332D01*
X197998Y549332D01*
Y546000D01*
X196332Y544334D01*
X197998Y554331D02*
Y557663D01*
Y555997D01*
X188002D01*
X189668Y554331D01*
X369335Y375332D02*
X367669Y376998D01*
X364337D01*
X362671Y375332D01*
Y368668D01*
X364337Y367002D01*
X367669D01*
X369335Y368668D01*
X379332Y367002D02*
X372668D01*
X379332Y373666D01*
Y375332D01*
X377666Y376998D01*
X374334D01*
X372668Y375332D01*
X382664Y368668D02*
X384331Y367002D01*
X387663D01*
X389329Y368668D01*
Y375332D01*
X387663Y376998D01*
X384331D01*
X382664Y375332D01*
Y373666D01*
X384331Y372000D01*
X389329D01*
X416332Y490998D02*
X417998Y492664D01*
Y495997D01*
X416332Y497663D01*
X409668D01*
X408002Y495997D01*
Y492664D01*
X409668Y490998D01*
X408002Y481002D02*
Y487666D01*
X414666Y481002D01*
X416332D01*
X417998Y482668D01*
Y486000D01*
X416332Y487666D01*
X408002Y477669D02*
Y474337D01*
Y476003D01*
X417998D01*
X416332Y477669D01*
X320332Y346665D02*
X321998Y348331D01*
Y351663D01*
X320332Y353329D01*
X313668D01*
X312002Y351663D01*
Y348331D01*
X313668Y346665D01*
X312002Y336668D02*
Y343332D01*
X318666Y336668D01*
X320332D01*
X321998Y338334D01*
Y341666D01*
X320332Y343332D01*
Y333335D02*
X321998Y331669D01*
Y328337D01*
X320332Y326671D01*
X313668D01*
X312002Y328337D01*
Y331669D01*
X313668Y333335D01*
X320332D01*
X210335Y600332D02*
X208669Y601998D01*
X205337D01*
X203671Y600332D01*
Y593668D01*
X205337Y592002D01*
X208669D01*
X210335Y593668D01*
X220332Y592002D02*
X213668D01*
X220332Y598666D01*
Y600332D01*
X218666Y601998D01*
X215334D01*
X213668Y600332D01*
X230329Y601998D02*
X226997Y600332D01*
X223664Y597000D01*
Y593668D01*
X225331Y592002D01*
X228663D01*
X230329Y593668D01*
Y595334D01*
X228663Y597000D01*
X223664D01*
X246671Y201252D02*
Y211248D01*
X251669D01*
X253335Y209582D01*
Y206250D01*
X251669Y204584D01*
X246671D01*
X250003D02*
X253335Y201252D01*
X263332D02*
X256668D01*
X263332Y207916D01*
Y209582D01*
X261666Y211248D01*
X258334D01*
X256668Y209582D01*
X266665D02*
X268331Y211248D01*
X271663D01*
X273329Y209582D01*
Y202918D01*
X271663Y201252D01*
X268331D01*
X266665Y202918D01*
Y209582D01*
X218332Y300331D02*
X219998Y301998D01*
Y305330D01*
X218332Y306996D01*
X211668D01*
X210002Y305330D01*
Y301998D01*
X211668Y300331D01*
X210002Y296999D02*
Y293667D01*
Y295333D01*
X219998D01*
X218332Y296999D01*
X219998Y288668D02*
Y282004D01*
X218332D01*
X211668Y288668D01*
X210002D01*
X40668Y284168D02*
X39002Y282502D01*
Y279170D01*
X40668Y277504D01*
X47332D01*
X48998Y279170D01*
Y282502D01*
X47332Y284168D01*
X48998Y287501D02*
Y290833D01*
Y289167D01*
X39002D01*
X40668Y287501D01*
X39002Y302496D02*
Y295831D01*
X44000D01*
X42334Y299164D01*
Y300830D01*
X44000Y302496D01*
X47332D01*
X48998Y300830D01*
Y297498D01*
X47332Y295831D01*
X294332Y321832D02*
X295998Y323498D01*
Y326830D01*
X294332Y328496D01*
X287668D01*
X286002Y326830D01*
Y323498D01*
X287668Y321832D01*
X286002Y318499D02*
Y315167D01*
Y316833D01*
X295998D01*
X294332Y318499D01*
X286002Y305170D02*
X295998D01*
X291000Y310168D01*
Y303504D01*
X100669Y375998D02*
Y367668D01*
X102336Y366002D01*
X105668D01*
X107334Y367668D01*
Y375998D01*
X115665Y366002D02*
Y375998D01*
X110666Y371000D01*
X117331D01*
X250002Y830329D02*
X259998D01*
Y825331D01*
X258332Y823664D01*
X255000D01*
X253334Y825331D01*
Y830329D01*
Y826997D02*
X250002Y823664D01*
Y813668D02*
Y820332D01*
X256666Y813668D01*
X258332D01*
X259998Y815334D01*
Y818666D01*
X258332Y820332D01*
X250002Y803671D02*
Y810335D01*
X256666Y803671D01*
X258332D01*
X259998Y805337D01*
Y808669D01*
X258332Y810335D01*
X256002Y356663D02*
X265998D01*
Y351665D01*
X264332Y349998D01*
X261000D01*
X259334Y351665D01*
Y356663D01*
Y353331D02*
X256002Y349998D01*
Y340002D02*
Y346666D01*
X262666Y340002D01*
X264332D01*
X265998Y341668D01*
Y345000D01*
X264332Y346666D01*
X256002Y336669D02*
Y333337D01*
Y335003D01*
X265998D01*
X264332Y336669D01*
X317677Y20423D02*
X312679Y29081D01*
X317008Y31580D01*
X319284Y30970D01*
X320950Y28084D01*
X320340Y25808D01*
X316011Y23309D01*
X318897Y24975D02*
X323449Y23756D01*
X326335Y25422D02*
X329221Y27088D01*
X327778Y26255D01*
X322779Y34912D01*
X322169Y32636D01*
X332716Y31030D02*
X334992Y30420D01*
X337878Y32086D01*
X338488Y34362D01*
X335156Y40134D01*
X332880Y40744D01*
X329994Y39077D01*
X329384Y36802D01*
X330217Y35359D01*
X332493Y34749D01*
X336822Y37248D01*
X248504Y9002D02*
Y18998D01*
X253502D01*
X255168Y17332D01*
Y14000D01*
X253502Y12334D01*
X248504D01*
X251836D02*
X255168Y9002D01*
X258501D02*
X261833D01*
X260167D01*
Y18998D01*
X258501Y17332D01*
X266831D02*
X268498Y18998D01*
X271830D01*
X273496Y17332D01*
Y15666D01*
X271830Y14000D01*
X273496Y12334D01*
Y10668D01*
X271830Y9002D01*
X268498D01*
X266831Y10668D01*
Y12334D01*
X268498Y14000D01*
X266831Y15666D01*
Y17332D01*
X268498Y14000D02*
X271830D01*
X182679Y32919D02*
X187677Y41577D01*
X192006Y39077D01*
X192616Y36802D01*
X190950Y33916D01*
X188674Y33306D01*
X184345Y35805D01*
X187231Y34139D02*
X188451Y29587D01*
X191336Y27921D02*
X194222Y26255D01*
X192779Y27088D01*
X197778Y35745D01*
X195502Y35135D01*
X203549Y32413D02*
X209321Y29081D01*
X208488Y27638D01*
X199384Y25198D01*
X198551Y23756D01*
X136423Y87323D02*
X145081Y92321D01*
X147580Y87992D01*
X146970Y85716D01*
X144084Y84050D01*
X141808Y84660D01*
X139309Y88989D01*
X140975Y86103D02*
X139755Y81551D01*
X141422Y78665D02*
X143088Y75779D01*
X142255Y77222D01*
X150912Y82221D01*
X148636Y82830D01*
X157577Y70677D02*
X154468Y72730D01*
X149916Y73950D01*
X147030Y72284D01*
X146420Y70008D01*
X148086Y67122D01*
X150362Y66512D01*
X151805Y67345D01*
X152415Y69621D01*
X149916Y73950D01*
X135998Y132504D02*
X126002D01*
Y137502D01*
X127668Y139169D01*
X131000D01*
X132666Y137502D01*
Y132504D01*
Y135836D02*
X135998Y139169D01*
Y142501D02*
Y145833D01*
Y144167D01*
X126002D01*
X127668Y142501D01*
X126002Y157496D02*
Y150831D01*
X131000D01*
X129334Y154164D01*
Y155830D01*
X131000Y157496D01*
X134332D01*
X135998Y155830D01*
Y152498D01*
X134332Y150831D01*
X145492Y196679D02*
X136835Y201677D01*
X139334Y206006D01*
X141610Y206616D01*
X144496Y204950D01*
X145106Y202674D01*
X142606Y198345D01*
X144272Y201231D02*
X148824Y202451D01*
X150491Y205336D02*
X152157Y208222D01*
X151324Y206779D01*
X142666Y211778D01*
X143276Y209502D01*
X157155Y216880D02*
X148498Y221878D01*
X150327Y215050D01*
X153659Y220822D01*
X188677Y246423D02*
X183679Y255081D01*
X188008Y257580D01*
X190284Y256970D01*
X191950Y254084D01*
X191340Y251808D01*
X187011Y249309D01*
X189897Y250975D02*
X194449Y249755D01*
X197335Y251422D02*
X200221Y253088D01*
X198778Y252255D01*
X193779Y260912D01*
X193169Y258636D01*
X200384Y262801D02*
X200994Y265077D01*
X203880Y266744D01*
X206156Y266134D01*
X206989Y264691D01*
X206379Y262415D01*
X204936Y261582D01*
X206379Y262415D01*
X208655Y261805D01*
X209488Y260362D01*
X208878Y258086D01*
X205992Y256420D01*
X203716Y257030D01*
X248771Y269002D02*
Y278998D01*
X253769D01*
X255436Y277332D01*
Y274000D01*
X253769Y272334D01*
X248771D01*
X252103D02*
X255436Y269002D01*
X258768D02*
X262100D01*
X260434D01*
Y278998D01*
X258768Y277332D01*
X273763Y269002D02*
X267099D01*
X273763Y275666D01*
Y277332D01*
X272097Y278998D01*
X268765D01*
X267099Y277332D01*
X314122Y258086D02*
X319120Y266744D01*
X323449Y264244D01*
X324059Y261968D01*
X322393Y259083D01*
X320117Y258473D01*
X315788Y260972D01*
X318674Y259306D02*
X319893Y254754D01*
X322779Y253088D02*
X325665Y251422D01*
X324222Y252255D01*
X329221Y260912D01*
X326945Y260302D01*
X329994Y248922D02*
X332880Y247256D01*
X331437Y248089D01*
X336435Y256747D01*
X334159Y256137D01*
X361176Y218760D02*
X369834Y223758D01*
X372333Y219429D01*
X371723Y217153D01*
X368838Y215487D01*
X366562Y216097D01*
X364062Y220426D01*
X365728Y217540D02*
X364509Y212988D01*
X366175Y210102D02*
X367841Y207216D01*
X367008Y208659D01*
X375666Y213658D01*
X373390Y214267D01*
X377555Y207053D02*
X379831Y206443D01*
X381497Y203557D01*
X380887Y201281D01*
X375115Y197949D01*
X372840Y198559D01*
X371173Y201445D01*
X371783Y203721D01*
X377555Y207053D01*
X385001Y150331D02*
X394998D01*
Y145332D01*
X393332Y143666D01*
X390000D01*
X388334Y145332D01*
Y150331D01*
Y146998D02*
X385001Y143666D01*
X386668Y140334D02*
X385001Y138668D01*
Y135335D01*
X386668Y133669D01*
X393332D01*
X394998Y135335D01*
Y138668D01*
X393332Y140334D01*
X391666D01*
X390000Y138668D01*
Y133669D01*
D11*
X51250Y377500D02*
G03*
X51250Y377500I-1250J0D01*
G01*
X331250Y692000D02*
G03*
X331250Y692000I-1250J0D01*
G01*
X411000Y754250D02*
G03*
X411000Y754250I-1250J0D01*
G01*
X385250Y692000D02*
G03*
X385250Y692000I-1250J0D01*
G01*
X508350Y196900D02*
G03*
X508350Y196900I-1250J0D01*
G01*
X464050Y410800D02*
G03*
X464050Y410800I-1250J0D01*
G01*
X173750Y442000D02*
G03*
X173750Y442000I-1250J0D01*
G01*
X166350Y258900D02*
G03*
X166350Y258900I-1250J0D01*
G01*
D12*
X222999Y766491D02*
G03*
X223444Y735202I11001J-15491D01*
G01*
X244556D02*
G03*
X245001Y766491I-10556J15798D01*
G01*
X475350Y197000D02*
G03*
X462650Y197000I-6350J0D01*
G01*
X494550Y410700D02*
G03*
X507250Y410700I6350J0D01*
G01*
X133350Y259000D02*
G03*
X120650Y259000I-6350J0D01*
G01*
X184500Y423750D02*
Y426250D01*
X175500Y423750D02*
Y426250D01*
X27500Y363500D02*
X38250D01*
X61750D02*
X72500D01*
X62000Y318500D02*
X72500Y328500D01*
X27500D02*
X38000Y318500D01*
X27500Y328500D02*
Y363500D01*
X72500Y328500D02*
Y363500D01*
X519750Y495000D02*
Y517000D01*
X498250Y495000D02*
Y517000D01*
X231500Y777200D02*
X236500D01*
X234000Y774700D02*
Y779700D01*
X244750Y804939D02*
Y829061D01*
X223250Y804939D02*
Y829061D01*
X315400Y707000D02*
X317750D01*
X342250D02*
X344600D01*
Y753000D01*
X315400D02*
X317750D01*
X342250D02*
X344600D01*
X315400Y707000D02*
Y753000D01*
X441500Y763500D02*
X476500D01*
Y698500D02*
Y763500D01*
X441500Y698500D02*
X476500D01*
X441500D02*
Y763500D01*
X521250Y740250D02*
Y741750D01*
X506750Y740250D02*
Y741750D01*
X369400Y707000D02*
X371750D01*
X396250D02*
X398600D01*
Y753000D01*
X369400D02*
X371750D01*
X396250D02*
X398600D01*
X369400Y707000D02*
Y753000D01*
X538000Y279250D02*
X560000D01*
X538000Y300750D02*
X560000D01*
X532250Y231500D02*
Y232500D01*
X545750Y231500D02*
Y232500D01*
X537000Y259750D02*
X539000D01*
X537000Y270250D02*
X539000D01*
X425500Y541500D02*
X476500D01*
X425500Y466500D02*
Y541500D01*
Y466500D02*
X476500D01*
Y541500D01*
X495500Y197000D02*
Y299000D01*
X442500Y197000D02*
Y299000D01*
X475350Y197000D02*
X495500D01*
X442500D02*
X462650D01*
X442500Y299000D02*
X495500D01*
X572750Y370000D02*
Y392000D01*
X551250Y370000D02*
Y392000D01*
X567250Y337000D02*
Y339000D01*
X556750Y337000D02*
Y339000D01*
X391000Y293250D02*
X413000D01*
X391000Y314750D02*
X413000D01*
X397250Y217000D02*
Y239000D01*
X418750Y217000D02*
Y239000D01*
X474400Y308700D02*
X527400D01*
X507250Y410700D02*
X527400D01*
X474400D02*
X494550D01*
X527400Y308700D02*
Y410700D01*
X474400Y308700D02*
Y410700D01*
X545000Y450000D02*
Y464000D01*
X497000Y447959D02*
Y462041D01*
X424000Y361250D02*
X446000D01*
X424000Y382750D02*
X446000D01*
X420469Y405750D02*
X445531D01*
X420469Y428250D02*
X445531D01*
X498000Y471000D02*
Y485000D01*
X433469Y437750D02*
X458531D01*
X433469Y460250D02*
X458531D01*
X415750Y269750D02*
Y274250D01*
X402250Y269750D02*
Y274250D01*
X133500Y395750D02*
X150500D01*
X133500Y412250D02*
X150500D01*
X172750Y448500D02*
Y465500D01*
X189250Y448500D02*
Y465500D01*
X273750Y538939D02*
Y563061D01*
X252250Y538939D02*
Y563061D01*
X224750Y330500D02*
Y352500D01*
X203250Y330500D02*
Y352500D01*
X368250Y515000D02*
Y537000D01*
X389750Y515000D02*
Y537000D01*
X156938Y204500D02*
X169062Y197500D01*
X261000Y24000D02*
X261000Y38000D01*
X155938Y84500D02*
X168062Y91500D01*
X387750Y493000D02*
X392250D01*
X387750Y479000D02*
X392250D01*
X356000Y361750D02*
X378000D01*
X356000Y340250D02*
X378000D01*
X257000Y327750D02*
X279000D01*
X257000Y306250D02*
X279000D01*
X261000Y249000D02*
X261000Y263000D01*
X349938Y198500D02*
X362062Y205500D01*
X342000Y338250D02*
Y342750D01*
X328000Y338250D02*
Y342750D01*
X250750Y328939D02*
Y353061D01*
X229250Y328939D02*
Y353061D01*
X313500Y52062D02*
X320500Y39938D01*
X216250Y570750D02*
X217750D01*
X216250Y585250D02*
X217750D01*
X207500Y541250D02*
X229500D01*
X207500Y562750D02*
X229500D01*
X201500Y248062D02*
X208500Y235938D01*
X200500Y39938D02*
X207500Y52062D01*
X141000Y145000D02*
X155000Y145000D01*
X313500Y234938D02*
X320500Y247062D01*
X366000Y142000D02*
X380000Y142000D01*
X100500Y361000D02*
X153500D01*
X100500Y259000D02*
X120650D01*
X133350D02*
X153500D01*
X100500D02*
Y361000D01*
X153500Y259000D02*
Y361000D01*
X54250Y279000D02*
Y301000D01*
X75750Y279000D02*
Y301000D01*
X183250Y283500D02*
Y305500D01*
X204750Y283500D02*
Y305500D01*
D13*
X488500Y207000D02*
G03*
X488500Y207000I-3000J0D01*
G01*
X487400Y400700D02*
G03*
X487400Y400700I-3000J0D01*
G01*
X146500Y269000D02*
G03*
X146500Y269000I-3000J0D01*
G01*
D14*
X212953Y518263D02*
X220492D01*
X357479Y510724D02*
Y518263D01*
X349940Y373737D02*
X357479D01*
X212953D02*
Y381276D01*
X349940Y518263D02*
X357479D01*
Y373737D02*
Y381276D01*
X212953Y373737D02*
X220492D01*
X212953Y510724D02*
Y518263D01*
D15*
X132500Y451500D02*
X165500D01*
X132500Y416500D02*
X165500D01*
D16*
X200216Y531580D02*
X208680Y523116D01*
X200216D02*
X208680Y531580D01*
X200216Y527348D02*
X208680D01*
X204448Y523116D02*
Y531580D01*
M02*
